<?xml version="1.0" encoding="UTF-8" standalone="no"?>
<svg
   xmlns:dc="http://purl.org/dc/elements/1.1/"
   xmlns:cc="http://creativecommons.org/ns#"
   xmlns:rdf="http://www.w3.org/1999/02/22-rdf-syntax-ns#"
   xmlns:svg="http://www.w3.org/2000/svg"
   xmlns="http://www.w3.org/2000/svg"
   xmlns:sodipodi="http://sodipodi.sourceforge.net/DTD/sodipodi-0.dtd"
   xmlns:inkscape="http://www.inkscape.org/namespaces/inkscape"
   id="svg8"
   version="1.1"
   sodipodi:docname="title.svg"
   inkscape:version="0.92.3 (2405546, 2018-03-11)">
  <metadata
     id="metadata29">
    <rdf:RDF>
      <cc:Work
         rdf:about="">
        <dc:format>image/svg+xml</dc:format>
        <dc:type
           rdf:resource="http://purl.org/dc/dcmitype/StillImage" />
      </cc:Work>
    </rdf:RDF>
  </metadata>
  <sodipodi:namedview
     pagecolor="#ffffff"
     bordercolor="#666666"
     borderopacity="1"
     objecttolerance="10"
     gridtolerance="10"
     guidetolerance="10"
     inkscape:pageopacity="0"
     inkscape:pageshadow="2"
     inkscape:window-width="1459"
     inkscape:window-height="758"
     id="namedview27"
     showgrid="false"
     inkscape:measure-start="0,0"
     inkscape:measure-end="0,0"
     inkscape:zoom="2.36"
     inkscape:cx="31.181403"
     inkscape:cy="80.113313"
     inkscape:window-x="-8"
     inkscape:window-y="-8"
     inkscape:window-maximized="1"
     inkscape:current-layer="layer1" />
  <defs
     id="defs2" />
  <g
     inkscape:label="Layer 1"
     inkscape:groupmode="layer"
     id="layer1">
    <path
       style="fill:#000080;stroke-width:0.41508764"
       d="m 256.23838,31.956709 c 1.29693,0.314041 2.56674,0.708631 3.88531,0.933959 0.94515,0.110249 1.88016,0.143018 2.81471,0.321184 0.8643,0.171289 1.745,0.210974 2.62361,0.237317 1.07358,0.02154 2.14749,0.02154 3.22125,0.02154 1.11016,-0.0049 2.2203,-0.0012 3.33046,-0.002 1.27401,0.0049 2.548,4.04e-4 3.82201,0.0024 1.26286,-0.0024 2.52571,-0.0024 3.78857,-2.6e-5 1.32167,0.0049 2.64331,-0.002 3.96497,-8.05e-4 1.26168,-2.87e-4 2.52336,-0.0017 3.78504,-2.7e-5 1.10346,0.04774 2.20187,-0.08765 3.26953,-0.358601 1.01226,-0.202167 1.92717,-0.68725 2.9023,-1.002353 0,0 -4.93811,3.790642 -4.93811,3.790642 v 0 c -0.96387,0.362948 -1.92104,0.756692 -2.94347,0.93586 -1.10348,0.19767 -2.21243,0.296467 -3.33566,0.242041 -1.26166,0.0015 -2.52331,2.38e-4 -3.78499,-4.9e-5 -1.32074,0.0012 -2.64148,-0.0049 -3.96224,-8.05e-4 -1.26284,0.0024 -2.52568,0.0024 -3.78855,-2.6e-5 -1.27748,0.0024 -2.55498,-0.0015 -3.83248,0.0049 -1.11095,4.04e-4 -2.22187,0.0072 -3.33282,0.0024 -1.08167,-8.31e-4 -2.16377,0.0049 -3.24495,-0.03288 -0.90021,-0.04135 -1.7968,-0.119963 -2.6807,-0.301569 -0.92985,-0.148724 -1.87826,-0.142072 -2.80159,-0.341518 -1.31906,-0.277493 -2.60015,-0.698294 -3.92566,-0.946549 0,0 5.16346,-3.505095 5.16346,-3.505095 z"
       id="path3"
       inkscape:connector-curvature="0" />
    <path
       style="fill:#000080;stroke-width:0.41508764"
       d="m 256.43696,35.136271 c -0.15372,1.278806 -0.30516,2.55341 -0.5225,3.823687 -0.20572,1.002663 -0.20833,2.027089 -0.31057,3.040512 -0.18364,0.924174 -0.29813,1.855567 -0.35731,2.794802 -0.13255,1.01763 -0.3145,2.024118 -0.39628,3.048068 -0.0363,1.4079 -0.21785,2.804658 -0.34099,4.206383 -0.0644,1.411581 -0.19907,2.813873 -0.35244,4.218164 -0.0872,1.512759 -0.32194,3.009701 -0.47703,4.515858 -0.14419,1.478075 -0.36106,2.946247 -0.48256,4.427172 -0.0447,1.26508 -0.14491,2.519108 -0.30471,3.774754 -0.13447,1.132399 -0.18864,2.271492 -0.21713,3.410543 -0.0117,0.882882 0.0166,1.761656 -0.11142,2.637248 -0.15776,0.811351 -0.24201,1.631732 -0.28808,2.455676 -0.0314,0.687987 -0.0336,1.376803 -0.0363,2.065383 0,0 -5.58884,2.800811 -5.58884,2.800811 v 0 c 8.3e-4,-0.696729 0.001,-1.393625 0.0238,-2.09009 0.0344,-0.844233 0.0924,-1.688844 0.25701,-2.519795 0.15942,-0.852454 0.16819,-1.699204 0.15893,-2.566337 0.0314,-1.15912 0.0941,-2.317319 0.21758,-3.470857 0.12994,-1.253677 0.30989,-2.49806 0.31994,-3.761926 0.13043,-1.483729 0.3162,-2.960689 0.48416,-4.43955 0.15345,-1.507868 0.39435,-3.004142 0.47995,-4.517903 0.13636,-1.402983 0.29718,-2.798978 0.35263,-4.208307 0.12378,-1.394192 0.31041,-2.783822 0.32031,-4.184787 0.0644,-1.021122 0.1663,-2.034047 0.39006,-3.035236 0.0485,-0.95311 0.11308,-1.906193 0.32141,-2.841078 0.2112,-1.004659 0.0908,-2.057095 0.32584,-3.063439 0.22688,-1.256051 0.45284,-2.506896 0.50943,-3.785159 0,0 5.62531,-2.734597 5.62531,-2.734597 z"
       id="path5"
       inkscape:connector-curvature="0" />
    <path
       style="fill:#000080;stroke-width:0.41508764"
       d="m 253.23616,80.046824 c 1.37381,-0.06985 2.71108,0.172459 4.05052,0.430253 1.27918,0.183648 2.46988,0.693544 3.72163,0.993305 1.19718,0.319257 2.40382,0.60878 3.59173,0.959592 1.37061,0.460755 2.78015,0.808025 4.20166,1.07802 1.5386,0.331275 3.09978,0.52744 4.64998,0.794483 1.9332,0.347754 3.8575,0.728326 5.81094,0.949972 1.58425,0.08553 3.15374,0.276246 4.73093,0.434718 1.34599,0.128995 2.69822,0.168453 4.04973,0.186028 0.98133,-0.03553 1.93753,0.0072 2.9051,0.157758 0.77786,0.127105 1.56353,0.187918 2.3502,0.227338 0,0 -5.09371,3.593442 -5.09371,3.593442 v 0 c -0.79365,-0.05987 -1.58396,-0.148459 -2.37061,-0.26948 -0.94873,-0.113575 -1.90162,-0.07793 -2.85571,-0.10405 -1.35178,-0.04063 -2.70352,-0.10715 -4.04883,-0.24824 -1.56856,-0.162973 -3.13779,-0.309467 -4.70698,-0.465509 -1.96786,-0.252359 -3.90892,-0.646601 -5.86921,-0.948782 -1.552,-0.272013 -3.11406,-0.484585 -4.65635,-0.810263 -1.43256,-0.304516 -2.85186,-0.664584 -4.24807,-1.10448 -1.19465,-0.321902 -2.38491,-0.658291 -3.5891,-0.944772 -1.22179,-0.339817 -2.41277,-0.799449 -3.67747,-0.971709 -1.33034,-0.242267 -2.66613,-0.397587 -4.0227,-0.307729 0,0 5.07632,-3.629695 5.07632,-3.629695 z"
       id="path7"
       inkscape:connector-curvature="0" />
    <path
       style="fill:#008000;stroke-width:0.41508764"
       d="m 265.9161,57.584704 c 1.28465,0.02381 2.56961,0.01172 3.85436,0.0072 0.95185,-0.128277 1.88391,-0.317253 2.82022,-0.516155 0.93484,-0.209045 1.91348,-0.372548 2.73239,-0.882742 0.37111,-0.190299 0.74702,-0.370054 1.12463,-0.547181 0.12899,-0.06059 0.51792,-0.235654 0.3945,-0.164863 -7.66513,4.39703 -6.51748,3.714247 -4.69475,2.622924 0.66051,-0.453702 1.33125,-0.891462 1.99098,-1.345992 0.51243,-0.369033 0.95575,-0.814609 1.42765,-1.229087 0.45496,-0.460944 0.92094,-0.913077 1.35656,-1.392314 0.40388,-0.544475 0.83181,-1.069632 1.25493,-1.599662 0.49601,-0.576283 0.78684,-1.283894 1.08774,-1.970574 0.27484,-0.66297 0.62662,-1.295603 1.00599,-1.905906 0.22023,-0.461941 0.44429,-0.922295 0.65301,-1.389414 0,0 5.6967,-2.597647 5.6967,-2.597647 v 0 c -0.17843,0.503467 -0.44909,0.952131 -0.62601,1.454105 -0.29412,0.633325 -0.72569,1.201531 -1.03383,1.833687 -0.2519,0.746997 -0.6142,1.471283 -1.01062,2.151216 -0.43498,0.516178 -0.82668,1.054689 -1.26197,1.565594 -0.33562,0.563788 -0.85214,1.008177 -1.31793,1.463467 -0.3992,0.493803 -0.91657,0.903076 -1.40638,1.305464 -0.58795,0.554997 -1.31875,0.927284 -1.98131,1.389607 -2.24348,1.817272 -4.98179,2.919069 -7.55378,4.214936 -0.9051,0.356523 -1.87094,0.544044 -2.8201,0.751983 -0.94878,0.211426 -1.91988,0.361663 -2.8922,0.401888 -1.29233,-0.0049 -2.58484,-0.01436 -3.87707,0.0072 0,0 5.07629,-3.629672 5.07629,-3.629672 z"
       id="path9"
       inkscape:connector-curvature="0" />
    <path
       style="fill:#008000;stroke-width:0.41508764"
       d="m 266.38237,58.162484 c 1.34646,0.26521 2.65917,0.652921 3.97618,1.030031 1.19055,0.292573 2.3387,0.731792 3.49231,1.140926 1.10701,0.359471 2.09933,0.948499 3.14782,1.432513 0.80846,0.162028 1.47742,0.62344 2.22593,0.929824 0.69927,0.451589 1.44199,0.822497 2.17388,1.223765 0.8907,0.490284 1.76907,0.993517 2.6359,1.524639 0.31948,0.363704 0.80928,0.499907 1.16377,0.813611 0.16415,0.145399 0.3041,0.315364 0.4642,0.464984 0.3673,0.498505 0.70921,1.015253 1.06638,1.522337 0.3642,0.564143 0.66865,1.153466 0.93952,1.766883 0.2643,0.409796 0.46306,0.846274 0.62783,1.30204 0,0 -5.49953,2.986348 -5.49953,2.986348 v 0 c -0.14752,-0.445576 -0.34829,-0.861146 -0.6018,-1.259282 -0.25425,-0.575047 -0.54683,-1.124341 -0.88697,-1.654038 -0.33804,-0.471708 -0.6468,-0.96463 -1.0034,-1.420157 -0.47143,-0.454889 -1.02345,-0.787053 -1.54495,-1.184353 -0.84133,-0.54198 -1.7212,-1.013261 -2.60116,-1.491167 -0.73574,-0.373795 -1.4356,-0.79691 -2.16407,-1.178793 -0.73227,-0.347905 -1.45691,-0.689129 -2.22469,-0.957101 -1.00839,-0.514681 -2.00714,-1.031573 -3.09254,-1.380461 -1.1487,-0.391151 -2.27858,-0.83822 -3.46217,-1.121851 -1.31715,-0.387038 -2.64349,-0.737279 -3.99592,-0.985606 0,0 5.16348,-3.505092 5.16348,-3.505092 z"
       id="path11"
       inkscape:connector-curvature="0" />
    <path
       style="fill:#008000;stroke-width:0.41508764"
       d="m 273.10144,57.584704 c 1.28461,0.02381 2.56959,0.01172 3.85434,0.0072 0.96739,-0.0024 1.93477,-0.0072 2.90216,-0.0049 0.99244,-3.59e-4 1.98489,8.31e-4 2.97731,0.0016 1.05467,-0.0049 2.10931,0.0015 3.16396,0.0024 1.1051,-0.0016 2.21017,-8.32e-4 3.31527,-0.0024 0.99951,-0.0024 1.99901,1.4e-4 2.99854,-0.0012 1.11543,0.0049 2.23087,0.0016 3.34633,0.0049 1.03804,-2.61e-4 2.07607,-0.0024 3.11411,-0.0072 0.97919,0.0049 1.95836,0.0012 2.93755,0 0.87046,-0.0012 1.74094,-0.0015 2.61142,-0.0015 0.84483,-1.44e-4 1.68966,-1.21e-4 2.53448,-1.21e-4 0.74403,-0.02457 1.46055,-0.255799 2.20578,-0.338117 0.87332,-0.211918 1.66887,-0.619899 2.4725,-1.008623 0,0 -4.89227,3.832527 -4.89227,3.832527 v 0 c -0.84267,0.37338 -1.67478,0.781799 -2.60884,0.877489 -0.74733,0.123062 -1.48539,0.32247 -2.25116,0.264756 -0.84471,0 -1.68946,2.3e-5 -2.53417,-1.21e-4 -0.86882,-2.11e-4 -1.73766,-4.27e-4 -2.60648,-0.0016 -0.97919,-0.0012 -1.95841,-0.0049 -2.9376,2.6e-5 -1.03276,-0.0015 -2.06548,-0.0049 -3.09824,-0.0072 -1.11935,0.0024 -2.23871,-4.04e-4 -3.35806,0.0049 -0.99839,-0.0012 -1.9968,0.0015 -2.99519,-0.0012 -1.10225,-0.0024 -2.2045,-0.0013 -3.30675,-0.0024 -1.05749,8.05e-4 -2.11494,0.0072 -3.17241,0.0024 -0.99401,8.08e-4 -1.98803,0.0015 -2.98207,0.0015 -0.96325,0.0024 -1.9265,-0.0012 -2.88976,-0.0049 -1.29232,-0.0049 -2.58486,-0.01436 -3.87707,0.0072 0,0 5.07632,-3.629669 5.07632,-3.629669 z"
       id="path13"
       inkscape:connector-curvature="0" />
    <path
       style="fill:#5599ff;stroke-width:0.62855518"
       d="m 287.53558,33.289064 c 0.29598,-0.99473 0.74491,-1.933012 1.16312,-2.880181 0.31903,-0.874756 0.72934,-1.706588 1.10521,-2.557043 0.3512,-0.902483 0.7771,-1.763988 1.22287,-2.622092 0.3191,-0.655272 0.53128,-1.354949 0.75909,-2.045261 0.22378,-0.543571 0.45662,-1.085314 0.70784,-1.617074 0.24979,-0.630236 0.45313,-1.276838 0.66637,-1.919925 0.27866,-0.722978 0.6161,-1.419352 0.89348,-2.144586 0.25818,-0.700982 0.50392,-1.405217 0.7684,-2.103749 0.22522,-0.468598 0.38366,-0.963682 0.58334,-1.442442 0.17079,-0.493636 0.31944,-0.985107 0.57201,-1.445151 0.3558,-0.416308 0.542,-0.885211 0.64059,-1.416692 0.0829,-0.519027 0.25043,-1.014372 0.44396,-1.5005476 0.13088,-0.5139968 0.37929,-0.9808554 0.59079,-1.4631835 0.22213,-0.5391534 0.23377,-1.1269757 0.36265,-1.6890896 0.11758,-0.5222589 0.20931,-1.0447558 0.35913,-1.5591873 0.11879,-0.5097561 0.30384,-0.9982827 0.44767,-1.5012282 0.21142,-0.5670651 0.31086,-1.1594266 0.36733,-1.7590675 0.0265,-0.66149284 0.15987,-1.31255042 0.33842,-1.94814594 0.19124,-0.60372656 0.26917,-1.22990346 0.31245,-1.85891136 0.0815,-0.639787 0.21286,-1.2702348 0.28021,-1.9122971 0.0886,-0.5532434 0.23966,-1.0905145 0.31197,-1.6471633 0.0637,-0.6060661 0.0665,-1.2162518 0.0708,-1.8249787 0.002,-0.6346506 3.5e-4,-1.2693013 -4.8e-4,-1.9039557 -6.2e-4,-0.6353232 -10e-4,-1.2706502 -10e-4,-1.9059662 -10e-5,-0.634968 -7e-5,-1.269933 -7e-5,-1.904901 0,-0.63493 0,-1.269864 0,-1.904798 0,-0.634934 0,-1.269872 0,-1.904806 0,-0.634935 0,-1.269876 0,-1.90481 0,-0.634938 0,-1.269872 0,-1.904814 0,-0.634934 0,-1.269868 0,-1.904806 -0.0791,-0.515959 -0.1468,-1.042099 -0.27296,-1.549323 -0.14778,-0.53534 -0.30051,-1.069141 -0.44417,-1.605732 -0.0867,-0.572704 -0.27179,-1.120838 -0.39895,-1.684327 -0.12616,-0.465464 -0.40493,-0.855738 -0.57072,-1.306167 -0.22711,-0.434302 -0.35139,-0.907185 -0.53084,-1.360895 -0.0336,-0.05612 -0.0594,-0.117467 -0.10023,-0.168453 -0.0824,-0.102954 -0.19767,-0.176315 -0.28203,-0.27772 -0.15893,-0.190941 -0.26109,-0.414134 -0.394,-0.622291 -0.2646,-0.405661 -0.51877,-0.826579 -0.81019,-1.214585 -0.34843,-0.392334 -0.57787,-0.839622 -0.81819,-1.300301 -0.29518,-0.381702 -0.67402,-0.663081 -0.95453,-1.058041 -0.34934,-0.464194 -0.83476,-0.771972 -1.19502,-1.227368 -0.3883,-0.40964 -0.77933,-0.804978 -1.16093,-1.220961 -0.38464,-0.381082 -0.81717,-0.702448 -1.19193,-1.095571 -0.35547,-0.394356 -0.83373,-0.631057 -1.18998,-1.018983 -0.35225,-0.385055 -0.7202,-0.751238 -1.12834,-1.079248 -0.50409,-0.419108 -0.97135,-0.881019 -1.47254,-1.302645 -0.523,-0.254097 -0.90923,-0.694053 -1.39716,-0.996876 -0.48981,-0.289021 -0.83314,-0.713492 -1.20628,-1.128752 -0.4632,-0.257046 -0.83167,-0.613161 -1.21619,-0.972979 -0.30867,-0.415442 -0.78342,-0.632425 -1.11717,-1.019441 -0.32466,-0.38971 -0.7597,-0.636703 -1.1604,-0.930682 -0.39947,-0.250356 -0.7766,-0.551973 -1.10375,-0.892713 -0.36639,-0.247823 -0.7107,-0.526847 -1.07201,-0.783568 -0.34424,-0.369826 -0.74609,-0.627877 -1.22756,-0.773865 -0.47784,-0.230551 -0.98145,-0.373455 -1.41384,-0.6888 -0.43308,-0.278136 -0.89835,-0.482563 -1.39937,-0.600423 -0.609,-0.106659 -1.19956,-0.287433 -1.77727,-0.504072 -0.42336,-0.285355 -0.90163,-0.452258 -1.36445,-0.657955 -0.5287,-0.13115 -1.05324,-0.280063 -1.58707,-0.395721 -0.62358,-0.23176 -1.27192,-0.419535 -1.87146,-0.708619 -0.52255,-0.242193 -1.09187,-0.342766 -1.64447,-0.495153 -0.68114,-0.239092 -1.38167,-0.404171 -2.07446,-0.60274 -0.54036,-0.318349 -1.15964,-0.39281 -1.74393,-0.578781 -0.5874,-0.113084 -1.1452,-0.309619 -1.72065,-0.465721 -0.55552,-0.09532 -1.10078,-0.133342 -1.64592,-0.278967 -0.51188,-0.299754 -1.11156,-0.330406 -1.65568,-0.526764 -0.51428,-0.167017 -1.03754,-0.245518 -1.55127,-0.412502 -0.52761,-0.154771 -1.07956,-0.176088 -1.62532,-0.195401 -0.64294,0.03137 -1.26315,-0.143547 -1.89586,-0.230665 -0.62386,-0.10851 -1.23267,-0.273789 -1.86637,-0.34783 -0.63929,-0.06179 -1.28216,-0.06444 -1.92379,-0.06765 -0.6358,-0.0013 -1.27157,0.0013 -1.90736,0.0019 -0.65696,0.0618 -1.28477,-0.0658 -1.92719,-0.174728 -0.62382,-0.101291 -1.256,-0.123174 -1.88662,-0.137083 -0.61472,0.05537 -1.19119,-0.06524 -1.787,-0.18618 -0.56256,-0.07177 -1.10912,-0.112327 -1.65716,-0.259464 -0.54141,-0.139276 -1.10134,-0.164334 -1.65724,-0.183987 -0.6252,-0.0155 -1.25066,-0.01323 -1.876,-0.01247 -0.69829,0.0013 -1.39661,-0.0013 -2.09493,-6e-5 -0.7394,0.0013 -1.47882,-6.32e-4 -2.21821,5.3e-5 -0.67863,0.0013 -1.35725,0.0019 -2.03588,0.0026 -0.61527,0.03991 -1.25339,-0.08417 -1.85502,0.06565 -0.61436,0.147477 -1.21345,0.333279 -1.83708,0.44374 -0.65986,0.135193 -1.34305,0.05091 -1.99896,0.18754 -0.68096,0.144264 -1.36878,0.285656 -2.03196,0.501063 -0.65159,0.137877 -1.23536,0.449261 -1.88412,0.594697 -0.586,0.09354 -1.20305,0.16097 -1.74883,0.404432 -0.60802,0.121172 -1.17886,0.345298 -1.77506,0.505263 -0.66123,0.286223 -1.31795,0.541795 -2.02813,0.680451 -0.64608,0.03024 -1.19844,0.355691 -1.79539,0.554573 -0.54226,0.154999 -0.96097,0.510229 -1.51198,0.67084 -0.61023,0.05752 -1.15527,0.26812 -1.70849,0.510278 1.2762,-0.724989 2.55127,-1.451943 3.82861,-2.174975 0.0734,-0.04154 -0.14491,0.0867 -0.21691,0.130583 -0.15798,0.09615 -0.30716,0.206665 -0.46769,0.298545 -1.43085,0.819194 -2.8564,1.648085 -4.30155,2.441786 -0.0872,0.04781 -0.1917,0.05242 -0.28758,0.07869 0.13874,-0.133228 -0.74586,0.375685 -0.56464,0.271786 8.03636,-4.60865 1.48263,-0.760517 -1.237,0.674623 0.18603,-0.149745 -0.83941,0.421954 -0.63589,0.304478 1.23564,-0.713234 4.94656,-2.845851 3.71356,-2.128108 -1.44304,0.84 -2.89848,1.658544 -4.34362,2.494877 -1.24467,0.72031 2.49109,-1.437671 3.74218,-2.146813 0.0915,-0.05178 -0.17511,0.116296 -0.26257,0.174463 -1.43175,0.825143 -2.85801,1.659852 -4.29525,2.475421 -0.0991,0.0562 -0.2081,0.09271 -0.31211,0.139086 1.24759,-0.713431 4.97043,-2.887532 3.7428,-2.140282 -1.41862,0.863505 -2.88639,1.643849 -4.31593,2.489136 -1.24783,0.737843 2.5092,-1.452589 3.77071,-2.166753 0.0843,-0.04781 -0.15892,0.111382 -0.23837,0.167055 -1.76156,1.169015 -3.45416,2.607227 -5.49807,3.210916 -1.45284,0.748233 -3.23018,1.796938 3.39815,-1.969043 0.0617,-0.03515 -0.12522,0.06875 -0.18078,0.11297 -0.12091,0.09608 -0.22046,0.216151 -0.33139,0.323376 -0.38566,0.338873 -0.83665,0.586171 -1.24452,0.89545 -0.38011,0.319445 -0.80197,0.579484 -1.18711,0.892437 -0.44912,0.343521 -0.88733,0.696748 -1.33704,1.039544 -8.59281,4.963021 -2.94613,1.697487 -0.43087,0.259993 0.0641,-0.03666 -0.12899,0.07325 -0.18697,0.11898 -0.21071,0.165959 -0.38538,0.389907 -0.57871,0.575444 -0.4339,0.369184 -0.88471,0.713091 -1.29688,1.107288 -0.50468,0.354595 -0.96513,0.758559 -1.42325,1.171143 -0.55438,0.493467 -1.1262,0.966512 -1.70433,1.431912 -0.49202,0.321298 -0.82758,0.806003 -1.26109,1.188831 -0.42728,0.378592 -0.83888,0.774743 -1.24932,1.172315 -0.41151,0.450112 -0.8741,0.832366 -1.34276,1.218357 -0.36658,0.459912 -0.83145,0.814356 -1.26413,1.20525 -0.44066,0.445221 -0.85991,0.908761 -1.2866,1.36696 -0.51406,0.397047 -0.94178,0.843969 -1.33922,1.352414 -0.41954,0.371263 -0.81679,0.760425 -1.21091,1.159407 -0.42146,0.429842 -0.90358,0.79228 -1.34721,1.197653 -0.34473,0.308447 -0.69565,0.614899 -1.00924,0.955529 -0.25054,0.461968 -0.70143,0.709591 -1.10443,1.014765 -0.31945,0.421463 -0.64627,0.797193 -1.08373,1.102658 -0.39877,0.343937 -0.66498,0.783681 -1.06442,1.134025 -0.4571,0.422014 -0.82264,0.928301 -1.24928,1.382195 -0.41605,0.470313 -0.82639,0.943019 -1.2705,1.387064 -0.45894,0.500757 -0.89476,1.015177 -1.26156,1.587266 -0.32814,0.414255 -0.66613,0.818657 -0.97563,1.248064 -0.34809,0.463177 -0.75635,0.855269 -1.04017,1.363914 -0.31495,0.425582 -0.67927,0.808021 -1.00708,1.226997 -0.36707,0.457466 -0.70849,0.933963 -1.05286,1.409182 -0.35033,0.42455 -0.6597,0.880187 -0.98128,1.326345 -0.33411,0.413477 -0.60665,0.868664 -0.92187,1.297482 -0.36072,0.509068 -0.66587,1.049608 -1.04313,1.547229 -0.31154,0.441433 -0.70646,0.812896 -0.99964,1.266512 -0.31744,0.528559 -0.76165,0.959232 -1.09736,1.474813 -0.22496,0.475468 -0.61415,0.823914 -0.9642,1.20215 -0.31056,0.496388 -0.71837,0.9169096 -1.04592,1.4000541 -0.35921,0.4700144 -0.702,0.9528452 -1.05764,1.4256905 -0.35138,0.4179175 -0.69052,0.8362091 -1.01033,1.2795476 -0.34027,0.46368 -0.72902,0.8829392 -1.05111,1.3619035 -0.32647,0.5608214 -0.74514,1.0404547 -1.16532,1.5281574 -0.29053,0.4972799 -0.65786,0.9382487 -0.989,1.406396 -0.2668,0.4288894 -0.54448,0.8534135 -0.8808,1.231336 -0.36208,0.50631299 -0.76239,0.98303987 -1.13988,1.47726596 -0.42548,0.56582544 -0.80919,1.16172084 -1.25555,1.71141904 -0.46382,0.5430349 -0.85126,1.1413832 -1.32302,1.6775054 -0.37326,0.4579426 -0.71963,0.927341 -1.11097,1.3705472 -0.31155,0.366463 -0.55305,0.7783899 -0.80042,1.1889675 -0.34655,0.5068383 -0.764,0.9619728 -1.1591,1.4312351 -0.35683,0.4923288 -0.80716,0.9039344 -1.19199,1.3710575 -0.44026,0.5994217 -0.9499,1.1442972 -1.42106,1.7203422 -0.55137,0.61149 -1.03789,1.276434 -1.57036,1.903295 -0.43457,0.441819 -0.83727,0.894474 -1.1898,1.403599 -0.36155,0.438708 -0.7022,0.891651 -1.03224,1.354756 -0.28237,0.380081 -0.61824,0.7126 -0.93097,1.066141 -0.33169,0.500999 -0.80623,0.87369 -1.1678,1.348747 -0.3058,0.533521 -0.75457,0.953109 -1.1711,1.396996 -0.45252,0.494513 -0.79682,1.069134 -1.23196,1.578043 -0.39883,0.480355 -0.80063,0.954369 -1.25491,1.383126 -0.45701,0.463438 -0.89704,0.945101 -1.32849,1.432841 -0.40706,0.473276 -0.76744,0.984514 -1.18799,1.446006 -0.3075,0.487672 -0.73097,0.840551 -1.16574,1.207279 -0.36223,0.438232 -0.76778,0.832993 -1.16177,1.242652 -0.52578,0.54768 -1.06079,1.085476 -1.56464,1.653611 -0.43855,0.441441 -0.83877,0.918898 -1.27223,1.364878 -0.32035,0.338419 -0.63379,0.685727 -0.97516,1.003234 -0.34829,0.404594 -0.7358,0.769515 -1.13332,1.124579 -0.32886,0.412982 -0.66996,0.804582 -1.07564,1.144989 -0.41327,0.405714 -0.84818,0.775552 -1.29943,1.138337 -0.41681,0.379461 -0.66065,0.869673 -1.12744,1.197963 -0.34889,0.111874 -0.50117,0.5125 -0.79315,0.688819 -2.02733,1.224215 -8.80077,5.120148 -0.41742,0.282708 -0.49073,0.291855 -0.81829,0.764009 -1.26232,1.115365 -0.49483,0.338646 -0.85649,0.81589 -1.309,1.202358 -0.45643,0.341821 -0.76342,0.828556 -1.14364,1.244149 -6.59143,3.8679 -4.69465,2.740255 -0.40808,0.278891 0.0634,-0.03628 -0.12763,0.07196 -0.18621,0.115692 -0.17817,0.133039 -0.34277,0.296768 -0.49492,0.457904 -0.36805,0.362155 -0.80261,0.643658 -1.19006,0.98304 -1.62907,1.201505 -3.47382,2.140978 -5.20509,3.149174 -0.0821,0.02154 -0.16793,0.03288 -0.24624,0.0658 -0.1454,0.06104 -0.55696,0.29639 -0.42046,0.21736 1.21435,-0.703853 4.87956,-2.776814 3.66232,-2.077972 -1.41818,0.814178 -2.84021,1.621636 -4.26032,2.432443 1.2842,-0.735643 2.56676,-1.474182 3.85259,-2.206972 0.0677,-0.03848 -0.13122,0.08409 -0.19801,0.124233 -0.12812,0.07699 -0.24423,0.172951 -0.37307,0.248882 -1.40897,0.828956 -2.81681,1.660241 -4.24086,2.462993 -0.0738,0.04158 -0.16362,0.04396 -0.24541,0.06603 -0.48441,0.232327 -1.01888,0.401317 -1.46516,0.702856 -1.91803,0.980428 5.25102,-3.022243 3.42364,-1.956529 -2.03178,1.184919 -2.91859,2.243175 -4.76455,2.569443 -0.28845,0.202658 -0.64687,0.199786 -0.96688,0.301644 -0.15493,0.04917 -0.29556,0.136139 -0.44747,0.193852 0.28312,-0.01663 -0.89275,0.512617 -0.60889,0.347074 9.37155,-5.465733 0.49021,-0.05915 -0.61791,0.333657 -0.53245,0.05798 -1.02465,0.233045 -1.54285,0.35229 -0.2685,0.222349 -0.61726,0.233272 -0.92717,0.343937 -0.15133,0.05416 -0.28766,0.144188 -0.43657,0.204548 -0.54001,0.173404 -1.1114,0.191017 -1.67346,0.20999 -0.62814,0.04301 -1.24408,0.197178 -1.87411,0.261846 -0.63951,0.05537 -1.281876,0.05938 -1.923311,0.06319 -0.635656,0.0019 -1.271316,-4.5e-5 -1.906972,-6.38e-4 -0.634884,-6.2e-4 -1.269769,-6.2e-4 -1.904662,-0.0013 -0.634919,-6.8e-5 -1.269842,-4.5e-5 -1.904765,-4.5e-5 -0.634934,0 -1.269872,0 -1.904806,0 -0.634941,2.3e-5 -1.269875,2.3e-5 -1.90481,2.3e-5 -0.581722,0.02759 -1.125856,-0.171515 -1.579623,-0.526156 -0.466669,-0.278324 -0.836734,-0.366047 -1.176975,-0.82758 -0.293367,-0.344353 -0.642497,-0.630354 -0.945052,-0.96881 -0.266607,-0.441086 -0.629336,-0.771678 -1.006091,-1.108498 -0.273675,-0.381672 -0.515221,-0.762674 -0.879734,-1.067448 -0.396264,-0.298961 -0.622072,-0.735167 -0.934968,-1.10674 -0.281424,-0.425881 -0.578064,-0.838579 -0.877633,-1.251794 -0.253379,-0.427427 -0.410464,-0.903602 -0.633902,-1.345637 -0.202318,-0.453963 -0.445364,-0.884307 -0.598549,-1.358676 -0.133077,-0.516869 -0.310563,-1.01478 -0.404753,-1.541865 -0.07945,-0.613081 -0.233083,-1.211622 -0.319861,-1.823993 -0.0421,-0.638335 -0.112252,-1.266716 -0.224882,-1.896355 -0.118224,-0.639144 -0.157039,-1.288074 -0.179943,-1.93641 -0.0087,-0.645509 -0.03742,-1.292326 0.01096,-1.936551 0.105411,-0.629072 0.200693,-1.257928 0.250847,-1.89403 0.04105,-0.629352 0.04282,-1.260348 0.04513,-1.890773 -0.04615,-0.573551 0.09789,-1.094196 0.327383,-1.610018 0.173215,-0.454889 0.342878,-0.914339 0.562374,-1.34939 0.257424,-0.480094 0.303572,-1.028579 0.425946,-1.550936 0.144302,-0.625364 0.432982,-1.191813 0.74406,-1.747121 0.279307,-0.547725 0.453256,-1.141802 0.646069,-1.723717 0.199634,-0.534565 0.579983,-0.966765 0.839157,-1.46798 0.228926,-0.498622 0.467845,-0.997625 0.776065,-1.452397 0.326665,-0.434573 0.621211,-0.896398 0.870542,-1.379652 0.301191,-0.364082 0.545685,-0.74835 0.782759,-1.156747 0.220573,-0.403933 0.502893,-0.774697 0.823155,-1.104578 0.351458,-0.446834 0.779841,-0.82145 1.129217,-1.268855 0.292762,-0.390293 0.620349,-0.75044 0.936215,-1.121231 0.325191,-0.318425 0.60675,-0.680077 0.987443,-0.934696 0.380614,-0.25285 0.720775,-0.554642 1.074244,-0.8422864 0.380746,-0.2397354 0.754594,-0.4948686 1.086111,-0.8001145 0.180964,-0.1378016 0.365518,-0.2909102 0.563063,-0.405188 14.092722,-8.1515255 -9.435771,5.4484149 4.653758,-2.6790423 0.438981,-0.1773732 0.844558,-0.4229102 1.270076,-0.6336453 -8.096155,4.8632195 -1.626996,0.5967609 1.248132,-0.6543873 0.08062,-0.023811 0.165392,-0.036661 0.241852,-0.071773 0.142451,-0.065235 0.545534,-0.3083338 0.409934,-0.2299087 -1.215782,0.7034192 -4.880676,2.7830284 -3.665531,2.0784981 1.414469,-0.8200894 2.834494,-1.6305485 4.251741,-2.445819 -12.769685,7.3388934 10.03412,-5.8688535 -2.894683,1.5832326 0.09328,-0.015874 0.470982,-0.4077996 0.570829,-0.3359243 0.02154,0.015496 0.05129,0.063874 0.02721,0.074797 -0.03099,0.013984 -0.06055,-0.030614 -0.09078,-0.045997 C 97.96102,5.1727838 97.437816,5.0922043 96.925354,4.9634471 96.244888,4.8915227 95.625215,4.7097653 94.990954,4.4635404 94.400989,4.1997294 93.743124,4.2343499 93.133275,4.0663083 92.608461,3.8702642 92.037393,3.9087776 91.50787,3.7517383 90.990869,3.5775399 90.448189,3.5320343 89.907403,3.5019493 89.327075,3.5382328 88.781161,3.3472155 88.215052,3.2566958 87.631511,3.1789887 87.041807,3.172299 86.454109,3.1651178 c -0.632122,-0.00454 -1.264259,-0.00262 -1.896374,-0.00189 -0.559793,0.019276 -1.098723,0.1963842 -1.659405,0.2594645 -0.589277,0.091124 -1.201957,-0.023433 -1.778793,0.1271811 -0.342311,0.1379527 -0.72545,0.1083212 -1.076704,0.1922645 -0.163162,0.039043 -0.313776,0.1190552 -0.472932,0.1721197 -0.513736,0.089159 -0.963863,0.3257197 -1.477179,0.4246223 -0.200731,0.1563969 -0.465993,0.1700788 -0.688808,0.2678929 -0.227414,0.099817 -0.408374,0.2256378 -0.651431,0.3040252 -0.5219,0.074532 -0.98835,0.2959748 -1.508395,0.3877681 -0.453059,0.1985764 -0.81965,0.481542 -1.305728,0.6059414 -0.265512,0.2288882 -0.614003,0.2334236 -0.925122,0.3407244 -0.152504,0.052611 -0.290381,0.1413165 -0.440414,0.2005039 -0.457073,0.1464945 -0.871725,0.395845 -1.301567,0.6079445 1.284938,-0.7375029 2.566148,-1.4815482 3.854816,-2.2125125 0.06671,-0.037833 -0.121777,0.093997 -0.18807,0.1326236 -1.412568,0.823113 -2.821447,1.6529308 -4.247704,2.4520929 -0.215849,0.1209449 -0.498656,0.1062804 -0.729101,0.2168693 1.289087,-0.7292862 2.576125,-1.4622008 3.867265,-2.1878549 0.06614,-0.037039 -0.126425,0.084057 -0.191962,0.1222677 -1.412115,0.8225196 -2.84778,1.6054373 -4.240883,2.4597579 -1.262706,0.7743873 2.562587,-1.4864767 3.849577,-2.2197881 0.161272,-0.09188 -0.135307,0.099175 -0.404304,0.2737889 -0.07608,0.050872 -0.148724,0.1071874 -0.22817,0.1524661 -1.430929,0.8160113 -2.86572,1.625261 -4.302375,2.4311507 -0.71983,0.4037857 0.199899,-0.1387465 -0.560931,0.2460094 -0.08734,0.044183 -0.33173,0.207874 -0.246615,0.1594204 1.272703,-0.723598 2.539873,-1.4568641 3.809805,-2.1852961 -1.526074,1.2706014 -3.341117,2.0144388 -5.047963,3.0800576 -1.25382,0.7827738 2.562063,-1.4748017 3.843103,-2.2121761 -1.560041,1.0362556 -3.10987,1.8838864 -4.813568,2.8428579 -0.321146,0.08504 -0.173405,0.02154 -0.445508,0.186482 1.276033,-0.730699 2.549998,-1.4650352 3.828117,-2.1920991 0.07865,-0.044674 -0.150954,0.1000063 -0.229493,0.1449071 -1.428952,0.8177196 -2.845708,1.65758 -4.292749,2.442871 -1.288399,0.699175 5.064252,-2.9542524 3.81671,-2.1845214 -0.1344,0.082923 -10.539983,6.0758244 -0.434895,0.2547401 -2.598251,1.6335643 -8.613902,4.9640953 -0.608349,0.395331 0.06879,-0.039194 -0.129184,0.092183 -0.197934,0.1316031 -1.420335,0.8129202 -2.826387,1.6520462 -4.26887,2.4249822 -1.303374,0.698415 2.567603,-1.467526 3.851402,-2.201291 -1.416071,0.815059 -2.828964,1.635651 -4.248215,2.445154 -1.287133,0.734143 2.563499,-1.487081 3.851849,-2.219089 0.06667,-0.03802 -0.119395,0.0974 -0.185613,0.136139 -2.084587,1.219037 -2.906407,2.246789 -4.756863,2.566215 -0.599898,0.0765 -1.206161,0.07389 -1.809842,0.07601 -0.628902,0.02154 -1.235513,0.01172 -1.847834,-0.130658 -0.549978,-0.131604 -1.115425,-0.161084 -1.678253,-0.18172 -0.562511,-0.02797 -1.103569,-0.203112 -1.665589,-0.268951 -0.58247,0.0189 -1.07475,-0.17057 -1.582295,-0.425167 C 51.961354,11.775198 51.562081,11.573251 51.076189,11.488298 50.499585,11.453904 50.031853,11.093277 49.56171,10.795775 49.025818,10.582912 48.593115,10.260708 48.163474,9.8880425 47.870409,9.5064652 47.440439,9.2830839 47.090939,8.9624439 46.794586,8.8144376 46.672715,8.4984313 46.449791,8.2775709 46.404928,8.2331614 46.350956,8.1989189 46.301558,8.1597252 46.246301,8.1041284 46.191044,8.0485315 46.135751,7.9929725 45.746248,7.729615 45.472047,7.3656995 45.17944,7.0077594 44.797806,6.7215358 44.49341,6.3871383 44.229161,5.9916675 43.875889,5.5980751 43.550396,5.1987718 43.273364,4.7476777 42.936306,4.357022 42.639688,3.9412475 42.328384,3.5315166 42.112611,3.0929856 41.66745,2.959916 41.301142,2.6804388 40.927952,2.2597435 40.516297,1.9211092 39.984487,1.7326922 39.790824,1.6540024 39.488984,1.4599615 39.2712,1.6099331 c -0.05118,0.03515 -0.164069,0.1805102 -0.109569,0.1507654 1.26039,-0.688097 5.001018,-2.8251437 3.742522,-2.13358093 -0.354104,0.35913068 -0.476927,0.91143676 -0.594293,1.39002693 -0.09498,0.5865486 -0.144831,1.1727873 -0.275867,1.7533756 -0.132284,0.5604699 -0.164901,1.135884 -0.186709,1.7091816 -0.01701,0.6286676 -0.01512,1.2576565 -0.01436,1.8865018 6.27e-4,0.6355313 0.0019,1.2710701 0.0019,1.9066165 3.13e-4,0.6350551 3.32e-4,1.2701366 3.44e-4,1.905192 -0.0057,0.527629 0.08784,1.064598 0.238601,1.569943 0.118753,0.444435 0.453196,0.766855 0.680005,1.15361 0.216567,0.426524 0.370205,0.885782 0.639152,1.282897 0.405324,0.342463 0.653371,0.811113 0.909544,1.26593 0.301303,0.330179 0.616267,0.647172 0.888793,1.007724 0.223824,0.390342 0.531598,0.724762 0.824534,1.066423 0.265776,0.38236 0.614788,0.688509 0.862219,1.084007 0.238375,0.376818 0.539698,0.701503 0.818268,1.046781 0.242532,0.377462 0.48709,0.762059 0.801807,1.084097 0.336983,0.296353 0.52523,0.729041 0.867791,1.013594 0.362343,0.301606 0.659482,0.653918 0.92956,1.040436 0.310753,0.36068 0.629627,0.710721 0.892705,1.109616 0.280819,0.406707 0.622428,0.761129 0.937055,1.13969 0.387598,0.314494 0.575572,0.779731 0.790813,1.215473 0.248428,0.397466 0.560749,0.744642 0.814204,1.139524 0.255496,0.525278 0.620497,0.984536 0.918029,1.48608 0.318311,0.454771 0.622658,0.928047 0.860292,1.430683 0.246803,0.390058 0.393362,0.831405 0.669573,1.202955 0.269027,0.41398 0.469826,0.877916 0.646175,1.339268 0.202847,0.397467 0.427079,0.787242 0.674271,1.159125 0.266646,0.404522 0.361247,0.886541 0.617779,1.296219 0.227905,0.434528 0.495575,0.846323 0.731671,1.276811 0.257046,0.495655 0.463654,1.017203 0.730311,1.507891 0.264755,0.553266 0.577938,1.080775 0.777051,1.66269 0.0774,0.504015 0.337966,0.931797 0.544725,1.386092 0.198803,0.483893 0.397077,0.954652 0.505009,1.469023 0.110664,0.474561 0.313398,0.913625 0.485291,1.366424 0.252813,0.468831 0.50513,0.928592 0.674139,1.435291 0.156586,0.517651 0.285355,1.047896 0.458858,1.560083 0.156321,0.447998 0.323489,0.896972 0.54667,1.316605 0.289928,0.459735 0.340045,0.997032 0.465347,1.511002 0.106016,0.493565 0.333279,0.943132 0.474403,1.425695 0.230022,0.457262 0.311433,0.959901 0.451494,1.445484 0.133191,0.490499 0.292498,0.969524 0.449027,1.452752 0.2208,0.430204 0.356183,0.892694 0.539909,1.338319 0.123931,0.469402 0.299755,0.90127 0.542117,1.319834 0.213014,0.469096 0.362494,0.968099 0.517126,1.460235 0.177449,0.439208 0.460728,0.809167 0.633373,1.251394 0.191698,0.438164 0.410068,0.8644 0.591062,1.3071 0.172913,0.409089 0.463336,0.734098 0.733613,1.077615 0.285959,0.414837 0.351383,0.924718 0.597506,1.359606 0.210066,0.405071 0.558758,0.70295 0.799941,1.087139 0.240377,0.375005 0.543431,0.697678 0.822693,1.041887 0.262261,0.426403 0.582879,0.815558 0.933453,1.172141 0.369713,0.437594 0.767516,0.848625 1.151871,1.272843 0.435318,0.330822 0.67471,0.837842 1.089895,1.184285 0.423344,0.32107 0.740949,0.735522 1.088364,1.131016 0.369222,0.315401 0.731969,0.63349 1.110806,0.938165 0.07544,0.06391 0.154696,0.123553 0.226356,0.191698 0.235918,0.224239 0.191773,0.2352 0.435727,0.43144 0.208592,0.167963 0.459401,0.266873 0.684484,0.410533 0.459307,0.194343 0.68395,0.645248 1.138507,0.844516 0.379362,0.27258 0.799589,0.48 1.180773,0.746498 0.06455,0.03628 0.132888,0.06697 0.193663,0.109531 0.270992,0.189581 0.108208,0.131376 0.37542,0.286375 0.199824,0.115918 0.418957,0.166299 0.623146,0.277984 0.44377,0.16868 0.753029,0.544736 1.169696,0.75764 0.382843,0.281802 0.815043,0.474369 1.215934,0.731887 0.477702,0.212863 0.835019,0.608617 1.296064,0.84599 0.536867,0.230438 1.085322,0.465937 1.598313,0.747878 0.456355,0.27428 0.864593,0.541549 1.393754,0.649236 0.540676,0.172724 1.037249,0.413745 1.545634,0.662472 0.550998,0.181984 1.064454,0.448569 1.632302,0.578588 0.52111,0.06176 0.957089,0.397421 1.398466,0.663447 0.500009,0.242041 1.047477,0.330709 1.57296,0.503872 0.463359,0.280441 0.970643,0.46995 1.448954,0.722052 0.554816,0.31045 1.194259,0.319635 1.793196,0.476152 0.547869,0.195289 1.135488,0.344391 1.665362,0.588518 0.51247,0.200958 1.013436,0.413454 1.553996,0.529126 0.58946,0.02154 1.09822,0.219024 1.61511,0.479237 0.46326,0.149669 0.88363,0.379937 1.36183,0.486364 0.54049,0.265626 1.15265,0.266608 1.71471,0.446718 0.5252,0.154885 1.05414,0.233046 1.57476,0.401246 0.52037,0.07722 1.00764,0.249449 1.51479,0.380009 0.56409,0.155376 1.11778,0.317518 1.70156,0.393996 0.58989,0.117582 1.20945,0.202167 1.78542,0.385592 0.55948,0.113083 1.08183,0.343596 1.63453,0.473892 0.65684,0.08364 1.2896,0.273562 1.9437,0.376479 0.63901,0.108812 1.29207,0.03991 1.92664,0.162028 0.62003,0.112365 1.23232,0.183156 1.83649,0.361549 0.54219,0.154167 1.10662,0.18104 1.66644,0.201449 0.62356,0.175559 1.27801,0.189808 1.902,0.350476 0.61621,0.173405 1.25182,0.237959 1.88847,0.273638 0.62561,0.05393 1.26223,-0.04203 1.87828,0.0853 0.5398,0.146344 1.09505,0.198841 1.65135,0.22972 0.62827,0.05204 1.24263,0.210255 1.87257,0.278173 0.62853,0.05654 1.26013,0.05987 1.89071,0.06342 0.59582,-0.06081 1.15838,0.128995 1.73928,0.221405 0.57806,0.04845 1.13711,0.07793 1.69977,0.220459 0.54521,0.134929 1.10747,0.160819 1.66623,0.180548 0.61946,0.04229 1.24902,-0.05106 1.85874,0.07483 0.54055,0.14657 1.09649,0.199559 1.65354,0.230438 0.62842,0.05227 1.24291,0.210482 1.873,0.2784 0.59295,-0.01172 1.14794,0.190072 1.72624,0.286412 0.58241,0.08005 1.17145,0.08599 1.75826,0.0929 0.59295,-0.05749 1.15285,0.13183 1.73109,0.223559 0.58356,0.07793 1.17328,0.0853 1.76102,0.0929 0.56969,0.01436 1.11921,0.190753 1.68705,0.256894 0.61855,0.01436 1.21058,0.193134 1.82033,0.28286 0.62454,0.08031 1.25494,0.08931 1.88364,0.09645 0.6638,-0.03213 1.30589,0.01436 1.95862,0.121398 0.70651,0.117128 1.42139,0.160819 2.1362,0.184592 0.60764,-0.05034 1.18105,0.141355 1.77335,0.235654 0.58251,0.07793 1.17119,0.08481 1.75788,0.09218 0.63161,0.0049 1.26327,0.0024 1.89491,0.0019 0.69128,-0.04135 1.36055,0.142299 2.04459,0.216416 0.77957,0.07578 1.56298,0.09218 2.34561,0.100497 0.65506,0.0049 1.31012,0.0019 1.96518,6.16e-4 0.62667,-0.02381 1.23073,-0.01663 1.84124,0.124233 0.55555,0.148233 1.13546,0.113311 1.69182,0.241966 0.61156,0.154885 1.23894,0.213581 1.86697,0.246916 0.70789,0.02797 1.41654,0.0257 2.12486,0.02495 0.66468,-0.0019 1.32939,-0.0024 1.99407,-0.0049 0.6357,-6.43e-4 1.2714,-6.43e-4 1.90709,-6.43e-4 0.57258,0.0072 1.12492,0.187427 1.69488,0.254929 0.59759,0.05703 1.19856,0.05987 1.79834,0.06414 0.62762,0.02986 1.26598,-0.06508 1.88372,0.06176 0.54041,0.146797 1.09617,0.200277 1.65313,0.23161 0.61829,0.02608 1.23731,0.02457 1.856,0.02532 0.63522,-4.77e-4 1.27044,-0.0013 1.90567,-0.0019 0.64534,0.0189 1.27809,0.183874 1.92217,0.252926 0.62825,0.057 1.25957,0.06153 1.8899,0.06557 0.57224,0.0094 1.12441,0.187691 1.69433,0.254362 0.59774,0.05631 1.19875,0.05892 1.79858,0.06297 0.63365,0.0019 1.26728,3.82e-4 1.90094,-4.04e-4 0.63538,-6.39e-4 1.27078,-0.0013 1.90619,-0.0013 0.64121,0.0189 1.28824,-0.05465 1.92116,0.06081 0.62488,0.136856 1.26039,0.199559 1.89799,0.23399 0.63154,0.02608 1.2638,0.02495 1.89574,0.02532 0.6348,-5.71e-4 1.26957,-0.0013 1.90434,-0.0019 0.65375,-0.03061 1.28588,3.32e-4 1.92705,0.121398 0.62272,0.123062 1.25635,0.161537 1.88927,0.184101 0.62952,0.148006 1.26693,0.24189 1.91111,0.291666 0.64936,-0.0094 1.27365,0.169134 1.91273,0.259805 0.62569,0.07816 1.25692,0.08791 1.88659,0.09524 0.63401,0.0049 1.26805,0.0019 1.90208,0.0013 0.57296,0.0072 1.12591,0.186255 1.69623,0.253492 0.608,0.08765 1.20113,0.247144 1.81516,0.317707 0.56697,0.0658 1.10719,0.249714 1.6772,0.320126 0.59239,0.08243 1.19723,-0.0024 1.78121,0.124952 0.53799,0.149178 1.09256,0.200012 1.6477,0.230437 0.61871,0.02532 1.23814,0.02381 1.85728,0.02381 0.63527,-5.7e-4 1.27056,-0.0013 1.90583,-0.0019 0.6352,-4.27e-4 1.2704,-4.76e-4 1.9056,-5.21e-4 0.573,0.0072 1.12576,0.187426 1.69615,0.254891 0.59764,0.057 1.19863,0.05987 1.79844,0.06414 0.63363,0.0019 1.26726,4.27e-4 1.90087,-3.56e-4 0.63541,-6.2e-4 1.2708,-0.0013 1.90621,-0.0013 0.63499,-6.8e-5 1.26997,-4.5e-5 1.90496,-4.5e-5 0.62881,0.02797 1.26895,-0.0658 1.88768,0.06225 0.53977,0.147515 1.09513,0.201222 1.65169,0.232592 0.61824,0.02646 1.23719,0.02457 1.85585,0.02532 0.63523,-4.72e-4 1.27047,-0.0013 1.9057,-0.0019 0.63519,-4.54e-4 1.27042,-4.99e-4 1.90561,-5.48e-4 0.63494,-2.3e-5 1.2699,0 1.90484,0 0.63494,0 1.26988,0 1.90481,0 0.63494,0 1.26986,0 1.90482,0 0.63491,0 1.26985,0 1.90479,0 0.55918,-0.0189 1.09769,-0.195289 1.65775,-0.258029 0.60951,-0.05488 1.2221,-0.05749 1.83361,-0.0613 0.63479,-0.0019 1.26961,-7.1e-5 1.90441,6.16e-4 0.64734,0.01663 1.16178,0.02872 1.79121,-0.128503 0.54129,-0.165582 1.12534,-0.07722 1.65995,-0.245103 0.33555,-0.148233 0.71536,-0.119244 1.0627,-0.203603 0.16275,-0.03942 0.3131,-0.119735 0.47202,-0.17246 0.5282,-0.06319 1.01029,-0.254362 1.52191,-0.381411 0.57618,-0.1152 1.16591,-0.125442 1.75132,-0.136592 0.54934,-0.106431 1.06084,-0.321184 1.60028,-0.460849 0.54592,-0.158929 1.06231,-0.354935 1.63347,-0.432178 0.4923,-0.237316 1.03007,-0.302626 1.56759,-0.346166 0.48662,-0.138029 0.87276,-0.426736 1.36711,-0.549033 0.51005,-0.108813 0.99392,-0.33052 1.48848,-0.50352 0.53687,-0.172952 1.04742,-0.424763 1.5789,-0.623033 0.60161,-0.127332 1.10434,-0.483515 1.67224,-0.694356 0.0936,-0.02457 0.19052,-0.03848 0.28055,-0.0734 0.16014,-0.06198 0.61353,-0.308863 0.46482,-0.222841 -1.20979,0.700052 -4.86185,2.760756 -3.64813,2.067519 1.42061,-0.811423 2.84331,-1.619142 4.26499,-2.428713 0.0831,-0.02154 0.16985,-0.03175 0.24937,-0.06437 0.88885,-0.364157 -0.50152,0.117581 0.42308,-0.215962 0.25175,-0.09075 0.51352,-0.124951 0.77707,-0.160138 0.14324,-0.08908 0.31283,-0.110249 0.46468,-0.176769 0.0805,-0.03515 0.30829,-0.168416 0.2321,-0.124951 -1.27413,0.727185 -2.547,1.456626 -3.82555,2.175946 -0.0774,0.04346 0.14468,-0.103333 0.22118,-0.148233 1.41779,-0.831353 2.84089,-1.653589 4.26133,-2.480383 -1.27348,0.734407 -2.54312,1.475557 -3.82046,2.203264 -0.0732,0.0418 0.13421,-0.102614 0.20716,-0.144907 1.41864,-0.82207 2.83352,-1.651049 4.26658,-2.447698 0.0782,-0.04346 0.17628,-0.03477 0.25924,-0.06818 0.0753,-0.03024 0.28131,-0.161537 0.21097,-0.121399 -1.28574,0.734619 -2.57125,1.469715 -3.85687,2.204572 0.38202,-0.254324 0.57015,-0.679412 0.79301,-1.062625 0.18244,-0.417804 0.37865,-0.84604 0.49508,-1.28874 0.0584,-0.370167 -0.20288,-0.589394 -0.51637,-0.731935 -0.45092,-0.151333 -0.88212,-0.354974 -1.31448,-0.554948 -0.4953,-0.153449 -0.99975,-0.210029 -1.49733,-0.358035 0,0 3.89406,-2.668153 3.89406,-2.668153 v 0 c 0.51521,0.138481 1.06008,0.172233 1.54248,0.420011 0.44128,0.209537 0.90455,0.368844 1.34069,0.59023 0.41836,0.288869 0.7868,0.668575 0.78896,1.208893 -0.0166,0.519741 -0.30074,0.949186 -0.42358,1.447241 -0.21404,0.434672 -0.44482,0.851025 -0.71136,1.254505 -1.40956,0.826771 -2.81241,1.665085 -4.22867,2.480288 -0.14491,0.08338 -0.6045,0.28509 -0.46021,0.200504 1.26945,-0.74462 2.54439,-1.479764 3.81728,-2.218469 0.072,-0.0418 -0.14325,0.0853 -0.21475,0.127823 -1.41292,0.832498 -2.82581,1.664996 -4.23872,2.497489 1.26622,-0.737779 2.52866,-1.482115 3.79867,-2.213359 0.0772,-0.04441 -0.14252,0.107603 -0.21951,0.152504 -1.4195,0.829977 -2.83766,1.662452 -4.26894,2.471902 -0.22427,0.126878 -0.51677,0.151559 -0.75989,0.219968 -0.4805,0.125178 -0.92515,0.340913 -1.37745,0.541338 1.27788,-0.739347 2.55543,-1.479216 3.83362,-2.217993 0.0682,-0.03942 -0.13542,0.08077 -0.2036,0.119962 -1.4194,0.8138 -2.83533,1.633682 -4.25955,2.439024 -0.23327,0.131867 -0.50556,0.169398 -0.74281,0.29227 -0.54617,0.262262 -1.10185,0.492707 -1.67742,0.684397 -0.52326,0.219969 -1.04894,0.435198 -1.58784,0.61375 -0.49327,0.187918 -0.99522,0.350891 -1.50249,0.495273 -0.46394,0.195024 -0.90196,0.448808 -1.42054,0.469451 -0.52963,0.08077 -1.03037,0.248656 -1.54975,0.371188 -0.54369,0.126614 -1.05766,0.344806 -1.60278,0.467599 -0.54368,0.172233 -1.09369,0.351345 -1.66934,0.36669 -0.56903,0.02608 -1.1423,0.06202 -1.69007,0.231609 -0.50046,0.154885 -1.01471,0.235654 -1.51502,0.391291 -0.51222,0.143244 -1.04681,0.197896 -1.56097,0.337776 -0.55747,0.05631 -1.11457,0.112592 -1.66088,0.243704 -0.60911,0.09003 -1.22623,0.03742 -1.84007,0.04966 -0.6338,-6.39e-4 -1.26765,-0.0024 -1.90142,0.0049 -0.60189,0.0094 -1.20585,0.02381 -1.80233,0.112365 -0.56162,0.09407 -1.11629,0.246127 -1.69176,0.20194 -0.63494,0 -1.26988,0 -1.90482,0 -0.63493,0 -1.26985,0 -1.90481,0 -0.63492,0 -1.26985,0 -1.90479,0 -0.63494,0 -1.26988,-2.3e-5 -1.90481,4.9e-5 -0.63513,7.2e-5 -1.27024,1.89e-4 -1.90536,6.16e-4 -0.63558,6.43e-4 -1.27119,0.0019 -1.90677,6.43e-4 -0.62624,-0.0024 -1.25322,-0.0049 -1.87813,-0.05034 -0.56267,-0.05106 -1.11593,-0.148233 -1.67034,-0.254891 -0.61455,-0.03288 -1.23082,-0.0049 -1.84597,-0.01436 -0.63496,0 -1.26992,-2.3e-5 -1.90488,1.44e-4 -0.63529,2.15e-4 -1.27061,5.7e-4 -1.90591,0.0013 -0.63498,6.2e-4 -1.26997,0.0024 -1.90492,-0.0049 -0.61356,-0.0094 -1.229,-0.02381 -1.83749,-0.109758 -0.54925,-0.08765 -1.09187,-0.241776 -1.6534,-0.205266 -0.63511,9.5e-5 -1.27021,2.12e-4 -1.90534,6.39e-4 -0.6356,6.2e-4 -1.27123,0.0019 -1.90683,0.0013 -0.62655,-0.0024 -1.25384,-0.0049 -1.87913,-0.04894 -0.56313,-0.05012 -1.11722,-0.144681 -1.67079,-0.258104 -0.59365,-0.04135 -1.19226,-0.02646 -1.78126,-0.125896 -0.55832,-0.09883 -1.10101,-0.273336 -1.66851,-0.317481 -0.60944,-0.09456 -1.20635,-0.254135 -1.82079,-0.315741 -0.54917,-0.08742 -1.09184,-0.24087 -1.65325,-0.203603 -0.63584,6.38e-4 -1.27177,0.0024 -1.90754,-0.0094 -0.64297,-0.01663 -1.28718,-0.04324 -1.92304,-0.147288 -0.62997,-0.105487 -1.25586,-0.222615 -1.8969,-0.236863 -0.6366,-0.07079 -1.26221,-0.205985 -1.8985,-0.273752 -0.64441,-0.0387 -1.28569,-0.107603 -1.92035,-0.229001 -0.62453,-0.08765 -1.25334,-0.05465 -1.88257,-0.05798 -0.63508,6.16e-4 -1.27019,0.0019 -1.90529,6.16e-4 -0.63817,-0.0024 -1.27693,-0.0049 -1.91387,-0.05061 -0.64173,-0.05344 -1.27605,-0.151823 -1.91158,-0.253531 -0.62895,-0.03137 -1.25914,-0.0072 -1.88868,-0.01436 -0.6353,2.16e-4 -1.27062,5.71e-4 -1.90591,0.0013 -0.63496,6.42e-4 -1.26995,0.0024 -1.90491,-0.0049 -0.61348,-0.0094 -1.2288,-0.02154 -1.83734,-0.108094 -0.55001,-0.08719 -1.09311,-0.239887 -1.65514,-0.209537 -0.64097,-0.0094 -1.28311,-0.02646 -1.91977,-0.108095 -0.62767,-0.08598 -1.25142,-0.234481 -1.88881,-0.205719 -0.6356,6.42e-4 -1.27118,0.0019 -1.90676,6.42e-4 -0.62627,-0.0024 -1.25324,-0.0049 -1.87818,-0.05038 -0.56296,-0.05083 -1.11658,-0.147779 -1.67143,-0.253417 -0.61465,-0.03175 -1.23094,-0.0019 -1.84616,-0.0189 -0.61353,-0.0094 -1.22892,-0.02381 -1.83739,-0.109757 -0.54882,-0.08765 -1.09102,-0.241777 -1.65214,-0.205266 -0.63544,6.8e-5 -1.27088,2.11e-4 -1.90634,6.16e-4 -0.66337,4.76e-4 -1.32675,0.0013 -1.99014,-2.61e-4 -0.71624,-0.0024 -1.43344,-0.0013 -2.14848,-0.04706 -0.63872,-0.05416 -1.27019,-0.151332 -1.89705,-0.286224 -0.56996,-0.0658 -1.14302,-0.110475 -1.70243,-0.246689 -0.58916,-0.09502 -1.18661,-0.04157 -1.78116,-0.05344 -0.65523,3.59e-4 -1.31053,0.0013 -1.96566,-0.01172 -0.78971,-0.0189 -1.57966,-0.05344 -2.36502,-0.143245 -0.6738,-0.08315 -1.34193,-0.211426 -2.02478,-0.162973 -0.63385,5.71e-4 -1.26776,0.0024 -1.90152,-0.0094 -0.60367,-0.01663 -1.20948,-0.03848 -1.80486,-0.148233 -0.57365,-0.109984 -1.14086,-0.215962 -1.72945,-0.191962 -0.72381,-0.04014 -1.44505,-0.110211 -2.16116,-0.225222 -0.64114,-0.08126 -1.28414,-0.05892 -1.92941,-0.0689 -0.6429,-0.01663 -1.28732,-0.04275 -1.92256,-0.151105 -0.60452,-0.10715 -1.20438,-0.230929 -1.81865,-0.270236 -0.54881,-0.08719 -1.0903,-0.240114 -1.65099,-0.214753 -0.60457,-0.01663 -1.21118,-0.03919 -1.80759,-0.148006 -0.55907,-0.105714 -1.11078,-0.207874 -1.68428,-0.168189 -0.60509,-0.01663 -1.21285,-0.03742 -1.80865,-0.153714 -0.56496,-0.117845 -1.12384,-0.244989 -1.70375,-0.266834 -0.62062,-0.08814 -1.23315,-0.238035 -1.86187,-0.256479 -0.56332,-0.05061 -1.11742,-0.14657 -1.67249,-0.253115 -0.61008,-0.03326 -1.22224,-0.0049 -1.83241,-0.04373 -0.5788,-0.03628 -1.15556,-0.09789 -1.71847,-0.244082 -0.55643,-0.110249 -1.1279,-0.08958 -1.68505,-0.20194 -0.56079,-0.10594 -1.114,-0.207383 -1.68923,-0.163427 -0.6416,-0.0094 -1.28456,-0.02457 -1.92174,-0.107376 -0.62046,-0.08791 -1.23284,-0.237921 -1.8614,-0.256139 -0.56275,-0.05012 -1.11634,-0.145852 -1.67072,-0.253039 -0.61809,-0.03553 -1.23889,-0.0094 -1.85632,-0.06463 -0.64998,-0.05915 -1.29169,-0.165581 -1.92474,-0.32674 -0.61937,-0.102614 -1.23931,-0.211427 -1.86197,-0.287736 -0.58475,-0.03969 -1.16758,-0.107149 -1.7294,-0.283464 -0.58818,-0.152995 -1.19724,-0.201222 -1.79396,-0.313587 -0.64586,-0.0494 -1.29714,-0.05204 -1.93533,-0.177714 -0.65942,-0.12805 -1.31435,-0.27942 -1.97327,-0.408801 -0.54245,-0.166526 -1.08312,-0.33275 -1.63318,-0.47418 -0.58228,-0.12805 -1.16453,-0.264113 -1.75548,-0.344239 -0.58949,-0.108548 -1.15843,-0.287546 -1.73924,-0.433054 -0.50426,-0.149443 -1.01678,-0.249487 -1.52294,-0.391246 -0.51479,-0.15205 -1.05204,-0.213807 -1.56133,-0.389627 -0.58037,-0.123553 -1.15955,-0.242079 -1.719088,-0.445909 C 99.307746,86.3007 98.845373,86.087686 98.37667,85.896963 97.883661,85.663199 97.356761,85.595962 96.824766,85.494315 96.279108,85.338939 95.754004,85.123808 95.227599,84.913258 94.693377,84.726549 94.168439,84.504362 93.614595,84.383561 92.973492,84.262389 92.333667,84.136304 91.755574,83.815237 91.284316,83.593833 90.813062,83.371158 90.340345,83.154236 89.79059,82.976787 89.20951,82.882337 88.711913,82.569377 88.281258,82.33206 87.88674,82.060017 87.38294,82.004617 86.810773,81.823578 86.261264,81.574484 85.705987,81.348914 85.222064,81.110729 84.719848,80.925744 84.204551,80.766266 83.680236,80.593807 83.24017,80.292469 82.759025,80.030245 82.221592,79.771272 81.679634,79.522167 81.14062,79.267 80.704421,78.986445 80.310054,78.64142 79.840648,78.41184 79.432679,78.175469 79.013212,77.958399 78.625538,77.689168 78.24478,77.44005 77.903602,77.127691 77.474248,76.958141 77.035959,76.763117 76.643757,76.515392 76.251812,76.240174 75.859966,76.007847 75.485011,75.751648 75.091074,75.522661 74.680157,75.260665 74.389477,74.865179 73.943323,74.654315 73.433162,74.348854 72.997337,73.98063 72.565402,73.573968 72.163581,73.25558 71.780571,72.913873 71.409501,72.560257 71.081287,72.171914 70.745661,71.801834 70.35072,71.478034 69.955842,71.092515 69.66435,70.616461 69.240873,70.256076 68.855119,69.839768 68.472703,69.42142 68.097116,68.995773 67.740329,68.627647 67.411793,68.227229 67.135253,67.795222 66.836897,67.44142 66.536886,67.090654 66.283181,66.702235 66.034526,66.316501 65.670059,66.012846 65.470613,65.592264 65.239041,65.175552 65.14769,64.709548 64.910907,64.299465 c -0.303874,-0.375798 -0.602128,-0.752579 -0.799998,-1.198393 -0.175635,-0.448286 -0.403464,-0.8745 -0.59554,-1.315918 -0.163842,-0.454863 -0.480283,-0.822705 -0.6467,-1.278142 C 62.731586,60.04628 62.579157,59.586735 62.401176,59.142228 62.148477,58.705848 61.945429,58.259917 61.829284,57.766473 61.640572,57.308092 61.501108,56.8342 61.271562,56.392781 61.120834,55.905868 60.946069,55.4306 60.820536,54.935966 60.664895,54.45148 60.613267,53.935276 60.36392,53.479911 60.23432,52.990674 59.99107,52.545287 59.886577,52.048113 59.753273,51.573627 59.745752,51.062484 59.470549,50.633942 59.236861,50.193306 59.054095,49.725351 58.891991,49.254309 58.706038,48.74255 58.590573,48.200168 58.431837,47.679712 58.27699,47.174102 58.005537,46.733398 57.762078,46.266846 57.587313,45.787538 57.367295,45.328302 57.242953,44.830368 57.157233,44.345569 56.9706,43.911826 56.786091,43.459005 56.577612,42.988295 56.291872,42.548634 56.222684,42.025944 56.049355,41.466601 55.742643,40.966267 55.493712,40.438826 55.21928,39.951774 55.009955,39.431911 54.757679,38.933622 54.52229,38.511063 54.2527,38.108347 54.03085,37.67852 c -0.247975,-0.411341 -0.368655,-0.87236 -0.611214,-1.284461 -0.260485,-0.405188 -0.51038,-0.81905 -0.723617,-1.251273 -0.154091,-0.425359 -0.343257,-0.849626 -0.586964,-1.229657 -0.280668,-0.404478 -0.460305,-0.858365 -0.709614,-1.281302 -0.223257,-0.491546 -0.527044,-0.946813 -0.827834,-1.393526 -0.29605,-0.494896 -0.665299,-0.944319 -0.915186,-1.465678 -0.269064,-0.40557 -0.60486,-0.761915 -0.846773,-1.186349 -0.199634,-0.407421 -0.376063,-0.817292 -0.73288,-1.116026 -0.331654,-0.386449 -0.666716,-0.768688 -0.959259,-1.186707 -0.267213,-0.389817 -0.600306,-0.725069 -0.892007,-1.096074 -0.257536,-0.35709 -0.544009,-0.67423 -0.880855,-0.958761 -0.320277,-0.3264 -0.554192,-0.723738 -0.885581,-1.042669 -0.304214,-0.344391 -0.57052,-0.719603 -0.815936,-1.107783 -0.297297,-0.354974 -0.59534,-0.707467 -0.847256,-1.097261 -0.23932,-0.372397 -0.58512,-0.66169 -0.831512,-1.03053 C 41.67674,19.596737 41.351913,19.269033 41.130735,18.86826 40.838199,18.496656 40.491515,18.177661 40.210511,17.799723 39.95989,17.351603 39.70478,16.91805 39.321528,16.567 39.047248,16.160338 38.873745,15.702599 38.664264,15.260754 38.418746,14.846015 38.060802,14.493922 37.935402,14.013638 37.753784,13.4723 37.653298,12.878866 37.637938,12.310043 c -8e-6,-0.63501 0,-1.269997 -2.21e-4,-1.905007 -2.83e-4,-0.635459 -6.27e-4,-1.2709411 -0.0019,-1.9064044 -6.3e-4,-0.6330141 -0.0031,-1.2660584 0.0064,-1.8990045 0.0138,-0.5969763 0.03099,-1.1969838 0.142632,-1.7853504 0.125291,-0.5836534 0.259676,-1.1515614 0.282618,-1.7526045 0.101669,-0.5598274 0.275074,-1.0959949 0.467187,-1.6295507 1.165406,-1.89973777 3.457882,-3.2436658 5.371884,-2.32211884 0.5284,0.25621415 0.964085,0.61872372 1.379126,1.03191675 0.417627,0.27930706 0.867326,0.50232184 1.10539,0.97467579 0.310073,0.426153 0.632822,0.8376491 0.960057,1.2516282 0.278853,0.4399143 0.613224,0.826662 0.948185,1.2251867 0.265172,0.377537 0.60127,0.6671621 0.936181,0.9828131 0.27549,0.3492283 0.573865,0.6631218 0.927723,0.9375382 0.323603,0.310337 0.582225,0.6737347 0.939825,0.9457624 0.365329,0.299263 0.762765,0.5630815 1.068631,0.9283691 0.409402,0.3597732 0.88007,0.5924938 1.359345,0.8484698 0.442208,0.2839937 0.894334,0.5048957 1.42563,0.5594645 0.489471,0.1394646 0.919547,0.3826923 1.37574,0.6020333 0.475071,0.219515 0.976448,0.2644913 1.493915,0.3081449 0.545393,0.088365 1.081614,0.2444598 1.638546,0.236863 0.579617,0.037039 1.156123,0.1018956 1.722504,0.2354266 0.590094,0.09694 1.189236,0.04872 1.78506,0.05439 0.584859,-0.01172 1.17925,-0.01663 1.74653,-0.175332 0.152807,-0.05699 0.587312,-0.2820659 0.446612,-0.1997856 -1.275972,0.7474696 -2.553751,1.4918776 -3.833038,2.2336476 -0.06531,0.03802 0.126048,-0.08338 0.191018,-0.12189 1.40485,-0.831424 2.884319,-1.546968 4.218402,-2.4877449 1.207623,-0.851622 -2.558415,1.4794769 -3.837623,2.2192289 14.166711,-8.128565 -2.599517,1.544118 0.624563,-0.333128 1.41264,-0.822542 2.828995,-1.6387914 4.234821,-2.4729028 1.198416,-0.7110538 -5.338888,3.1914628 -3.617227,2.0956268 1.410444,-0.833045 2.887839,-1.561916 4.231343,-2.4991064 1.203194,-0.8392894 -5.095018,2.9104704 -3.809045,2.2045264 1.440223,-0.7906129 2.82926,-1.6723803 4.271882,-2.4586014 1.283936,-0.6997378 -2.530903,1.4652736 -3.795677,2.1990844 -0.07703,0.04467 0.154999,-0.08791 0.232479,-0.13183 1.420463,-0.8228783 2.840881,-1.6457531 4.261299,-2.4686053 0.148347,-0.058658 0.571366,-0.2824063 0.433792,-0.2017512 C 62.197989,11.605361 64.36585,10.452129 65.707204,9.4741238 67.118858,8.6509882 68.524732,7.8178519 69.942172,7.0047433 71.222022,6.270555 67.395602,8.495763 66.120004,9.2373213 65.560438,9.5626252 67.500012,8.3436521 66.934367,8.6446915 68.34765,7.8017662 69.755448,6.9496 71.174203,6.1159383 71.349082,6.013173 71.543576,5.9480139 71.727409,5.8622565 c 0.09199,-0.042935 0.36359,-0.1802079 0.276057,-0.1287685 -3.429199,2.0164042 -5.122964,2.8758989 -3.556573,2.0761623 1.431004,-1.0317391 3.390224,-1.9452848 4.624028,-2.7480186 1.239504,-0.8064453 -2.552575,1.4937938 -3.834118,2.2316029 -0.06648,0.038287 0.125442,-0.088365 0.188144,-0.132548 1.418366,-0.8116497 2.836732,-1.6233032 4.255098,-2.4349566 0.187351,-0.052044 0.301606,-0.076347 0.479909,-0.155641 0.07291,-0.032504 0.280781,-0.1516724 0.211918,-0.1113448 -1.275976,0.7469555 -2.554008,1.4904036 -3.833453,2.2314026 -0.06565,0.038022 0.127937,-0.0816 0.191924,-0.1223811 1.409046,-0.8250405 2.818091,-1.6500811 4.227141,-2.4751254 0.425737,-0.2260913 0.878551,-0.4010797 1.328942,-0.571166 0.456631,-0.1806236 0.930342,-0.3162708 1.375585,-0.5272969 0.44013,-0.2041323 0.845087,-0.4868938 1.337144,-0.5607987 0.492287,-0.1385197 0.982189,-0.2883023 1.467696,-0.4457574 0.444488,-0.2076472 0.899615,-0.3981581 1.375412,-0.5220586 0.487835,-0.1512188 0.965075,-0.3280251 1.463724,-0.4440868 0.51931,-0.14237483 1.061321,-0.19517482 1.587821,-0.30769135 0.594345,-0.031748 1.19207,-0.0294803 1.781559,-0.12283463 0.562099,-0.0943748 1.117164,-0.24706769 1.693183,-0.20375431 0.634269,-6.0473e-4 1.268613,-0.002615 1.902814,0.008693 0.604978,0.0154961 1.212246,0.0377953 1.80881,0.14830865 0.551301,0.10764093 1.096127,0.21754958 1.661975,0.20847872 0.5581,0.052611 1.10685,0.14808187 1.645792,0.30542362 0.544664,0.084586 1.090575,0.1567748 1.620956,0.3144566 0.640206,0.1076788 1.285417,0.1961575 1.887462,0.4566992 0.620398,0.2278677 1.262721,0.3099968 1.905921,0.4523603 0.56688,0.1395401 1.17499,0.1955905 1.66574,0.5387527 0.45626,0.432136 0.47788,0.804461 -0.11724,1.1005756 -9.815509,5.7483396 -1.72844,1.0103886 -0.39499,0.2363716 0.065,-0.037795 -0.1299,0.076498 -0.1881,0.1240063 -0.43024,0.3511181 0.10325,0.00189 -0.37002,0.2764724 -1.412743,0.8190311 -2.823384,1.6416868 -4.235075,2.4625283 1.278085,-0.742798 2.554889,-1.487792 3.834245,-2.2283903 0.0659,-0.038173 -0.12801,0.082545 -0.19378,0.1209826 -1.410117,0.8237442 -2.820304,1.6473977 -4.233749,2.465431 -0.21033,0.1217385 -0.442824,0.1820598 -0.657947,0.2934425 -4.120354,2.0266051 12.374606,-7.02377131 -1.234031,0.6730808 -0.412808,0.2292662 -0.851055,0.4113902 -1.262918,0.6429921 9.937355,-5.7534155 -0.06002,0.038476 -0.408703,0.2237858 -1.304995,0.6936415 2.556597,-1.4833699 3.83399,-2.2266102 0.3583,-0.2084787 -0.885388,0.6013266 -0.582614,0.3539906 -0.369411,0.2684975 -0.671051,0.6181755 -1.063509,0.8595626 -0.427556,0.1886362 -0.68637,0.5735999 -1.090893,0.7978582 -0.385576,0.3344126 0.04596,-0.011717 -0.377235,0.2438551 -0.252737,0.1522771 -0.426784,0.433508 -0.632496,0.6370544 -0.372812,0.3022112 -0.667544,0.7065602 -0.959939,1.0836242 -0.472366,0.516132 0.115464,-0.148006 -0.347414,0.453082 -0.230022,0.298734 -0.575173,0.486626 -0.77291,0.816435 -0.270161,0.353083 -0.617881,0.636487 -0.8664,1.009534 -0.03515,0.07223 -0.07064,0.144681 -0.105978,0.216907 -0.04203,0.06153 -0.09245,0.1183 -0.12616,0.184819 -0.149519,0.295144 -0.226356,0.603152 -0.543111,0.778284 -0.317253,0.453014 -0.513766,0.989004 -0.854113,1.432109 -0.355124,0.402531 -0.569737,0.870247 -0.822833,1.33991 -0.188107,0.549653 -0.544312,0.972374 -0.846822,1.460878 -0.267212,0.56502 -0.371716,1.199652 -0.625878,1.772776 -0.276284,0.542619 -0.631484,1.04231 -0.79553,1.636671 -0.130583,0.548205 -0.191622,1.107976 -0.370432,1.643044 -0.208856,0.432438 -0.440984,0.857344 -0.577273,1.31924 -0.180964,0.483942 -0.490054,0.9022 -0.417411,1.45192 -6.28e-4,0.639689 -5.86e-4,1.279737 -0.03099,1.918855 -0.03859,0.643347 -0.105563,1.284317 -0.240416,1.915551 -0.10715,0.616717 -0.02872,1.249538 -0.04248,1.87324 0.0155,0.627382 0.04071,1.256266 0.147439,1.876044 0.11229,0.636601 0.223484,1.265529 0.235389,1.914221 0.07499,0.609804 0.230551,1.201436 0.318577,1.807317 0.07756,0.510931 0.250809,0.986675 0.377801,1.484277 0.131906,0.453819 0.376517,0.854543 0.56177,1.287076 0.21309,0.419301 0.364573,0.86965 0.595506,1.280115 0.296769,0.404477 0.575592,0.819265 0.860723,1.231154 0.289588,0.362306 0.529622,0.754099 0.903065,1.042809 0.337134,0.323188 0.605239,0.687655 0.8745,1.063601 0.394843,0.341253 0.730273,0.72381 1.030647,1.151947 0.32005,0.337398 0.684219,0.633229 0.969736,1.001975 0.28713,0.34647 0.765857,0.407422 1.100719,0.70433 0.435481,0.254325 0.903553,0.32897 1.406392,0.297487 0.634934,0 1.269876,0 1.90481,-2.7e-5 0.634938,0 1.269872,0 1.90481,0 0.634945,0 1.269891,0 1.904833,1.44e-4 0.634979,1.89e-4 1.269958,5.48e-4 1.904928,0.0013 0.63456,6.19e-4 1.26913,0.0024 1.90366,-0.0049 0.63176,-0.0094 1.26482,-0.02381 1.89233,-0.104541 0.6308,-0.08814 1.255,-0.234482 1.89482,-0.23898 0.54314,-0.0418 1.08658,-0.10715 1.5867,-0.339439 0.45793,-0.185046 0.93528,-0.332637 1.40006,-0.497292 0.49876,-0.142526 1.02205,-0.198614 1.49436,-0.420015 1.74461,-0.99727 -4.5538,2.602564 -3.6331,2.105889 1.48356,-0.800285 3.19586,-2.010743 4.88026,-2.758931 0.47272,-0.171061 0.9666,-0.286601 1.43916,-0.4599 0.15406,-0.05771 0.59252,-0.284523 0.45055,-0.201449 -8.13903,4.765228 -1.60745,0.890937 0.82205,-0.499502 0.50248,-0.216643 0.98479,-0.476814 1.50266,-0.658719 1.48621,-0.810187 0.68269,-0.374815 -3.62252,2.123089 -0.0651,0.0378 0.13032,-0.07627 0.18886,-0.123553 0.44212,-0.357051 -0.11267,0.0049 0.373,-0.274242 1.41538,-0.81501 2.82822,-1.634415 4.24232,-2.451613 -1.27863,0.740867 -2.55692,1.482331 -3.83589,2.222627 -0.0662,0.03825 0.13142,-0.07839 0.19767,-0.116901 1.41395,-0.817743 2.82631,-1.638244 4.24292,-2.451352 0.20897,-0.119963 0.44436,-0.175786 0.64505,-0.31132 -1.27648,0.746404 -2.55083,1.496462 -3.82945,2.239185 -0.0655,0.03802 0.13115,-0.07722 0.18996,-0.124952 0.18417,-0.149896 0.36102,-0.310563 0.56468,-0.437476 0.0689,-0.04301 0.14763,-0.06746 0.22144,-0.100951 0.41506,-0.295862 0.77614,-0.661784 1.20134,-0.9456 0.17616,-0.14468 0.3287,-0.31166 0.49054,-0.470997 0.0587,-0.05771 0.0884,-0.146344 0.15889,-0.188863 0.13863,-0.08364 10.49629,-6.108725 0.43295,-0.219969 0.50026,-0.303647 0.73402,-0.858319 1.15281,-1.254459 0.16543,-0.126614 0.34238,-0.239131 0.49837,-0.377272 0.29087,-0.257651 0.43255,-0.649119 0.80746,-0.813347 0.21589,-0.193852 0.47204,-0.325417 0.67036,-0.538129 0.13232,-0.141846 0.22658,-0.316649 0.36098,-0.456552 0.0618,-0.06437 0.13599,-0.115464 0.20398,-0.173178 1.4134,-0.825558 2.80488,-1.689815 4.24018,-2.476652 1.28989,-0.707134 -2.5342,1.494395 -3.80377,2.237401 -0.0718,0.04207 0.14532,-0.08243 0.21033,-0.134476 0.22231,-0.177713 0.3261,-0.44541 0.56719,-0.603031 0.15023,-0.0867 0.31313,-0.151106 0.45911,-0.244724 0.33865,-0.217134 0.43974,-0.602249 0.69597,-0.89184 0.4286,-0.395354 0.94803,-0.663349 1.2889,-1.151498 0.41197,-0.3168 0.85197,-0.622631 1.10016,-1.092343 0.34348,-0.40481 0.79955,-0.692002 1.12999,-1.108521 0.28879,-0.366009 0.66129,-0.661666 0.98447,-0.996582 0.39193,-0.490095 0.8677,-0.913341 1.28282,-1.384977 0.53034,-0.537252 1.00652,-1.12907 1.55353,-1.65304 0.39271,-0.418114 0.8378,-0.78437 1.15421,-1.261161 0.37923,-0.416851 0.92339,-0.647954 1.17971,-1.167745 0.39834,-0.483515 0.84422,-0.928853 1.19363,-1.453701 0.43645,-0.493825 0.88421,-0.969951 1.30689,-1.474231 0.45907,-0.418563 0.91497,-0.835181 1.27563,-1.344563 0.46307,-0.49316 0.84666,-1.026848 1.2251,-1.586502 0.40772,-0.436501 0.84635,-0.839361 1.20373,-1.31625 0.34643,-0.64413 0.75638,-0.834611 1.13291,-1.404408 0.3021,-0.368731 0.64122,-0.688626 0.93196,-1.063004 0.40134,-0.402886 0.62261,-0.94648 1.05752,-1.322044 0.17423,-0.243288 0.31774,-0.512686 0.49463,-0.752319 0.22216,-0.300926 0.17756,-0.17246 0.44353,-0.442273 0.0846,-0.08576 0.15788,-0.182211 0.23683,-0.273222 0.59,-0.57284 1.01059,-1.289022 1.58587,-1.877756 0.46737,-0.564597 0.91937,-1.138458 1.41907,-1.674806 0.31105,-0.540125 0.8031,-0.917329 1.18955,-1.4013168 0.35183,-0.4864138 0.76534,-0.9358601 1.16443,-1.3813643 0.26702,-0.4075199 0.46049,-0.8580698 0.78683,-1.2193699 0.15783,-0.2580662 0.32738,-0.3949644 0.53156,-0.6084623 0.22235,-0.2325166 0.17575,-0.2625638 0.35996,-0.5378683 0.065,-0.097096 0.14192,-0.1856126 0.2129,-0.2784378 0.49709,-0.5188157 0.91507,-1.0827098 1.33445,-1.6651614 0.47307,-0.5215823 0.83735,-1.1101492 1.26916,-1.6635702 0.33271,-0.5328151 0.78916,-0.9633259 1.10881,-1.50316714 0.29506,-0.39945445 0.66299,-0.73958921 0.91488,-1.17505122 0.26857,-0.52093979 0.70072,-0.91165224 0.98359,-1.42509714 0.16652,-0.3255307 0.33052,-0.4406362 0.57873,-0.6930293 0.22828,-0.2322519 0.20572,-0.282444 0.38746,-0.5589807 0.063,-0.095849 0.13471,-0.1856882 0.20194,-0.2785889 0.31397,-0.4798715 0.60531,-0.9740182 1.04248,-1.3561322 0.28316,-0.4710992 0.58952,-0.9300131 1.00711,-1.2948244 0.32496,-0.4907036 0.67812,-0.9712932 1.06701,-1.4139552 0.10999,-0.1710614 0.20455,-0.3519873 0.32055,-0.5190991 0.21762,-0.3137008 0.55126,-0.5312995 0.70844,-0.891908 0.25591,-0.4587816 0.71119,-0.7204988 0.99608,-1.1592414 0.27258,-0.5691443 0.69162,-1.0085103 1.08237,-1.4933363 0.28599,-0.475915 0.58785,-0.911373 0.9933,-1.297444 0.35168,-0.516295 0.76013,-0.986328 1.03597,-1.554512 0.32788,-0.429018 0.64629,-0.848542 0.906,-1.321341 0.39191,-0.390698 0.64354,-0.890518 0.98715,-1.322941 0.40222,-0.423734 0.65078,-0.960476 1.06367,-1.37368 0.28335,-0.446419 0.59351,-0.878865 1.02072,-1.199962 0.16342,-0.243667 0.25459,-0.515747 0.42951,-0.752141 0.26385,-0.356599 0.11713,-0.106054 0.41555,-0.417948 0.0665,-0.06962 0.12019,-0.15069 0.18009,-0.226054 0.30996,-0.430284 0.58686,-0.890554 0.98898,-1.241722 0.40486,-0.552967 0.737,-1.155235 1.23313,-1.642495 0.39811,-0.490613 0.91341,-0.87758 1.27332,-1.403906 0.43902,-0.451377 0.86278,-0.907022 1.22314,-1.421975 0.1917,-0.160479 0.43123,-0.30822 0.60622,-0.486074 0.19907,-0.202393 0.1214,-0.200919 0.27647,-0.449075 0.0489,-0.07827 0.11237,-0.146382 0.16868,-0.219591 0.39488,-0.335509 0.91465,-0.516892 1.10449,-1.046782 0.31835,-0.405445 0.79507,-0.552918 1.13565,-0.930062 0.22805,-0.447292 0.63061,-0.716156 0.96299,-1.080661 0.47736,-0.358035 0.89979,-0.78977 1.36585,-1.163119 0.40509,-0.383906 0.72868,-0.855179 1.22217,-1.133673 0.24986,-0.236485 0.36121,-0.487575 0.56678,-0.752671 0.16154,-0.208478 0.30195,-0.248163 0.50318,-0.411193 0.0912,-0.07381 0.17296,-0.158589 0.25932,-0.237884 0.49936,-0.365442 0.8018,-0.931619 1.2948,-1.316178 0.35829,-0.478428 0.91132,-0.727042 1.25554,-1.221003 0.38705,-0.484948 0.99326,-0.715385 1.34046,-1.25046 0.43534,-0.364234 0.79967,-0.804008 1.24172,-1.153248 0.52733,-0.548012 -0.1929,0.176542 0.37959,-0.322469 0.31955,-0.278589 0.47888,-0.717388 0.89198,-0.901247 0.55096,-0.493875 1.17007,-0.912385 1.69602,-1.434947 0.48681,-0.369978 0.8658,-0.880921 1.41721,-1.159774 0.45037,-0.345335 0.80185,-0.809628 1.30451,-1.091233 0.13565,-0.121096 0.2843,-0.22851 0.4083,-0.361436 0.005,-0.0057 0.30426,-0.401268 0.31877,-0.410056 0.14347,-0.08678 10.48599,-6.08765 0.43935,-0.245064 0.48451,-0.297336 0.91626,-0.654463 1.34342,-1.026297 0.21498,-0.141014 0.37963,-0.341443 0.59444,-0.476738 0.20976,-0.13217 0.44674,-0.192529 0.58745,-0.423697 0.29491,-0.191433 0.55378,-0.429917 0.85575,-0.61065 0.0717,-0.04286 0.16059,-0.05333 0.22972,-0.100195 0.0639,-0.04339 0.10787,-0.110363 0.16177,-0.165582 0.17744,-0.103559 0.2183,-0.1073 0.35402,-0.268119 0.0544,-0.06444 0.0722,-0.163994 0.14446,-0.207647 1.37538,-0.832033 3.06377,-1.970121 4.71329,-2.658641 1.51678,-0.795239 0.55602,-0.296012 -3.55994,2.089327 -0.0793,0.046 0.15843,-0.09343 0.23232,-0.147856 0.97787,-0.720419 -0.55072,0.335585 0.48554,-0.334563 0.0843,-0.05461 0.16153,-0.119736 0.24234,-0.179603 1.46606,-0.958349 3.06515,-1.704458 4.51869,-2.681681 1.19461,-0.803142 -5.0008,2.853592 -3.73848,2.161689 1.45924,-0.799842 2.88422,-1.66069 4.32944,-2.485609 0.0995,-0.05684 0.40336,-0.217399 0.30452,-0.159421 -1.25258,0.734805 -2.51077,1.460062 -3.76613,2.190093 1.49872,-0.937879 3.07849,-1.742665 4.57116,-2.690166 1.20528,-0.765052 -4.95801,2.832416 -3.70726,2.144209 1.4648,-0.805995 2.89555,-1.672471 4.34966,-2.49767 0.20405,-0.115843 0.43201,-0.186142 0.63337,-0.307805 0.20931,-0.104353 0.82422,-0.440969 0.62215,-0.32349 -1.23654,0.719025 -4.96763,2.838399 -3.71481,2.148125 1.68839,-0.930274 3.15673,-2.093938 4.94048,-2.729518 1.59258,-0.721206 0.26071,-0.128466 -3.52847,2.078441 -0.08,0.04664 0.1663,-0.0827 0.24457,-0.132359 0.58246,-0.369864 -0.1321,0.03099 0.43731,-0.295407 1.42472,-0.81701 2.85182,-1.629903 4.2777,-2.444848 0.55906,-0.221858 1.15294,-0.300964 1.72025,-0.4946 0.50423,-0.229229 0.96484,-0.54497 1.5134,-0.669763 0.58997,-0.234935 1.19302,-0.403721 1.82186,-0.50327 0.69145,-0.189468 1.33539,-0.497333 2.01946,-0.708624 0.584,-0.189997 1.18266,-0.319786 1.764,-0.518491 0.5866,-0.139842 1.17752,-0.251792 1.76554,-0.382261 0.62158,-0.201071 1.22889,-0.443524 1.86777,-0.5906 0.68832,-0.17348 1.37355,-0.36703 2.07988,-0.453899 0.6613,-0.05053 1.32848,-0.06187 1.97869,-0.2081 0.62161,-0.141544 1.22942,-0.346923 1.86403,-0.426267 0.62881,-0.02268 1.25828,-0.0049 1.8874,-0.0102 0.67655,3.93e-4 1.35309,0.0013 2.02962,0.0026 0.73961,6.27e-4 1.47922,-0.0013 2.21883,-6.31e-4 0.70046,2.6e-5 1.40089,-0.0038 2.10132,-0.0045 0.6306,5.9e-4 1.26157,-6.08e-4 1.89159,0.02986 0.57794,0.03666 1.15423,0.09823 1.71424,0.253531 0.54276,0.118791 1.10313,0.115691 1.64522,0.244233 0.57496,0.114822 1.14912,0.1296 1.7351,0.126463 0.64409,0.02646 1.28783,0.0723 1.92284,0.189166 0.62513,0.103899 1.24764,0.138292 1.88182,0.109984 0.63674,-0.0013 1.27354,-0.0031 1.91028,0.0026 0.65358,0.0102 1.30888,0.02532 1.95717,0.116901 0.628,0.09884 1.23963,0.271937 1.87051,0.351307 0.62161,0.09925 1.23909,0.207496 1.87193,0.191773 0.57543,0.0381 1.15088,0.09989 1.69975,0.288454 0.51195,0.153638 1.04728,0.218683 1.54807,0.414176 0.55606,0.142715 1.10338,0.299338 1.64114,0.501475 0.54827,0.121965 1.11816,0.120907 1.65608,0.296844 0.56683,0.176693 1.14069,0.314343 1.71445,0.466575 0.59757,0.149896 1.17414,0.342009 1.7408,0.585041 0.68958,0.206664 1.39089,0.369486 2.0756,0.593276 0.57042,0.158438 1.15594,0.271823 1.68397,0.553485 0.59522,0.241625 1.19866,0.472229 1.82089,0.634552 0.55352,0.138029 1.12137,0.244082 1.64821,0.466889 0.44848,0.208441 0.90816,0.389193 1.33973,0.632617 0.57096,0.206552 1.16556,0.331125 1.75469,0.474717 0.52602,0.170796 1.02839,0.406318 1.48803,0.716095 0.42871,0.245859 0.89754,0.402342 1.34785,0.603149 0.49287,0.211502 0.9207,0.509544 1.3085,0.880849 0.36798,0.2832 0.7617,0.533518 1.10871,0.841908 0.3261,0.307692 0.67898,0.586942 1.05863,0.826103 0.43945,0.295256 0.85445,0.621607 1.2108,1.016303 0.3541,0.345185 0.7984,0.593023 1.10009,0.994776 0.3881,0.374929 0.82565,0.663836 1.23761,1.008166 0.34057,0.392345 0.69046,0.753982 1.13919,1.027903 0.481,0.344806 0.92783,0.733466 1.43206,1.0466 0.47936,0.436093 0.95107,0.880135 1.45104,1.29315 0.42313,0.341934 0.81048,0.715801 1.17478,1.119167 0.37384,0.360643 0.83701,0.624473 1.18383,1.019301 0.38852,0.385667 0.82989,0.712747 1.20455,1.112421 0.37652,0.429875 0.79731,0.809283 1.16812,1.244318 0.37233,0.448074 0.88546,0.754137 1.21211,1.245679 0.29979,0.40111 0.73224,0.68027 0.9929,1.11676 0.22805,0.439302 0.44519,0.863887 0.7784,1.239163 0.29102,0.402955 0.56802,0.819965 0.83197,1.24043 0.25304,0.404043 0.54379,0.759382 0.81796,1.146353 0.18176,0.459549 0.30784,0.936389 0.53846,1.375945 0.16037,0.473578 0.4705,0.873119 0.596,1.361782 0.11403,0.56058 0.31476,1.098036 0.38493,1.66786 0.1378,0.53653 0.30757,1.063139 0.44861,1.598623 0.15704,0.541387 0.1979,1.114178 0.32285,1.664477 0,0.634942 0,1.269876 0,1.90481 0,0.634938 0,1.269876 0,1.904814 0,0.634934 0,1.269868 0,1.90481 0,0.634934 0,1.269872 0,1.904806 0,0.634934 0,1.269872 -2e-5,1.904798 0,0.63495 -2e-5,1.269887 2e-5,1.904837 7e-5,0.635176 1.7e-4,1.270355 6.4e-4,1.905535 6.2e-4,0.635445 0.002,1.270893 0.002,1.906337 -0.002,0.6224579 -10e-4,1.2456717 -0.0451,1.8669239 -0.0503,0.5584894 -0.13849,1.1095823 -0.31956,1.6425523 -0.0525,0.6390084 -0.14397,1.2720641 -0.28747,1.8975078 -0.0314,0.6579326 -0.0848,1.3177851 -0.26839,1.9537964 -0.17888,0.6073511 -0.35837,1.2249712 -0.37754,1.86209366 -0.0413,0.62769253 -0.1062,1.25760365 -0.3146,1.85553624 -0.0929,0.2550424 -0.13448,0.5137586 -0.21975,0.770672 -0.0499,0.1501228 -0.13681,0.286526 -0.18315,0.4377637 -0.0268,0.087912 -0.034,0.1806614 -0.0508,0.2709921 -0.13115,0.5186797 -0.30429,1.015559 -0.36491,1.5514279 -0.15704,0.5767294 -0.19241,1.1633649 -0.34001,1.7433636 -0.17007,0.4978318 -0.4694,0.9377196 -0.59055,1.449135 -0.15323,0.4798072 -0.38697,0.9219136 -0.49039,1.4202518 -0.0656,0.576068 -0.1632,1.1559156 -0.54235,1.6182616 -0.35509,0.372359 -0.48805,0.857087 -0.61335,1.344755 -0.0603,0.146797 -0.14513,0.283352 -0.19978,0.432488 -0.12306,0.335735 -0.17152,0.700554 -0.40319,0.992568 -0.23732,0.711934 -0.55108,1.395715 -0.78516,2.110068 -0.23709,0.734026 -0.54216,1.439879 -0.89587,2.123539 -0.18459,0.661618 -0.42916,1.303801 -0.6353,1.958479 -0.20454,0.548561 -0.48743,1.065071 -0.71357,1.606481 -0.30928,0.673829 -0.4351,1.427334 -0.76236,2.097645 -0.21619,0.433459 -0.48789,0.844089 -0.69621,1.279566 -0.20432,0.427023 -0.29635,0.904978 -0.54823,1.311402 -0.33547,0.872005 -0.81724,1.67749 -1.09697,2.572395 -0.43054,0.912268 -0.8536,1.832402 -1.17274,2.789597 0,0 -4.24905,2.035472 -4.24905,2.035472 z"
       id="path15"
       inkscape:connector-curvature="0" />
    <ellipse
       style="fill:#d7e3f4;stroke-width:0.62855518"
       cx="236.56699"
       cy="13.685782"
       rx="8.2541752"
       ry="7.7779737"
       id="ellipse17" />
    <ellipse
       style="fill:#6f8a91;stroke-width:0.3672851"
       cx="236.72569"
       cy="13.884142"
       rx="4.7620244"
       ry="4.6032906"
       id="ellipse19" />
    <ellipse
       style="fill:#d5f6ff;stroke-width:0.13302526"
       cx="238.90833"
       cy="11.840454"
       rx="1.7460755"
       ry="1.6468667"
       id="ellipse21" />
    <path
       style="fill:#0044aa;stroke-width:0.62855518"
       d="m 0,81.205188 c 0.77424299,-0.614936 1.600095,-1.160549 2.418422,-1.714144 0.556549,-0.406923 1.139721,-0.776526 1.6995392,-1.178366 1.9058038,-1.284321 3.9626746,-2.351055 5.9538448,-3.481526 -0.2491729,0.182211 1.041924,-0.582603 0.782803,-0.434529 -8.167321,4.666734 -0.568258,0.390792 1.664225,-0.965318 0.731203,-0.410059 1.525722,-0.68409 2.251604,-1.102941 0.923738,-0.45738 1.863817,-0.874496 2.793845,-1.319289 0.698213,-0.23864 1.379184,-0.518125 2.067288,-0.783273 0.550023,-0.172234 1.05804,-0.445739 1.573664,-0.696133 0.240461,-0.130658 0.524183,-0.110702 0.778352,-0.182211 0.241176,-0.06769 0.464804,-0.182437 0.712109,-0.244535 0.575529,-0.11452 1.164629,-0.123061 1.749263,-0.133531 0.612274,-0.04513 1.245518,0.07933 1.844664,-0.06746 0.544165,-0.15583 1.108425,-0.200013 1.670882,-0.229493 0.624929,-0.02457 1.250497,-0.02381 1.875797,-0.02381 0.635532,6.16e-4 1.27107,0.0019 1.906602,0.0019 0.63513,4.5e-4 1.270261,4.77e-4 1.90539,4.99e-4 0.663938,-0.0013 1.327861,0.0013 1.991791,0.0024 0.704591,1.89e-4 1.409183,-0.0013 2.113775,-0.0019 0.642856,-5.71e-4 1.285715,-6.42e-4 1.928571,-6.42e-4 0.646186,4.99e-4 1.292372,-0.0013 1.938546,0.0019 0.733134,-0.02457 1.448311,-0.0072 2.169872,0.119244 0.715306,0.07601 1.412118,0.243061 2.121313,0.356069 0.760315,0.112365 1.528787,0.141808 2.296118,0.156775 0.782536,-0.04894 1.54354,0.07412 2.31521,0.176731 0.765173,0.0378 1.508269,0.190526 2.262357,0.310072 0.783084,0.05964 1.550528,0.194079 2.324848,0.319408 0.727075,0.04584 1.430233,0.180094 2.142689,0.321562 0.68352,0.108094 1.376228,0.128504 2.066801,0.141581 0.630485,-0.05677 1.223149,0.0601 1.83482,0.183383 0.537627,0.0378 1.027287,0.256365 1.553439,0.356107 0.57338,0.144189 1.181858,0.220006 1.740544,0.418186 0.520335,0.206211 1.074414,0.2609 1.627683,0.294689 0.52749,0.134929 1.045626,0.248807 1.555979,0.435266 0.49536,0.10405 0.9408,0.332371 1.436916,0.436762 0.568225,0.151559 1.172095,0.225222 1.727535,0.421795 0.519737,0.12378 1.007448,0.329613 1.518432,0.479569 0.486335,0.152277 0.946364,0.333581 1.457193,0.406473 0.529606,0.08409 1.035065,0.255043 1.572423,0.321033 0.56126,-0.0049 1.084479,0.192643 1.632609,0.28407 0.612226,0.04275 1.208617,0.10405 1.811969,0.212371 0.673376,0.04634 1.303763,0.283729 1.962482,0.40842 0.593594,0.09385 1.195993,0.100271 1.79551,0.107376 0.631411,0.0049 1.262838,0.0013 1.894257,2.3e-5 0.635274,-0.0013 1.270556,-0.0013 1.905838,-0.0019 0.582539,0.06436 1.124542,-0.138255 1.692219,-0.226394 0.567216,0.0049 1.086712,-0.156321 1.632026,-0.276246 0.103408,-0.01172 0.208668,-0.01436 0.310186,-0.03742 0.192491,-0.04418 0.371263,-0.13731 0.563165,-0.183647 0.344277,-0.08338 0.685742,-0.116183 1.02774,-0.213581 0.704806,-0.187427 1.416431,-0.355767 2.111199,-0.577353 0.676512,-0.340725 1.396429,-0.541028 2.143048,-0.645532 0.400551,-0.04063 0.818684,-0.03477 1.196791,-0.196687 0.146986,-0.06297 0.273752,-0.165808 0.416066,-0.238753 0.530532,-0.178431 1.047549,-0.370544 1.600777,-0.473253 0.413114,-0.101669 0.848829,-0.03942 1.264699,-0.09929 0.17893,-0.0257 0.34901,-0.0943 0.52398,-0.139692 0.58788,-0.0094 1.01118,-0.369751 1.52627,-0.584265 0.54718,-0.100007 1.06173,-0.288832 1.60047,-0.419418 0.5799,-0.11331 1.17285,-0.122343 1.76158,-0.132813 0.71013,-0.09762 1.39475,-0.291326 2.09293,-0.447001 0.51678,-0.321071 1.14903,-0.309467 1.69128,-0.536942 0.52057,-0.206438 1.08162,-0.24189 1.63461,-0.270728 0.63249,0.04108 1.23392,-0.0898 1.85182,-0.194078 0.59326,-0.02457 1.13309,-0.2592 1.71292,-0.361625 0.52952,-0.07627 1.02855,-0.303194 1.53327,-0.478836 0.59993,-0.183647 1.22828,-0.218306 1.85097,-0.242797 0.63733,-0.01663 1.27499,-0.01172 1.91247,-0.01172 0.6024,0.07268 1.15634,-0.06176 1.73762,-0.180548 0.58162,-0.102878 1.17352,-0.117127 1.76254,-0.129486 0.63202,-0.0094 1.26413,-0.0072 1.8962,-0.0049 0.63552,0.0013 1.27104,0.0013 1.90655,0.0019 0.63503,1.89e-4 1.27005,1.89e-4 1.90507,1.89e-4 0.63493,0 1.26986,0 1.9048,0 0.64676,5.22e-4 1.29353,-0.0013 1.94029,0.0019 0.71655,0.0019 1.4331,4.9e-5 2.14965,-6.39e-4 0.648,-6.19e-4 1.296,-6.19e-4 1.944,-0.0012 0.63449,-9.4e-5 1.26898,-7.1e-5 1.90346,-7.1e-5 0.5475,0.13542 1.09844,0.231609 1.66027,0.278437 0.6062,0.09026 1.2474,0.1632 1.83131,0.360265 0.55709,0.165354 1.08521,0.39419 1.65552,0.515301 0.6257,0.07506 1.24116,0.116182 1.85923,0.241134 0.70196,0.05204 1.34681,0.252056 2.00954,0.472108 0.57866,0.322242 1.18638,0.527845 1.83958,0.620447 0.64933,0.07672 1.30044,0.216189 1.89479,0.493565 0.62182,0.25954 1.23036,0.541598 1.88775,0.69922 0.59358,0.116901 1.16943,0.313889 1.73991,0.515161 0.55087,0.114519 1.04918,0.367219 1.60454,0.462773 0.63391,0.141127 1.20516,0.447976 1.8329,0.607974 0.60596,0.214299 1.18464,0.482944 1.81178,0.632398 0.59665,0.07317 1.1181,0.386778 1.68136,0.572077 0.59826,0.109266 1.11929,0.424766 1.68155,0.634012 0.54918,0.117581 1.08429,0.204057 1.59727,0.444412 0.50801,0.209046 1.0381,0.389699 1.51489,0.664773 0.46915,0.236372 0.99348,0.32417 1.49732,0.464179 0.64076,0.134929 1.24066,0.407849 1.82749,0.691642 0.62822,0.246085 1.2756,0.458929 1.93078,0.624034 0.63845,0.07744 1.16941,0.420752 1.71814,0.722979 0.57858,0.247974 1.1642,0.475082 1.7823,0.602913 0.60479,0.201676 1.22336,0.317178 1.82634,0.521027 0.53771,0.169852 1.10289,0.195288 1.66202,0.215962 0.62442,0.01436 1.24909,0.01172 1.87363,0.0094 0.63553,-0.0019 1.27106,-0.0024 1.90659,-0.0024 0.63513,-3.33e-4 1.27028,-3.33e-4 1.90541,-3.33e-4 0.63494,0 1.26987,0 1.90481,2.7e-5 0.60204,0.07128 1.15547,-0.06437 1.73615,-0.183874 0.63462,-0.08837 1.24816,-0.252813 1.88504,-0.34201 0.7355,-0.09551 1.47782,-0.09883 2.21809,-0.106885 0.66122,-0.17057 1.37303,-0.133757 2.01989,-0.346242 0.6028,-0.09789 1.14202,-0.370734 1.73835,-0.496653 0.57507,-0.0189 1.10693,-0.178658 1.66252,-0.299943 0.3721,-0.105713 0.77064,-0.04895 1.14635,-0.112139 0.17079,-0.02872 0.33172,-0.100233 0.49857,-0.147061 0.5215,-0.07151 0.97856,-0.30943 1.49549,-0.408419 0.59653,-0.09385 1.17276,-0.291856 1.74864,-0.472184 0.4132,-0.158703 0.86545,-0.13304 1.2909,-0.218079 0.18101,-0.03628 0.35203,-0.111912 0.52925,-0.163918 0.53492,-0.136857 1.09773,-0.239131 1.60023,-0.475487 0.64318,-0.219515 1.2894,-0.436358 1.96413,-0.542597 0.63969,-0.207382 1.29311,-0.346923 1.93857,-0.53136 0.64596,-0.235427 1.2546,-0.550148 1.92368,-0.72274 0.61011,-0.119244 1.2552,-0.184365 1.82753,-0.437072 0.55151,-0.175559 1.10078,-0.364951 1.66476,-0.500523 0.55319,-0.148006 1.07669,-0.342463 1.65178,-0.418182 0.0981,-0.0094 0.1979,-0.0049 0.29424,-0.0257 0.16819,-0.03477 0.32353,-0.116409 0.4895,-0.160365 0.26959,-0.07151 0.52637,-0.103105 0.79006,-0.198123 0.55966,-0.338948 1.19003,-0.482018 1.83037,-0.567707 0.5902,0.0049 1.13712,-0.202394 1.71447,-0.29212 0.52911,-0.06697 1.02752,-0.293896 1.5302,-0.46862 0.57697,-0.09124 1.11629,-0.288718 1.6801,-0.428659 0.59458,-0.05321 1.16352,-0.203603 1.74793,-0.315477 0.58944,-0.03364 1.12646,-0.265701 1.70407,-0.366765 0.59904,-0.08409 1.20523,-0.08863 1.80896,-0.09479 0.63387,-0.0024 1.26773,-6.38e-4 1.9016,3.59e-4 0.63539,0.0013 1.27078,0.0013 1.90617,0.0013 0.5478,0.13542 1.09899,0.231609 1.66112,0.278476 0.60272,0.01436 1.18366,0.02835 1.77047,0.16747 0.58543,0.06508 1.11066,0.286564 1.63776,0.532286 0.49853,0.151559 0.95332,0.39512 1.46416,0.508793 0.57821,0.09789 1.13653,0.279534 1.68309,0.488315 0.59503,0.315023 1.2662,0.449041 1.90969,0.635221 0.10549,0.048 0.21596,0.08598 0.31616,0.143962 0.17722,0.102614 0.32674,0.247786 0.49869,0.359206 0.23138,0.149896 0.4943,0.218571 0.74196,0.338608 0.52407,0.170344 1.03735,0.373947 1.56759,0.526727 0.53604,0.185763 1.04775,0.432415 1.58567,0.611656 0.43862,0.292951 0.92828,0.396022 1.44283,0.451279 0.55426,-0.01663 1.00306,0.299074 1.49741,0.488836 0.46688,0.143736 0.9055,0.366312 1.34492,0.578824 0.48404,0.118072 0.94838,0.289776 1.43052,0.417354 0.54471,0.20572 1.08764,0.382193 1.5993,0.665416 0.60691,0.245972 1.25256,0.340271 1.87721,0.530052 0.4747,0.189354 1.03497,0.324775 1.49459,0.537989 0.4627,0.155603 0.87143,0.406851 1.34867,0.521998 0.52963,0.04229 1.01882,0.242684 1.54037,0.333922 0.46593,0.257574 1.00732,0.262185 1.49506,0.439638 0.50183,0.158211 1.00967,0.235654 1.50975,0.398702 0.523,0.176277 1.08303,0.119736 1.60966,0.260977 0.52651,0.129713 1.04797,0.206664 1.56412,0.372245 0.52827,0.154659 1.08054,0.177222 1.62691,0.197178 0.62508,0.01663 1.25042,0.01172 1.87564,0.01172 0.63575,-0.0013 1.27149,-0.0019 1.90722,-0.0024 0.63515,-3.32e-4 1.27028,-3.32e-4 1.90543,-3.32e-4 0.63493,0 1.26987,0 1.90481,0 0.63492,2.2e-5 1.26985,2.2e-5 1.90479,2.2e-5 0.60206,0.07128 1.15546,-0.06436 1.73614,-0.183874 0.58161,-0.103332 1.17357,-0.117581 1.76261,-0.12994 0.63204,-0.0094 1.26415,-0.0072 1.89624,-0.0049 0.53388,-0.157758 1.08063,-0.236145 1.63404,-0.279194 0.59443,0.0094 1.1494,-0.182211 1.73614,-0.257537 0.67587,-0.0094 1.32387,-0.152768 1.98535,-0.270123 0.62068,-0.240151 1.27215,-0.354217 1.93125,-0.418136 0.63924,-0.04845 1.28078,-0.04679 1.92139,-0.04751 0.55923,-0.01663 1.09829,-0.192416 1.65839,-0.254513 0.55987,0.01172 1.07306,-0.199333 1.61991,-0.287282 0.57055,-0.23161 1.17998,-0.314381 1.78876,-0.367597 0.64351,0.0072 1.26023,-0.173896 1.89419,-0.261619 0.61738,-0.117354 1.26446,-0.0019 1.87061,-0.160365 0.54359,-0.160819 1.10899,-0.203339 1.67202,-0.232101 0.58429,-0.206211 1.226,-0.166299 1.80573,-0.366425 0.34235,-0.162747 0.73307,-0.140145 1.09053,-0.229228 0.1637,-0.04086 0.31488,-0.121399 0.4748,-0.175068 0.6142,-0.05155 1.18818,-0.236372 1.78375,-0.374589 0.56355,-0.179603 1.18568,-0.236145 1.73175,-0.464035 0.24669,-0.136592 0.54048,-0.132322 0.80083,-0.216907 0.24121,-0.07839 0.45852,-0.200278 0.70742,-0.269707 0.36385,-0.119509 0.75776,-0.06486 1.12767,-0.129222 0.17034,-0.02986 0.33036,-0.101443 0.49676,-0.148234 0.54614,-0.126387 1.12459,-0.218796 1.63081,-0.466578 0.52927,-0.286678 1.0646,-0.486743 1.65941,-0.589229 0.63684,-0.03666 1.24631,-0.217625 1.87673,-0.307237 0.49601,-0.271786 1.08591,-0.236863 1.59484,-0.444817 0.32417,-0.167017 0.69966,-0.140636 1.04146,-0.226393 0.16154,-0.04063 0.31076,-0.121172 0.46881,-0.174123 0.5507,-0.154432 1.12546,-0.173896 1.69348,-0.192416 0.63009,-0.01436 1.26039,-0.01172 1.89058,-0.0094 0.63579,0.0013 1.27156,0.0019 1.90736,0.0024 0.67755,-0.03288 1.3033,0.250734 1.94268,0.429161 0.61265,0.205493 1.26785,0.299755 1.87333,0.522308 0.61228,0.254589 1.24617,0.474153 1.83158,0.789782 0.54661,0.313814 1.17033,0.379177 1.73671,0.643751 0.59947,0.276926 1.24469,0.449235 1.84005,0.731055 0.5235,0.2352 1.09082,0.332561 1.64209,0.483111 0.65285,0.260069 1.32285,0.482899 2.00523,0.651783 0.64761,0.296428 1.36985,0.325682 2.03805,0.536444 0.53803,0.175067 1.09055,0.328894 1.60607,0.564593 0.50775,0.212145 1.04407,0.300812 1.56434,0.475033 0.52692,0.124007 1.05048,0.177223 1.57087,0.327837 0.58557,0.134211 1.11417,0.430038 1.68321,0.617 0.49582,0.296504 1.03388,0.428353 1.60099,0.491803 0.5124,0.159156 1.02393,0.272126 1.52659,0.456885 0.51663,0.146116 0.96347,0.455077 1.4633,0.648264 0.54979,0.232592 1.15093,0.314948 1.70597,0.523639 0.41009,0.300585 0.87286,0.49898 1.32701,0.718658 0.47216,0.15394 0.9452,0.314078 1.40001,0.51713 0.50316,0.203603 0.97666,0.473439 1.45703,0.7259 0.4823,0.135647 0.95204,0.307766 1.43743,0.436807 0.5365,0.178885 1.04645,0.423126 1.58263,0.601111 0.43933,0.2928 0.9295,0.396469 1.4446,0.451941 0.503,0.114028 0.91411,0.416689 1.40945,0.551599 0.42987,0.294047 0.95615,0.2976 1.42617,0.472539 0.53252,0.148233 0.97121,0.491925 1.47199,0.709463 0.47867,0.163427 0.93323,0.387182 1.38902,0.605836 0.46273,0.132812 0.8042,0.486224 1.23265,0.685802 0.44483,0.202394 0.87248,0.3727 1.36103,0.444957 0.52901,0.228283 1.03979,0.498243 1.57303,0.722267 0.45094,0.370356 1.02558,0.425239 1.54364,0.632655 0.23637,0.101443 0.48658,0.152769 0.73759,0.201222 0,0 -3.88023,2.685377 -3.88023,2.685377 v 0 c -0.25954,-0.0703 -0.51694,-0.145852 -0.76764,-0.244006 -0.54588,-0.164863 -1.0678,-0.362495 -1.55574,-0.664324 -0.49993,-0.224504 -0.99033,-0.494634 -1.52084,-0.634201 -0.50732,-0.12189 -0.97472,-0.331653 -1.44391,-0.557231 -0.40122,-0.236598 -0.778,-0.51575 -1.22267,-0.672306 -0.45116,-0.223294 -0.92144,-0.405426 -1.38332,-0.605147 -0.46774,-0.242079 -0.9187,-0.522856 -1.43614,-0.652044 -0.4925,-0.119736 -0.9718,-0.258331 -1.43064,-0.478405 -0.45168,-0.17178 -0.86974,-0.432938 -1.3597,-0.488194 -0.53081,-0.09906 -1.02119,-0.279534 -1.5,-0.529387 -0.5182,-0.204548 -1.03435,-0.41201 -1.56783,-0.575146 -0.50147,-0.160819 -1.02038,-0.28184 -1.49285,-0.517984 -0.46142,-0.254589 -0.935,-0.493777 -1.426,-0.685421 -0.47751,-0.174388 -0.95549,-0.350211 -1.42463,-0.544498 -0.42894,-0.221178 -0.86247,-0.431225 -1.28292,-0.666603 -0.5831,-0.164145 -1.16643,-0.324926 -1.72861,-0.554713 -0.47848,-0.219969 -0.94251,-0.476837 -1.45194,-0.62261 -0.47812,-0.165581 -0.9782,-0.267099 -1.46919,-0.385848 -0.57957,-0.108812 -1.11848,-0.309392 -1.64796,-0.568422 -0.55191,-0.208819 -1.09106,-0.458188 -1.67151,-0.581983 -0.52496,-0.132548 -1.07371,-0.155603 -1.58469,-0.348132 -0.52699,-0.169134 -1.07971,-0.257083 -1.58018,-0.50601 -0.5191,-0.186974 -1.03776,-0.376517 -1.57154,-0.518177 -0.68221,-0.15583 -1.36316,-0.30773 -2.02495,-0.540885 -0.68,-0.19268 -1.34841,-0.420347 -2.0173,-0.647599 -0.5687,-0.155603 -1.15306,-0.263773 -1.68109,-0.540151 -0.60986,-0.244347 -1.22866,-0.466908 -1.83265,-0.726354 -0.58885,-0.21547 -1.21343,-0.33668 -1.75374,-0.674108 -0.58318,-0.276586 -1.1892,-0.507772 -1.79699,-0.723931 -0.6204,-0.17057 -1.24136,-0.33755 -1.86031,-0.513827 -0.61137,-0.184365 -1.21918,-0.370923 -1.8679,-0.319445 -0.63577,-6.2e-4 -1.27154,-0.0019 -1.90731,-0.0024 -0.62612,3.1e-4 -1.2527,-0.0019 -1.87815,0.03099 -0.55248,0.03897 -1.10363,0.102879 -1.62813,0.292309 -0.50043,0.146116 -1.02418,0.206211 -1.51463,0.393025 -0.54899,0.104996 -1.07729,0.275679 -1.62271,0.392077 -0.62052,0.113084 -1.23902,0.232101 -1.86146,0.332221 -0.56457,0.160365 -1.07479,0.435575 -1.62197,0.642992 -0.55333,0.15394 -1.10555,0.306519 -1.66803,0.424078 -0.53284,0.113801 -1.08978,0.107149 -1.60491,0.304743 -0.49544,0.183383 -1.00447,0.314117 -1.50545,0.482207 -0.5869,0.135194 -1.16287,0.307654 -1.75051,0.43928 -0.58712,0.155111 -1.18875,0.22662 -1.77085,0.399654 -0.5196,0.149443 -1.06237,0.211427 -1.57876,0.378509 -0.61845,0.09645 -1.23191,0.222614 -1.85226,0.301908 -0.55678,0.0525 -1.10228,0.156775 -1.65041,0.264907 -0.62306,0.03874 -1.24956,0.04774 -1.86635,0.155604 -0.63318,0.107376 -1.26292,0.218796 -1.90605,0.247937 -0.60332,0.08648 -1.18352,0.250847 -1.77301,0.40001 -0.54134,0.121171 -1.0775,0.234708 -1.63357,0.266418 -0.56129,0.0929 -1.11576,0.24257 -1.69053,0.200996 -0.62999,0.0049 -1.26196,0.01172 -1.88783,0.09218 -0.65021,0.09929 -1.27531,0.286526 -1.91395,0.438093 -0.66155,0.122835 -1.32682,0.178658 -1.99395,0.260787 -0.58341,0.105222 -1.15815,0.233273 -1.75472,0.242041 -0.55486,0.07174 -1.09883,0.223332 -1.65922,0.23709 -0.62948,4.9e-5 -1.25911,-0.0013 -1.88833,0.0189 -0.57744,0.02608 -1.15544,0.06724 -1.72058,0.196686 -0.59146,0.117581 -1.18397,0.119017 -1.78594,0.103824 -0.63493,0 -1.26987,0 -1.90481,-2.3e-5 -0.63491,0 -1.26985,-2.6e-5 -1.90479,0 -0.63505,4.5e-5 -1.27011,9.5e-5 -1.90517,6.16e-4 -0.63577,6.16e-4 -1.27154,0.0019 -1.9073,0.0024 -0.63079,-3.09e-4 -1.26202,0.0019 -1.89218,-0.03024 -0.575,-0.03874 -1.14955,-0.101896 -1.69901,-0.286601 -0.5044,-0.144907 -1.02956,-0.199333 -1.53661,-0.336605 -0.55184,-0.07034 -1.11078,-0.109984 -1.63943,-0.299603 -0.49773,-0.148951 -1.01802,-0.210255 -1.50664,-0.394571 -0.49722,-0.113575 -0.98479,-0.246237 -1.46895,-0.405831 -0.52252,-0.121625 -1.03887,-0.264151 -1.56557,-0.366425 -0.46801,-0.162747 -0.9065,-0.395637 -1.37512,-0.55844 -0.49012,-0.16441 -0.9657,-0.365556 -1.46313,-0.506582 -0.64546,-0.191244 -1.32264,-0.286374 -1.92681,-0.600706 -0.50236,-0.236863 -1.02421,-0.41904 -1.55306,-0.58766 -0.49468,-0.156321 -1.00466,-0.269858 -1.47841,-0.483232 -0.43013,-0.213316 -0.87882,-0.388085 -1.32848,-0.555545 -0.46021,-0.206438 -0.91148,-0.382405 -1.42605,-0.395781 -0.53053,-0.09883 -1.02067,-0.278966 -1.49882,-0.529576 -0.52183,-0.207382 -1.0415,-0.417947 -1.57521,-0.594387 -0.53474,-0.185764 -1.07911,-0.347338 -1.59639,-0.578256 -0.52793,-0.231874 -0.97779,-0.576518 -1.50974,-0.789876 -0.6548,-0.195288 -1.32269,-0.353613 -1.93967,-0.656485 -0.53919,-0.19835 -1.10077,-0.320844 -1.65976,-0.450372 -0.51247,-0.161537 -1.00425,-0.384023 -1.50625,-0.574481 -0.50459,-0.227338 -1.03329,-0.353348 -1.57864,-0.443342 -0.57538,-0.100006 -1.16138,-0.05866 -1.74063,-0.130885 -0.54588,-0.06747 -1.08042,-0.206211 -1.62902,-0.241701 -0.63549,-3.1e-4 -1.271,-6.2e-4 -1.90648,-0.0019 -0.63225,-6.43e-4 -1.26458,-0.0049 -1.89676,0.0072 -0.58956,0.01663 -1.18302,0.03742 -1.76033,0.169625 -0.56404,0.140145 -1.12299,0.284976 -1.70084,0.360831 -0.57707,0.126161 -1.16271,0.197178 -1.73453,0.344693 -0.54943,0.166526 -1.11565,0.259503 -1.65665,0.454008 -0.51216,0.186029 -1.03637,0.339742 -1.5779,0.410204 -0.5679,0.120907 -1.13237,0.22972 -1.71141,0.284409 -0.62741,0.136139 -1.20467,0.387583 -1.80316,0.612012 -0.53438,0.12068 -1.05897,0.282481 -1.60501,0.344314 -0.54913,0.123289 -1.07113,0.334791 -1.62273,0.4499 -0.55193,0.168681 -1.10617,0.329084 -1.6496,0.523945 -0.60968,0.147779 -1.22538,0.266683 -1.83226,0.423197 -0.64646,0.228775 -1.26557,0.532052 -1.92864,0.7154 -0.64634,0.182438 -1.30397,0.326287 -1.95356,0.496154 -0.65603,0.161084 -1.2986,0.374098 -1.93116,0.610636 -0.54259,0.152504 -1.07771,0.323149 -1.62943,0.441369 -0.59762,0.143017 -1.22032,0.175559 -1.80102,0.393241 -0.58324,0.182929 -1.17803,0.325493 -1.7752,0.454435 -0.49637,0.149178 -0.98254,0.321109 -1.49608,0.407686 -0.54474,0.112139 -1.1086,0.103333 -1.64718,0.25527 -0.54735,0.134929 -1.10593,0.173178 -1.65344,0.306255 -0.57823,0.175332 -1.14502,0.383644 -1.7433,0.487389 -0.68737,0.100006 -1.37542,0.214752 -2.0688,0.257915 -0.72899,0.01436 -1.45983,0.04108 -2.18041,0.162255 -0.63067,0.113083 -1.25258,0.266456 -1.88569,0.366878 -0.59144,0.117355 -1.18397,0.119018 -1.78592,0.103824 -0.63493,-2.3e-5 -1.26987,-2.3e-5 -1.90481,0 -0.63503,2.3e-5 -1.27009,7.2e-5 -1.90515,6.16e-4 -0.63553,6.43e-4 -1.27106,0.0019 -1.90657,0.0024 -0.63025,1.18e-4 -1.26103,0.0024 -1.89065,-0.02986 -0.58966,-0.04158 -1.17801,-0.112138 -1.73697,-0.316611 -0.59137,-0.191962 -1.20521,-0.304592 -1.79834,-0.492468 -0.63831,-0.174388 -1.26294,-0.409085 -1.85359,-0.708038 -0.52227,-0.291175 -1.06001,-0.524731 -1.65357,-0.631087 -0.66737,-0.197404 -1.33834,-0.398419 -1.97197,-0.688913 -0.58213,-0.253153 -1.16685,-0.497318 -1.79202,-0.625387 -0.53148,-0.148951 -1.0809,-0.249865 -1.55932,-0.542219 -0.48891,-0.22662 -0.98248,-0.441157 -1.48727,-0.630043 -0.52476,-0.181039 -1.07598,-0.244006 -1.59494,-0.442654 -0.54632,-0.236372 -1.08918,-0.472513 -1.66891,-0.619612 -0.54391,-0.208592 -1.07797,-0.445459 -1.65706,-0.544332 -0.61617,-0.186708 -1.20245,-0.45408 -1.82016,-0.637126 -0.60419,-0.196951 -1.1822,-0.473061 -1.81344,-0.582221 -0.55366,-0.143962 -1.0857,-0.359811 -1.63836,-0.509314 -0.56232,-0.195742 -1.13893,-0.350891 -1.71727,-0.491403 -0.65735,-0.202885 -1.28309,-0.488167 -1.91895,-0.748871 -0.59445,-0.212372 -1.21982,-0.314268 -1.84273,-0.407709 -0.65398,-0.143736 -1.25649,-0.40419 -1.8646,-0.679884 -0.64994,-0.206438 -1.31067,-0.31234 -1.9838,-0.415688 -0.62346,-0.106205 -1.26122,-0.103597 -1.87662,-0.261241 -0.56247,-0.155376 -1.10378,-0.374551 -1.66724,-0.527724 -0.58821,-0.130658 -1.18317,-0.247861 -1.78462,-0.293518 -0.54555,-0.06746 -1.07983,-0.206211 -1.62812,-0.241474 -0.63444,0 -1.26888,2.3e-5 -1.90332,-4.9e-5 -0.64709,-9.4e-5 -1.29418,-2.83e-4 -1.94126,-0.0013 -0.71585,-6.16e-4 -1.43169,-0.0024 -2.14754,-6.16e-4 -0.64841,0.0024 -1.29683,0.0013 -1.94525,0.0019 -0.63494,0 -1.26988,2.3e-5 -1.90481,0 -0.63506,-2.3e-5 -1.27012,-4.5e-5 -1.90518,-4.04e-4 -0.63552,-4.27e-4 -1.27105,-0.0013 -1.90657,-0.0019 -0.62945,5e-5 -1.25911,-0.0013 -1.8883,0.0189 -0.5775,0.0257 -1.15551,0.06724 -1.72085,0.195742 -0.59207,0.116636 -1.18497,0.116636 -1.78732,0.100497 -0.6322,2.3e-5 -1.26501,-0.0024 -1.8964,0.03439 -0.60381,0.04702 -1.20617,0.126161 -1.77316,0.35229 -0.51164,0.187427 -1.03478,0.343937 -1.57367,0.429755 -0.569,0.141127 -1.13267,0.285543 -1.71872,0.341858 -0.6243,0.10594 -1.24808,0.138746 -1.88033,0.1632 -0.53968,0.05749 -1.06459,0.166526 -1.57412,0.358375 -0.58043,0.127332 -1.13114,0.332749 -1.70033,0.498504 -0.70955,0.171062 -1.42504,0.336718 -2.15617,0.378014 -0.57212,0.02457 -1.14863,0.05892 -1.70009,0.22662 -0.518132,0.15942 -1.059492,0.243893 -1.550956,0.479811 -0.507061,0.259389 -1.022823,0.422861 -1.589378,0.503898 -0.590226,0.107868 -1.198564,0.08292 -1.781816,0.239546 -0.527985,0.14657 -1.0488,0.331578 -1.5476,0.558206 -0.534406,0.227566 -1.108558,0.242268 -1.67676,0.327156 -0.726698,0.15394 -1.40702,0.431014 -2.104139,0.681502 -0.709224,0.188863 -1.410538,0.40552 -2.127666,0.56431 -0.643064,0.133984 -1.274226,0.307766 -1.917539,0.439423 -0.54353,0.131829 -1.094483,0.167962 -1.645999,0.255269 -0.575649,0.11331 -1.144838,0.202393 -1.735264,0.156548 -0.635154,3.55e-4 -1.270311,0.0013 -1.90546,0.0024 -0.633676,0.0013 -1.267442,0.0049 -1.901046,-0.0072 -0.619404,-0.01663 -1.241816,-0.04396 -1.848944,-0.178885 -0.644478,-0.15205 -1.280247,-0.335584 -1.943059,-0.396306 -0.607793,-0.09362 -1.223936,-0.09789 -1.828868,-0.21309 -0.538265,-0.113574 -1.070162,-0.238828 -1.621905,-0.270803 -0.53139,-0.09573 -1.044729,-0.265398 -1.581509,-0.33222 -0.511744,-0.11331 -0.990501,-0.314457 -1.494327,-0.455411 -0.499132,-0.174387 -1.003234,-0.323829 -1.509751,-0.475577 -0.571275,-0.140183 -1.145041,-0.27069 -1.718517,-0.401673 -0.491716,-0.144189 -0.967286,-0.337474 -1.462654,-0.470831 -0.479218,-0.162255 -0.982749,-0.259994 -1.48103,-0.341178 -0.57631,-0.0613 -1.140665,-0.172951 -1.685976,-0.374891 -0.571411,-0.140183 -1.14548,-0.271975 -1.722549,-0.386446 -0.513993,-0.128504 -1.018001,-0.288869 -1.54729,-0.348661 -0.589716,-0.11641 -1.179038,-0.128504 -1.779707,-0.125178 -0.7089,-0.02646 -1.41973,-0.06746 -2.117182,-0.20572 -0.703411,-0.147288 -1.412553,-0.214979 -2.123674,-0.314003 -0.772029,-0.132094 -1.547876,-0.2112 -2.323242,-0.318992 C 48.191987,72.345498 47.442616,72.249763 46.687739,72.172245 45.92463,72.071747 45.163751,72.02473 44.39331,72.039924 43.615199,72.009684 42.837271,71.955334 42.068647,71.82468 41.36067,71.700673 40.653192,71.579917 39.941208,71.4801 39.235585,71.38648 38.525185,71.42212 37.81485,71.41857 c -0.647814,0.0024 -1.295635,0.0013 -1.943456,0.0019 -0.642207,-7.1e-5 -1.284407,-1.66e-4 -1.92661,-6.42e-4 -0.702969,-6.16e-4 -1.40594,-0.0019 -2.108909,-0.0019 -0.666218,0.0013 -1.332436,0.0049 -1.998661,0.0024 -0.635192,-9.5e-5 -1.270386,-2.38e-4 -1.905578,-6.39e-4 -0.635268,-6.2e-4 -1.270543,-0.0019 -1.905811,-6.2e-4 -0.619801,0.0024 -1.240396,0.0049 -1.858769,0.05204 -0.557755,0.05272 -1.104467,0.158438 -1.65586,0.253493 -0.623081,0.02154 -1.246891,0.0019 -1.870034,0.02646 -0.567277,0.02495 -1.139985,0.05798 -1.684382,0.23399 -0.482001,0.161084 -0.9875,0.253342 -1.439758,0.492424 -0.510556,0.257385 -1.052421,0.452277 -1.58595,0.656247 -0.675062,0.274469 -1.373577,0.489524 -2.03339,0.800424 -0.922107,0.45078 -1.880843,0.823139 -2.77575,1.329078 -0.749305,0.370243 -1.5245795,0.690456 -2.2449906,1.117289 -1.6313222,0.893359 -0.3868947,0.216416 3.1464896,-1.845233 0.143679,-0.08387 -0.289719,0.163691 -0.433407,0.247408 -1.7143603,1.000146 -3.4002702,2.082156 -5.1781008,2.978887 6.8412638,-3.979555 3.6111328,-2.159388 2.0961,-1.169027 -0.5898243,0.372586 -1.1590112,0.783273 -1.7229341,1.196183 -0.8273978,0.515108 -1.6190069,1.088424 -2.4136139,1.652069 0,0 -4.371456200001,1.764461 -4.371456200001,1.764461 z"
       id="path23"
       inkscape:connector-curvature="0" />
  </g>
</svg>
