<?xml version="1.0" encoding="UTF-8" standalone="no"?>
<svg
   xmlns:rdf="http://www.w3.org/1999/02/22-rdf-syntax-ns#"
   xmlns="http://www.w3.org/2000/svg"
   xmlns:inkscape="http://www.inkscape.org/namespaces/inkscape"
   width="100%"
   height="100%"
   id="svg8">
  <defs
     id="defs2" />
  <g
     inkscape:label="Layer 1"
     inkscape:groupmode="layer"
     id="layer1">
    <path
       style="fill:#000080;stroke-width:0.17472653"
       d="m 142.5834,110.18556 c 0.54593,0.13219 1.08044,0.29829 1.63548,0.39314 0.39785,0.0464 0.79143,0.0602 1.18482,0.13519 0.36382,0.0721 0.73454,0.0888 1.10438,0.0999 0.45191,0.009 0.90396,0.009 1.35595,0.009 0.46731,-0.002 0.93461,-5.2e-4 1.40192,-8.5e-4 0.53628,0.002 1.07255,1.7e-4 1.60883,0.001 0.53159,-0.001 1.06317,-0.001 1.59476,-1e-5 0.55634,0.002 1.11267,-8.5e-4 1.66901,-3.4e-4 0.53109,-1.2e-4 1.06218,-7.2e-4 1.59327,-1e-5 0.46449,0.0201 0.92685,-0.0369 1.37627,-0.15095 0.4261,-0.0851 0.81122,-0.28929 1.22169,-0.42193 0,0 -2.07864,1.59563 -2.07864,1.59563 v 0 c -0.40573,0.15278 -0.80864,0.31852 -1.23902,0.39394 -0.4645,0.0832 -0.9313,0.1248 -1.40411,0.10189 -0.53108,6.5e-4 -1.06216,1e-4 -1.59325,-2e-5 -0.55595,5.2e-4 -1.1119,-0.002 -1.66786,-3.4e-4 -0.53158,0.001 -1.06316,0.001 -1.59475,-1e-5 -0.53774,0.001 -1.07549,-6.5e-4 -1.61324,0.002 -0.46764,1.7e-4 -0.93527,0.003 -1.40291,0.001 -0.45532,-3.5e-4 -0.91082,0.002 -1.36593,-0.0138 -0.37893,-0.0174 -0.75634,-0.0505 -1.12841,-0.12694 -0.39141,-0.0626 -0.79063,-0.0598 -1.1793,-0.14375 -0.55524,-0.11681 -1.0945,-0.29394 -1.65246,-0.39844 0,0 2.1735,-1.47543 2.1735,-1.47543 z"
       />
    <path
       style="fill:#000080;stroke-width:0.17472653"
       d="m 142.66699,111.52396 c -0.0647,0.5383 -0.12845,1.07483 -0.21994,1.60954 -0.0866,0.42206 -0.0877,0.85328 -0.13073,1.27987 -0.0773,0.38902 -0.1255,0.78108 -0.15041,1.17644 -0.0558,0.42836 -0.13239,0.85203 -0.16681,1.28305 -0.0153,0.59264 -0.0917,1.18059 -0.14353,1.77063 -0.0271,0.59419 -0.0838,1.18447 -0.14836,1.77559 -0.0367,0.63678 -0.13552,1.2669 -0.2008,1.9009 -0.0607,0.62218 -0.15198,1.24019 -0.20313,1.86357 -0.0188,0.53252 -0.061,1.06039 -0.12826,1.58894 -0.0566,0.47667 -0.0794,0.95616 -0.0914,1.43563 -0.005,0.37164 0.007,0.74155 -0.0469,1.11012 -0.0664,0.34153 -0.10186,0.68686 -0.12126,1.03369 -0.0132,0.2896 -0.0142,0.57955 -0.0153,0.8694 0,0 -2.35256,1.17897 -2.35256,1.17897 v 0 c 3.5e-4,-0.29328 5.3e-4,-0.58663 0.01,-0.8798 0.0145,-0.35537 0.0389,-0.7109 0.10818,-1.06068 0.0671,-0.35883 0.0708,-0.71526 0.0669,-1.08027 0.0132,-0.48792 0.0396,-0.97545 0.0916,-1.46102 0.0547,-0.52772 0.13044,-1.05153 0.13468,-1.58354 0.0549,-0.62456 0.1331,-1.24627 0.2038,-1.86878 0.0646,-0.63472 0.166,-1.26456 0.20203,-1.90176 0.0574,-0.59057 0.1251,-1.1782 0.14843,-1.77144 0.0521,-0.58687 0.13067,-1.17182 0.13483,-1.76154 0.0271,-0.42983 0.07,-0.85621 0.16419,-1.27765 0.0204,-0.4012 0.0476,-0.80239 0.1353,-1.19592 0.0889,-0.4229 0.0382,-0.86591 0.13716,-1.28952 0.0955,-0.52872 0.19062,-1.05525 0.21444,-1.59332 0,0 2.36791,-1.1511 2.36791,-1.1511 z"
       />
    <path
       style="fill:#000080;stroke-width:0.17472653"
       d="m 141.31965,130.42856 c 0.57829,-0.0294 1.1412,0.0726 1.70502,0.18111 0.53846,0.0773 1.03967,0.29194 1.56658,0.41812 0.50394,0.13439 1.01186,0.25626 1.5119,0.40393 0.57694,0.19395 1.17027,0.34013 1.76864,0.45378 0.64766,0.13945 1.30482,0.22202 1.95736,0.33443 0.81376,0.14638 1.62377,0.30658 2.44605,0.39988 0.66687,0.036 1.32753,0.11628 1.99143,0.18299 0.56658,0.0543 1.13579,0.0709 1.70469,0.0783 0.41308,-0.015 0.81558,0.003 1.22287,0.0664 0.32743,0.0535 0.65815,0.0791 0.98929,0.0957 0,0 -2.14414,1.51262 -2.14414,1.51262 v 0 c -0.33408,-0.0252 -0.66675,-0.0625 -0.99788,-0.11343 -0.39936,-0.0478 -0.80047,-0.0328 -1.20208,-0.0438 -0.56902,-0.0171 -1.13802,-0.0451 -1.70431,-0.1045 -0.66027,-0.0686 -1.32082,-0.13026 -1.98135,-0.19595 -0.82835,-0.10623 -1.64542,-0.27218 -2.47058,-0.39938 -0.6533,-0.1145 -1.31083,-0.20398 -1.96004,-0.34107 -0.60302,-0.12818 -1.20046,-0.27975 -1.78818,-0.46492 -0.50287,-0.1355 -1.0039,-0.2771 -1.51079,-0.39769 -0.5143,-0.14305 -1.01563,-0.33652 -1.54799,-0.40903 -0.55999,-0.10198 -1.12228,-0.16736 -1.69331,-0.12954 0,0 2.13682,-1.52788 2.13682,-1.52788 z"
       />
    <path
       style="fill:#008000;stroke-width:0.17472653"
       d="m 146.65713,120.97338 c 0.54076,0.01 1.08165,0.005 1.62245,0.003 0.40067,-0.054 0.79301,-0.13355 1.18714,-0.21727 0.39351,-0.088 0.80546,-0.15682 1.15017,-0.37158 0.15621,-0.0801 0.31445,-0.15577 0.4734,-0.23033 0.0543,-0.0255 0.21801,-0.0992 0.16606,-0.0694 -3.22655,1.85088 -2.74346,1.56347 -1.9762,1.10409 0.27803,-0.19098 0.56037,-0.37525 0.83808,-0.56658 0.2157,-0.15534 0.40231,-0.3429 0.60095,-0.51737 0.19151,-0.19403 0.38766,-0.38435 0.57103,-0.58608 0.17001,-0.22919 0.35014,-0.45025 0.52825,-0.67336 0.20879,-0.24258 0.33121,-0.54044 0.45787,-0.82949 0.1157,-0.27907 0.26377,-0.54537 0.42346,-0.80227 0.0927,-0.19445 0.18702,-0.38823 0.27488,-0.58486 0,0 2.39796,-1.09345 2.39796,-1.09345 v 0 c -0.0751,0.21193 -0.18904,0.40079 -0.26351,0.61209 -0.12381,0.26659 -0.30547,0.50577 -0.43518,0.77187 -0.10603,0.31444 -0.25854,0.61932 -0.42541,0.90553 -0.1831,0.21728 -0.34798,0.44396 -0.53121,0.65902 -0.14127,0.23732 -0.3587,0.42438 -0.55477,0.61603 -0.16804,0.20786 -0.38582,0.38014 -0.592,0.54952 -0.24749,0.23362 -0.55511,0.39033 -0.83401,0.58494 -0.94437,0.76496 -2.09703,1.22875 -3.17968,1.77423 -0.38099,0.15007 -0.78755,0.22901 -1.18709,0.31654 -0.39938,0.089 -0.80815,0.15224 -1.21744,0.16917 -0.54399,-0.002 -1.08806,-0.006 -1.63201,0.003 0,0 2.13681,-1.52787 2.13681,-1.52787 z"
       />
    <path
       style="fill:#008000;stroke-width:0.17472653"
       d="m 146.8534,121.21659 c 0.56678,0.11164 1.11935,0.27484 1.67373,0.43358 0.50115,0.12315 0.98445,0.30804 1.47005,0.48026 0.46598,0.15132 0.88369,0.39926 1.32504,0.603 0.34031,0.0682 0.6219,0.26243 0.93698,0.3914 0.29435,0.19009 0.60699,0.34622 0.91507,0.51513 0.37493,0.20638 0.74467,0.41821 1.10955,0.64178 0.13449,0.1531 0.34066,0.21043 0.48988,0.34248 0.0691,0.0612 0.12801,0.13275 0.1954,0.19573 0.1546,0.20984 0.29853,0.42736 0.44888,0.64081 0.15331,0.23747 0.28146,0.48554 0.39548,0.74375 0.11126,0.1725 0.19492,0.35623 0.26428,0.54808 0,0 -2.31497,1.25707 -2.31497,1.25707 v 0 c -0.0621,-0.18756 -0.1466,-0.36249 -0.25332,-0.53008 -0.10703,-0.24206 -0.23018,-0.47328 -0.37336,-0.69625 -0.1423,-0.19856 -0.27226,-0.40605 -0.42237,-0.5978 -0.19844,-0.19148 -0.43081,-0.3313 -0.65033,-0.49854 -0.35415,-0.22814 -0.72452,-0.42652 -1.09493,-0.62769 -0.3097,-0.15735 -0.6043,-0.33545 -0.91094,-0.4962 -0.30824,-0.14645 -0.61327,-0.29008 -0.93646,-0.40288 -0.42447,-0.21665 -0.84488,-0.43423 -1.30177,-0.58109 -0.48353,-0.16465 -0.95914,-0.35284 -1.45736,-0.47223 -0.55444,-0.16292 -1.11275,-0.31035 -1.68204,-0.41488 0,0 2.17351,-1.47543 2.17351,-1.47543 z"
       />
    <path
       style="fill:#008000;stroke-width:0.17472653"
       d="m 149.68172,120.97338 c 0.54074,0.01 1.08164,0.005 1.62244,0.003 0.40721,-0.001 0.81442,-0.003 1.22163,-0.002 0.41776,-1.5e-4 0.83552,3.5e-4 1.25327,6.6e-4 0.44395,-0.002 0.88789,6.5e-4 1.33183,10e-4 0.46518,-6.6e-4 0.93035,-3.5e-4 1.39553,-10e-4 0.42073,-0.001 0.84146,6e-5 1.2622,-5.2e-4 0.46953,0.002 0.93906,6.6e-4 1.4086,0.002 0.43695,-1.1e-4 0.8739,-10e-4 1.31085,-0.003 0.41218,0.002 0.82435,5.1e-4 1.23653,0 0.36641,-5.1e-4 0.73283,-6.5e-4 1.09925,-6.5e-4 0.35562,-6e-5 0.71124,-5e-5 1.06686,-5e-5 0.31319,-0.0103 0.6148,-0.10767 0.9285,-0.14232 0.36761,-0.0892 0.70249,-0.26094 1.04077,-0.42457 0,0 -2.05935,1.61326 -2.05935,1.61326 v 0 c -0.35471,0.15717 -0.70498,0.32909 -1.09816,0.36937 -0.31458,0.0518 -0.62526,0.13574 -0.9476,0.11145 -0.35557,0 -0.71116,1e-5 -1.06673,-5e-5 -0.36572,-9e-5 -0.73145,-1.8e-4 -1.09717,-6.6e-4 -0.41218,-5.2e-4 -0.82437,-0.002 -1.23655,10e-6 -0.43473,-6.5e-4 -0.86944,-0.002 -1.30417,-0.003 -0.47118,0.001 -0.94236,-1.7e-4 -1.41354,0.002 -0.42026,-5.2e-4 -0.84053,6.5e-4 -1.26079,-5.2e-4 -0.46398,-10e-4 -0.92796,-5.3e-4 -1.39194,-10e-4 -0.44514,3.4e-4 -0.89026,0.003 -1.33539,10e-4 -0.41842,3.4e-4 -0.83684,6.5e-4 -1.25527,6.5e-4 -0.40547,0.001 -0.81094,-5.2e-4 -1.21641,-0.002 -0.54399,-0.002 -1.08807,-0.006 -1.63201,0.003 0,0 2.13682,-1.52787 2.13682,-1.52787 z"
       />
    <path
       style="fill:#5599ff;stroke-width:0.26458332"
       d="m 155.75761,110.7464 c 0.12459,-0.41872 0.31356,-0.81368 0.4896,-1.21238 0.13429,-0.36822 0.30701,-0.71837 0.46523,-1.07636 0.14783,-0.37989 0.32711,-0.74253 0.51475,-1.10374 0.13433,-0.27583 0.22364,-0.57035 0.31953,-0.86093 0.0942,-0.22881 0.19221,-0.45685 0.29796,-0.68069 0.10514,-0.26529 0.19074,-0.53747 0.2805,-0.80817 0.1173,-0.30433 0.25934,-0.59746 0.3761,-0.90274 0.10868,-0.29507 0.21212,-0.59151 0.32345,-0.88555 0.0948,-0.19725 0.1615,-0.40565 0.24555,-0.60718 0.0719,-0.20779 0.13446,-0.41467 0.24078,-0.60832 0.14977,-0.17524 0.22815,-0.37262 0.26965,-0.59634 0.0349,-0.21848 0.10541,-0.42699 0.18688,-0.63164 0.0551,-0.21636 0.15966,-0.41288 0.24869,-0.61591 0.0935,-0.226951 0.0984,-0.474389 0.15265,-0.711004 0.0495,-0.219839 0.0881,-0.439779 0.15118,-0.656322 0.05,-0.214577 0.12789,-0.420217 0.18844,-0.631926 0.089,-0.238699 0.13085,-0.488048 0.15462,-0.74046 0.0112,-0.278448 0.0673,-0.552503 0.14246,-0.82005 0.0805,-0.254132 0.11331,-0.517715 0.13152,-0.782489 0.0343,-0.269311 0.0896,-0.534691 0.11795,-0.80496 0.0373,-0.232881 0.10088,-0.459039 0.13132,-0.693354 0.0268,-0.255117 0.028,-0.511969 0.0298,-0.768205 7.9e-4,-0.26715 1.5e-4,-0.534299 -2e-4,-0.801449 -2.6e-4,-0.267433 -5.2e-4,-0.534866 -5.2e-4,-0.802296 -4e-5,-0.267282 -3e-5,-0.534564 -3e-5,-0.801846 0,-0.267267 0,-0.534535 0,-0.801804 0,-0.267269 0,-0.534538 0,-0.801807 0,-0.267269 0,-0.53454 0,-0.801809 0,-0.267269 0,-0.534538 0,-0.801809 0,-0.267269 0,-0.534538 0,-0.801807 -0.0333,-0.217188 -0.0618,-0.43866 -0.1149,-0.652171 -0.0622,-0.225346 -0.1265,-0.450043 -0.18697,-0.675915 -0.0365,-0.241073 -0.11441,-0.471805 -0.16793,-0.708999 -0.0531,-0.195932 -0.17045,-0.360214 -0.24024,-0.549817 -0.0956,-0.182814 -0.14791,-0.381868 -0.22345,-0.572852 -0.0141,-0.02363 -0.025,-0.04945 -0.0422,-0.07091 -0.0347,-0.04334 -0.0832,-0.07422 -0.11872,-0.116903 -0.0669,-0.08037 -0.1099,-0.174324 -0.16585,-0.261946 -0.11139,-0.170759 -0.21837,-0.34794 -0.34104,-0.511267 -0.14667,-0.165148 -0.24325,-0.353428 -0.34441,-0.547347 -0.12426,-0.160673 -0.28372,-0.279116 -0.4018,-0.44537 -0.14706,-0.195397 -0.35138,-0.324953 -0.50303,-0.516647 -0.16345,-0.172434 -0.32805,-0.338846 -0.48868,-0.51395 -0.16191,-0.160412 -0.34398,-0.295688 -0.50173,-0.461169 -0.14963,-0.165999 -0.35095,-0.265636 -0.50091,-0.428929 -0.14828,-0.162084 -0.30316,-0.316225 -0.47496,-0.454298 -0.21219,-0.176418 -0.40888,-0.370855 -0.61985,-0.548333 -0.22015,-0.106955 -0.38273,-0.292155 -0.58812,-0.419624 -0.20618,-0.121655 -0.3507,-0.300336 -0.50777,-0.475136 -0.19498,-0.108198 -0.35008,-0.258103 -0.51194,-0.409564 -0.12994,-0.174876 -0.32977,-0.266213 -0.47026,-0.429122 -0.13667,-0.164045 -0.31979,-0.268013 -0.48846,-0.391761 -0.16815,-0.105389 -0.3269,-0.232347 -0.46461,-0.375777 -0.15423,-0.104317 -0.29916,-0.221771 -0.45125,-0.329835 -0.14491,-0.155681 -0.31406,-0.264298 -0.51673,-0.32575 -0.20114,-0.09705 -0.41313,-0.157199 -0.59514,-0.289943 -0.1823,-0.117081 -0.37815,-0.203129 -0.58905,-0.252741 -0.25635,-0.0449 -0.50494,-0.120999 -0.74812,-0.212183 -0.17821,-0.12012 -0.37953,-0.190373 -0.57435,-0.27696 -0.22255,-0.05521 -0.44335,-0.117888 -0.66806,-0.166574 -0.26249,-0.09756 -0.5354,-0.176599 -0.78777,-0.298286 -0.21996,-0.101952 -0.45961,-0.144274 -0.69222,-0.208428 -0.28672,-0.100639 -0.5816,-0.170132 -0.87322,-0.253717 -0.22746,-0.134003 -0.48814,-0.165349 -0.73409,-0.243631 -0.24726,-0.04761 -0.48206,-0.130331 -0.72429,-0.19604 -0.23384,-0.04012 -0.46336,-0.05613 -0.69283,-0.117435 -0.21547,-0.126175 -0.4679,-0.139073 -0.69694,-0.221735 -0.21648,-0.0703 -0.43674,-0.103351 -0.65299,-0.173638 -0.22209,-0.06515 -0.45443,-0.07413 -0.68416,-0.08225 -0.27064,0.01318 -0.53171,-0.06043 -0.79804,-0.09709 -0.26261,-0.04568 -0.51888,-0.115242 -0.78563,-0.146415 -0.2691,-0.02601 -0.53971,-0.02713 -0.8098,-0.02848 -0.26763,-5.29e-4 -0.53525,5.29e-4 -0.80288,7.94e-4 -0.27654,0.02601 -0.54081,-0.0277 -0.81123,-0.07355 -0.26259,-0.04264 -0.5287,-0.05184 -0.79415,-0.0577 -0.25876,0.02331 -0.50142,-0.02746 -0.75222,-0.07837 -0.2368,-0.03022 -0.46687,-0.04728 -0.69756,-0.10922 -0.2279,-0.05862 -0.4636,-0.06918 -0.6976,-0.07745 -0.26317,-0.0065 -0.52645,-0.0055 -0.78968,-0.0052 -0.29394,5.29e-4 -0.58789,-5.29e-4 -0.88184,-2.6e-5 -0.31124,5.29e-4 -0.62249,-2.65e-4 -0.93373,2.3e-5 -0.28566,5.3e-4 -0.57132,7.94e-4 -0.85698,0.0011 -0.25899,0.0168 -0.5276,-0.03543 -0.78085,0.02763 -0.25861,0.06208 -0.51079,0.140287 -0.7733,0.186788 -0.27776,0.05691 -0.56534,0.02143 -0.84144,0.07895 -0.28664,0.06073 -0.57617,0.120237 -0.85533,0.210918 -0.27428,0.05804 -0.52001,0.189111 -0.7931,0.25033 -0.24667,0.03938 -0.50641,0.06776 -0.73615,0.170241 -0.25594,0.05101 -0.49623,0.145349 -0.74719,0.212685 -0.27834,0.120481 -0.55478,0.228063 -0.85372,0.286428 -0.27196,0.01273 -0.50447,0.149727 -0.75575,0.233442 -0.22826,0.06525 -0.40451,0.214775 -0.63645,0.282382 -0.25687,0.02421 -0.4863,0.11286 -0.71917,0.214796 0.5372,-0.305176 1.07393,-0.611179 1.61161,-0.91553 0.0309,-0.01749 -0.061,0.03649 -0.0913,0.05497 -0.0665,0.04048 -0.1293,0.08699 -0.19687,0.125669 -0.6023,0.344831 -1.20237,0.693743 -1.81069,1.027842 -0.0367,0.02013 -0.0807,0.02207 -0.12106,0.03312 0.0584,-0.05608 -0.31396,0.158142 -0.23768,0.114401 3.38282,-1.939959 0.6241,-0.32013 -0.5207,0.283975 0.0783,-0.06303 -0.35334,0.177617 -0.26767,0.128164 0.52013,-0.300228 2.0822,-1.19793 1.56318,-0.895803 -0.60743,0.353589 -1.22008,0.698146 -1.8284,1.05019 -0.52393,0.303207 1.0486,-0.605171 1.57523,-0.903677 0.0385,-0.0218 -0.0737,0.04896 -0.11052,0.07344 -0.60268,0.347335 -1.20305,0.698696 -1.80804,1.042001 -0.0417,0.02365 -0.0876,0.03903 -0.13138,0.05855 0.52516,-0.30031 2.09225,-1.215474 1.57549,-0.900927 -0.59715,0.363482 -1.21499,0.691959 -1.81674,1.047774 -0.52526,0.310586 1.05622,-0.611452 1.58724,-0.912072 0.0355,-0.02013 -0.0669,0.04688 -0.10035,0.07032 -0.74151,0.492085 -1.45399,1.097484 -2.31435,1.3516 -0.61156,0.31496 -1.35971,0.756401 1.43041,-0.828847 0.026,-0.01476 -0.0527,0.02894 -0.0761,0.04756 -0.0509,0.04045 -0.0928,0.09099 -0.13949,0.136128 -0.16234,0.142639 -0.35218,0.246742 -0.52387,0.37693 -0.16,0.134462 -0.33758,0.243928 -0.4997,0.375661 -0.18905,0.144603 -0.37351,0.293288 -0.56281,0.437584 -3.61705,2.089129 -1.24014,0.714539 -0.18137,0.109442 0.027,-0.01542 -0.0543,0.03084 -0.0787,0.05009 -0.0887,0.06986 -0.16222,0.164127 -0.2436,0.242226 -0.18265,0.155401 -0.37241,0.300168 -0.54591,0.466101 -0.21244,0.149257 -0.40626,0.319307 -0.5991,0.49298 -0.23336,0.207719 -0.47406,0.406842 -0.71742,0.602747 -0.20711,0.135239 -0.34836,0.339278 -0.53084,0.500425 -0.17986,0.159364 -0.35312,0.32612 -0.52589,0.493474 -0.17322,0.189468 -0.36794,0.350375 -0.56522,0.512853 -0.1543,0.193595 -0.34999,0.342794 -0.53212,0.507336 -0.18549,0.187412 -0.36197,0.382534 -0.54158,0.575408 -0.21639,0.167132 -0.39643,0.355258 -0.56373,0.569282 -0.1766,0.156282 -0.34382,0.320093 -0.50972,0.48804 -0.17741,0.180938 -0.38035,0.333502 -0.56709,0.50414 -0.14511,0.129828 -0.29283,0.258834 -0.42483,0.402219 -0.10546,0.194459 -0.29526,0.298694 -0.4649,0.427154 -0.13446,0.177409 -0.27204,0.335569 -0.45618,0.464151 -0.16786,0.144783 -0.27992,0.329882 -0.44806,0.477356 -0.19241,0.177641 -0.34628,0.390758 -0.52587,0.581819 -0.17513,0.197974 -0.34786,0.396954 -0.5348,0.583869 -0.19319,0.210788 -0.37664,0.427328 -0.53104,0.668142 -0.13812,0.174376 -0.2804,0.344604 -0.41068,0.525359 -0.14652,0.194969 -0.31838,0.360016 -0.43785,0.574125 -0.13258,0.179144 -0.28593,0.340127 -0.42392,0.51649 -0.15452,0.192566 -0.29823,0.393142 -0.44319,0.59318 -0.14747,0.17871 -0.27769,0.370504 -0.41306,0.55831 -0.14064,0.174049 -0.25536,0.365655 -0.38805,0.546161 -0.15184,0.214286 -0.28029,0.44182 -0.43909,0.651288 -0.13114,0.185817 -0.29738,0.34218 -0.42079,0.533125 -0.13363,0.222491 -0.32061,0.403778 -0.46192,0.620805 -0.0947,0.200144 -0.25852,0.346818 -0.40587,0.506032 -0.13072,0.208949 -0.30239,0.385963 -0.44027,0.589338 -0.15121,0.197847 -0.2955,0.40109 -0.4452,0.600128 -0.14791,0.175918 -0.29067,0.351993 -0.42529,0.538612 -0.14323,0.19518 -0.30687,0.371663 -0.44245,0.573278 -0.13742,0.236072 -0.31366,0.437967 -0.49053,0.64326 -0.12229,0.209325 -0.27692,0.394946 -0.41631,0.592008 -0.11231,0.180536 -0.22919,0.359235 -0.37076,0.518316 -0.15241,0.213127 -0.32092,0.413801 -0.47982,0.62184 -0.1791,0.238178 -0.34062,0.489013 -0.52851,0.720402 -0.19524,0.228584 -0.35833,0.480452 -0.55691,0.706128 -0.15712,0.192765 -0.30292,0.390353 -0.467654,0.576916 -0.131135,0.154252 -0.232801,0.327655 -0.336926,0.500483 -0.145872,0.213347 -0.321598,0.404932 -0.487912,0.602463 -0.150196,0.20724 -0.339762,0.3805 -0.501751,0.57713 -0.185325,0.25232 -0.399851,0.48168 -0.598183,0.72416 -0.232093,0.2574 -0.436888,0.5373 -0.661025,0.80117 -0.182925,0.18598 -0.352438,0.37652 -0.500832,0.59083 -0.152186,0.18467 -0.295582,0.37533 -0.434512,0.57027 -0.118859,0.15999 -0.260241,0.29996 -0.39188,0.44878 -0.139623,0.21089 -0.339375,0.36777 -0.491572,0.56774 -0.128725,0.22458 -0.317627,0.4012 -0.492961,0.58805 -0.190484,0.20816 -0.335412,0.45004 -0.51858,0.66426 -0.167884,0.2022 -0.337016,0.40173 -0.528241,0.58221 -0.192373,0.19508 -0.377597,0.39783 -0.559213,0.60314 -0.171347,0.19922 -0.323045,0.41442 -0.50007,0.60868 -0.129434,0.20528 -0.307695,0.35382 -0.490707,0.50819 -0.152482,0.18447 -0.323189,0.35064 -0.489035,0.52308 -0.221321,0.23054 -0.446526,0.45692 -0.658614,0.69607 -0.184605,0.18582 -0.353076,0.3868 -0.535532,0.57453 -0.134842,0.14245 -0.266788,0.28865 -0.410485,0.4223 -0.146611,0.17031 -0.309727,0.32392 -0.47706,0.47338 -0.138427,0.17384 -0.282011,0.33868 -0.452774,0.48197 -0.173963,0.17078 -0.357036,0.32646 -0.546983,0.47917 -0.175451,0.15973 -0.278096,0.36608 -0.474583,0.50427 -0.14686,0.0471 -0.210961,0.21573 -0.33387,0.28995 -0.853382,0.51532 -3.704585,2.15527 -0.175707,0.11901 -0.206566,0.12286 -0.344451,0.3216 -0.53136,0.4695 -0.208291,0.14255 -0.360527,0.34344 -0.551008,0.50612 -0.192128,0.14388 -0.321353,0.34877 -0.481404,0.52371 -2.774588,1.62815 -1.976157,1.15348 -0.171773,0.11739 0.02668,-0.0153 -0.05373,0.0303 -0.07838,0.0487 -0.075,0.056 -0.144285,0.12493 -0.20833,0.19275 -0.154922,0.15245 -0.337852,0.27094 -0.500941,0.4138 -0.685742,0.50576 -1.462268,0.90122 -2.191028,1.32561 -0.03455,0.009 -0.07068,0.0139 -0.103651,0.0277 -0.06121,0.0257 -0.234447,0.12477 -0.17699,0.0915 0.51117,-0.29628 2.054,-1.16887 1.541613,-0.8747 -0.596966,0.34272 -1.195554,0.68261 -1.793332,1.02391 0.540567,-0.30966 1.080447,-0.62054 1.621705,-0.929 0.0285,-0.0162 -0.05524,0.0354 -0.08335,0.0523 -0.05393,0.0324 -0.102804,0.0728 -0.157038,0.10476 -0.593088,0.34894 -1.185702,0.69886 -1.785144,1.03677 -0.03106,0.0175 -0.06887,0.0185 -0.103307,0.0278 -0.203906,0.0978 -0.428887,0.16893 -0.616743,0.29586 -0.807371,0.4127 2.21036,-1.27218 1.441145,-0.82358 -0.855255,0.49878 -1.228547,0.94424 -2.005584,1.08158 -0.121425,0.0853 -0.272293,0.0841 -0.407,0.12697 -0.06521,0.0207 -0.124405,0.0573 -0.188357,0.0816 0.119176,-0.007 -0.375791,0.21578 -0.256305,0.1461 3.94485,-2.30074 0.206346,-0.0249 -0.260104,0.14045 -0.224128,0.0244 -0.431313,0.0981 -0.649443,0.14829 -0.113022,0.0936 -0.259829,0.0982 -0.390282,0.14478 -0.06371,0.0228 -0.121086,0.0607 -0.183771,0.0861 -0.227309,0.073 -0.467831,0.0804 -0.704422,0.0884 -0.264409,0.0181 -0.523682,0.083 -0.788887,0.11022 -0.269195,0.0233 -0.539591,0.025 -0.809596,0.0266 -0.267573,7.9e-4 -0.535146,-2e-5 -0.802719,-2.7e-4 -0.267248,-2.6e-4 -0.534495,-2.6e-4 -0.801746,-5.3e-4 -0.267263,-3e-5 -0.534527,-2e-5 -0.80179,-2e-5 -0.267269,0 -0.534538,0 -0.801807,0 -0.267271,1e-5 -0.53454,1e-5 -0.801809,1e-5 -0.244869,0.0116 -0.473917,-0.0722 -0.664925,-0.22148 -0.196439,-0.11715 -0.352213,-0.15408 -0.495434,-0.34836 -0.123484,-0.14495 -0.270452,-0.26534 -0.397809,-0.40781 -0.112229,-0.18567 -0.264912,-0.32483 -0.423503,-0.46661 -0.115197,-0.16066 -0.216876,-0.32104 -0.370314,-0.44933 -0.166804,-0.12584 -0.261855,-0.30946 -0.393565,-0.46587 -0.118459,-0.17927 -0.243329,-0.35299 -0.369429,-0.52693 -0.106649,-0.17992 -0.172781,-0.38036 -0.266835,-0.56643 -0.08517,-0.19109 -0.187471,-0.37224 -0.251952,-0.57192 -0.05602,-0.21757 -0.130723,-0.42716 -0.170376,-0.64903 -0.03344,-0.25807 -0.09812,-0.51002 -0.134639,-0.76779 -0.01773,-0.2687 -0.04725,-0.53321 -0.09466,-0.79825 -0.04976,-0.26904 -0.0661,-0.5422 -0.07575,-0.81511 -0.0036,-0.27172 -0.01574,-0.54399 0.0046,-0.81517 0.04437,-0.2648 0.08448,-0.52951 0.105587,-0.79727 0.01728,-0.26492 0.01802,-0.53053 0.019,-0.7959 -0.01942,-0.24143 0.0412,-0.46059 0.137811,-0.67772 0.07291,-0.19148 0.14433,-0.38488 0.236725,-0.56801 0.108366,-0.20209 0.127792,-0.43297 0.179298,-0.65285 0.06074,-0.26324 0.182258,-0.50168 0.313203,-0.73543 0.117573,-0.23056 0.190794,-0.48063 0.271955,-0.72558 0.08403,-0.22502 0.244139,-0.40695 0.353234,-0.61793 0.09637,-0.20989 0.196935,-0.41994 0.326676,-0.61137 0.137501,-0.18293 0.261493,-0.37733 0.366445,-0.58075 0.126776,-0.15326 0.229701,-0.31501 0.329494,-0.48692 0.09285,-0.17003 0.211688,-0.3261 0.346498,-0.46496 0.147939,-0.18809 0.328266,-0.34578 0.475332,-0.53411 0.123227,-0.16429 0.261128,-0.31589 0.394089,-0.47197 0.136882,-0.13403 0.255405,-0.28627 0.415653,-0.39345 0.160215,-0.10643 0.303403,-0.23347 0.452191,-0.35455 0.160271,-0.10092 0.317638,-0.20831 0.457187,-0.3368 0.07617,-0.058 0.153852,-0.12245 0.237014,-0.17056 5.932175,-3.431294 -3.971883,2.29345 1.958948,-1.127712 0.184785,-0.07467 0.355507,-0.17802 0.534625,-0.266727 -3.407987,2.047119 -0.684866,0.251201 0.525388,-0.275457 0.03394,-0.01008 0.06962,-0.01548 0.101802,-0.03021 0.05996,-0.02746 0.229639,-0.129792 0.172558,-0.09677 -0.51177,0.296097 -2.054466,1.171485 -1.542965,0.874921 0.595405,-0.345207 1.193149,-0.686361 1.789724,-1.029541 -5.375257,3.089226 4.223752,-2.470428 -1.218486,0.666445 0.03927,-0.0067 0.198255,-0.171659 0.240284,-0.141403 0.009,0.0065 0.02159,0.02688 0.01143,0.03149 -0.01302,0.0059 -0.02548,-0.01291 -0.03822,-0.01937 -0.209679,-0.07313 -0.429916,-0.107058 -0.64563,-0.161253 -0.286436,-0.03027 -0.54728,-0.106791 -0.814264,-0.210431 -0.24834,-0.111046 -0.525261,-0.09647 -0.78197,-0.167209 -0.220914,-0.08252 -0.461299,-0.06631 -0.684197,-0.13241 -0.217625,-0.07332 -0.446061,-0.09248 -0.673698,-0.105143 -0.244282,0.01535 -0.47408,-0.06514 -0.712377,-0.103243 -0.245634,-0.03271 -0.493864,-0.03552 -0.741249,-0.03855 -0.266084,-0.0019 -0.532175,-0.0011 -0.798258,-7.93e-4 -0.235638,0.0081 -0.462495,0.08267 -0.698508,0.109217 -0.24805,0.03836 -0.50595,-0.0098 -0.748763,0.05353 -0.144098,0.05807 -0.305369,0.0456 -0.453226,0.08094 -0.06868,0.01643 -0.132083,0.05012 -0.199075,0.07245 -0.216252,0.03753 -0.405728,0.137107 -0.621803,0.17874 -0.08449,0.06583 -0.196154,0.0716 -0.289946,0.11277 -0.09572,0.04202 -0.1719,0.09498 -0.274212,0.127971 -0.219689,0.03138 -0.416036,0.124587 -0.634942,0.163227 -0.190711,0.08358 -0.345024,0.2027 -0.549632,0.255064 -0.11177,0.09635 -0.258458,0.09825 -0.389421,0.143417 -0.06419,0.02215 -0.122225,0.05948 -0.185386,0.0844 -0.1924,0.06166 -0.366943,0.166626 -0.547881,0.255907 0.54088,-0.310443 1.080191,-0.623641 1.622642,-0.931333 0.02808,-0.01593 -0.05126,0.03957 -0.07916,0.05583 -0.594604,0.34648 -1.187656,0.695783 -1.788023,1.032182 -0.09086,0.05091 -0.209904,0.04473 -0.306908,0.09129 0.542628,-0.306985 1.084392,-0.615498 1.627883,-0.920954 0.02784,-0.01564 -0.05322,0.03539 -0.08081,0.05146 -0.594415,0.346231 -1.198742,0.675791 -1.785154,1.035408 -0.531521,0.32597 1.078693,-0.625716 1.620438,-0.934395 0.06788,-0.03867 -0.05695,0.04175 -0.170188,0.11525 -0.03202,0.02141 -0.0626,0.04511 -0.09605,0.06418 -0.602334,0.34349 -1.206294,0.684135 -1.811038,1.023365 -0.303004,0.16997 0.08414,-0.0584 -0.236117,0.10355 -0.03677,0.0186 -0.139629,0.0875 -0.103807,0.0671 0.535731,-0.30459 1.069131,-0.61325 1.603695,-0.919875 -0.642384,0.534845 -1.406406,0.847955 -2.124884,1.296515 -0.527781,0.3295 1.078473,-0.6208 1.617712,-0.93119 -0.656682,0.4362 -1.309065,0.793 -2.026218,1.19667 -0.135181,0.0358 -0.073,0.009 -0.187532,0.0785 0.537133,-0.30758 1.073394,-0.61669 1.611403,-0.92274 0.03311,-0.0188 -0.06354,0.0421 -0.0966,0.061 -0.601501,0.34421 -1.19787,0.69774 -1.806985,1.0283 -0.542338,0.29431 2.13174,-1.24356 1.606602,-0.91955 -0.05657,0.0349 -4.436689,2.55755 -0.183065,0.10723 -1.093705,0.68763 -3.625926,2.08958 -0.256077,0.16641 0.02896,-0.0165 -0.05438,0.0388 -0.08332,0.0554 -0.597874,0.34219 -1.189736,0.69541 -1.796934,1.02077 -0.54864,0.29399 1.080805,-0.61774 1.621205,-0.92661 -0.596079,0.34309 -1.19082,0.68851 -1.788239,1.02926 -0.541803,0.30903 1.079077,-0.62597 1.621393,-0.9341 0.02807,-0.016 -0.05026,0.041 -0.07813,0.0573 -0.877483,0.51314 -1.22342,0.94576 -2.002348,1.08022 -0.252521,0.0322 -0.50772,0.0311 -0.761833,0.032 -0.264729,0.009 -0.520076,0.005 -0.777825,-0.055 -0.231508,-0.0554 -0.469527,-0.0678 -0.706443,-0.0765 -0.236783,-0.0118 -0.464534,-0.0855 -0.701111,-0.11321 -0.245184,0.008 -0.452403,-0.0718 -0.666049,-0.17897 -0.180414,-0.0973 -0.348483,-0.18231 -0.553014,-0.21807 -0.242715,-0.0144 -0.439602,-0.16628 -0.637503,-0.29151 -0.225578,-0.0896 -0.40772,-0.22523 -0.588573,-0.3821 -0.12336,-0.16062 -0.304353,-0.25465 -0.451472,-0.38962 -0.124743,-0.0623 -0.176046,-0.19532 -0.269883,-0.28829 -0.01889,-0.0187 -0.0416,-0.0331 -0.06239,-0.0496 -0.02326,-0.0234 -0.04652,-0.0468 -0.06979,-0.0702 -0.163957,-0.110855 -0.279379,-0.264044 -0.402548,-0.414714 -0.160645,-0.12048 -0.288777,-0.261244 -0.40001,-0.427712 -0.148702,-0.165679 -0.285719,-0.333761 -0.402331,-0.523645 -0.141878,-0.164441 -0.26674,-0.339457 -0.39778,-0.511929 -0.09083,-0.184594 -0.278212,-0.240609 -0.432406,-0.358251 -0.157094,-0.177088 -0.330372,-0.319632 -0.554231,-0.398944 -0.08152,-0.03312 -0.208576,-0.114808 -0.300251,-0.05167 -0.02154,0.01484 -0.06907,0.07599 -0.04612,0.06346 0.530548,-0.289647 2.105123,-1.189212 1.575374,-0.898107 -0.14905,0.151172 -0.200758,0.383659 -0.250161,0.585116 -0.03998,0.246901 -0.06096,0.493672 -0.116123,0.738065 -0.05569,0.235924 -0.06942,0.478137 -0.07859,0.719461 -0.0072,0.264631 -0.0063,0.529397 -0.0061,0.794102 2.64e-4,0.26752 7.94e-4,0.535043 7.94e-4,0.802568 1.32e-4,0.26732 1.4e-4,0.53465 1.45e-4,0.80197 -0.0024,0.2221 0.03697,0.44813 0.100433,0.66085 0.04999,0.18708 0.190768,0.3228 0.28624,0.4856 0.09117,0.17954 0.155834,0.37286 0.269044,0.54002 0.170617,0.14415 0.275029,0.34143 0.382863,0.53288 0.126825,0.13899 0.25941,0.27242 0.374128,0.42419 0.09422,0.16431 0.223769,0.30508 0.347078,0.4489 0.111871,0.16095 0.258789,0.28982 0.362942,0.4563 0.100338,0.15861 0.22718,0.29529 0.34444,0.44063 0.102095,0.15889 0.205036,0.32078 0.337513,0.45634 0.141846,0.12475 0.221089,0.30688 0.365287,0.42666 0.152532,0.12696 0.277601,0.27526 0.391287,0.43796 0.130802,0.15183 0.265035,0.29917 0.375774,0.46708 0.118203,0.1712 0.262004,0.32039 0.394444,0.47974 0.163155,0.13239 0.242281,0.32822 0.332883,0.51164 0.104576,0.16731 0.236042,0.31345 0.34273,0.47967 0.107543,0.22111 0.261192,0.41443 0.386435,0.62555 0.13399,0.19143 0.262101,0.39065 0.36213,0.60223 0.103894,0.16419 0.165581,0.34997 0.28185,0.50637 0.113249,0.17426 0.197768,0.36955 0.271999,0.56375 0.08538,0.16731 0.179774,0.33138 0.283827,0.48792 0.112249,0.17028 0.152066,0.37318 0.260048,0.54563 0.09594,0.18291 0.208606,0.35625 0.307988,0.53746 0.108199,0.20864 0.19517,0.42818 0.307417,0.63473 0.111453,0.23289 0.243277,0.45494 0.327091,0.69989 0.03259,0.21216 0.142269,0.39223 0.229296,0.58346 0.08369,0.20369 0.167145,0.40185 0.212577,0.61837 0.04658,0.19976 0.131926,0.38458 0.204279,0.57518 0.106411,0.19735 0.212628,0.39088 0.283771,0.60417 0.06592,0.2179 0.120124,0.4411 0.193151,0.6567 0.06581,0.18858 0.136163,0.37757 0.230114,0.55421 0.122047,0.19352 0.143145,0.41969 0.195884,0.63604 0.04463,0.20776 0.140298,0.397 0.199694,0.60013 0.09683,0.19248 0.131091,0.40406 0.190051,0.60846 0.05606,0.20647 0.123121,0.40811 0.189013,0.61152 0.09295,0.18109 0.149926,0.37577 0.227269,0.56335 0.05217,0.19759 0.126182,0.37938 0.228198,0.55557 0.08967,0.19746 0.152582,0.40751 0.217678,0.61467 0.0747,0.18488 0.193939,0.34061 0.266612,0.52676 0.08069,0.18444 0.172614,0.36386 0.248801,0.55021 0.07278,0.1722 0.195035,0.30901 0.308806,0.45361 0.120364,0.17462 0.147905,0.38925 0.251513,0.57231 0.08842,0.17051 0.235204,0.2959 0.336727,0.45762 0.101182,0.15785 0.228751,0.29368 0.346303,0.43857 0.110397,0.17949 0.245356,0.3433 0.392927,0.4934 0.15562,0.1842 0.323078,0.35722 0.484868,0.53579 0.183242,0.13926 0.284011,0.35268 0.458779,0.49851 0.178202,0.13516 0.311894,0.30961 0.458134,0.47609 0.155416,0.13277 0.308115,0.26666 0.467582,0.39491 0.03176,0.0269 0.06512,0.052 0.09528,0.0807 0.09931,0.0944 0.08073,0.099 0.183415,0.18161 0.08781,0.0707 0.193379,0.11234 0.288126,0.17281 0.193339,0.0818 0.287901,0.27161 0.479242,0.35549 0.159687,0.11474 0.336577,0.20205 0.497033,0.31423 0.02717,0.0153 0.05594,0.0282 0.08152,0.0461 0.114067,0.0798 0.04555,0.0553 0.158033,0.12055 0.08411,0.0488 0.176355,0.07 0.262305,0.11701 0.186801,0.071 0.316979,0.2293 0.492371,0.31892 0.161153,0.11862 0.343083,0.19968 0.511834,0.30808 0.201084,0.0896 0.351491,0.25619 0.545563,0.35611 0.225989,0.097 0.456854,0.19613 0.672793,0.31481 0.192098,0.11546 0.36394,0.22796 0.586685,0.27329 0.227592,0.0727 0.436618,0.17416 0.650618,0.27886 0.231936,0.0766 0.448069,0.18882 0.687099,0.24355 0.219356,0.026 0.402876,0.16729 0.588669,0.27927 0.210473,0.10189 0.440923,0.13921 0.66212,0.2121 0.195045,0.11805 0.408582,0.19782 0.60992,0.30394 0.233545,0.13068 0.502711,0.13455 0.754827,0.20043 0.230619,0.0822 0.47797,0.14496 0.701016,0.24773 0.215718,0.0846 0.42659,0.17404 0.654135,0.22273 0.248126,0.009 0.462285,0.0922 0.679862,0.20173 0.195004,0.063 0.371954,0.15993 0.573247,0.20473 0.227515,0.11182 0.485195,0.11222 0.721788,0.18804 0.221076,0.0652 0.443728,0.0981 0.662877,0.1689 0.219043,0.0325 0.424159,0.105 0.637635,0.15996 0.23745,0.0654 0.470519,0.13366 0.716254,0.16585 0.248308,0.0495 0.509103,0.0851 0.751551,0.16231 0.235506,0.0476 0.455385,0.14464 0.688039,0.19948 0.276489,0.0352 0.542843,0.11516 0.818179,0.15847 0.268983,0.0458 0.543882,0.0168 0.810995,0.0682 0.260996,0.0473 0.518732,0.0771 0.773054,0.15219 0.228225,0.0649 0.465815,0.0762 0.701466,0.0848 0.262483,0.0739 0.537964,0.0799 0.800627,0.14753 0.259387,0.073 0.526939,0.10016 0.79493,0.11519 0.263342,0.0227 0.531323,-0.0177 0.790641,0.0359 0.227222,0.0616 0.460952,0.0837 0.695119,0.0967 0.264464,0.0219 0.52307,0.0885 0.788236,0.1171 0.264575,0.0238 0.530439,0.0252 0.795872,0.0267 0.250806,-0.0256 0.487611,0.0543 0.732133,0.0932 0.243327,0.0204 0.478653,0.0328 0.7155,0.0928 0.2295,0.0568 0.466177,0.0677 0.701379,0.076 0.260754,0.0178 0.525761,-0.0215 0.782417,0.0315 0.22754,0.0617 0.461556,0.084 0.696037,0.097 0.264528,0.022 0.52319,0.0886 0.788421,0.11719 0.249593,-0.005 0.483212,0.08 0.726642,0.12057 0.24516,0.0337 0.493106,0.0362 0.740121,0.0391 0.249595,-0.0242 0.485278,0.0555 0.728681,0.0941 0.245645,0.0328 0.493877,0.0359 0.741283,0.0391 0.239805,0.006 0.47112,0.0803 0.710145,0.10814 0.260373,0.006 0.509579,0.0813 0.766249,0.11906 0.26289,0.0338 0.528251,0.0376 0.792895,0.0406 0.27942,-0.0135 0.5497,0.006 0.82446,0.0511 0.2974,0.0493 0.59832,0.0677 0.89921,0.0777 0.25578,-0.0212 0.49715,0.0595 0.74647,0.0992 0.2452,0.0328 0.493,0.0357 0.73996,0.0388 0.26587,0.002 0.53176,0.001 0.79764,7.9e-4 0.29099,-0.0174 0.57271,0.0599 0.86065,0.0911 0.32815,0.0319 0.65792,0.0388 0.98736,0.0423 0.27574,0.002 0.55148,7.9e-4 0.82722,2.6e-4 0.26379,-0.01 0.51806,-0.007 0.77505,0.0523 0.23385,0.0624 0.47796,0.0477 0.71215,0.10186 0.25743,0.0652 0.52152,0.0899 0.78588,0.10393 0.29798,0.0118 0.59628,0.0108 0.89444,0.0105 0.27979,-7.9e-4 0.55959,-0.001 0.83938,-0.002 0.26759,-2.7e-4 0.53518,-2.7e-4 0.80277,-2.7e-4 0.24102,0.003 0.47352,0.0789 0.71344,0.10731 0.25155,0.024 0.50452,0.0252 0.75699,0.027 0.26419,0.0125 0.5329,-0.0274 0.79293,0.026 0.22748,0.0618 0.46142,0.0843 0.69587,0.0975 0.26026,0.011 0.52083,0.0104 0.78126,0.0106 0.26739,-2e-4 0.53478,-5.3e-4 0.80217,-7.9e-4 0.27165,0.008 0.538,0.0774 0.80912,0.10646 0.26445,0.024 0.5302,0.0259 0.79553,0.0276 0.24088,0.004 0.47331,0.079 0.71321,0.10707 0.25161,0.0237 0.5046,0.0248 0.75709,0.0265 0.26673,7.9e-4 0.53345,1.6e-4 0.80018,-1.7e-4 0.26746,-2.7e-4 0.53492,-5.3e-4 0.80239,-5.3e-4 0.26991,0.008 0.54227,-0.023 0.80869,0.0256 0.26304,0.0576 0.53055,0.084 0.79894,0.0985 0.26584,0.011 0.53198,0.0105 0.79799,0.0106 0.26721,-2.4e-4 0.53441,-5.3e-4 0.80161,-8e-4 0.27519,-0.0129 0.54128,1.4e-4 0.81117,0.0511 0.26213,0.0518 0.52885,0.068 0.79527,0.0775 0.26499,0.0623 0.5333,0.10182 0.80446,0.12278 0.27334,-0.004 0.53613,0.0712 0.80514,0.10936 0.26338,0.0329 0.52909,0.037 0.79414,0.0401 0.26688,0.002 0.53377,8e-4 0.80066,5.3e-4 0.24118,0.003 0.47394,0.0784 0.71401,0.1067 0.25593,0.0369 0.5056,0.10403 0.76407,0.13373 0.23866,0.0277 0.46606,0.10511 0.706,0.13476 0.24936,0.0347 0.50396,-0.001 0.74978,0.0526 0.22646,0.0628 0.4599,0.0842 0.69358,0.097 0.26044,0.0107 0.52118,0.0101 0.7818,0.0101 0.26741,-2.4e-4 0.53483,-5.3e-4 0.80224,-8e-4 0.26738,-1.8e-4 0.53476,-2e-4 0.80214,-2.2e-4 0.2412,0.003 0.47388,0.0789 0.71398,0.1073 0.25157,0.024 0.50455,0.0252 0.75703,0.027 0.26672,7.9e-4 0.53344,1.8e-4 0.80015,-1.5e-4 0.26747,-2.6e-4 0.53493,-5.3e-4 0.8024,-5.3e-4 0.26729,-3e-5 0.53458,-2e-5 0.80187,-2e-5 0.26469,0.0117 0.53415,-0.0277 0.7946,0.0262 0.22721,0.0621 0.46098,0.0847 0.69526,0.0979 0.26024,0.0111 0.52078,0.0104 0.7812,0.0106 0.26739,-2e-4 0.53479,-5.3e-4 0.80218,-7.9e-4 0.26738,-1.9e-4 0.53477,-2.1e-4 0.80215,-2.3e-4 0.26727,-1e-5 0.53455,0 0.80182,0 0.26727,0 0.53454,0 0.80181,0 0.26727,0 0.53453,0 0.80181,0 0.26726,0 0.53453,0 0.8018,0 0.23538,-0.008 0.46206,-0.0822 0.69781,-0.10862 0.25657,-0.0231 0.51443,-0.0242 0.77184,-0.0258 0.26721,-8e-4 0.53443,-3e-5 0.80164,2.6e-4 0.27249,0.007 0.48904,0.0121 0.75399,-0.0541 0.22785,-0.0697 0.4737,-0.0325 0.69874,-0.10318 0.14124,-0.0624 0.30112,-0.0502 0.44733,-0.0857 0.0685,-0.0166 0.13179,-0.0504 0.19869,-0.0726 0.22234,-0.0266 0.42527,-0.10707 0.64063,-0.16055 0.24254,-0.0485 0.49078,-0.0528 0.7372,-0.0575 0.23124,-0.0448 0.44655,-0.1352 0.67362,-0.19399 0.2298,-0.0669 0.44717,-0.14941 0.68759,-0.18192 0.20723,-0.0999 0.4336,-0.12739 0.65986,-0.14571 0.20484,-0.0581 0.36738,-0.17963 0.57547,-0.23111 0.2147,-0.0458 0.41838,-0.13913 0.62656,-0.21195 0.22599,-0.0728 0.4409,-0.1788 0.66462,-0.26226 0.25324,-0.0536 0.46486,-0.20353 0.70391,-0.29228 0.0394,-0.0103 0.0802,-0.0162 0.1181,-0.0309 0.0674,-0.0261 0.25826,-0.13001 0.19566,-0.0938 -0.50925,0.29468 -2.04654,1.16211 -1.53564,0.8703 0.59799,-0.34156 1.19686,-0.68156 1.7953,-1.02234 0.035,-0.009 0.0715,-0.0134 0.10497,-0.0271 0.37415,-0.15329 -0.21111,0.0495 0.17809,-0.0909 0.10598,-0.0382 0.21616,-0.0526 0.3271,-0.0674 0.0603,-0.0375 0.13169,-0.0464 0.1956,-0.0744 0.0339,-0.0148 0.12977,-0.0709 0.0977,-0.0526 -0.53633,0.3061 -1.07213,0.61315 -1.61032,0.91594 -0.0326,0.0183 0.0609,-0.0435 0.0931,-0.0624 0.5968,-0.34995 1.19584,-0.69606 1.79376,-1.04409 -0.53606,0.30914 -1.0705,0.62112 -1.60818,0.92744 -0.0308,0.0176 0.0565,-0.0432 0.0872,-0.061 0.59716,-0.34604 1.19274,-0.69499 1.79597,-1.03033 0.0329,-0.0183 0.0742,-0.0146 0.10912,-0.0287 0.0317,-0.0128 0.11841,-0.068 0.0888,-0.0511 -0.54122,0.30923 -1.08234,0.61866 -1.62351,0.92799 0.16081,-0.10706 0.24,-0.28599 0.33381,-0.4473 0.0768,-0.17587 0.15939,-0.35613 0.2084,-0.54248 0.0246,-0.15582 -0.0854,-0.2481 -0.21736,-0.3081 -0.18981,-0.0637 -0.37132,-0.14942 -0.55332,-0.2336 -0.20849,-0.0646 -0.42083,-0.0884 -0.63028,-0.15071 0,0 1.63916,-1.12313 1.63916,-1.12313 v 0 c 0.21687,0.0583 0.44623,0.0725 0.64929,0.1768 0.18575,0.0882 0.38076,0.15526 0.56435,0.24845 0.1761,0.12159 0.33119,0.28143 0.3321,0.50887 -0.007,0.21878 -0.12659,0.39955 -0.1783,0.6092 -0.0901,0.18297 -0.18724,0.35823 -0.29944,0.52807 -0.59334,0.34802 -1.18385,0.7009 -1.78001,1.04405 -0.061,0.0351 -0.25446,0.12001 -0.19372,0.0844 0.53436,-0.31344 1.07103,-0.62289 1.60684,-0.93384 0.0303,-0.0176 -0.0603,0.0359 -0.0904,0.0538 -0.59475,0.35043 -1.18949,0.70086 -1.78424,1.05129 0.533,-0.31056 1.06441,-0.62388 1.59901,-0.93169 0.0325,-0.0187 -0.06,0.0453 -0.0924,0.0642 -0.59752,0.34937 -1.19448,0.69979 -1.79696,1.04052 -0.0944,0.0534 -0.21753,0.0638 -0.31987,0.0926 -0.20226,0.0527 -0.38943,0.14351 -0.57982,0.22787 0.53791,-0.31122 1.07568,-0.62266 1.61372,-0.93364 0.0287,-0.0166 -0.057,0.034 -0.0857,0.0505 -0.59748,0.34256 -1.1935,0.68768 -1.79301,1.02668 -0.0982,0.0555 -0.21281,0.0713 -0.31268,0.12302 -0.2299,0.11039 -0.46381,0.2074 -0.70609,0.28809 -0.22026,0.0926 -0.44154,0.18319 -0.66838,0.25835 -0.20764,0.0791 -0.41893,0.14771 -0.63246,0.20848 -0.19529,0.0821 -0.37967,0.18892 -0.59796,0.19761 -0.22294,0.034 -0.43372,0.10467 -0.65235,0.15625 -0.22886,0.0533 -0.44521,0.14514 -0.67467,0.19683 -0.22886,0.0725 -0.46038,0.1479 -0.70269,0.15436 -0.23953,0.0109 -0.48084,0.0261 -0.71142,0.0975 -0.21066,0.0652 -0.42713,0.0992 -0.63773,0.16471 -0.21561,0.0603 -0.44064,0.0833 -0.65707,0.14218 -0.23466,0.0237 -0.46917,0.0474 -0.69913,0.10258 -0.2564,0.0379 -0.51617,0.0158 -0.77456,0.0209 -0.26679,-2.7e-4 -0.5336,-0.001 -0.80038,0.002 -0.25336,0.004 -0.50759,0.01 -0.75867,0.0473 -0.23641,0.0396 -0.46989,0.1036 -0.71213,0.085 -0.26727,0 -0.53454,0 -0.80181,0 -0.26727,0 -0.53453,0 -0.80181,0 -0.26726,0 -0.53453,0 -0.8018,0 -0.26727,0 -0.53454,-1e-5 -0.80181,2e-5 -0.26735,3e-5 -0.53469,8e-5 -0.80204,2.6e-4 -0.26754,2.7e-4 -0.53509,7.9e-4 -0.80263,2.7e-4 -0.26361,-0.001 -0.52753,-0.002 -0.79058,-0.0212 -0.23685,-0.0215 -0.46974,-0.0624 -0.70311,-0.1073 -0.25869,-0.0138 -0.5181,-0.002 -0.77704,-0.006 -0.26728,0 -0.53456,-1e-5 -0.80184,6e-5 -0.26742,9e-5 -0.53485,2.4e-4 -0.80227,5.3e-4 -0.26729,2.6e-4 -0.53458,0.001 -0.80186,-0.002 -0.25827,-0.004 -0.51733,-0.01 -0.77347,-0.0462 -0.2312,-0.0369 -0.45961,-0.10178 -0.69598,-0.0864 -0.26734,4e-5 -0.53468,9e-5 -0.80203,2.7e-4 -0.26755,2.6e-4 -0.53511,7.9e-4 -0.80266,5.3e-4 -0.26374,-0.001 -0.52779,-0.002 -0.791,-0.0206 -0.23704,-0.0211 -0.47028,-0.0609 -0.7033,-0.10865 -0.24989,-0.0174 -0.50187,-0.0112 -0.7498,-0.053 -0.23502,-0.0416 -0.46346,-0.11505 -0.70234,-0.13364 -0.25654,-0.0398 -0.5078,-0.10698 -0.76644,-0.13291 -0.23117,-0.0368 -0.4596,-0.10139 -0.69592,-0.0857 -0.26765,2.7e-4 -0.53534,0.001 -0.80296,-0.004 -0.27065,-0.007 -0.54182,-0.0182 -0.80948,-0.062 -0.26518,-0.0444 -0.52864,-0.0937 -0.79848,-0.0997 -0.26797,-0.0298 -0.53131,-0.0867 -0.79915,-0.11524 -0.27126,-0.0163 -0.5412,-0.0453 -0.80835,-0.0964 -0.26289,-0.0369 -0.52758,-0.023 -0.79245,-0.0244 -0.26733,2.6e-4 -0.53467,7.9e-4 -0.80201,2.6e-4 -0.26863,-0.001 -0.53751,-0.002 -0.80562,-0.0213 -0.27013,-0.0225 -0.53714,-0.0639 -0.80466,-0.10672 -0.26475,-0.0132 -0.53002,-0.003 -0.79502,-0.006 -0.26742,9e-5 -0.53485,2.4e-4 -0.80227,5.3e-4 -0.26728,2.7e-4 -0.53457,10e-4 -0.80185,-0.002 -0.25824,-0.004 -0.51725,-0.009 -0.77341,-0.0455 -0.23152,-0.0367 -0.46013,-0.10098 -0.69671,-0.0882 -0.26981,-0.004 -0.54011,-0.0112 -0.80811,-0.0455 -0.26421,-0.0362 -0.52677,-0.0987 -0.79507,-0.0866 -0.26755,2.7e-4 -0.53509,8e-4 -0.80263,2.7e-4 -0.26362,-10e-4 -0.52754,-0.002 -0.7906,-0.0212 -0.23697,-0.0214 -0.47001,-0.0622 -0.70357,-0.10668 -0.25873,-0.0134 -0.51815,-7.9e-4 -0.77712,-0.008 -0.25826,-0.004 -0.5173,-0.01 -0.77343,-0.0462 -0.23102,-0.0369 -0.45925,-0.10177 -0.69545,-0.0864 -0.26748,3e-5 -0.53496,9e-5 -0.80245,2.6e-4 -0.27924,2e-4 -0.55848,5.3e-4 -0.83773,-1.1e-4 -0.30149,-0.001 -0.60339,-5.3e-4 -0.90438,-0.0198 -0.26886,-0.0228 -0.53467,-0.0637 -0.79854,-0.12048 -0.23992,-0.0277 -0.48114,-0.0465 -0.71662,-0.10384 -0.248,-0.04 -0.49949,-0.0175 -0.74976,-0.0225 -0.27581,1.5e-4 -0.55165,5.3e-4 -0.82742,-0.005 -0.33242,-0.008 -0.66494,-0.0225 -0.99553,-0.0603 -0.28363,-0.035 -0.56487,-0.089 -0.85231,-0.0686 -0.26681,2.4e-4 -0.53365,0.001 -0.80042,-0.004 -0.25411,-0.007 -0.50912,-0.0162 -0.75974,-0.0624 -0.24147,-0.0463 -0.48023,-0.0909 -0.72799,-0.0808 -0.304682,-0.0169 -0.608278,-0.0464 -0.909718,-0.0948 -0.269882,-0.0342 -0.540546,-0.0248 -0.812162,-0.029 -0.270621,-0.007 -0.541882,-0.018 -0.809281,-0.0636 -0.254466,-0.0451 -0.506973,-0.0972 -0.76554,-0.11375 -0.231016,-0.0367 -0.458949,-0.10108 -0.694968,-0.0904 -0.254484,-0.007 -0.509831,-0.0165 -0.760883,-0.0623 -0.235337,-0.0445 -0.467569,-0.0875 -0.708978,-0.0708 -0.254709,-0.007 -0.510537,-0.0157 -0.761333,-0.0647 -0.237813,-0.0496 -0.473067,-0.10312 -0.717174,-0.11232 -0.261242,-0.0371 -0.519081,-0.1002 -0.783736,-0.10796 -0.237119,-0.0213 -0.470363,-0.0617 -0.704014,-0.10654 -0.256807,-0.014 -0.514487,-0.002 -0.771334,-0.0184 -0.243639,-0.0152 -0.486418,-0.0412 -0.723371,-0.10274 -0.234222,-0.0464 -0.474776,-0.0377 -0.709303,-0.085 -0.236056,-0.0446 -0.468924,-0.0873 -0.711062,-0.0688 -0.270076,-0.004 -0.540719,-0.0104 -0.808937,-0.0452 -0.261171,-0.037 -0.518946,-0.10015 -0.783532,-0.10782 -0.236884,-0.0211 -0.469913,-0.0614 -0.703271,-0.10652 -0.260178,-0.0149 -0.521499,-0.004 -0.781399,-0.0272 -0.273603,-0.0249 -0.543724,-0.0697 -0.810196,-0.13754 -0.260718,-0.0432 -0.521674,-0.089 -0.783776,-0.12112 -0.246147,-0.0167 -0.491482,-0.0451 -0.727972,-0.11932 -0.247589,-0.0644 -0.503965,-0.0847 -0.755149,-0.132 -0.271868,-0.0208 -0.546016,-0.0219 -0.814653,-0.0748 -0.277577,-0.0539 -0.553264,-0.11761 -0.830627,-0.17208 -0.228338,-0.0701 -0.45593,-0.14006 -0.68747,-0.1996 -0.245104,-0.0539 -0.490196,-0.11118 -0.738949,-0.14491 -0.248142,-0.0457 -0.48763,-0.12104 -0.732115,-0.18229 -0.212262,-0.0629 -0.428001,-0.10501 -0.641062,-0.16469 -0.216696,-0.064 -0.442846,-0.09 -0.657228,-0.16401 -0.2443,-0.052 -0.4881,-0.1019 -0.723627,-0.1877 -0.20306,-0.0651 -0.39769,-0.15476 -0.594985,-0.23505 -0.207528,-0.0984 -0.42932,-0.12671 -0.653258,-0.16949 -0.229688,-0.0654 -0.450726,-0.15596 -0.672309,-0.24459 -0.224875,-0.0786 -0.445842,-0.17212 -0.678977,-0.22297 -0.269864,-0.051 -0.539191,-0.10408 -0.782534,-0.23923 -0.198371,-0.0932 -0.39674,-0.18693 -0.595725,-0.27824 -0.231413,-0.0747 -0.476012,-0.11445 -0.68547,-0.24619 -0.181279,-0.0999 -0.347347,-0.21441 -0.559416,-0.23773 -0.240848,-0.0762 -0.472157,-0.18106 -0.705895,-0.27601 -0.203703,-0.10027 -0.415105,-0.17813 -0.632013,-0.24526 -0.220705,-0.0726 -0.405945,-0.19944 -0.608478,-0.30982 -0.226227,-0.10901 -0.454358,-0.21387 -0.681249,-0.32128 -0.183613,-0.1181 -0.349618,-0.26333 -0.547209,-0.35997 -0.17173,-0.0995 -0.3483,-0.19087 -0.511487,-0.3042 -0.160269,-0.10479 -0.303885,-0.23628 -0.484616,-0.30765 -0.184494,-0.0821 -0.349586,-0.18637 -0.514572,-0.30222 -0.164942,-0.0978 -0.322776,-0.20564 -0.488599,-0.30203 -0.172971,-0.11029 -0.29533,-0.27676 -0.483134,-0.36552 -0.214746,-0.12858 -0.398201,-0.28358 -0.58002,-0.45476 -0.169142,-0.13402 -0.330366,-0.27786 -0.486563,-0.42671 -0.13816,-0.16347 -0.279437,-0.31925 -0.445683,-0.45555 -0.166219,-0.16228 -0.288919,-0.36267 -0.467177,-0.51437 -0.16238,-0.17524 -0.323353,-0.35134 -0.481452,-0.53051 -0.150188,-0.15496 -0.28848,-0.32351 -0.404886,-0.50536 -0.125593,-0.14893 -0.251876,-0.29658 -0.35867,-0.46008 -0.104669,-0.16237 -0.258087,-0.29019 -0.342042,-0.46723 -0.09748,-0.17541 -0.135925,-0.37157 -0.235601,-0.54419 -0.127913,-0.15819 -0.25346,-0.31679 -0.336751,-0.50445 -0.07393,-0.1887 -0.169834,-0.36811 -0.250685,-0.55392 -0.06897,-0.19147 -0.202171,-0.34631 -0.272222,-0.53802 -0.0577,-0.19394 -0.121859,-0.38738 -0.196786,-0.57449 -0.106363,-0.18369 -0.191842,-0.3714 -0.240731,-0.57911 -0.07943,-0.19295 -0.138147,-0.39243 -0.234768,-0.57824 -0.06344,-0.20496 -0.137017,-0.40502 -0.189854,-0.61323 -0.06552,-0.20394 -0.08724,-0.42123 -0.192207,-0.61291 -0.05455,-0.20594 -0.156953,-0.39342 -0.200932,-0.6027 -0.05612,-0.19973 -0.05928,-0.41489 -0.175123,-0.59528 -0.09837,-0.18548 -0.175302,-0.38246 -0.243538,-0.58074 -0.07828,-0.21542 -0.126878,-0.44373 -0.193696,-0.66281 -0.06519,-0.21283 -0.179446,-0.39834 -0.281927,-0.59473 -0.07356,-0.20176 -0.16618,-0.39507 -0.21852,-0.60467 -0.03608,-0.20407 -0.114638,-0.38665 -0.192312,-0.57726 -0.08776,-0.19814 -0.208036,-0.38321 -0.237159,-0.60323 -0.07297,-0.23545 -0.202068,-0.44606 -0.306853,-0.66808 -0.115515,-0.20502 -0.203632,-0.42385 -0.309825,-0.6336 -0.09909,-0.17787 -0.212566,-0.34739 -0.305951,-0.52832 -0.104383,-0.17315 -0.15518,-0.36721 -0.257283,-0.54068 -0.109651,-0.17056 -0.214839,-0.34477 -0.304599,-0.52671 -0.06487,-0.17905 -0.144484,-0.35764 -0.247076,-0.51761 -0.118144,-0.17026 -0.19376,-0.36132 -0.298704,-0.53935 -0.09398,-0.20691 -0.221853,-0.39855 -0.348467,-0.58659 -0.124613,-0.20832 -0.280051,-0.3975 -0.385238,-0.61696 -0.113255,-0.17072 -0.254609,-0.32072 -0.356439,-0.49938 -0.08403,-0.1715 -0.1583,-0.34403 -0.308499,-0.46978 -0.139607,-0.16267 -0.280646,-0.32357 -0.403789,-0.49953 -0.112482,-0.16409 -0.252692,-0.30521 -0.37548,-0.46138 -0.108411,-0.15032 -0.228995,-0.28381 -0.370787,-0.40358 -0.134821,-0.1374 -0.233281,-0.30465 -0.372775,-0.4389 -0.128063,-0.14497 -0.240154,-0.30291 -0.34346,-0.46631 -0.12514,-0.14942 -0.250601,-0.2978 -0.356643,-0.46188 -0.100735,-0.15675 -0.2463,-0.27853 -0.350015,-0.43379 -0.121068,-0.14889 -0.257804,-0.28684 -0.350906,-0.45554 -0.12314,-0.15642 -0.269073,-0.2907 -0.387358,-0.44979 -0.105502,-0.18863 -0.212883,-0.37113 -0.374208,-0.5189 -0.115456,-0.17118 -0.188489,-0.36386 -0.276667,-0.54985 -0.103349,-0.17458 -0.254021,-0.32279 -0.306808,-0.52496 -0.07645,-0.22787 -0.118748,-0.47767 -0.125214,-0.71711 -3e-6,-0.2673 0,-0.53459 -9.3e-5,-0.80189 -1.19e-4,-0.26749 -2.64e-4,-0.53499 -7.93e-4,-0.80248 -2.65e-4,-0.26646 -0.0013,-0.532933 0.0027,-0.799366 0.0058,-0.25129 0.01304,-0.503856 0.06004,-0.751522 0.05274,-0.245684 0.109308,-0.484738 0.118965,-0.737741 0.0428,-0.235653 0.11579,-0.461346 0.196657,-0.68594 0.490564,-0.799674 1.455557,-1.365385 2.261235,-0.977471 0.222424,0.107857 0.40582,0.260445 0.580527,0.434374 0.175795,0.117568 0.365091,0.211447 0.465302,0.410279 0.130524,0.179385 0.26638,0.3526 0.404125,0.52686 0.117374,0.185176 0.25813,0.347974 0.399129,0.515728 0.111622,0.158914 0.253098,0.280834 0.394075,0.413705 0.115957,0.147003 0.241562,0.279133 0.390515,0.394645 0.136221,0.13064 0.245081,0.283601 0.395608,0.398108 0.153781,0.125973 0.321077,0.237024 0.449828,0.390787 0.172334,0.151436 0.370457,0.249404 0.572201,0.357154 0.186143,0.11955 0.37646,0.21253 0.600104,0.2355 0.206037,0.0587 0.387073,0.16109 0.579102,0.25342 0.199977,0.0924 0.411025,0.11133 0.628848,0.12971 0.229577,0.0372 0.455293,0.1029 0.689727,0.0997 0.243983,0.0156 0.486658,0.0429 0.725069,0.0991 0.248394,0.0408 0.500595,0.0205 0.751401,0.0229 0.24619,-0.005 0.496393,-0.007 0.735182,-0.0738 0.06432,-0.024 0.247224,-0.11874 0.187997,-0.0841 -0.537107,0.31464 -1.074973,0.62799 -1.613474,0.94023 -0.0275,0.016 0.05305,-0.0351 0.08041,-0.0513 0.591357,-0.34998 1.214123,-0.65118 1.77569,-1.04719 0.508336,-0.35848 -1.076936,0.62277 -1.615405,0.93416 5.963321,-3.421629 -1.094238,0.64998 0.262903,-0.14023 0.594635,-0.34624 1.190834,-0.68983 1.782601,-1.04094 0.50446,-0.29931 -2.247345,1.34341 -1.522632,0.88213 0.593711,-0.35066 1.215604,-0.65747 1.781138,-1.05197 0.50647,-0.35329 -2.144692,1.22513 -1.603375,0.92797 0.606245,-0.3328 1.190945,-0.70397 1.798201,-1.03492 0.540459,-0.294547 -1.065356,0.61679 -1.597748,0.92568 -0.03243,0.0188 0.06524,-0.037 0.09786,-0.0555 0.597911,-0.34638 1.195821,-0.69276 1.79373,-1.03913 0.06244,-0.0247 0.240511,-0.118878 0.182599,-0.08493 -2.851666,1.671649 -1.939128,1.186209 -1.3745,0.774529 0.59422,-0.34649 1.186006,-0.69719 1.782662,-1.039459 0.538739,-0.309047 -1.071951,0.627629 -1.608899,0.939779 -0.235543,0.13693 0.580898,-0.37618 0.342797,-0.24946 0.594905,-0.35482 1.187502,-0.713531 1.784712,-1.064451 0.07362,-0.04326 0.15548,-0.07068 0.232865,-0.106777 0.03873,-0.01807 0.153043,-0.07586 0.1162,-0.0542 -1.443482,0.848783 -2.156455,1.210578 -1.4971,0.873938 0.602366,-0.434299 1.427078,-0.818847 1.946434,-1.156749 0.521755,-0.339463 -1.074478,0.628796 -1.613929,0.939369 -0.02799,0.01611 0.0528,-0.03719 0.0792,-0.0558 0.597045,-0.341654 1.194091,-0.683311 1.791136,-1.024967 0.07886,-0.02191 0.126958,-0.03213 0.202012,-0.06552 0.03069,-0.01365 0.118187,-0.06384 0.0892,-0.04687 -0.537107,0.314423 -1.075081,0.627369 -1.613649,0.939284 -0.02763,0.01601 0.05385,-0.03434 0.08078,-0.05151 0.593122,-0.347292 1.186244,-0.694584 1.779368,-1.041876 0.17921,-0.09517 0.369816,-0.168831 0.559403,-0.240427 0.192215,-0.07603 0.391618,-0.133131 0.579038,-0.221959 0.185267,-0.08593 0.35573,-0.204952 0.562856,-0.236062 0.207222,-0.0583 0.413441,-0.121356 0.61781,-0.187637 0.187103,-0.08741 0.378683,-0.1676 0.578964,-0.219755 0.205349,-0.06365 0.406239,-0.138073 0.616138,-0.186933 0.218599,-0.05993 0.446752,-0.08215 0.668377,-0.129524 0.250182,-0.01331 0.501788,-0.01246 0.749927,-0.0517 0.236609,-0.03972 0.470258,-0.103997 0.712727,-0.08576 0.266988,-2.54e-4 0.534009,-0.0011 0.800968,0.0037 0.254659,0.0066 0.510281,0.01587 0.761399,0.06243 0.232064,0.04531 0.461402,0.09157 0.69959,0.08775 0.234926,0.02215 0.465916,0.06233 0.692777,0.128561 0.22927,0.0356 0.459066,0.06599 0.682324,0.132369 0.269488,0.04533 0.541081,0.08257 0.794506,0.192243 0.261149,0.09591 0.531527,0.130495 0.802278,0.190415 0.238622,0.05873 0.494596,0.08233 0.701175,0.226783 0.192056,0.181903 0.201157,0.338629 -0.04935,0.463275 -4.131731,2.4197 -0.727567,0.425312 -0.166267,0.0995 0.02734,-0.01587 -0.05469,0.0322 -0.07918,0.05219 -0.181104,0.147796 0.04347,7.94e-4 -0.155747,0.116385 -0.594677,0.344762 -1.188471,0.691049 -1.782706,1.036574 0.537995,-0.312672 1.075451,-0.626269 1.613982,-0.938017 0.02774,-0.01606 -0.05389,0.03475 -0.08156,0.05092 -0.593574,0.346747 -1.187177,0.693455 -1.782151,1.037796 -0.08853,0.05124 -0.186402,0.07663 -0.276955,0.123516 -1.734418,0.853076 5.208952,-2.956579 -0.519452,0.283326 -0.173767,0.0965 -0.358243,0.17317 -0.531611,0.27066 4.183018,-2.421836 -0.02527,0.0162 -0.17204,0.0942 -0.549323,0.29198 1.076172,-0.624408 1.613876,-0.937267 0.150818,-0.08775 -0.372694,0.253122 -0.245245,0.149003 -0.155501,0.113017 -0.282471,0.260214 -0.447672,0.361824 -0.179975,0.0794 -0.28892,0.24145 -0.4592,0.33585 -0.162304,0.14076 0.01934,-0.005 -0.158787,0.10264 -0.106392,0.0641 -0.17965,0.18248 -0.266242,0.26816 -0.156928,0.12721 -0.280996,0.29742 -0.404077,0.45614 -0.198837,0.21726 0.0486,-0.0623 -0.146233,0.19072 -0.09683,0.12575 -0.242112,0.20484 -0.325348,0.34367 -0.113723,0.14863 -0.26009,0.26792 -0.364701,0.42495 -0.01487,0.0304 -0.02974,0.0609 -0.04461,0.0913 -0.0177,0.0259 -0.03891,0.0498 -0.0531,0.0778 -0.06294,0.12424 -0.09528,0.25389 -0.228616,0.32761 -0.133543,0.19069 -0.216265,0.41631 -0.359529,0.60283 -0.149495,0.16944 -0.239826,0.36632 -0.346363,0.56402 -0.07918,0.23137 -0.229122,0.40931 -0.35646,0.61494 -0.112477,0.23784 -0.156472,0.50498 -0.263457,0.74623 -0.116294,0.22841 -0.265816,0.43875 -0.334869,0.68894 -0.05496,0.23076 -0.08066,0.46639 -0.155927,0.69162 -0.08791,0.18203 -0.185627,0.36089 -0.242996,0.55532 -0.07617,0.20371 -0.206283,0.37977 -0.175705,0.61117 -2.64e-4,0.26927 -2.46e-4,0.53869 -0.0131,0.80772 -0.01624,0.27081 -0.04443,0.54062 -0.101198,0.80633 -0.04511,0.2596 -0.01212,0.52598 -0.01788,0.78852 0.0066,0.26409 0.01714,0.52881 0.06206,0.7897 0.04727,0.26797 0.09408,0.53271 0.09908,0.80577 0.03157,0.25669 0.09704,0.50573 0.134104,0.76077 0.03264,0.21507 0.105577,0.41533 0.159025,0.62479 0.05552,0.19103 0.158496,0.35971 0.236471,0.54178 0.0897,0.1765 0.153464,0.36607 0.250672,0.53885 0.124926,0.17026 0.242289,0.34486 0.362312,0.51824 0.121905,0.15251 0.222938,0.31743 0.380135,0.43896 0.141907,0.13604 0.254768,0.28946 0.36811,0.44771 0.166206,0.14365 0.307401,0.30468 0.43384,0.4849 0.134728,0.14202 0.288015,0.26655 0.408199,0.42177 0.120869,0.14584 0.322379,0.1715 0.463336,0.29648 0.183311,0.10706 0.380341,0.13848 0.592005,0.12522 0.267269,0 0.53454,0 0.801809,-1e-5 0.267269,0 0.534538,0 0.801809,0 0.267272,0 0.534546,0 0.801817,6e-5 0.267288,8e-5 0.534575,2.3e-4 0.80186,5.3e-4 0.26711,2.6e-4 0.534228,10e-4 0.801327,-0.002 0.265928,-0.004 0.532411,-0.0101 0.796552,-0.044 0.265528,-0.0371 0.528281,-0.0987 0.797605,-0.1006 0.228627,-0.0176 0.457383,-0.0451 0.667901,-0.14288 0.192762,-0.0779 0.3937,-0.14002 0.589341,-0.20933 0.209947,-0.06 0.430223,-0.0836 0.629036,-0.1768 0.734375,-0.41979 -1.916874,1.09552 -1.529315,0.88645 0.624488,-0.33687 1.345261,-0.8464 2.054294,-1.16134 0.198985,-0.072 0.406879,-0.12065 0.605798,-0.19359 0.06484,-0.0243 0.249412,-0.11977 0.189653,-0.0848 -3.426037,2.00587 -0.67664,0.37503 0.346035,-0.21026 0.211511,-0.0912 0.414536,-0.20071 0.632524,-0.27728 0.625607,-0.34104 0.287372,-0.15778 -1.524858,0.89369 -0.02739,0.0159 0.05486,-0.0321 0.0795,-0.052 0.186103,-0.1503 -0.04743,0.002 0.157007,-0.11544 0.595786,-0.34307 1.190505,-0.68799 1.785757,-1.03198 -0.538226,0.31186 -1.076306,0.62397 -1.614675,0.93559 -0.02788,0.0161 0.05532,-0.033 0.08321,-0.0492 0.595188,-0.34422 1.189704,-0.6896 1.786011,-1.03187 0.08797,-0.0505 0.187047,-0.074 0.271526,-0.13104 -0.537321,0.31419 -1.073745,0.62992 -1.611966,0.94256 -0.02759,0.016 0.05521,-0.0325 0.07996,-0.0526 0.07752,-0.0631 0.151968,-0.13073 0.237696,-0.18415 0.02898,-0.0181 0.06214,-0.0284 0.09321,-0.0425 0.174715,-0.12454 0.32671,-0.27857 0.505691,-0.39804 0.07416,-0.0609 0.138366,-0.13119 0.206488,-0.19826 0.02469,-0.0243 0.03723,-0.0616 0.06689,-0.0795 0.05836,-0.0352 4.418298,-2.5714 0.182245,-0.0926 0.210577,-0.12781 0.30898,-0.3613 0.485262,-0.52805 0.06964,-0.0533 0.144129,-0.10066 0.209782,-0.15881 0.122439,-0.10846 0.182081,-0.27324 0.339895,-0.34237 0.09087,-0.0816 0.198699,-0.13698 0.282178,-0.22652 0.05569,-0.0597 0.09537,-0.13329 0.151947,-0.19218 0.02601,-0.0271 0.05725,-0.0486 0.08587,-0.0729 0.594953,-0.34751 1.180682,-0.71131 1.784855,-1.04252 0.542965,-0.29766 -1.066744,0.62905 -1.601155,0.94181 -0.03023,0.0177 0.06117,-0.0347 0.08853,-0.0566 0.09358,-0.0748 0.137263,-0.18749 0.238752,-0.25384 0.06324,-0.0365 0.131816,-0.0636 0.19326,-0.10302 0.142541,-0.0914 0.1851,-0.25351 0.29296,-0.37541 0.180416,-0.16642 0.399063,-0.27923 0.542549,-0.48471 0.173413,-0.13335 0.358624,-0.26209 0.463097,-0.45981 0.144585,-0.1704 0.336564,-0.29129 0.475658,-0.46662 0.12156,-0.15406 0.278363,-0.27852 0.414401,-0.4195 0.164978,-0.2063 0.365249,-0.38446 0.539988,-0.58299 0.223245,-0.22615 0.423685,-0.47527 0.653941,-0.69583 0.165309,-0.176 0.352664,-0.33017 0.485852,-0.53087 0.159634,-0.17547 0.388694,-0.27275 0.496586,-0.49155 0.167677,-0.20353 0.355365,-0.39099 0.502446,-0.61192 0.183719,-0.20787 0.372198,-0.40829 0.550122,-0.62056 0.193241,-0.17619 0.385146,-0.35156 0.536961,-0.56598 0.194924,-0.20759 0.356391,-0.43224 0.515692,-0.66782 0.171627,-0.18374 0.356261,-0.35332 0.506698,-0.55406 0.145828,-0.27114 0.318389,-0.35132 0.476888,-0.59117 0.127169,-0.15521 0.269912,-0.28987 0.392295,-0.44746 0.168939,-0.16959 0.26208,-0.39841 0.445151,-0.5565 0.07335,-0.10241 0.133752,-0.21581 0.208211,-0.31668 0.09351,-0.12667 0.07475,-0.0726 0.1867,-0.18617 0.03562,-0.0361 0.06646,-0.0767 0.09969,-0.11501 0.248354,-0.24113 0.425395,-0.5426 0.667552,-0.79042 0.196734,-0.23766 0.387001,-0.47922 0.597342,-0.70499 0.13094,-0.22736 0.338058,-0.38614 0.500727,-0.58987 0.148108,-0.20475 0.322164,-0.39394 0.490156,-0.58147 0.112403,-0.17154 0.193839,-0.361195 0.331208,-0.51328 0.06644,-0.108635 0.137803,-0.166256 0.223753,-0.256125 0.0936,-0.09787 0.07398,-0.110527 0.151529,-0.226409 0.02735,-0.04087 0.05974,-0.07813 0.08961,-0.1172 0.209245,-0.21839 0.385188,-0.455755 0.561721,-0.700931 0.199133,-0.219554 0.352475,-0.467305 0.534238,-0.700262 0.14005,-0.224282 0.332191,-0.405501 0.466741,-0.632741 0.1242,-0.168145 0.27908,-0.311322 0.38511,-0.494625 0.11306,-0.219284 0.29496,-0.383749 0.41403,-0.599879 0.0701,-0.137033 0.13913,-0.185481 0.24361,-0.291722 0.0961,-0.09776 0.0866,-0.118885 0.1631,-0.235297 0.0265,-0.04034 0.0567,-0.07817 0.085,-0.117263 0.13216,-0.201996 0.2548,-0.410001 0.43882,-0.570849 0.1192,-0.198303 0.24815,-0.391478 0.42393,-0.545042 0.13679,-0.206555 0.28545,-0.408855 0.44915,-0.595188 0.0463,-0.07201 0.0861,-0.148164 0.13493,-0.218509 0.0916,-0.132051 0.23205,-0.223644 0.29821,-0.375438 0.10772,-0.19312 0.29937,-0.303287 0.41929,-0.487971 0.11474,-0.239575 0.29113,-0.424521 0.45561,-0.628603 0.12039,-0.200331 0.24745,-0.383632 0.41812,-0.546145 0.14803,-0.217328 0.31997,-0.415184 0.43608,-0.654354 0.13802,-0.180591 0.27205,-0.357185 0.38137,-0.556204 0.16497,-0.16446 0.27089,-0.374854 0.41553,-0.556877 0.16931,-0.178366 0.27394,-0.404302 0.44774,-0.578236 0.11928,-0.187915 0.24983,-0.369948 0.42966,-0.505111 0.0688,-0.102565 0.10717,-0.217098 0.1808,-0.316605 0.11107,-0.150101 0.0493,-0.04465 0.17492,-0.17593 0.028,-0.0293 0.0506,-0.06344 0.0758,-0.09516 0.13047,-0.181123 0.24703,-0.374869 0.4163,-0.522689 0.17042,-0.232765 0.31023,-0.486283 0.51907,-0.691391 0.16758,-0.206518 0.38449,-0.369406 0.53599,-0.590957 0.1848,-0.190003 0.36318,-0.381802 0.51487,-0.598565 0.0807,-0.06755 0.18152,-0.129751 0.25518,-0.204607 0.0838,-0.0852 0.0511,-0.08457 0.11638,-0.189034 0.0206,-0.03294 0.0473,-0.06162 0.071,-0.09243 0.16622,-0.141229 0.38501,-0.21758 0.46492,-0.440631 0.13401,-0.170667 0.33468,-0.232744 0.47804,-0.391499 0.096,-0.188283 0.26545,-0.301458 0.40536,-0.454893 0.20094,-0.150717 0.37876,-0.332444 0.57494,-0.489601 0.17052,-0.161602 0.30673,-0.359979 0.51446,-0.477208 0.10517,-0.09954 0.15205,-0.205239 0.23858,-0.316827 0.068,-0.08776 0.1271,-0.104471 0.21181,-0.173088 0.0384,-0.03108 0.0728,-0.06676 0.10915,-0.100129 0.2102,-0.153826 0.33751,-0.392155 0.54503,-0.554032 0.15082,-0.201388 0.38361,-0.306039 0.52851,-0.513967 0.16292,-0.204134 0.4181,-0.301133 0.56425,-0.526367 0.18325,-0.153321 0.33661,-0.338439 0.52269,-0.485447 0.22197,-0.23068 -0.0812,0.07431 0.15978,-0.135744 0.13452,-0.117274 0.20158,-0.301977 0.37547,-0.379371 0.23192,-0.207891 0.49253,-0.384058 0.71392,-0.604025 0.20492,-0.155744 0.36445,-0.370813 0.59656,-0.488193 0.18958,-0.14536 0.33753,-0.340805 0.54912,-0.459343 0.0571,-0.05097 0.11967,-0.09619 0.17187,-0.152136 0.002,-0.0024 0.12807,-0.16891 0.13418,-0.172609 0.0604,-0.03653 4.41396,-2.562529 0.18494,-0.103153 0.20395,-0.125158 0.38569,-0.275489 0.5655,-0.432009 0.0905,-0.05936 0.1598,-0.143721 0.25022,-0.200678 0.0883,-0.05564 0.18805,-0.08104 0.24728,-0.17835 0.12414,-0.08058 0.23311,-0.180968 0.36022,-0.257046 0.0302,-0.01804 0.0676,-0.02244 0.0967,-0.04217 0.0269,-0.01826 0.0454,-0.04646 0.0681,-0.0697 0.0747,-0.04359 0.0919,-0.04516 0.14902,-0.112866 0.0229,-0.02712 0.0304,-0.06903 0.0608,-0.0874 0.57895,-0.350234 1.28966,-0.829299 1.98401,-1.119124 0.63847,-0.334748 0.23405,-0.124597 -1.49852,0.879478 -0.0334,0.01937 0.0667,-0.03932 0.0978,-0.06224 0.41162,-0.303253 -0.23182,0.141255 0.20438,-0.140835 0.0355,-0.02299 0.068,-0.0504 0.10201,-0.0756 0.61712,-0.403407 1.29024,-0.717473 1.90209,-1.128823 0.50286,-0.338074 -2.10503,1.201187 -1.57367,0.909939 0.61425,-0.336685 1.21408,-0.69905 1.82243,-1.04629 0.0419,-0.02392 0.16979,-0.09151 0.12819,-0.0671 -0.52726,0.309308 -1.05688,0.614597 -1.58531,0.921895 0.63087,-0.39479 1.29586,-0.733555 1.92418,-1.132395 0.50735,-0.322041 -2.08702,1.192273 -1.56053,0.902581 0.61659,-0.339276 1.21885,-0.704009 1.83094,-1.051367 0.0859,-0.04877 0.18185,-0.07836 0.26661,-0.129569 0.0881,-0.04392 0.34695,-0.185621 0.26189,-0.136163 -0.52051,0.302665 -2.09107,1.194792 -1.56371,0.90423 0.71071,-0.391589 1.32879,-0.88142 2.07964,-1.148961 0.67038,-0.303583 0.10975,-0.05407 -1.48527,0.874897 -0.0337,0.01963 0.07,-0.03481 0.10295,-0.05572 0.24518,-0.155689 -0.0556,0.01307 0.18408,-0.124354 0.59972,-0.343911 1.20044,-0.686089 1.80065,-1.029131 0.23533,-0.09338 0.48532,-0.126693 0.72412,-0.208196 0.21225,-0.09649 0.40614,-0.229399 0.63705,-0.281929 0.24834,-0.09889 0.50219,-0.169942 0.76689,-0.211847 0.29106,-0.07975 0.56212,-0.209346 0.85007,-0.298286 0.24583,-0.07998 0.49783,-0.134609 0.74254,-0.218254 0.24692,-0.05887 0.49566,-0.105982 0.74318,-0.160909 0.26165,-0.08463 0.51729,-0.186696 0.78622,-0.248606 0.28974,-0.07303 0.57818,-0.154492 0.8755,-0.191063 0.27837,-0.02127 0.55921,-0.02604 0.83291,-0.0876 0.26166,-0.05958 0.51751,-0.146034 0.78464,-0.179432 0.26469,-0.0095 0.52966,-0.0021 0.79448,-0.0043 0.28479,1.66e-4 0.56957,5.29e-4 0.85435,0.0011 0.31133,2.65e-4 0.62266,-5.29e-4 0.93399,-2.65e-4 0.29485,1.1e-5 0.58969,-0.0016 0.88453,-0.0019 0.26544,2.49e-4 0.53104,-2.56e-4 0.79624,0.01254 0.24328,0.0154 0.48586,0.04135 0.72159,0.106727 0.22847,0.05001 0.46435,0.0487 0.69254,0.102807 0.24202,0.04833 0.48371,0.05456 0.73037,0.05323 0.27112,0.01114 0.5421,0.03044 0.8094,0.07962 0.26314,0.04374 0.52518,0.05821 0.79213,0.04629 0.26803,-5.29e-4 0.53608,-0.0013 0.80411,0.0011 0.27512,0.0043 0.55096,0.01069 0.82385,0.04921 0.26435,0.04161 0.52181,0.114477 0.78737,0.147886 0.26166,0.04178 0.52158,0.08735 0.78797,0.08072 0.24222,0.01603 0.48445,0.04204 0.71549,0.121425 0.2155,0.06467 0.44084,0.09206 0.65164,0.174342 0.23407,0.06008 0.46446,0.126008 0.69082,0.21109 0.23079,0.05134 0.47068,0.05089 0.69711,0.124947 0.2386,0.07438 0.48016,0.132318 0.72168,0.1964 0.25154,0.06309 0.49424,0.14396 0.73277,0.246266 0.29027,0.08699 0.58548,0.155538 0.8737,0.249733 0.24011,0.06669 0.48658,0.114419 0.70885,0.232984 0.25055,0.101714 0.50456,0.198779 0.76648,0.267107 0.233,0.05811 0.47203,0.102738 0.6938,0.196533 0.18878,0.08774 0.38228,0.163825 0.56394,0.266292 0.24034,0.08694 0.49063,0.139388 0.73862,0.199827 0.22142,0.07189 0.43289,0.171035 0.62637,0.301432 0.18046,0.103494 0.37781,0.169362 0.56736,0.253889 0.20747,0.08903 0.38756,0.214487 0.5508,0.370784 0.15489,0.119216 0.32063,0.224578 0.4667,0.354391 0.13727,0.129513 0.28581,0.247068 0.44562,0.347739 0.18498,0.12428 0.35967,0.26166 0.50967,0.427802 0.14905,0.145299 0.33608,0.249627 0.46307,0.41874 0.16337,0.157816 0.34755,0.279435 0.52096,0.424376 0.14336,0.165153 0.29064,0.317381 0.47953,0.432684 0.20247,0.145137 0.39056,0.308745 0.60281,0.440555 0.20178,0.183568 0.40034,0.370483 0.6108,0.544338 0.17811,0.143928 0.34116,0.301307 0.49451,0.471101 0.15736,0.151807 0.35233,0.262864 0.49832,0.429062 0.16354,0.162343 0.34933,0.300024 0.50704,0.468262 0.15849,0.180951 0.33562,0.340659 0.49171,0.523782 0.15672,0.188611 0.37272,0.317445 0.51022,0.524354 0.1262,0.168844 0.30823,0.286353 0.41795,0.470088 0.096,0.18492 0.1874,0.363643 0.32766,0.521613 0.1225,0.169619 0.2391,0.345154 0.35021,0.522144 0.10652,0.170077 0.2289,0.319654 0.34431,0.482545 0.0765,0.193442 0.12959,0.394163 0.22666,0.579189 0.0675,0.199347 0.19805,0.36753 0.25088,0.573227 0.048,0.235969 0.13249,0.462206 0.16203,0.702067 0.058,0.225846 0.12947,0.447516 0.18884,0.672923 0.0661,0.227891 0.0833,0.469 0.1359,0.700643 0,0.267271 0,0.53454 0,0.801809 0,0.267269 0,0.53454 0,0.801809 0,0.267269 0,0.534538 0,0.801809 0,0.267269 0,0.534538 0,0.801807 0,0.267269 0,0.534538 -1e-5,0.801804 0,0.267274 -1e-5,0.534545 1e-5,0.80182 3e-5,0.267369 7e-5,0.534741 2.7e-4,0.802113 2.6e-4,0.267483 0.001,0.534969 7.9e-4,0.802452 -7.9e-4,0.262017 -5.3e-4,0.524351 -0.019,0.78586 -0.0212,0.235091 -0.0583,0.467067 -0.13452,0.691415 -0.0221,0.268983 -0.0606,0.535461 -0.12101,0.798734 -0.0132,0.27695 -0.0357,0.554707 -0.11298,0.822429 -0.0753,0.255659 -0.15086,0.515638 -0.15892,0.783828 -0.0174,0.264221 -0.0447,0.529375 -0.13243,0.781068 -0.0391,0.107352 -0.0566,0.21626 -0.0925,0.324406 -0.021,0.06319 -0.0576,0.12061 -0.0771,0.184272 -0.0113,0.037 -0.0143,0.07605 -0.0214,0.114077 -0.0552,0.218332 -0.12809,0.427488 -0.15361,0.653056 -0.0661,0.242768 -0.081,0.489706 -0.14312,0.73385 -0.0716,0.209556 -0.19759,0.394722 -0.24859,0.609997 -0.0645,0.201969 -0.16289,0.388069 -0.20642,0.597839 -0.0276,0.24249 -0.0687,0.48657 -0.2283,0.68119 -0.14947,0.15674 -0.20544,0.36078 -0.25818,0.56606 -0.0254,0.0618 -0.0611,0.11928 -0.0841,0.18205 -0.0518,0.14132 -0.0722,0.29489 -0.16972,0.41781 -0.0999,0.29968 -0.23197,0.58751 -0.3305,0.88821 -0.0998,0.30898 -0.22822,0.6061 -0.37711,0.89388 -0.0777,0.2785 -0.18065,0.54882 -0.26742,0.8244 -0.0861,0.23091 -0.20518,0.44833 -0.30037,0.67623 -0.13019,0.28364 -0.18315,0.60082 -0.32091,0.88298 -0.091,0.18246 -0.20537,0.35531 -0.29306,0.53862 -0.086,0.17975 -0.12474,0.38094 -0.23077,0.55202 -0.14121,0.36706 -0.34401,0.70612 -0.46176,1.08282 -0.18123,0.38401 -0.35931,0.77133 -0.49365,1.17425 0,0 -1.78859,0.85681 -1.78859,0.85681 z"
       />
    <ellipse
       style="fill:#d7e3f4;stroke-width:0.26458332"
       cx="134.30295"
       cy="102.49461"
       rx="3.4745038"
       ry="3.2740517" />
    <ellipse
       style="fill:#6f8a91;stroke-width:0.15460458"
       cx="134.36975"
       cy="102.57812"
       rx="2.0045214"
       ry="1.937704" />
    <ellipse
       style="fill:#d5f6ff;stroke-width:0.0559955"
       cx="135.2885"
       cy="101.71785"
       rx="0.73499107"
       ry="0.69323027" />
    <path
       style="fill:#0044aa;stroke-width:0.26458332"
       d="m 34.722699,130.91616 c 0.325909,-0.25885 0.673542,-0.48852 1.018008,-0.72155 0.234273,-0.17129 0.479753,-0.32687 0.715402,-0.49602 0.802227,-0.54062 1.668044,-0.98965 2.506205,-1.46551 -0.104886,0.0767 0.438586,-0.24524 0.329512,-0.18291 -3.437943,1.96441 -0.239202,0.1645 0.700537,-0.40634 0.307792,-0.17261 0.642236,-0.28796 0.947788,-0.46427 0.388837,-0.19253 0.784553,-0.36811 1.176038,-0.55534 0.293905,-0.10045 0.580552,-0.2181 0.870202,-0.32971 0.231526,-0.0725 0.44537,-0.18763 0.662416,-0.29303 0.101219,-0.055 0.220649,-0.0466 0.327639,-0.0767 0.10152,-0.0285 0.195654,-0.0768 0.299754,-0.10294 0.242263,-0.0482 0.490238,-0.0518 0.736333,-0.0562 0.25773,-0.019 0.524287,0.0334 0.776491,-0.0284 0.22906,-0.0656 0.466579,-0.0842 0.703339,-0.0966 0.263057,-0.0104 0.526383,-0.01 0.789596,-0.01 0.26752,2.6e-4 0.535043,7.9e-4 0.802563,7.9e-4 0.267351,1.9e-4 0.534702,2e-4 0.802053,2.1e-4 0.279477,-5.3e-4 0.558948,5.3e-4 0.838422,10e-4 0.29659,8e-5 0.59318,-5.3e-4 0.88977,-7.9e-4 0.270603,-2.4e-4 0.541208,-2.7e-4 0.811811,-2.7e-4 0.272005,2.1e-4 0.544009,-5.3e-4 0.816009,8e-4 0.308605,-0.0103 0.60965,-0.003 0.913384,0.0502 0.301099,0.032 0.594416,0.10232 0.892942,0.14988 0.320048,0.0473 0.643528,0.0597 0.966526,0.066 0.329401,-0.0206 0.649737,0.0312 0.974563,0.0744 0.322091,0.0159 0.634889,0.0802 0.952313,0.13052 0.329631,0.0251 0.652679,0.0817 0.978619,0.13446 0.306054,0.0193 0.602041,0.0758 0.901941,0.13536 0.287721,0.0455 0.579308,0.0541 0.869998,0.0596 0.265395,-0.0239 0.514871,0.0253 0.772347,0.0772 0.226307,0.0159 0.432425,0.10792 0.653902,0.1499 0.241358,0.0607 0.497491,0.0926 0.732663,0.17603 0.21903,0.0868 0.452263,0.10983 0.685155,0.12404 0.222041,0.0568 0.440145,0.10474 0.654973,0.18322 0.208516,0.0438 0.396018,0.1399 0.604853,0.18385 0.239189,0.0638 0.49338,0.0948 0.727187,0.17755 0.218778,0.0521 0.424074,0.13875 0.639167,0.20187 0.204718,0.0641 0.398362,0.14042 0.613389,0.1711 0.222932,0.0354 0.4357,0.10736 0.661894,0.13513 0.236257,-0.002 0.456499,0.0811 0.687229,0.11958 0.25771,0.018 0.508754,0.0438 0.762728,0.0894 0.283451,0.0195 0.548804,0.11944 0.826085,0.17192 0.249867,0.0395 0.503441,0.0422 0.7558,0.0452 0.265785,0.002 0.531577,5.3e-4 0.797367,10e-6 0.267412,-5.3e-4 0.534826,-5.3e-4 0.802241,-8e-4 0.245213,0.0271 0.473363,-0.0582 0.712321,-0.0953 0.238763,0.002 0.457439,-0.0658 0.686983,-0.11629 0.04352,-0.005 0.08784,-0.006 0.130569,-0.0158 0.08102,-0.0186 0.156271,-0.0578 0.237059,-0.0773 0.144918,-0.0351 0.288655,-0.0489 0.432615,-0.0899 0.29668,-0.0789 0.596231,-0.14975 0.888685,-0.24303 0.284771,-0.14343 0.587812,-0.22774 0.902094,-0.27173 0.168606,-0.0171 0.344615,-0.0146 0.503775,-0.0828 0.06187,-0.0265 0.115229,-0.0698 0.175138,-0.1005 0.223322,-0.0751 0.440955,-0.15598 0.67383,-0.19921 0.173895,-0.0428 0.357304,-0.0166 0.532361,-0.0418 0.07532,-0.0108 0.14691,-0.0397 0.220564,-0.0588 0.247462,-0.004 0.425643,-0.15564 0.642467,-0.24594 0.23033,-0.0421 0.446921,-0.12158 0.6737,-0.17655 0.2441,-0.0477 0.493697,-0.0515 0.741516,-0.0559 0.298921,-0.0411 0.587105,-0.12263 0.880997,-0.18816 0.217532,-0.13515 0.483671,-0.13027 0.711925,-0.22602 0.219128,-0.0869 0.455297,-0.10182 0.68807,-0.11396 0.266239,0.0173 0.519406,-0.0378 0.779502,-0.0817 0.249727,-0.0103 0.476964,-0.1091 0.721037,-0.15222 0.222896,-0.0321 0.432954,-0.12762 0.645411,-0.20156 0.252535,-0.0773 0.517033,-0.0919 0.779145,-0.1022 0.268277,-0.007 0.536692,-0.005 0.805035,-0.005 0.253574,0.0306 0.486749,-0.026 0.73143,-0.076 0.244827,-0.0433 0.49398,-0.0493 0.741921,-0.0545 0.266044,-0.004 0.532124,-0.003 0.798187,-0.002 0.267515,5.3e-4 0.53503,5.3e-4 0.802542,8e-4 0.267306,8e-5 0.534609,8e-5 0.801915,8e-5 0.267266,0 0.534535,0 0.801804,0 0.272248,2.2e-4 0.544499,-5.3e-4 0.816745,7.9e-4 0.301622,7.9e-4 0.603247,2e-5 0.904869,-2.7e-4 0.27277,-2.6e-4 0.54554,-2.6e-4 0.818309,-5.2e-4 0.267081,-4e-5 0.534162,-3e-5 0.80124,-3e-5 0.230463,0.057 0.462373,0.0975 0.698873,0.1172 0.25517,0.038 0.525077,0.0687 0.770867,0.15165 0.2345,0.0696 0.456808,0.16593 0.696875,0.21691 0.263382,0.0316 0.522449,0.0489 0.782622,0.10151 0.295478,0.0219 0.566925,0.1061 0.845894,0.19873 0.24358,0.13565 0.49939,0.22219 0.77435,0.26117 0.273326,0.0323 0.547402,0.091 0.79759,0.20776 0.261747,0.10925 0.517908,0.22798 0.794628,0.29433 0.249862,0.0492 0.492257,0.13213 0.732397,0.21685 0.23188,0.0482 0.44164,0.15458 0.67541,0.1948 0.26684,0.0594 0.5073,0.18857 0.77154,0.25592 0.25507,0.0902 0.49866,0.20329 0.76265,0.2662 0.25115,0.0308 0.47065,0.16281 0.70775,0.24081 0.25183,0.046 0.47115,0.1788 0.70783,0.26688 0.23117,0.0495 0.45642,0.0859 0.67235,0.18707 0.21384,0.088 0.43698,0.16404 0.63768,0.27983 0.19748,0.0995 0.41819,0.13645 0.63028,0.19539 0.26972,0.0568 0.52224,0.17168 0.76926,0.29114 0.26444,0.10358 0.53695,0.19318 0.81274,0.26268 0.26875,0.0326 0.49225,0.17711 0.72323,0.30433 0.24355,0.10439 0.49006,0.19998 0.75024,0.25379 0.25458,0.0849 0.51496,0.13352 0.76878,0.21932 0.22634,0.0715 0.46425,0.0822 0.69961,0.0909 0.26284,0.006 0.52579,0.005 0.78868,0.004 0.26752,-8e-4 0.53504,-0.001 0.80256,-0.001 0.26735,-1.4e-4 0.53471,-1.4e-4 0.80206,-1.4e-4 0.26727,0 0.53454,0 0.80181,1e-5 0.25342,0.03 0.48638,-0.0271 0.73081,-0.0774 0.26714,-0.0372 0.5254,-0.10642 0.79349,-0.14396 0.3096,-0.0402 0.62207,-0.0416 0.93368,-0.045 0.27833,-0.0718 0.57796,-0.0563 0.85025,-0.14575 0.25374,-0.0412 0.48072,-0.15605 0.73174,-0.20906 0.24207,-0.008 0.46595,-0.0752 0.69982,-0.12626 0.15663,-0.0445 0.32439,-0.0206 0.48254,-0.0472 0.0719,-0.0121 0.13963,-0.0422 0.20987,-0.0619 0.21952,-0.0301 0.41191,-0.13026 0.62951,-0.17192 0.2511,-0.0395 0.49366,-0.12286 0.73607,-0.19876 0.17393,-0.0668 0.3643,-0.056 0.54339,-0.0918 0.0762,-0.0152 0.14818,-0.0471 0.22278,-0.069 0.22517,-0.0576 0.46208,-0.10066 0.6736,-0.20015 0.27074,-0.0924 0.54276,-0.18368 0.82678,-0.2284 0.26927,-0.0873 0.54432,-0.14604 0.81602,-0.22367 0.27191,-0.0991 0.52811,-0.23158 0.80975,-0.30423 0.25682,-0.0502 0.52836,-0.0776 0.76928,-0.18398 0.23215,-0.0739 0.46336,-0.15363 0.70076,-0.21069 0.23286,-0.0623 0.45322,-0.14416 0.6953,-0.17603 0.0413,-0.004 0.0833,-0.002 0.12385,-0.0108 0.0708,-0.0147 0.13619,-0.049 0.20605,-0.0675 0.11349,-0.0301 0.22157,-0.0434 0.33257,-0.0834 0.23558,-0.14268 0.50093,-0.2029 0.77047,-0.23897 0.24844,0.002 0.47866,-0.0852 0.72169,-0.12296 0.22272,-0.0282 0.43252,-0.12371 0.64412,-0.19726 0.24287,-0.0384 0.46989,-0.12153 0.70722,-0.18044 0.25028,-0.0224 0.48977,-0.0857 0.73577,-0.13279 0.24812,-0.0141 0.47417,-0.11185 0.71731,-0.15438 0.25216,-0.0354 0.50733,-0.0373 0.76146,-0.0399 0.26682,-0.001 0.53364,-2.7e-4 0.80046,1.5e-4 0.26746,5.3e-4 0.53492,5.3e-4 0.80238,5.3e-4 0.23059,0.057 0.46261,0.0975 0.69923,0.11723 0.25371,0.006 0.49825,0.012 0.74526,0.0705 0.24643,0.0274 0.46752,0.12062 0.6894,0.22406 0.20985,0.0638 0.40129,0.16632 0.61632,0.21417 0.24339,0.0412 0.47841,0.11766 0.70848,0.20555 0.25047,0.13261 0.53299,0.18902 0.80386,0.26739 0.0444,0.0202 0.0909,0.0362 0.13308,0.0606 0.0746,0.0432 0.13754,0.10431 0.20992,0.1512 0.0974,0.0631 0.20807,0.092 0.31232,0.14253 0.2206,0.0717 0.43666,0.1574 0.65986,0.22172 0.22564,0.0782 0.44104,0.18202 0.66747,0.25747 0.18463,0.12331 0.39075,0.1667 0.60734,0.18996 0.23331,-0.007 0.42223,0.1259 0.63032,0.20577 0.19653,0.0605 0.38116,0.15419 0.56613,0.24365 0.20375,0.0497 0.39921,0.12198 0.60216,0.17568 0.22929,0.0866 0.45783,0.16088 0.67321,0.2801 0.25547,0.10354 0.52725,0.14323 0.79019,0.22312 0.19982,0.0797 0.43566,0.13671 0.62913,0.22646 0.19477,0.0655 0.36682,0.17126 0.56771,0.21973 0.22294,0.0178 0.42886,0.10216 0.6484,0.14056 0.19613,0.10842 0.42402,0.11036 0.62933,0.18506 0.21124,0.0666 0.42501,0.0992 0.63551,0.16783 0.22015,0.0742 0.45589,0.0504 0.67757,0.10985 0.22163,0.0546 0.44113,0.087 0.6584,0.1567 0.22237,0.0651 0.45484,0.0746 0.68483,0.083 0.26312,0.007 0.52635,0.005 0.78953,0.005 0.26761,-5.3e-4 0.53522,-7.9e-4 0.80282,-0.001 0.26736,-1.4e-4 0.53471,-1.4e-4 0.80207,-1.4e-4 0.26727,0 0.53454,0 0.80181,0 0.26726,1e-5 0.53453,1e-5 0.8018,1e-5 0.25343,0.03 0.48638,-0.0271 0.73081,-0.0774 0.24482,-0.0435 0.494,-0.0495 0.74195,-0.0547 0.26605,-0.004 0.53213,-0.003 0.7982,-0.002 0.22473,-0.0664 0.45488,-0.0994 0.68783,-0.11752 0.25022,0.004 0.48383,-0.0767 0.73081,-0.1084 0.2845,-0.004 0.55727,-0.0643 0.83571,-0.11371 0.26127,-0.10109 0.5355,-0.14911 0.81294,-0.17601 0.26908,-0.0204 0.53913,-0.0197 0.80879,-0.02 0.2354,-0.007 0.46231,-0.081 0.69808,-0.10713 0.23567,0.005 0.45169,-0.0839 0.68188,-0.12092 0.24017,-0.0975 0.4967,-0.13234 0.75296,-0.15474 0.27088,0.003 0.53048,-0.0732 0.79734,-0.11013 0.25988,-0.0494 0.53226,-7.9e-4 0.78741,-0.0675 0.22882,-0.0677 0.46682,-0.0856 0.70382,-0.0977 0.24595,-0.0868 0.51607,-0.07 0.7601,-0.15424 0.14411,-0.0685 0.30858,-0.059 0.45905,-0.0965 0.0689,-0.0172 0.13255,-0.0511 0.19986,-0.0737 0.25854,-0.0217 0.50015,-0.0995 0.75085,-0.15768 0.23722,-0.0756 0.4991,-0.0994 0.72896,-0.19533 0.10384,-0.0575 0.22751,-0.0557 0.3371,-0.0913 0.10154,-0.033 0.19301,-0.0843 0.29778,-0.11353 0.15316,-0.0503 0.31897,-0.0273 0.47468,-0.0544 0.0717,-0.0125 0.13907,-0.0427 0.20911,-0.0624 0.22989,-0.0532 0.47338,-0.0921 0.68647,-0.1964 0.22279,-0.12067 0.44813,-0.20489 0.69851,-0.24803 0.26807,-0.0154 0.52462,-0.0916 0.78999,-0.12932 0.20879,-0.1144 0.4571,-0.0997 0.67133,-0.18724 0.13645,-0.0703 0.29451,-0.0592 0.43839,-0.0953 0.068,-0.0171 0.13081,-0.051 0.19734,-0.0733 0.23181,-0.065 0.47375,-0.0732 0.71285,-0.081 0.26523,-0.006 0.53055,-0.005 0.79582,-0.004 0.26763,5.3e-4 0.53525,7.9e-4 0.80288,10e-4 0.28521,-0.0138 0.54861,0.10555 0.81775,0.18065 0.25789,0.0865 0.53369,0.12618 0.78856,0.21986 0.25773,0.10716 0.52456,0.19959 0.77098,0.33245 0.23009,0.1321 0.49264,0.15961 0.73105,0.27098 0.25234,0.11657 0.52394,0.1891 0.77455,0.30773 0.22036,0.099 0.45917,0.13998 0.69122,0.20336 0.27481,0.10947 0.55684,0.20327 0.84408,0.27436 0.2726,0.12478 0.57662,0.13709 0.85789,0.22581 0.22648,0.0737 0.45906,0.13844 0.67606,0.23766 0.21373,0.0893 0.43949,0.12662 0.65849,0.19996 0.2218,0.0522 0.44219,0.0746 0.66124,0.13799 0.24649,0.0565 0.469,0.18102 0.70853,0.25972 0.20871,0.12481 0.4352,0.18031 0.67392,0.20702 0.21569,0.067 0.43101,0.11455 0.6426,0.19232 0.21747,0.0615 0.40556,0.19156 0.61596,0.27288 0.23143,0.0979 0.48447,0.13258 0.71811,0.22042 0.17262,0.12652 0.36742,0.21004 0.55859,0.30251 0.19875,0.0648 0.39787,0.1322 0.58932,0.21768 0.2118,0.0857 0.41111,0.19929 0.61332,0.30556 0.20302,0.0571 0.40075,0.12955 0.60507,0.18387 0.22583,0.0753 0.44049,0.17811 0.66619,0.25303 0.18493,0.12325 0.39126,0.16689 0.60809,0.19024 0.21173,0.048 0.38478,0.1754 0.59329,0.23219 0.18095,0.12377 0.40248,0.12527 0.60033,0.19891 0.22416,0.0624 0.40882,0.20707 0.61962,0.29864 0.20149,0.0688 0.39283,0.16298 0.58469,0.25502 0.19478,0.0559 0.33852,0.20467 0.51887,0.28868 0.18725,0.0852 0.36726,0.15688 0.57291,0.1873 0.22268,0.0961 0.43769,0.20973 0.66215,0.30403 0.18982,0.1559 0.43171,0.179 0.64978,0.26631 0.0995,0.0427 0.20482,0.0643 0.31047,0.0847 0,0 -1.63333,1.13038 -1.63333,1.13038 v 0 c -0.10925,-0.0296 -0.2176,-0.0614 -0.32313,-0.10271 -0.22978,-0.0694 -0.44948,-0.15259 -0.65487,-0.27964 -0.21044,-0.0945 -0.41687,-0.20821 -0.64018,-0.26696 -0.21355,-0.0513 -0.4103,-0.13961 -0.6078,-0.23456 -0.16889,-0.0996 -0.32749,-0.2171 -0.51467,-0.283 -0.18991,-0.094 -0.38787,-0.17066 -0.58229,-0.25473 -0.19689,-0.1019 -0.38672,-0.22009 -0.60453,-0.27447 -0.20731,-0.0504 -0.40907,-0.10874 -0.60221,-0.20138 -0.19013,-0.0723 -0.36611,-0.18224 -0.57235,-0.2055 -0.22344,-0.0417 -0.42986,-0.11767 -0.63141,-0.22284 -0.21813,-0.0861 -0.4354,-0.17343 -0.65996,-0.2421 -0.21109,-0.0677 -0.42952,-0.11864 -0.6284,-0.21804 -0.19423,-0.10716 -0.39358,-0.20785 -0.60026,-0.28852 -0.201,-0.0734 -0.4022,-0.14742 -0.59968,-0.2292 -0.18056,-0.0931 -0.36305,-0.18152 -0.54003,-0.2806 -0.24545,-0.0691 -0.491,-0.13677 -0.72764,-0.2335 -0.20141,-0.0926 -0.39674,-0.20072 -0.61118,-0.26208 -0.20126,-0.0697 -0.41176,-0.11243 -0.61844,-0.16242 -0.24396,-0.0458 -0.47081,-0.13024 -0.69369,-0.23927 -0.23232,-0.0879 -0.45927,-0.19287 -0.7036,-0.24498 -0.22098,-0.0558 -0.45197,-0.0655 -0.66706,-0.14654 -0.22183,-0.0712 -0.45449,-0.10822 -0.66516,-0.213 -0.21851,-0.0787 -0.43683,-0.15849 -0.66152,-0.21812 -0.28717,-0.0656 -0.57381,-0.12953 -0.85238,-0.22768 -0.28624,-0.0811 -0.5676,-0.17694 -0.84916,-0.2726 -0.23939,-0.0655 -0.48537,-0.11103 -0.70764,-0.22737 -0.25671,-0.10286 -0.51719,-0.19654 -0.77143,-0.30575 -0.24787,-0.0907 -0.51078,-0.14173 -0.73822,-0.28376 -0.24548,-0.11643 -0.50058,-0.21374 -0.75642,-0.30473 -0.26115,-0.0718 -0.52254,-0.14209 -0.78308,-0.21629 -0.25735,-0.0776 -0.5132,-0.15613 -0.78627,-0.13447 -0.26762,-2.6e-4 -0.53524,-7.9e-4 -0.80286,-10e-4 -0.26356,1.3e-4 -0.52731,-7.9e-4 -0.79059,0.013 -0.23256,0.0164 -0.46456,0.0433 -0.68534,0.12305 -0.21065,0.0615 -0.43112,0.0868 -0.63757,0.16544 -0.23109,0.0442 -0.45347,0.11605 -0.68306,0.16504 -0.2612,0.0476 -0.52155,0.0977 -0.78356,0.13984 -0.23765,0.0675 -0.45242,0.18335 -0.68275,0.27066 -0.23292,0.0648 -0.46537,0.12903 -0.70214,0.17851 -0.22429,0.0479 -0.45873,0.0451 -0.67557,0.12828 -0.20855,0.0772 -0.42282,0.13223 -0.6337,0.20298 -0.24705,0.0569 -0.4895,0.1295 -0.73686,0.18491 -0.24714,0.0653 -0.50039,0.0954 -0.74542,0.16823 -0.21872,0.0629 -0.44719,0.089 -0.66456,0.15933 -0.26033,0.0406 -0.51856,0.0937 -0.77969,0.12708 -0.23437,0.0221 -0.46399,0.066 -0.69472,0.11151 -0.26227,0.0163 -0.52599,0.0201 -0.78562,0.0655 -0.26653,0.0452 -0.53161,0.0921 -0.80233,0.10437 -0.25396,0.0364 -0.49819,0.10559 -0.74633,0.16838 -0.22787,0.051 -0.45356,0.0988 -0.68763,0.11214 -0.23627,0.0391 -0.46967,0.10211 -0.71161,0.0846 -0.26519,0.002 -0.53121,0.005 -0.79466,0.0388 -0.2737,0.0418 -0.53683,0.12061 -0.80566,0.18441 -0.27847,0.0517 -0.55851,0.0752 -0.83933,0.10978 -0.24558,0.0443 -0.48751,0.0982 -0.73863,0.10189 -0.23356,0.0302 -0.46254,0.094 -0.69843,0.0998 -0.26497,2e-5 -0.53001,-5.3e-4 -0.79487,0.008 -0.24307,0.0109 -0.48637,0.0283 -0.72426,0.0828 -0.24897,0.0495 -0.49838,0.0501 -0.75177,0.0437 -0.26727,0 -0.53454,0 -0.80181,-1e-5 -0.26726,0 -0.53453,-1e-5 -0.8018,0 -0.26732,2e-5 -0.53464,4e-5 -0.80196,2.6e-4 -0.26762,2.6e-4 -0.53524,8e-4 -0.80286,0.001 -0.26552,-1.3e-4 -0.53123,7.9e-4 -0.79649,-0.0127 -0.24204,-0.0163 -0.48389,-0.0429 -0.71518,-0.12065 -0.21232,-0.061 -0.43338,-0.0839 -0.64682,-0.14169 -0.23229,-0.0296 -0.46757,-0.0463 -0.6901,-0.12611 -0.20951,-0.0627 -0.42852,-0.0885 -0.6342,-0.16609 -0.2093,-0.0478 -0.41454,-0.10365 -0.61834,-0.17083 -0.21995,-0.0512 -0.4373,-0.11119 -0.65901,-0.15424 -0.197,-0.0685 -0.38158,-0.16654 -0.57884,-0.23507 -0.20631,-0.0692 -0.4065,-0.15388 -0.61589,-0.21324 -0.2717,-0.0805 -0.55675,-0.12055 -0.81107,-0.25286 -0.21146,-0.0997 -0.43113,-0.17639 -0.65374,-0.24737 -0.20823,-0.0658 -0.4229,-0.1136 -0.62232,-0.20341 -0.18106,-0.0898 -0.36993,-0.16336 -0.55921,-0.23385 -0.19372,-0.0869 -0.38368,-0.16097 -0.60028,-0.1666 -0.22332,-0.0416 -0.42964,-0.11743 -0.63091,-0.22292 -0.21966,-0.0873 -0.43841,-0.17593 -0.66307,-0.2502 -0.22509,-0.0782 -0.45424,-0.14621 -0.67198,-0.24341 -0.22223,-0.0976 -0.41159,-0.24268 -0.63551,-0.33249 -0.27563,-0.0822 -0.55677,-0.14885 -0.81648,-0.27634 -0.22697,-0.0835 -0.46336,-0.13506 -0.69866,-0.18958 -0.21572,-0.068 -0.42273,-0.16165 -0.63404,-0.24182 -0.2124,-0.0957 -0.43495,-0.14873 -0.66451,-0.18662 -0.2422,-0.0421 -0.48887,-0.0247 -0.7327,-0.0551 -0.22978,-0.0284 -0.45479,-0.0868 -0.68572,-0.10175 -0.2675,-1.3e-4 -0.53501,-2.6e-4 -0.80251,-7.9e-4 -0.26614,-2.7e-4 -0.53231,-0.002 -0.79842,0.003 -0.24817,0.007 -0.49798,0.0157 -0.74099,0.0714 -0.23743,0.059 -0.47271,0.11995 -0.71595,0.15189 -0.24291,0.0531 -0.48943,0.083 -0.73013,0.1451 -0.23128,0.0701 -0.46962,0.10924 -0.69735,0.19111 -0.21559,0.0783 -0.43625,0.14301 -0.6642,0.17267 -0.23905,0.0509 -0.47666,0.0967 -0.7204,0.11972 -0.2641,0.0573 -0.50709,0.16315 -0.75902,0.25762 -0.22494,0.0508 -0.44576,0.11891 -0.67561,0.14494 -0.23115,0.0519 -0.45088,0.14092 -0.68307,0.18938 -0.23233,0.071 -0.46563,0.13852 -0.69438,0.22055 -0.25664,0.0622 -0.51581,0.11226 -0.77127,0.17814 -0.27212,0.0963 -0.53273,0.22396 -0.81184,0.30114 -0.27207,0.0768 -0.54889,0.13734 -0.82233,0.20885 -0.27615,0.0678 -0.54663,0.15747 -0.8129,0.25704 -0.2284,0.0642 -0.45365,0.13603 -0.68589,0.18579 -0.25156,0.0602 -0.51368,0.0739 -0.75812,0.16553 -0.24551,0.077 -0.49588,0.13702 -0.74725,0.19129 -0.20894,0.0628 -0.41359,0.13516 -0.62976,0.17161 -0.2293,0.0472 -0.46665,0.0435 -0.69336,0.10746 -0.2304,0.0568 -0.46553,0.0729 -0.696,0.12891 -0.2434,0.0738 -0.48198,0.16149 -0.73382,0.20516 -0.28934,0.0421 -0.57897,0.0904 -0.87084,0.10857 -0.30686,0.006 -0.6145,0.0173 -0.91782,0.0683 -0.26547,0.0476 -0.52726,0.11216 -0.79376,0.15443 -0.24896,0.0494 -0.49838,0.0501 -0.75176,0.0437 -0.26727,-1e-5 -0.53454,-1e-5 -0.80181,0 -0.26731,1e-5 -0.53463,3e-5 -0.80195,2.6e-4 -0.26752,2.7e-4 -0.53504,7.9e-4 -0.80255,0.001 -0.2653,5e-5 -0.53082,0.001 -0.79585,-0.0126 -0.24821,-0.0175 -0.49587,-0.0472 -0.73116,-0.13328 -0.24893,-0.0808 -0.50732,-0.12821 -0.75699,-0.2073 -0.26869,-0.0734 -0.53162,-0.1722 -0.78025,-0.29804 -0.21984,-0.12257 -0.4462,-0.22088 -0.69605,-0.26565 -0.28092,-0.0831 -0.56336,-0.16771 -0.83008,-0.28999 -0.24504,-0.10657 -0.49117,-0.20934 -0.75433,-0.26325 -0.22372,-0.0627 -0.45499,-0.10517 -0.65638,-0.22824 -0.2058,-0.0954 -0.41356,-0.1857 -0.62605,-0.26521 -0.22089,-0.0762 -0.45292,-0.10271 -0.67137,-0.18633 -0.22997,-0.0995 -0.45848,-0.1989 -0.70251,-0.26082 -0.22895,-0.0878 -0.45376,-0.18751 -0.69752,-0.22913 -0.25937,-0.0786 -0.50616,-0.19114 -0.766175,-0.26819 -0.254328,-0.0829 -0.497636,-0.19913 -0.763347,-0.24508 -0.233058,-0.0606 -0.457017,-0.15146 -0.689652,-0.21439 -0.236702,-0.0824 -0.479422,-0.1477 -0.722865,-0.20685 -0.276707,-0.0854 -0.540102,-0.20549 -0.807763,-0.31523 -0.250224,-0.0894 -0.513469,-0.13229 -0.775676,-0.17162 -0.275283,-0.0605 -0.528902,-0.17014 -0.784879,-0.28619 -0.273589,-0.0869 -0.551714,-0.13148 -0.835062,-0.17498 -0.262437,-0.0447 -0.530894,-0.0436 -0.789942,-0.10997 -0.236765,-0.0654 -0.464622,-0.15766 -0.701808,-0.22214 -0.247599,-0.055 -0.498041,-0.10434 -0.751212,-0.12355 -0.229646,-0.0284 -0.454544,-0.0868 -0.68534,-0.10164 -0.26706,0 -0.534122,10e-6 -0.801182,-2e-5 -0.272386,-4e-5 -0.544769,-1.2e-4 -0.817153,-5.3e-4 -0.301326,-2.6e-4 -0.602654,-0.001 -0.90398,-2.6e-4 -0.272942,10e-4 -0.545889,5.3e-4 -0.818835,7.9e-4 -0.267269,0 -0.534538,1e-5 -0.801807,0 -0.267322,-1e-5 -0.534641,-2e-5 -0.801963,-1.7e-4 -0.267517,-1.8e-4 -0.535035,-5.3e-4 -0.80255,-8e-4 -0.264961,2e-5 -0.530008,-5.3e-4 -0.794858,0.008 -0.243094,0.0108 -0.486402,0.0283 -0.724374,0.0824 -0.249224,0.0491 -0.498798,0.0491 -0.752353,0.0423 -0.266118,1e-5 -0.532493,-0.001 -0.798267,0.0144 -0.254169,0.0198 -0.507727,0.0531 -0.746392,0.14829 -0.215373,0.0789 -0.435581,0.14478 -0.662419,0.1809 -0.239516,0.0594 -0.476784,0.1202 -0.723479,0.1439 -0.262792,0.0446 -0.525364,0.0584 -0.791501,0.0687 -0.227174,0.0242 -0.448127,0.0701 -0.662612,0.15085 -0.244324,0.0536 -0.476139,0.14007 -0.715735,0.20984 -0.298675,0.072 -0.599855,0.14174 -0.907613,0.15912 -0.240829,0.0103 -0.483502,0.0248 -0.715635,0.0954 -0.218101,0.0671 -0.445981,0.10267 -0.652856,0.20197 -0.213442,0.10919 -0.430546,0.178 -0.669031,0.21211 -0.248449,0.0454 -0.504523,0.0349 -0.750036,0.10084 -0.22225,0.0617 -0.441481,0.13957 -0.651446,0.23497 -0.224951,0.0958 -0.466635,0.10198 -0.705813,0.13771 -0.305895,0.0648 -0.59227,0.18143 -0.885714,0.28687 -0.29854,0.0795 -0.593751,0.1707 -0.895617,0.23754 -0.27069,0.0564 -0.536371,0.12955 -0.807167,0.18497 -0.228793,0.0555 -0.460711,0.0707 -0.692865,0.10746 -0.242313,0.0477 -0.481906,0.0852 -0.73044,0.0659 -0.267361,1.5e-4 -0.534723,5.3e-4 -0.802082,10e-4 -0.266739,5.3e-4 -0.533516,0.002 -0.800224,-0.003 -0.260731,-0.007 -0.522729,-0.0185 -0.778293,-0.0753 -0.271285,-0.064 -0.538906,-0.14126 -0.817909,-0.16682 -0.255844,-0.0394 -0.515202,-0.0412 -0.769842,-0.0897 -0.226576,-0.0478 -0.450472,-0.10053 -0.682723,-0.11399 -0.223682,-0.0403 -0.439767,-0.11172 -0.665718,-0.13984 -0.215414,-0.0477 -0.416941,-0.13236 -0.629021,-0.1917 -0.210103,-0.0734 -0.422299,-0.13632 -0.635513,-0.20019 -0.240472,-0.059 -0.481992,-0.11394 -0.72339,-0.16908 -0.206983,-0.0607 -0.407169,-0.14205 -0.615688,-0.19819 -0.201721,-0.0683 -0.413678,-0.10944 -0.623424,-0.14361 -0.242591,-0.0258 -0.48015,-0.0728 -0.709692,-0.15781 -0.24053,-0.059 -0.482177,-0.11448 -0.725088,-0.16267 -0.21636,-0.0541 -0.428516,-0.12159 -0.651314,-0.14677 -0.248235,-0.049 -0.496303,-0.0541 -0.749149,-0.0527 -0.298403,-0.0112 -0.59762,-0.0284 -0.891204,-0.0866 -0.296093,-0.062 -0.594598,-0.0905 -0.893937,-0.13217 -0.324977,-0.0556 -0.651561,-0.0889 -0.977943,-0.13427 -0.314949,-0.0531 -0.630388,-0.0934 -0.948145,-0.12604 -0.321222,-0.0423 -0.641506,-0.0621 -0.965816,-0.0557 -0.327536,-0.0128 -0.654997,-0.0356 -0.97854,-0.0906 -0.298016,-0.0522 -0.595821,-0.10303 -0.895522,-0.14504 -0.297024,-0.0394 -0.596059,-0.0244 -0.895067,-0.0259 -0.27269,0.001 -0.545383,5.3e-4 -0.818076,8e-4 -0.27033,-3e-5 -0.540657,-7e-5 -0.810985,-2.7e-4 -0.295907,-2.6e-4 -0.591815,-7.9e-4 -0.887722,-7.9e-4 -0.280437,5.3e-4 -0.560874,0.002 -0.841314,0.001 -0.267377,-4e-5 -0.534755,-1e-4 -0.802132,-2.7e-4 -0.267409,-2.6e-4 -0.534821,-7.9e-4 -0.80223,-2.6e-4 -0.260898,10e-4 -0.522131,0.002 -0.782428,0.0219 -0.234781,0.0222 -0.464913,0.0667 -0.697016,0.10671 -0.262279,0.009 -0.524865,8e-4 -0.78717,0.0111 -0.238789,0.0105 -0.479864,0.0244 -0.709022,0.0985 -0.202893,0.0678 -0.415677,0.10664 -0.60605,0.20728 -0.214913,0.10835 -0.443005,0.19038 -0.667588,0.27624 -0.28416,0.11554 -0.578192,0.20606 -0.855933,0.33693 -0.388151,0.18975 -0.79172,0.34649 -1.168421,0.55946 -0.315412,0.15585 -0.641755,0.29064 -0.945004,0.47031 -0.686687,0.37605 -0.162859,0.0911 1.32448,-0.77673 0.06048,-0.0353 -0.121954,0.0689 -0.182438,0.10415 -0.721641,0.421 -1.431306,0.87646 -2.179664,1.25393 2.879754,-1.67515 1.520066,-0.90897 0.88233,-0.49209 -0.24828,0.15683 -0.487873,0.32971 -0.72525,0.50352 -0.348284,0.21683 -0.681503,0.45816 -1.015984,0.69542 0,0 -1.840116,0.74273 -1.840116,0.74273 z"
       />
  </g>
</svg>
