<?xml version="1.0" encoding="UTF-8" standalone="no"?>
<svg
   xmlns:rdf="http://www.w3.org/1999/02/22-rdf-syntax-ns#"
   xmlns="http://www.w3.org/2000/svg"
   xmlns:inkscape="http://www.inkscape.org/namespaces/inkscape"
   viewBox="0 60 94 40"
   preserveAspectRatio="xMidYMid meet"
   id="svg8">
  <defs
     id="defs2" />
  <g
     inkscape:label="Layer 1"
     inkscape:groupmode="layer"
     id="layer1">
    <path
       style="fill:#000080;stroke-width:0.10300832"
       d="m 63.588228,83.114754 c 0.321847,0.07793 0.63696,0.175854 0.964177,0.231772 0.234549,0.02736 0.466582,0.03549 0.698501,0.07971 0.214486,0.0425 0.433042,0.05234 0.651074,0.05889 0.26642,0.0053 0.532922,0.0053 0.799387,0.0053 0.2755,-0.0012 0.55099,-2.98e-4 0.82649,-4.84e-4 0.316159,0.0012 0.632312,1.01e-4 0.948471,6.16e-4 0.313394,-6.16e-4 0.626782,-6.16e-4 0.940171,-7e-6 0.327986,0.0012 0.655968,-4.83e-4 0.98395,-2e-4 0.313099,-7.2e-5 0.626199,-4.22e-4 0.939297,-7e-6 0.273838,0.01185 0.546418,-0.02176 0.811368,-0.08899 0.251203,-0.05016 0.478248,-0.170548 0.720238,-0.248744 0,0 -1.225445,0.940687 -1.225445,0.940687 v 0 c -0.239196,0.09007 -0.476727,0.18778 -0.73045,0.232243 -0.273842,0.04906 -0.54904,0.07357 -0.827783,0.06006 -0.313094,3.72e-4 -0.626184,5.9e-5 -0.939284,-1.1e-5 -0.327753,2.97e-4 -0.655512,-0.0012 -0.98327,-2.02e-4 -0.313389,6.16e-4 -0.626773,6.16e-4 -0.940166,-5e-6 -0.317024,6.14e-4 -0.634046,-3.72e-4 -0.951074,0.0012 -0.275692,9.9e-5 -0.551377,0.0018 -0.82707,6.13e-4 -0.26843,-2.06e-4 -0.536965,0.0012 -0.805271,-0.0082 -0.223397,-0.01025 -0.445893,-0.02977 -0.665242,-0.07483 -0.230751,-0.03692 -0.466112,-0.03526 -0.695244,-0.08476 -0.32734,-0.06886 -0.645254,-0.173288 -0.974192,-0.234895 0,0 1.281367,-0.869827 1.281367,-0.869827 z"
       id="path3"
       inkscape:connector-curvature="0" />
    <path
       style="fill:#000080;stroke-width:0.10300832"
       d="m 63.637505,83.903795 c -0.03814,0.31735 -0.07574,0.633656 -0.129664,0.948888 -0.05104,0.248822 -0.0517,0.503044 -0.07707,0.754535 -0.04556,0.229343 -0.07398,0.460479 -0.08867,0.69356 -0.03292,0.252535 -0.07805,0.502305 -0.09834,0.756409 -0.009,0.349386 -0.05406,0.696006 -0.08462,1.043858 -0.01598,0.350299 -0.0494,0.698292 -0.08746,1.046782 -0.02164,0.375406 -0.07989,0.746888 -0.118383,1.120657 -0.03578,0.366799 -0.0896,0.731141 -0.11975,1.098648 -0.01111,0.313943 -0.03595,0.625144 -0.07562,0.936746 -0.03336,0.281015 -0.04681,0.563694 -0.05389,0.846361 -0.003,0.219097 0.0039,0.437173 -0.02765,0.654461 -0.03914,0.201344 -0.06005,0.404931 -0.07149,0.609402 -0.0078,0.17073 -0.0083,0.341666 -0.009,0.512546 0,0 -1.386928,0.695051 -1.386928,0.695051 v 0 c 2.06e-4,-0.172901 2.51e-4,-0.345843 0.006,-0.518678 0.0086,-0.209506 0.02291,-0.419105 0.06377,-0.625314 0.03955,-0.211546 0.04175,-0.421676 0.03947,-0.636864 0.0078,-0.287647 0.02335,-0.575066 0.054,-0.86133 0.03225,-0.311112 0.0769,-0.619918 0.0794,-0.933561 0.03239,-0.368201 0.07847,-0.734724 0.120152,-1.101719 0.03809,-0.374193 0.09787,-0.74551 0.119103,-1.121165 0.03383,-0.348164 0.07375,-0.694595 0.08752,-1.044335 0.03072,-0.345983 0.07703,-0.690835 0.07949,-1.038498 0.01598,-0.253403 0.04126,-0.504771 0.09679,-0.753226 0.01209,-0.236524 0.02805,-0.473042 0.07976,-0.705044 0.05242,-0.249316 0.02251,-0.510489 0.08087,-0.760223 0.05631,-0.311702 0.112377,-0.622114 0.12642,-0.939328 0,0 1.395977,-0.678619 1.395977,-0.678619 z"
       id="path5"
       inkscape:connector-curvature="0" />
    <path
       style="fill:#000080;stroke-width:0.10300832"
       d="m 62.843193,95.048818 c 0.340923,-0.01734 0.672781,0.04281 1.005178,0.106775 0.317445,0.04558 0.612927,0.17211 0.923564,0.246499 0.297093,0.07923 0.59653,0.151075 0.891323,0.238132 0.34013,0.114343 0.689925,0.200521 1.042686,0.267522 0.38182,0.0822 0.769243,0.13089 1.153942,0.19716 0.479743,0.08629 0.957278,0.180741 1.442044,0.235744 0.393151,0.02123 0.782633,0.06855 1.174029,0.107875 0.334021,0.03202 0.66959,0.04181 1.004985,0.04616 0.243527,-0.0088 0.480819,0.0018 0.720933,0.03914 0.193034,0.03154 0.388003,0.04664 0.583221,0.05642 0,0 -1.264053,0.891749 -1.264053,0.891749 v 0 c -0.196954,-0.01486 -0.393076,-0.03684 -0.588292,-0.06687 -0.235439,-0.02818 -0.47191,-0.01935 -0.708674,-0.02581 -0.33546,-0.01013 -0.670908,-0.02659 -1.004761,-0.06161 -0.389254,-0.04044 -0.778675,-0.07679 -1.168088,-0.115514 -0.488344,-0.06262 -0.970036,-0.16046 -1.456504,-0.235449 -0.385147,-0.0675 -0.772785,-0.12025 -1.155522,-0.201076 -0.355504,-0.07556 -0.707717,-0.164924 -1.054201,-0.274088 -0.296466,-0.07989 -0.591843,-0.163361 -0.890674,-0.234454 -0.303199,-0.08433 -0.598755,-0.198392 -0.912601,-0.24114 -0.330141,-0.06013 -0.66163,-0.09866 -0.998275,-0.07636 0,0 1.25974,-0.900745 1.25974,-0.900745 z"
       id="path7"
       inkscape:connector-curvature="0" />
    <path
       style="fill:#008000;stroke-width:0.10300832"
       d="m 65.989853,89.474608 c 0.3188,0.0058 0.637676,0.0029 0.956497,0.0018 0.236212,-0.03183 0.467513,-0.07873 0.699871,-0.128089 0.231989,-0.05187 0.474849,-0.09245 0.678069,-0.219062 0.09209,-0.04722 0.18538,-0.09184 0.27909,-0.135789 0.03199,-0.01504 0.128528,-0.05848 0.0979,-0.04091 -1.902182,1.091167 -1.617381,0.921728 -1.165052,0.650905 0.163915,-0.112586 0.330366,-0.221227 0.494082,-0.334023 0.127167,-0.09158 0.237182,-0.202152 0.354289,-0.30501 0.112903,-0.114391 0.228541,-0.226589 0.336641,-0.345517 0.100233,-0.135117 0.206424,-0.26544 0.311427,-0.396974 0.123089,-0.14301 0.195263,-0.31861 0.269931,-0.489017 0.0682,-0.164524 0.155505,-0.321518 0.24965,-0.47297 0.05464,-0.114636 0.110253,-0.228877 0.162049,-0.344799 0,0 1.413695,-0.644632 1.413695,-0.644632 v 0 c -0.04429,0.12494 -0.111451,0.23628 -0.155347,0.360851 -0.073,0.157166 -0.180091,0.298172 -0.256558,0.455048 -0.06251,0.185376 -0.15242,0.365115 -0.250795,0.533847 -0.107948,0.128095 -0.205152,0.261732 -0.31317,0.388519 -0.08329,0.13991 -0.211472,0.25019 -0.327061,0.363174 -0.09906,0.122542 -0.227455,0.224108 -0.349008,0.323964 -0.145907,0.137729 -0.327262,0.230116 -0.491681,0.344846 -0.556746,0.450975 -1.236285,0.724397 -1.874548,1.04598 -0.224613,0.08848 -0.464295,0.135011 -0.699839,0.186612 -0.235449,0.05247 -0.476439,0.08975 -0.717729,0.09973 -0.320705,-0.0012 -0.641457,-0.0036 -0.962137,0.0018 0,0 1.259736,-0.900741 1.259736,-0.900741 z"
       id="path9"
       inkscape:connector-curvature="0" />
    <path
       style="fill:#008000;stroke-width:0.10300832"
       d="m 66.10556,89.61799 c 0.334139,0.06581 0.659906,0.162029 0.986733,0.255613 0.295447,0.07261 0.580375,0.181602 0.866654,0.283133 0.274714,0.08921 0.520972,0.23538 0.781164,0.355493 0.200625,0.04021 0.366638,0.154712 0.552387,0.230745 0.17353,0.112061 0.357843,0.204112 0.53947,0.303691 0.221039,0.121666 0.439015,0.246551 0.654129,0.378355 0.07927,0.09026 0.200827,0.124057 0.288797,0.201906 0.04073,0.03608 0.07547,0.07826 0.115198,0.115392 0.09115,0.123709 0.175997,0.251945 0.264634,0.377784 0.09038,0.139997 0.165933,0.286244 0.233152,0.43847 0.06558,0.101697 0.114916,0.210011 0.155799,0.323115 0,0 -1.364764,0.741093 -1.364764,0.741093 v 0 c -0.0366,-0.110571 -0.08643,-0.213702 -0.149344,-0.312504 -0.06309,-0.142704 -0.135702,-0.279016 -0.220108,-0.410467 -0.08389,-0.117064 -0.160513,-0.239383 -0.249006,-0.352426 -0.116991,-0.11289 -0.253981,-0.195316 -0.383394,-0.293911 -0.208785,-0.134497 -0.427135,-0.25145 -0.645505,-0.370048 -0.182585,-0.09276 -0.356259,-0.19776 -0.53704,-0.29253 -0.181718,-0.08633 -0.361548,-0.171015 -0.552078,-0.237514 -0.250244,-0.127724 -0.498095,-0.255996 -0.767445,-0.342575 -0.285063,-0.09707 -0.565453,-0.208014 -0.859175,-0.278399 -0.326863,-0.09605 -0.656008,-0.182964 -0.991627,-0.244589 0,0 1.281369,-0.869826 1.281369,-0.869826 z"
       id="path11"
       inkscape:connector-curvature="0" />
    <path
       style="fill:#008000;stroke-width:0.10300832"
       d="m 67.772969,89.474608 c 0.318787,0.0058 0.637672,0.0029 0.956493,0.0018 0.24007,-6.15e-4 0.480135,-0.0018 0.720204,-0.0012 0.246284,-8.9e-5 0.492572,2.07e-4 0.73885,3.96e-4 0.261729,-0.0012 0.523447,3.73e-4 0.785172,6.14e-4 0.27424,-3.96e-4 0.548476,-2.05e-4 0.822717,-6.14e-4 0.248039,-6.14e-4 0.496073,3.4e-5 0.744117,-2.97e-4 0.276808,0.0012 0.553617,3.96e-4 0.830428,0.0012 0.257599,-6.5e-5 0.515197,-6.15e-4 0.7728,-0.0018 0.242996,0.0012 0.485988,2.98e-4 0.728984,0 0.216014,-2.98e-4 0.432032,-3.71e-4 0.64805,-3.71e-4 0.209651,-3.6e-5 0.419305,-3e-5 0.628956,-3e-5 0.184642,-0.0061 0.362451,-0.06349 0.547387,-0.08391 0.216725,-0.05259 0.414148,-0.153834 0.613577,-0.2503 0,0 -1.214065,0.951082 -1.214065,0.951082 v 0 c -0.20912,0.09265 -0.415617,0.194011 -0.647414,0.217758 -0.185454,0.03054 -0.368613,0.08002 -0.558646,0.0657 -0.209624,0 -0.419261,6e-6 -0.628885,-3e-5 -0.215605,-5.3e-5 -0.431214,-1.05e-4 -0.646821,-3.97e-4 -0.242996,-2.98e-4 -0.486002,-0.0012 -0.728997,7e-6 -0.256291,-3.73e-4 -0.512572,-0.0012 -0.768863,-0.0018 -0.277778,6.14e-4 -0.555556,-1e-4 -0.833334,0.0012 -0.247763,-2.98e-4 -0.495531,3.72e-4 -0.743288,-2.98e-4 -0.273538,-6.16e-4 -0.547073,-3.23e-4 -0.820606,-6.16e-4 -0.262426,2.01e-4 -0.524842,0.0018 -0.787265,6.16e-4 -0.246673,2.01e-4 -0.493352,3.72e-4 -0.740031,3.72e-4 -0.239042,6.14e-4 -0.478084,-2.98e-4 -0.717125,-0.0012 -0.320703,-0.0012 -0.64146,-0.0036 -0.962138,0.0018 0,0 1.259743,-0.900741 1.259743,-0.900741 z"
       id="path13"
       inkscape:connector-curvature="0" />
    <path
       style="fill:#5599ff;stroke-width:0.15598252"
       d="m 71.354949,83.445392 c 0.07345,-0.246852 0.184858,-0.479697 0.288641,-0.714746 0.07918,-0.21708 0.180996,-0.423508 0.274271,-0.634557 0.08715,-0.223961 0.192845,-0.437753 0.30347,-0.6507 0.07919,-0.162612 0.131841,-0.336244 0.188373,-0.507553 0.05554,-0.134892 0.113318,-0.269331 0.17566,-0.401294 0.062,-0.156399 0.11245,-0.316861 0.165365,-0.476449 0.06915,-0.179414 0.152895,-0.352227 0.221729,-0.532202 0.06406,-0.173955 0.12505,-0.348719 0.190686,-0.522067 0.05589,-0.116283 0.0952,-0.239148 0.14476,-0.357956 0.04239,-0.122501 0.07928,-0.244465 0.141949,-0.358629 0.0883,-0.10331 0.134505,-0.219676 0.158973,-0.351568 0.02058,-0.128802 0.06214,-0.251727 0.110167,-0.372377 0.03248,-0.127553 0.09412,-0.243409 0.14661,-0.363104 0.05512,-0.133796 0.05801,-0.279669 0.08999,-0.419165 0.02918,-0.129603 0.05194,-0.259266 0.08911,-0.386928 0.02948,-0.126502 0.07541,-0.247734 0.111096,-0.372546 0.05247,-0.140723 0.07714,-0.287723 0.09115,-0.436531 0.0066,-0.164156 0.03968,-0.325723 0.08398,-0.483453 0.04745,-0.149821 0.0668,-0.305212 0.07754,-0.461308 0.02023,-0.15877 0.05283,-0.315222 0.06953,-0.474556 0.02198,-0.137293 0.05947,-0.270622 0.07743,-0.40876 0.01579,-0.150403 0.0165,-0.301826 0.01755,-0.452888 4.4e-4,-0.157496 8.8e-5,-0.314991 -1.18e-4,-0.472486 -1.53e-4,-0.157663 -2.51e-4,-0.315326 -2.51e-4,-0.472985 -2.1e-5,-0.157575 -1.1e-5,-0.315148 -1.1e-5,-0.472721 0,-0.157565 0,-0.315131 0,-0.472696 0,-0.157566 0,-0.315132 0,-0.472697 0,-0.157568 0,-0.315134 0,-0.472698 0,-0.157568 0,-0.315132 0,-0.4727 0,-0.157566 0,-0.315131 0,-0.472698 -0.01962,-0.128041 -0.03643,-0.258607 -0.06774,-0.38448 -0.03669,-0.132851 -0.07457,-0.265319 -0.110229,-0.39848 -0.02151,-0.142123 -0.06744,-0.278148 -0.099,-0.417984 -0.03129,-0.115514 -0.10049,-0.21236 -0.141628,-0.324138 -0.05636,-0.107776 -0.08719,-0.225127 -0.131735,-0.337721 -0.0083,-0.01392 -0.01474,-0.02914 -0.02488,-0.04181 -0.02045,-0.02554 -0.04906,-0.04376 -0.06999,-0.06892 -0.03947,-0.04739 -0.06479,-0.102771 -0.09777,-0.154428 -0.06567,-0.100673 -0.128743,-0.205124 -0.201062,-0.301411 -0.08646,-0.09737 -0.1434,-0.208361 -0.203041,-0.322684 -0.07325,-0.09473 -0.167263,-0.164551 -0.236877,-0.262563 -0.08669,-0.115197 -0.207154,-0.191573 -0.296555,-0.304585 -0.09636,-0.101661 -0.193397,-0.199763 -0.288096,-0.302994 -0.09545,-0.09457 -0.20279,-0.17432 -0.29579,-0.271877 -0.08821,-0.09786 -0.206901,-0.156604 -0.295306,-0.252871 -0.08742,-0.09556 -0.178726,-0.186429 -0.280013,-0.267827 -0.125094,-0.104004 -0.241046,-0.218634 -0.365423,-0.323266 -0.129789,-0.06306 -0.225637,-0.172236 -0.346721,-0.247384 -0.121556,-0.07172 -0.206752,-0.17706 -0.299349,-0.280112 -0.114953,-0.06379 -0.206389,-0.152161 -0.301811,-0.241454 -0.07661,-0.103101 -0.194416,-0.156943 -0.277238,-0.252987 -0.08057,-0.09671 -0.188527,-0.158003 -0.287965,-0.230958 -0.09913,-0.06213 -0.192722,-0.136977 -0.273906,-0.221535 -0.09092,-0.06151 -0.176369,-0.130743 -0.266034,-0.194451 -0.08543,-0.09177 -0.185147,-0.155815 -0.304629,-0.192042 -0.118577,-0.05721 -0.243558,-0.09268 -0.350861,-0.170933 -0.10747,-0.06902 -0.222934,-0.11975 -0.347267,-0.149002 -0.151129,-0.02647 -0.297684,-0.07133 -0.441049,-0.125091 -0.105066,-0.07081 -0.223748,-0.11223 -0.338599,-0.163278 -0.131205,-0.03256 -0.261373,-0.0695 -0.39385,-0.09821 -0.15475,-0.05751 -0.315639,-0.104115 -0.464421,-0.175852 -0.129678,-0.0601 -0.270963,-0.08506 -0.408097,-0.122877 -0.16903,-0.05932 -0.342873,-0.100294 -0.514797,-0.149576 -0.134096,-0.07899 -0.287775,-0.09748 -0.432774,-0.143631 -0.145769,-0.02807 -0.284193,-0.07684 -0.426997,-0.115576 -0.137857,-0.02365 -0.273169,-0.03309 -0.40845,-0.06923 -0.12703,-0.07439 -0.275847,-0.082 -0.410876,-0.130722 -0.127626,-0.04145 -0.257478,-0.06094 -0.384964,-0.102368 -0.130932,-0.03841 -0.267904,-0.0437 -0.403339,-0.0485 -0.159551,0.0078 -0.313463,-0.03563 -0.470479,-0.05725 -0.154815,-0.02693 -0.305901,-0.06793 -0.463157,-0.08632 -0.158647,-0.01533 -0.318182,-0.01599 -0.477408,-0.01678 -0.157782,-3.24e-4 -0.315557,3.22e-4 -0.473331,4.82e-4 -0.163032,0.01533 -0.318831,-0.01633 -0.478257,-0.04336 -0.154806,-0.02512 -0.311685,-0.03056 -0.468182,-0.03402 -0.152551,0.01374 -0.295605,-0.0162 -0.44346,-0.0462 -0.139608,-0.01781 -0.275242,-0.02788 -0.411242,-0.06439 -0.13436,-0.03457 -0.273311,-0.04078 -0.411265,-0.04566 -0.15515,-0.0039 -0.310361,-0.0033 -0.465545,-0.0031 -0.173289,3.23e-4 -0.346586,-3.22e-4 -0.51988,-1.5e-5 -0.183492,3.23e-4 -0.366985,-1.58e-4 -0.550472,1.3e-5 -0.168409,3.23e-4 -0.336817,4.83e-4 -0.505226,6.59e-4 -0.152687,0.0099 -0.311039,-0.02088 -0.460343,0.01629 -0.152459,0.03661 -0.301126,0.0827 -0.45589,0.110119 -0.163751,0.03356 -0.333292,0.01264 -0.496061,0.04653 -0.168987,0.03579 -0.339678,0.07089 -0.504253,0.124343 -0.161699,0.03422 -0.306565,0.111487 -0.467566,0.147582 -0.145419,0.02322 -0.298545,0.03995 -0.433989,0.100367 -0.150884,0.03006 -0.292547,0.08569 -0.440499,0.125387 -0.164089,0.07103 -0.327064,0.134452 -0.503302,0.168859 -0.160332,0.0075 -0.297404,0.08827 -0.445546,0.137625 -0.134565,0.03846 -0.23847,0.126618 -0.375209,0.166475 -0.151437,0.01427 -0.286696,0.06653 -0.423983,0.126632 0.316703,-0.179915 0.633123,-0.360316 0.950112,-0.539743 0.01821,-0.01025 -0.03595,0.02152 -0.05383,0.03241 -0.0392,0.02386 -0.07622,0.05128 -0.116063,0.07409 -0.355079,0.203291 -0.708845,0.408989 -1.067473,0.605953 -0.02164,0.01185 -0.04758,0.01301 -0.07137,0.01953 0.0344,-0.03307 -0.185095,0.09323 -0.140123,0.06745 1.994308,-1.143684 0.36793,-0.18873 -0.306974,0.167414 0.04617,-0.03717 -0.208309,0.104713 -0.157803,0.07556 0.306639,-0.176996 1.227543,-0.706228 0.921558,-0.528112 -0.358102,0.208455 -0.719286,0.411585 -1.077914,0.61913 -0.308878,0.178752 0.618192,-0.356773 0.928663,-0.532754 0.02269,-0.01285 -0.04345,0.02887 -0.06517,0.0433 -0.355302,0.204767 -0.709244,0.411909 -1.065911,0.614301 -0.02458,0.01395 -0.05164,0.023 -0.07745,0.03451 0.309605,-0.177045 1.233463,-0.716569 0.928817,-0.531132 -0.352046,0.214288 -0.716289,0.407937 -1.071046,0.617705 -0.309659,0.183104 0.622686,-0.360475 0.935742,-0.537702 0.02094,-0.01184 -0.03947,0.02765 -0.05915,0.04145 -0.437148,0.290103 -0.857187,0.64701 -1.364404,0.796822 -0.360537,0.185683 -0.801603,0.445929 0.843288,-0.488639 0.01532,-0.0086 -0.03108,0.01707 -0.04487,0.02804 -0.03001,0.02385 -0.0547,0.05364 -0.08224,0.08025 -0.0957,0.08409 -0.207623,0.145465 -0.308843,0.222215 -0.09432,0.07928 -0.199015,0.143806 -0.294592,0.221468 -0.111449,0.08524 -0.220199,0.172906 -0.331803,0.257974 -2.132393,1.231625 -0.73111,0.421249 -0.106922,0.06452 0.01589,-0.0092 -0.03199,0.01817 -0.0464,0.02953 -0.05228,0.04118 -0.09563,0.09675 -0.143615,0.142803 -0.107679,0.09162 -0.219547,0.176961 -0.321834,0.274784 -0.125243,0.08799 -0.239506,0.188245 -0.353195,0.290632 -0.137572,0.12246 -0.279477,0.23985 -0.422947,0.355343 -0.122097,0.07974 -0.205371,0.20002 -0.31295,0.295021 -0.106034,0.09395 -0.20818,0.192261 -0.310031,0.290923 -0.102124,0.111695 -0.216918,0.20656 -0.333222,0.302348 -0.09097,0.114135 -0.206332,0.20209 -0.313705,0.299095 -0.109357,0.110486 -0.213398,0.225518 -0.319283,0.339225 -0.127571,0.09854 -0.233715,0.20944 -0.332345,0.335616 -0.104112,0.09213 -0.202694,0.188707 -0.300499,0.287719 -0.10459,0.106665 -0.224234,0.196612 -0.334324,0.29721 -0.08554,0.07654 -0.172634,0.152594 -0.250452,0.237124 -0.06218,0.114636 -0.17407,0.176093 -0.274079,0.251825 -0.07927,0.10459 -0.160376,0.197832 -0.268939,0.273636 -0.09896,0.08536 -0.165019,0.194479 -0.264146,0.28142 -0.113433,0.104725 -0.204146,0.230368 -0.310023,0.343007 -0.103248,0.11671 -0.205077,0.234019 -0.315284,0.344213 -0.11389,0.124269 -0.222044,0.251927 -0.313073,0.393896 -0.08143,0.102809 -0.165306,0.20316 -0.24211,0.309721 -0.08638,0.114941 -0.187698,0.212244 -0.258129,0.33847 -0.07816,0.105615 -0.168571,0.200519 -0.249918,0.304492 -0.09109,0.113525 -0.175821,0.231773 -0.26128,0.349702 -0.08694,0.10536 -0.163708,0.218429 -0.243515,0.329147 -0.08292,0.102614 -0.150546,0.215568 -0.228771,0.321984 -0.08952,0.12633 -0.16524,0.260472 -0.258862,0.383962 -0.07731,0.109545 -0.175317,0.201727 -0.24807,0.314297 -0.07877,0.131168 -0.189015,0.238044 -0.272324,0.365989 -0.05583,0.117993 -0.152406,0.204464 -0.239274,0.298326 -0.07707,0.123185 -0.17827,0.227542 -0.259556,0.34744 -0.08914,0.116638 -0.17421,0.236458 -0.262465,0.353799 -0.08719,0.103712 -0.171361,0.207515 -0.250725,0.317533 -0.08444,0.115063 -0.180911,0.219112 -0.260842,0.337971 -0.08102,0.139173 -0.184914,0.258199 -0.289188,0.379228 -0.0721,0.123406 -0.163255,0.232836 -0.245428,0.349012 -0.06621,0.106434 -0.13512,0.211784 -0.218582,0.305569 -0.08985,0.125647 -0.189193,0.243951 -0.282873,0.366599 -0.105586,0.140415 -0.200811,0.288293 -0.311576,0.424706 -0.115102,0.13476 -0.211252,0.283247 -0.328325,0.416291 -0.09262,0.113647 -0.178581,0.230128 -0.275697,0.340115 -0.07731,0.09095 -0.137243,0.193165 -0.198634,0.295055 -0.086,0.125777 -0.189593,0.238723 -0.28764,0.355176 -0.08855,0.122176 -0.200305,0.224321 -0.295807,0.340242 -0.109255,0.148753 -0.235728,0.28397 -0.352651,0.426921 -0.136826,0.151748 -0.257563,0.316761 -0.389698,0.472322 -0.107847,0.109644 -0.20778,0.221973 -0.295263,0.348318 -0.08972,0.108875 -0.174258,0.221272 -0.256163,0.336198 -0.07007,0.09432 -0.15342,0.176837 -0.231028,0.264573 -0.08231,0.124328 -0.200073,0.216815 -0.289803,0.334706 -0.07589,0.132399 -0.187254,0.236524 -0.29062,0.346678 -0.112297,0.122719 -0.197739,0.265318 -0.305721,0.391609 -0.09898,0.1192 -0.198687,0.236836 -0.311423,0.343236 -0.113412,0.115014 -0.222606,0.234537 -0.329675,0.355574 -0.101018,0.117455 -0.19045,0.244319 -0.294813,0.358842 -0.07631,0.121019 -0.181398,0.208592 -0.289292,0.2996 -0.08989,0.108752 -0.190533,0.206715 -0.288304,0.308376 -0.13048,0.135913 -0.263246,0.269372 -0.388284,0.410361 -0.108829,0.109546 -0.208149,0.228034 -0.315715,0.338709 -0.0795,0.08398 -0.157282,0.17017 -0.241995,0.248963 -0.08644,0.100404 -0.182598,0.190963 -0.281246,0.279075 -0.08161,0.102492 -0.166257,0.199667 -0.266932,0.284142 -0.102558,0.100684 -0.210485,0.192462 -0.322466,0.282489 -0.103436,0.09417 -0.163949,0.21582 -0.279789,0.297287 -0.08658,0.02777 -0.124369,0.127184 -0.196824,0.170939 -0.503105,0.303801 -2.184006,1.270618 -0.10359,0.07015 -0.121781,0.07243 -0.203067,0.189596 -0.313258,0.276788 -0.122795,0.08404 -0.212546,0.202474 -0.324843,0.29838 -0.113267,0.08483 -0.189449,0.205614 -0.283804,0.308748 -1.63573,0.959859 -1.165028,0.680022 -0.101268,0.0692 0.01571,-0.009 -0.03169,0.01786 -0.04621,0.02871 -0.04422,0.03302 -0.08506,0.07365 -0.12282,0.113635 -0.09134,0.08987 -0.199175,0.15973 -0.295325,0.243951 -0.404273,0.298167 -0.862068,0.531307 -1.291699,0.781501 -0.02036,0.0053 -0.04165,0.0082 -0.06111,0.01633 -0.03607,0.01514 -0.138217,0.07355 -0.104345,0.05394 0.301355,-0.174668 1.210914,-0.689096 0.908844,-0.515672 -0.351936,0.202049 -0.704825,0.402427 -1.057243,0.603638 0.31869,-0.182557 0.636968,-0.365835 0.956063,-0.547685 0.01681,-0.0095 -0.03257,0.02087 -0.04914,0.03083 -0.03182,0.0191 -0.06061,0.04291 -0.09258,0.06176 -0.34965,0.205714 -0.699022,0.412006 -1.052415,0.611217 -0.0183,0.01037 -0.0406,0.01086 -0.0609,0.0164 -0.12021,0.05766 -0.252846,0.09959 -0.363597,0.174421 -0.475978,0.243304 1.303096,-0.750001 0.849611,-0.485533 -0.504206,0.29405 -0.724276,0.556668 -1.182368,0.637635 -0.07158,0.05029 -0.16053,0.04958 -0.239942,0.07486 -0.03845,0.0122 -0.07335,0.03378 -0.111047,0.0481 0.07026,-0.0042 -0.221543,0.127211 -0.151102,0.08613 2.32565,-1.35638 0.121649,-0.01468 -0.153342,0.0828 -0.132129,0.01439 -0.254275,0.05784 -0.382872,0.08743 -0.06663,0.05518 -0.153179,0.05789 -0.230089,0.08536 -0.03757,0.01344 -0.07138,0.03579 -0.108338,0.05076 -0.13401,0.04303 -0.275803,0.04741 -0.415286,0.0521 -0.155881,0.01062 -0.308732,0.04894 -0.46508,0.06498 -0.158699,0.01374 -0.31811,0.01473 -0.477289,0.01569 -0.157743,4.83e-4 -0.315491,-1.1e-5 -0.473235,-1.59e-4 -0.157554,-1.54e-4 -0.315109,-1.54e-4 -0.472663,-3.22e-4 -0.15756,-1.7e-5 -0.315123,-1.2e-5 -0.472686,-1.2e-5 -0.157568,0 -0.315132,0 -0.4727,0 -0.157568,7e-6 -0.31513,7e-6 -0.472698,7e-6 -0.144358,0.0069 -0.279392,-0.04256 -0.391998,-0.130571 -0.115807,-0.06907 -0.207645,-0.09084 -0.292081,-0.205374 -0.07281,-0.08546 -0.159442,-0.156428 -0.234521,-0.24042 -0.06617,-0.109461 -0.156178,-0.1915 -0.249673,-0.275086 -0.06791,-0.09472 -0.127859,-0.189263 -0.218318,-0.264897 -0.09834,-0.07419 -0.154372,-0.18244 -0.23202,-0.274649 -0.06984,-0.105688 -0.143452,-0.208103 -0.217795,-0.310646 -0.06289,-0.106067 -0.101857,-0.224239 -0.15731,-0.333934 -0.05021,-0.112657 -0.110521,-0.21945 -0.148535,-0.337169 -0.03305,-0.128267 -0.07707,-0.251829 -0.10044,-0.38263 -0.0197,-0.152143 -0.05784,-0.300677 -0.07938,-0.452644 -0.01049,-0.158409 -0.02787,-0.314348 -0.0558,-0.470601 -0.02937,-0.15861 -0.03898,-0.319647 -0.04464,-0.480538 -0.0022,-0.160192 -0.0093,-0.320705 0.0027,-0.480576 0.02616,-0.156111 0.0498,-0.312167 0.06225,-0.470024 0.01013,-0.156181 0.01062,-0.312769 0.01123,-0.469215 -0.01147,-0.142332 0.02431,-0.271535 0.08124,-0.399542 0.04297,-0.112891 0.0851,-0.226904 0.139561,-0.334865 0.06389,-0.11914 0.07533,-0.255252 0.105702,-0.384882 0.03581,-0.15519 0.107446,-0.295759 0.184642,-0.433566 0.06932,-0.135923 0.112487,-0.28335 0.160329,-0.427758 0.04954,-0.132658 0.143931,-0.239913 0.208245,-0.364295 0.05682,-0.123738 0.116101,-0.24757 0.192591,-0.360428 0.08107,-0.107848 0.154158,-0.22245 0.216037,-0.342374 0.07473,-0.09035 0.135416,-0.185711 0.194249,-0.287059 0.05474,-0.100245 0.124795,-0.192249 0.204274,-0.274112 0.08721,-0.11089 0.193525,-0.203852 0.280226,-0.31488 0.07265,-0.09685 0.153948,-0.186229 0.232331,-0.278246 0.08069,-0.07902 0.150573,-0.168767 0.245042,-0.231953 0.09446,-0.06275 0.178872,-0.137641 0.266587,-0.209023 0.09448,-0.05949 0.187258,-0.122806 0.269532,-0.198557 0.0449,-0.0342 0.0907,-0.0722 0.139726,-0.10055 3.497258,-2.022885 -2.341582,1.352081 1.154882,-0.664832 0.108936,-0.04401 0.209584,-0.104944 0.31518,-0.157245 -2.009146,1.206858 -0.403755,0.148092 0.309737,-0.162395 0.02002,-0.0058 0.04103,-0.0092 0.06002,-0.01781 0.03537,-0.0162 0.135382,-0.07652 0.101729,-0.05705 -0.301707,0.17456 -1.21119,0.690637 -0.909637,0.5158 0.351006,-0.203532 0.703403,-0.404655 1.055106,-0.606972 -3.168928,1.821222 2.49007,-1.456418 -0.718346,0.392894 0.02313,-0.0039 0.116879,-0.101197 0.141659,-0.08336 0.0053,0.0039 0.01273,0.01586 0.0068,0.01857 -0.0078,0.0034 -0.01501,-0.0076 -0.02251,-0.01147 -0.123674,-0.04311 -0.253513,-0.0631 -0.380683,-0.09506 -0.168865,-0.01784 -0.322646,-0.06295 -0.480043,-0.124057 -0.146407,-0.06547 -0.309663,-0.05688 -0.461001,-0.09857 -0.130241,-0.04866 -0.271955,-0.03909 -0.403365,-0.07807 -0.1283,-0.04323 -0.262971,-0.05452 -0.397172,-0.062 -0.144016,0.009 -0.27949,-0.0384 -0.419972,-0.06086 -0.144814,-0.01928 -0.291155,-0.02095 -0.436996,-0.02273 -0.15687,-0.0011 -0.31374,-6.57e-4 -0.470606,-4.82e-4 -0.13892,0.0048 -0.27266,0.04874 -0.4118,0.06439 -0.146235,0.0226 -0.298278,-0.0058 -0.441423,0.03157 -0.08495,0.03424 -0.180031,0.02687 -0.267198,0.04771 -0.04051,0.0096 -0.07787,0.02956 -0.117369,0.0427 -0.127487,0.02213 -0.239192,0.08083 -0.366578,0.105372 -0.0498,0.03881 -0.115636,0.04221 -0.170931,0.06649 -0.05645,0.02477 -0.101344,0.056 -0.161663,0.07544 -0.129514,0.01849 -0.245266,0.07345 -0.374323,0.09623 -0.112427,0.04927 -0.203405,0.119494 -0.324028,0.150372 -0.06589,0.0568 -0.152371,0.05792 -0.229579,0.08455 -0.03783,0.01306 -0.07207,0.03506 -0.10929,0.04976 -0.113428,0.03635 -0.216326,0.09823 -0.322996,0.150867 0.31887,-0.183018 0.636815,-0.36766 0.956611,-0.549057 0.01655,-0.0094 -0.0302,0.02332 -0.04668,0.03291 -0.350544,0.204264 -0.700172,0.410192 -1.05411,0.608512 -0.05357,0.03002 -0.123746,0.02638 -0.180934,0.05382 0.319897,-0.18098 0.639291,-0.36286 0.959701,-0.542939 0.01642,-0.0092 -0.03138,0.02086 -0.04764,0.03035 -0.350434,0.204116 -0.706707,0.398405 -1.052419,0.610413 -0.313355,0.192174 0.635932,-0.368884 0.955312,-0.550863 0.04002,-0.0228 -0.03358,0.02461 -0.100331,0.06795 -0.01887,0.01262 -0.03692,0.0266 -0.05662,0.03784 -0.355101,0.202501 -0.711157,0.403325 -1.06768,0.603315 -0.17863,0.100209 0.04961,-0.03444 -0.139201,0.06105 -0.02168,0.01098 -0.08232,0.05158 -0.06121,0.03956 0.315835,-0.17957 0.630299,-0.361536 0.945443,-0.542306 -0.378713,0.315315 -0.829133,0.499906 -1.252704,0.76435 -0.31115,0.194254 0.635801,-0.365988 0.953706,-0.548976 -0.387139,0.257158 -0.771745,0.467507 -1.194539,0.705486 -0.07969,0.0211 -0.04305,0.0053 -0.11056,0.04627 0.31666,-0.181331 0.632809,-0.363564 0.949985,-0.543992 0.01953,-0.01111 -0.03748,0.02481 -0.05695,0.03595 -0.354609,0.202924 -0.706195,0.411346 -1.065292,0.606224 -0.319727,0.173507 1.25675,-0.733129 0.947158,-0.542113 -0.03336,0.02058 -2.615608,1.507779 -0.107923,0.06322 -0.64478,0.405387 -2.137628,1.231892 -0.150966,0.09811 0.01708,-0.0098 -0.03204,0.02287 -0.04912,0.03267 -0.352472,0.201735 -0.701398,0.409972 -1.059365,0.601784 -0.323447,0.17332 0.63718,-0.364181 0.955766,-0.546273 -0.351414,0.202266 -0.702037,0.405905 -1.054236,0.606791 -0.319416,0.182185 0.636157,-0.369035 0.955874,-0.55069 0.01655,-0.0094 -0.02962,0.02417 -0.04606,0.03378 -0.517313,0.302517 -0.721258,0.557565 -1.180465,0.636833 -0.148873,0.01899 -0.299324,0.01833 -0.449131,0.01886 -0.156071,0.0053 -0.306608,0.0029 -0.458563,-0.03243 -0.136478,-0.03267 -0.276803,-0.03997 -0.416472,-0.0451 -0.139592,-0.007 -0.273864,-0.05041 -0.413332,-0.06674 -0.144547,0.0046 -0.266715,-0.04233 -0.392664,-0.105507 -0.106373,-0.05738 -0.205459,-0.10749 -0.326037,-0.128569 -0.143089,-0.0086 -0.259166,-0.09802 -0.375833,-0.171856 -0.133028,-0.05286 -0.24041,-0.132815 -0.347033,-0.225295 -0.07272,-0.09469 -0.179428,-0.150127 -0.26616,-0.229696 -0.07354,-0.03672 -0.103785,-0.115149 -0.159104,-0.16996 -0.01111,-0.01098 -0.02453,-0.01952 -0.03678,-0.02924 -0.0137,-0.01381 -0.02742,-0.0276 -0.04112,-0.04137 -0.09666,-0.06535 -0.164709,-0.155665 -0.237322,-0.244492 -0.0947,-0.07103 -0.170243,-0.154013 -0.235821,-0.252152 -0.08766,-0.09767 -0.168437,-0.196769 -0.237184,-0.308711 -0.08365,-0.09695 -0.157252,-0.200125 -0.234508,-0.301804 -0.05355,-0.108826 -0.164015,-0.141849 -0.254921,-0.211203 -0.09261,-0.104395 -0.194767,-0.188436 -0.3267399,-0.235193 -0.04805,-0.01953 -0.122965,-0.06768 -0.17701,-0.03046 -0.01268,0.0086 -0.04073,0.0448 -0.02717,0.03741 0.3127799,-0.170759 1.2410539,-0.701089 0.9287429,-0.52947 -0.08787,0.08913 -0.118358,0.226182 -0.147477,0.344949 -0.02357,0.145559 -0.03595,0.29104 -0.06846,0.435119 -0.03283,0.139087 -0.0409,0.281881 -0.04633,0.424152 -0.0044,0.15601 -0.0039,0.312099 -0.0035,0.468153 1.59e-4,0.157715 4.39e-4,0.31543 4.39e-4,0.473147 7.4e-5,0.157596 8e-5,0.315198 8.3e-5,0.472793 -0.0013,0.130937 0.02181,0.264192 0.05921,0.389598 0.02945,0.110291 0.112463,0.190303 0.16875,0.28628 0.05374,0.105848 0.09187,0.219817 0.158613,0.318365 0.100587,0.08499 0.162141,0.201287 0.225713,0.314154 0.07477,0.08194 0.152933,0.160603 0.220565,0.250077 0.05555,0.09686 0.13192,0.179857 0.204616,0.264644 0.06596,0.09489 0.152564,0.170861 0.213968,0.269008 0.05916,0.09351 0.133931,0.174084 0.203064,0.25977 0.06019,0.09367 0.120872,0.189112 0.198976,0.269029 0.08362,0.07354 0.130339,0.180919 0.215351,0.251533 0.08992,0.07484 0.163655,0.162277 0.230681,0.258195 0.07711,0.08951 0.156248,0.176374 0.221531,0.275365 0.0697,0.100928 0.154465,0.188881 0.232542,0.282825 0.09618,0.07804 0.142834,0.193498 0.196248,0.301633 0.06165,0.09863 0.139155,0.18479 0.202053,0.282783 0.06341,0.130354 0.153986,0.244324 0.227819,0.368787 0.079,0.112853 0.154518,0.230304 0.21349,0.355039 0.06125,0.0968 0.09762,0.206323 0.166161,0.298527 0.06677,0.102735 0.116589,0.217863 0.160355,0.332352 0.05034,0.09863 0.105981,0.195363 0.167328,0.287648 0.06617,0.100392 0.08965,0.220006 0.153307,0.321672 0.05656,0.107836 0.122985,0.210023 0.181575,0.316853 0.06379,0.123003 0.115063,0.25243 0.181233,0.374199 0.0657,0.1373 0.143422,0.268207 0.192832,0.412614 0.01922,0.125077 0.08386,0.231235 0.13518,0.343973 0.04934,0.120079 0.09854,0.236907 0.125323,0.364554 0.02747,0.117772 0.07778,0.226724 0.120433,0.339091 0.06274,0.116345 0.125353,0.23044 0.167299,0.356183 0.03884,0.12846 0.07081,0.260047 0.113866,0.387151 0.03881,0.111182 0.08028,0.222593 0.135664,0.32673 0.07195,0.114086 0.08438,0.247423 0.115478,0.37497 0.02633,0.122483 0.0827,0.234049 0.117723,0.353802 0.05709,0.113476 0.07729,0.238209 0.112048,0.358711 0.03305,0.121727 0.07259,0.240598 0.111425,0.360516 0.05479,0.106763 0.08839,0.221532 0.133987,0.332117 0.03077,0.116491 0.07438,0.223661 0.134531,0.327531 0.05286,0.116418 0.08996,0.240244 0.12833,0.362372 0.04404,0.108997 0.11433,0.200804 0.157176,0.310547 0.04758,0.10874 0.101759,0.214511 0.14668,0.32437 0.04292,0.101515 0.114989,0.182175 0.182052,0.267423 0.07096,0.102943 0.08719,0.229477 0.148278,0.3374 0.05213,0.100525 0.138666,0.174444 0.198516,0.269784 0.05965,0.09307 0.134858,0.173136 0.204159,0.258556 0.06508,0.105812 0.144646,0.202388 0.231646,0.290878 0.09175,0.108595 0.190468,0.210596 0.285849,0.31587 0.108032,0.0821 0.167435,0.207919 0.270467,0.293892 0.105055,0.07968 0.183875,0.182527 0.270088,0.280674 0.09163,0.07827 0.18165,0.157207 0.27566,0.232815 0.01873,0.01586 0.03841,0.03066 0.05618,0.04757 0.05855,0.05564 0.04759,0.05837 0.108131,0.107068 0.05177,0.04168 0.114,0.06623 0.169861,0.10188 0.113976,0.04823 0.169729,0.160125 0.282534,0.209575 0.09414,0.06765 0.198424,0.119114 0.293021,0.185251 0.01602,0.009 0.03296,0.01662 0.04805,0.02718 0.06725,0.04704 0.02686,0.0326 0.09317,0.07107 0.04959,0.02877 0.103968,0.04127 0.15464,0.06899 0.11012,0.04186 0.186874,0.13518 0.29027,0.188015 0.09501,0.06993 0.202263,0.117724 0.30175,0.181625 0.118541,0.05283 0.207218,0.151035 0.32163,0.209941 0.133228,0.05718 0.269333,0.115625 0.396636,0.185594 0.113257,0.06807 0.214562,0.134391 0.345876,0.161114 0.134175,0.04287 0.257405,0.102675 0.383566,0.164399 0.136735,0.04516 0.264156,0.111316 0.405071,0.143583 0.129321,0.01533 0.237511,0.09862 0.347047,0.164642 0.124081,0.06006 0.259942,0.08207 0.390344,0.125041 0.11499,0.06959 0.240876,0.116626 0.359577,0.179184 0.137681,0.07704 0.296364,0.07932 0.444996,0.118164 0.135962,0.04847 0.281785,0.08546 0.413279,0.146047 0.127175,0.04987 0.251493,0.102601 0.385638,0.131308 0.146284,0.0053 0.272538,0.05435 0.400808,0.118932 0.114964,0.03714 0.219281,0.09429 0.337949,0.120701 0.134133,0.06592 0.286044,0.06617 0.425524,0.110864 0.130335,0.03844 0.261597,0.05784 0.390795,0.09957 0.129137,0.01916 0.250058,0.06191 0.375912,0.0943 0.139982,0.03856 0.277388,0.0788 0.422258,0.09778 0.14639,0.02918 0.300139,0.05016 0.443071,0.09569 0.13884,0.02807 0.268469,0.08527 0.405624,0.117602 0.163001,0.02075 0.320029,0.06789 0.48235,0.09342 0.158578,0.027 0.32064,0.0099 0.478115,0.04021 0.153868,0.02789 0.305814,0.04546 0.455746,0.08972 0.134553,0.03825 0.274617,0.04493 0.413545,0.05 0.154742,0.04357 0.317151,0.0471 0.472003,0.08698 0.152915,0.04303 0.310649,0.05906 0.468643,0.06792 0.15525,0.01338 0.313235,-0.01037 0.466111,0.02117 0.133961,0.03631 0.271749,0.04934 0.409804,0.05701 0.155908,0.01292 0.308368,0.05218 0.464699,0.06904 0.155973,0.01404 0.312713,0.01486 0.469195,0.01573 0.14786,-0.01509 0.287464,0.03202 0.43162,0.05494 0.143454,0.01208 0.282188,0.01933 0.421815,0.0547 0.135304,0.03348 0.274834,0.03991 0.413494,0.04481 0.153727,0.0105 0.309957,-0.01267 0.461265,0.01856 0.134146,0.03637 0.272109,0.04952 0.410343,0.05718 0.155948,0.01298 0.308442,0.05222 0.464804,0.06908 0.147149,-0.0029 0.284874,0.04717 0.428385,0.07107 0.144532,0.01986 0.290707,0.02134 0.436333,0.02306 0.147145,-0.01427 0.28609,0.03271 0.429588,0.05547 0.144814,0.01933 0.291159,0.02117 0.437014,0.02306 0.141372,0.0036 0.277743,0.04733 0.418659,0.06375 0.1535,0.0036 0.300419,0.04792 0.451735,0.0702 0.154987,0.01993 0.311426,0.02217 0.467444,0.02393 0.16473,-0.0079 0.324072,0.0036 0.48605,0.03013 0.175331,0.02906 0.352735,0.03991 0.530123,0.04581 0.150791,-0.01249 0.293089,0.03508 0.440073,0.05848 0.144559,0.01933 0.290646,0.02105 0.436237,0.02287 0.156743,0.0012 0.313494,6.15e-4 0.470241,4.84e-4 0.171551,-0.01025 0.337638,0.03531 0.507387,0.0537 0.193461,0.01881 0.387868,0.02287 0.582086,0.02494 0.162563,0.0012 0.325121,4.81e-4 0.487684,1.51e-4 0.155513,-0.0058 0.305418,-0.0042 0.456921,0.03083 0.137866,0.03679 0.281776,0.02813 0.419844,0.06006 0.151761,0.03843 0.307456,0.05299 0.463307,0.06127 0.175672,0.007 0.351528,0.0063 0.527305,0.0062 0.16495,-4.83e-4 0.329904,-6.15e-4 0.49485,-0.0012 0.157757,-1.59e-4 0.315514,-1.59e-4 0.473266,-1.59e-4 0.142092,0.0018 0.27916,0.04652 0.420598,0.06326 0.148299,0.01416 0.297436,0.01486 0.446279,0.01592 0.15575,0.0075 0.314166,-0.01615 0.467462,0.01533 0.13411,0.03642 0.27203,0.0497 0.410242,0.05748 0.153438,0.0064 0.307052,0.0061 0.460586,0.0063 0.157638,-1.19e-4 0.315276,-3.22e-4 0.472914,-4.83e-4 0.160149,0.0046 0.317173,0.04564 0.477005,0.06276 0.155909,0.01414 0.312577,0.01527 0.469,0.01627 0.142009,0.0023 0.279032,0.04658 0.420467,0.06313 0.148333,0.01398 0.297479,0.01463 0.446335,0.01562 0.157247,4.84e-4 0.314486,9.5e-5 0.471738,-9.9e-5 0.157678,-1.58e-4 0.315356,-3.22e-4 0.473041,-3.22e-4 0.159123,0.0046 0.319691,-0.01357 0.476756,0.01509 0.15507,0.03396 0.312778,0.04952 0.471003,0.05806 0.156726,0.0064 0.313628,0.0062 0.470448,0.0062 0.157533,-1.41e-4 0.315056,-3.21e-4 0.472585,-4.82e-4 0.162234,-0.0076 0.319104,8.2e-5 0.478215,0.03013 0.154537,0.03054 0.31178,0.04008 0.468842,0.04569 0.15622,0.03673 0.314404,0.06003 0.474262,0.07238 0.161144,-0.0023 0.316071,0.04197 0.474665,0.06448 0.155274,0.01939 0.311919,0.02181 0.468179,0.02363 0.157335,0.0012 0.314679,4.83e-4 0.472019,3.23e-4 0.142185,0.0018 0.279406,0.04622 0.420937,0.06291 0.150884,0.02176 0.298072,0.06134 0.450452,0.07883 0.140697,0.01633 0.274759,0.06196 0.416216,0.07945 0.147007,0.02045 0.297102,-6.15e-4 0.442022,0.03101 0.13351,0.03702 0.27113,0.04964 0.408895,0.05719 0.153539,0.0062 0.307258,0.0058 0.460902,0.0058 0.157648,-1.41e-4 0.315303,-3.23e-4 0.47295,-4.83e-4 0.157634,-1.07e-4 0.315263,-1.19e-4 0.472896,-1.3e-4 0.142195,0.0018 0.279372,0.04652 0.420915,0.06324 0.148313,0.01414 0.297454,0.01486 0.446305,0.01592 0.157243,4.83e-4 0.314481,1.06e-4 0.47172,-8.8e-5 0.157683,-1.54e-4 0.31536,-3.22e-4 0.473046,-3.22e-4 0.157577,-1.7e-5 0.315158,-1.3e-5 0.472735,-1.3e-5 0.156045,0.007 0.314903,-0.01633 0.468446,0.01546 0.133951,0.0366 0.271769,0.04993 0.409887,0.05772 0.153419,0.0066 0.307021,0.0061 0.460546,0.0062 0.157642,-1.17e-4 0.315281,-3.23e-4 0.472923,-4.83e-4 0.157629,-1.13e-4 0.315267,-1.23e-4 0.472896,-1.36e-4 0.157568,-6e-6 0.315135,0 0.472703,0 0.157569,0 0.315136,0 0.4727,0 0.157568,0 0.315131,0 0.472703,0 0.15756,0 0.315123,0 0.472691,0 0.138766,-0.0046 0.272406,-0.04847 0.411386,-0.06403 0.151257,-0.01362 0.303277,-0.01427 0.45503,-0.01521 0.157533,-4.83e-4 0.315071,-1.6e-5 0.472602,1.52e-4 0.160645,0.0042 0.288308,0.007 0.444506,-0.0319 0.13433,-0.0411 0.279266,-0.01916 0.411935,-0.06082 0.08326,-0.03678 0.177524,-0.0296 0.26372,-0.05053 0.04037,-0.0098 0.0777,-0.02971 0.117139,-0.04281 0.131082,-0.01569 0.250717,-0.06313 0.377681,-0.09466 0.142984,-0.02858 0.289328,-0.03112 0.434608,-0.0339 0.136322,-0.02641 0.263256,-0.0797 0.397125,-0.114367 0.135473,-0.03944 0.263623,-0.08808 0.405361,-0.107252 0.122171,-0.0589 0.255622,-0.0751 0.389017,-0.0859 0.120763,-0.03424 0.216584,-0.105896 0.339261,-0.136248 0.126573,-0.02701 0.246653,-0.08203 0.369382,-0.124954 0.133231,-0.04292 0.259928,-0.105408 0.391821,-0.154613 0.149295,-0.0316 0.274051,-0.119993 0.414982,-0.172311 0.02322,-0.0061 0.04728,-0.0095 0.06962,-0.01821 0.03976,-0.01538 0.152252,-0.07665 0.115344,-0.05531 -0.300224,0.173724 -1.206517,0.685111 -0.90532,0.513076 0.352537,-0.201362 0.705596,-0.401806 1.058402,-0.602711 0.02062,-0.0053 0.04213,-0.0079 0.06188,-0.01598 0.220578,-0.09037 -0.124459,0.02918 0.104993,-0.05359 0.06248,-0.02251 0.127438,-0.03101 0.19284,-0.03973 0.03555,-0.0221 0.07763,-0.02736 0.11532,-0.04387 0.01996,-0.0086 0.07651,-0.04179 0.05759,-0.03101 -0.316189,0.180459 -0.632063,0.361477 -0.949348,0.539984 -0.01922,0.01074 0.0359,-0.02565 0.05489,-0.03678 0.35184,-0.206309 0.704996,-0.410355 1.057493,-0.615532 -0.316026,0.182249 -0.6311,0.366175 -0.948083,0.546762 -0.01817,0.01037 0.03331,-0.02546 0.05141,-0.03595 0.35205,-0.204005 0.703171,-0.409726 1.058796,-0.607422 0.01939,-0.01074 0.04376,-0.0086 0.06434,-0.01692 0.0187,-0.0075 0.06981,-0.04008 0.05235,-0.03013 -0.319069,0.182305 -0.63808,0.364725 -0.957121,0.547089 0.0948,-0.06311 0.141486,-0.168605 0.196794,-0.263702 0.04527,-0.103688 0.09397,-0.209954 0.122857,-0.319815 0.01448,-0.09186 -0.05035,-0.146264 -0.128141,-0.181637 -0.111901,-0.03756 -0.218906,-0.08809 -0.326204,-0.137717 -0.122912,-0.03808 -0.248096,-0.05212 -0.371577,-0.08884 0,0 0.966351,-0.662129 0.966351,-0.662129 v 0 c 0.127855,0.03436 0.263071,0.04274 0.382785,0.104224 0.10951,0.052 0.224473,0.09153 0.332705,0.146473 0.103821,0.07168 0.195254,0.165912 0.19579,0.299998 -0.0039,0.128979 -0.07463,0.235551 -0.105116,0.359149 -0.05312,0.107862 -0.110388,0.211191 -0.176531,0.311318 -0.3498,0.205172 -0.697929,0.413208 -1.049388,0.61551 -0.03595,0.02069 -0.150014,0.07074 -0.114209,0.04975 0.315026,-0.184785 0.631418,-0.367218 0.947299,-0.550535 0.01787,-0.01037 -0.03555,0.02117 -0.05329,0.03172 -0.350631,0.206593 -0.701255,0.413186 -1.051884,0.619778 0.314228,-0.183088 0.627516,-0.367803 0.942682,-0.549268 0.01917,-0.01098 -0.03538,0.02671 -0.05448,0.03785 -0.352265,0.205968 -0.704198,0.412555 -1.05938,0.613429 -0.05566,0.0315 -0.128242,0.03761 -0.188576,0.05458 -0.119237,0.03106 -0.229589,0.0846 -0.341828,0.134337 0.317119,-0.183476 0.634155,-0.367083 0.951349,-0.550418 0.01694,-0.0098 -0.03362,0.02004 -0.05052,0.02977 -0.35224,0.201954 -0.703618,0.405416 -1.057051,0.60527 -0.05789,0.03272 -0.125458,0.04203 -0.184335,0.07253 -0.13554,0.06508 -0.273437,0.12227 -0.416272,0.16984 -0.129852,0.05458 -0.260306,0.107995 -0.394039,0.152308 -0.122408,0.04664 -0.246971,0.08708 -0.372857,0.122907 -0.115136,0.0484 -0.22383,0.111378 -0.352524,0.116504 -0.131431,0.02004 -0.255693,0.06171 -0.384584,0.09212 -0.134922,0.03142 -0.26247,0.08556 -0.397747,0.116039 -0.134921,0.04275 -0.27141,0.08719 -0.414266,0.09099 -0.141212,0.0064 -0.28347,0.01539 -0.419406,0.05748 -0.124195,0.03843 -0.251813,0.05848 -0.375969,0.09711 -0.127113,0.03554 -0.259775,0.0491 -0.387371,0.08382 -0.138341,0.01398 -0.276594,0.02794 -0.412165,0.06047 -0.151155,0.02235 -0.304304,0.0093 -0.45663,0.01233 -0.157288,-1.59e-4 -0.314583,-6.14e-4 -0.471857,0.0012 -0.149366,0.0023 -0.299249,0.0058 -0.447271,0.02789 -0.139371,0.02333 -0.277018,0.06107 -0.419826,0.05012 -0.157568,0 -0.315136,0 -0.472699,0 -0.157567,0 -0.315128,0 -0.472699,0 -0.157564,0 -0.315129,0 -0.472696,0 -0.157568,0 -0.315135,-5e-6 -0.472698,1.2e-5 -0.157612,1.8e-5 -0.315224,4.8e-5 -0.472835,1.54e-4 -0.157727,1.58e-4 -0.315458,4.82e-4 -0.473183,1.58e-4 -0.155408,-6.13e-4 -0.311001,-0.0012 -0.46608,-0.01249 -0.13963,-0.01267 -0.276927,-0.03679 -0.414512,-0.06325 -0.152508,-0.0082 -0.305441,-0.0012 -0.458098,-0.0036 -0.157568,0 -0.31514,-6e-6 -0.472712,3.5e-5 -0.157656,5.3e-5 -0.315316,1.4e-4 -0.472972,3.21e-4 -0.157576,1.55e-4 -0.315157,6.16e-4 -0.472725,-0.0012 -0.15226,-0.0023 -0.304992,-0.0058 -0.455995,-0.02725 -0.136299,-0.02176 -0.270958,-0.06 -0.410307,-0.05094 -0.157607,2.4e-5 -0.315215,5.3e-5 -0.472831,1.59e-4 -0.15773,1.55e-4 -0.31547,4.83e-4 -0.4732,3.23e-4 -0.155482,-6.16e-4 -0.311154,-0.0012 -0.466324,-0.0122 -0.139745,-0.01244 -0.277247,-0.03591 -0.414622,-0.06406 -0.147319,-0.01025 -0.295873,-0.0066 -0.442039,-0.03125 -0.138555,-0.02452 -0.273227,-0.06783 -0.41406,-0.07879 -0.151239,-0.02347 -0.299367,-0.06307 -0.451847,-0.07835 -0.136283,-0.02169 -0.270949,-0.05977 -0.410273,-0.05054 -0.157787,1.59e-4 -0.315601,6.14e-4 -0.473374,-0.0023 -0.159562,-0.0042 -0.319429,-0.01074 -0.47722,-0.03655 -0.156336,-0.02619 -0.311656,-0.05524 -0.470737,-0.05879 -0.15798,-0.01756 -0.313232,-0.05111 -0.471133,-0.06793 -0.159916,-0.0096 -0.319059,-0.02671 -0.476556,-0.05683 -0.154984,-0.02176 -0.311029,-0.01356 -0.467179,-0.01439 -0.157603,1.54e-4 -0.315211,4.84e-4 -0.472817,1.54e-4 -0.158367,-6.15e-4 -0.316883,-0.0012 -0.474946,-0.01256 -0.159254,-0.01326 -0.316664,-0.03767 -0.474381,-0.06292 -0.15608,-0.0078 -0.312467,-0.0018 -0.468692,-0.0036 -0.15766,5.4e-5 -0.315321,1.41e-4 -0.472972,3.22e-4 -0.157572,1.6e-4 -0.315151,6.16e-4 -0.472725,-0.0012 -0.15224,-0.0023 -0.30494,-0.0053 -0.455955,-0.02683 -0.136489,-0.02164 -0.271265,-0.05953 -0.410737,-0.052 -0.159065,-0.0023 -0.318419,-0.0066 -0.476412,-0.02683 -0.155765,-0.02134 -0.310554,-0.05818 -0.468728,-0.05106 -0.15773,1.59e-4 -0.315455,4.83e-4 -0.473182,1.59e-4 -0.155418,-6.15e-4 -0.311005,-0.0012 -0.466094,-0.0125 -0.1397,-0.01261 -0.277088,-0.03668 -0.414779,-0.06288 -0.152534,-0.0079 -0.305471,-4.84e-4 -0.458146,-0.0046 -0.152254,-0.0023 -0.304967,-0.0058 -0.455964,-0.02725 -0.136199,-0.02176 -0.270752,-0.06 -0.409996,-0.05094 -0.157696,1.7e-5 -0.315386,5.2e-5 -0.473081,1.52e-4 -0.164621,1.19e-4 -0.329247,3.23e-4 -0.493876,-6.5e-5 -0.177738,-6.14e-4 -0.355719,-3.22e-4 -0.533164,-0.01171 -0.158507,-0.01344 -0.315214,-0.03756 -0.470772,-0.07103 -0.141443,-0.01634 -0.283655,-0.02741 -0.422477,-0.06122 -0.146205,-0.02357 -0.29447,-0.01037 -0.442013,-0.01326 -0.162602,9e-5 -0.325222,3.22e-4 -0.4878,-0.0029 -0.195976,-0.0046 -0.392007,-0.01326 -0.586907,-0.03554 -0.16721,-0.02063 -0.333011,-0.05248 -0.502468,-0.04045 -0.157296,1.41e-4 -0.314609,6.15e-4 -0.471883,-0.0023 -0.149804,-0.0042 -0.300143,-0.0095 -0.447893,-0.03678 -0.142357,-0.02729 -0.283115,-0.05359 -0.42918,-0.04764 -0.179622,-0.01001 -0.358606,-0.02735 -0.536315,-0.05589 -0.159108,-0.02016 -0.318673,-0.01463 -0.478803,-0.01709 -0.159544,-0.0042 -0.319464,-0.01062 -0.477106,-0.0375 -0.150015,-0.0266 -0.298879,-0.05731 -0.451317,-0.06705 -0.136189,-0.02164 -0.270567,-0.05959 -0.40971,-0.05329 -0.150028,-0.0042 -0.300565,-0.0098 -0.44857,-0.03672 -0.13874,-0.02623 -0.275653,-0.05158 -0.417975,-0.04173 -0.150159,-0.0042 -0.300977,-0.0093 -0.448832,-0.03814 -0.140202,-0.02924 -0.278893,-0.0608 -0.422803,-0.06621 -0.154013,-0.02187 -0.30602,-0.05907 -0.462043,-0.06365 -0.139793,-0.01256 -0.277299,-0.03637 -0.415047,-0.06282 -0.151397,-0.0083 -0.303312,-0.0012 -0.454732,-0.01086 -0.143633,-0.009 -0.286761,-0.02429 -0.426454,-0.06058 -0.138085,-0.02735 -0.279902,-0.02223 -0.418164,-0.05012 -0.139165,-0.02629 -0.276452,-0.05146 -0.419199,-0.04055 -0.159222,-0.0023 -0.318778,-0.0061 -0.476903,-0.02665 -0.153973,-0.02181 -0.305941,-0.05904 -0.461924,-0.06357 -0.139653,-0.01244 -0.277032,-0.03619 -0.414605,-0.0628 -0.153385,-0.0088 -0.307446,-0.0023 -0.460665,-0.01604 -0.161302,-0.01468 -0.320547,-0.0411 -0.477645,-0.08108 -0.153706,-0.02546 -0.307547,-0.05248 -0.462069,-0.0714 -0.145129,-0.0099 -0.289763,-0.0266 -0.429184,-0.07034 -0.145964,-0.03798 -0.29711,-0.04994 -0.44519,-0.07783 -0.16028,-0.01226 -0.321898,-0.01292 -0.480274,-0.0441 -0.163642,-0.03176 -0.326169,-0.06934 -0.489688,-0.101454 -0.134614,-0.04133 -0.268785,-0.08257 -0.405291,-0.117675 -0.144498,-0.03176 -0.288988,-0.06555 -0.435639,-0.08543 -0.146289,-0.02693 -0.287478,-0.07136 -0.431612,-0.107472 -0.125134,-0.03708 -0.252322,-0.06191 -0.377931,-0.0971 -0.12775,-0.03773 -0.261074,-0.05306 -0.387459,-0.09669 -0.144028,-0.03066 -0.287758,-0.06007 -0.426612,-0.110657 -0.119709,-0.03838 -0.234456,-0.09124 -0.350769,-0.138571 -0.122342,-0.05801 -0.253099,-0.0747 -0.38512,-0.09991 -0.135409,-0.03856 -0.265722,-0.09194 -0.396355,-0.144196 -0.13257,-0.04633 -0.262838,-0.101465 -0.400283,-0.13145 -0.159096,-0.03007 -0.317875,-0.06136 -0.461334,-0.141035 -0.116941,-0.05494 -0.233897,-0.110205 -0.351206,-0.164034 -0.136426,-0.04404 -0.280627,-0.06747 -0.404111,-0.145139 -0.106872,-0.0589 -0.204774,-0.126403 -0.329799,-0.14015 -0.141987,-0.04493 -0.278356,-0.106738 -0.416154,-0.16272 -0.12009,-0.05912 -0.24472,-0.105018 -0.372598,-0.144591 -0.130111,-0.04281 -0.239317,-0.117577 -0.358721,-0.18265 -0.133368,-0.06426 -0.267862,-0.126086 -0.401621,-0.189408 -0.108251,-0.06962 -0.206118,-0.155244 -0.322606,-0.212217 -0.101245,-0.05866 -0.205335,-0.112524 -0.301539,-0.179338 -0.0945,-0.06182 -0.179157,-0.139336 -0.285704,-0.181413 -0.108765,-0.04839 -0.206095,-0.109875 -0.303362,-0.17817 -0.09724,-0.05766 -0.190289,-0.121239 -0.288051,-0.178058 -0.101959,-0.06487 -0.174098,-0.163015 -0.284819,-0.215342 -0.126601,-0.07579 -0.234756,-0.167182 -0.341943,-0.268099 -0.09972,-0.079 -0.194764,-0.163811 -0.28685,-0.251564 -0.08145,-0.09638 -0.164739,-0.18821 -0.262746,-0.268565 -0.098,-0.09567 -0.170331,-0.213808 -0.275421,-0.303241 -0.09573,-0.103309 -0.190629,-0.207129 -0.283835,-0.312758 -0.08854,-0.09136 -0.170072,-0.190722 -0.2387,-0.297929 -0.07404,-0.0878 -0.148487,-0.174845 -0.211449,-0.271236 -0.06171,-0.09573 -0.152151,-0.171079 -0.201645,-0.275451 -0.05746,-0.103406 -0.08014,-0.219056 -0.138898,-0.320822 -0.07541,-0.09326 -0.149426,-0.18676 -0.198529,-0.297392 -0.04358,-0.111244 -0.100123,-0.217017 -0.147789,-0.326559 -0.04064,-0.112878 -0.119188,-0.204164 -0.160487,-0.317185 -0.03402,-0.114331 -0.07185,-0.228377 -0.116014,-0.338685 -0.06271,-0.108289 -0.113098,-0.218955 -0.141921,-0.341409 -0.04684,-0.113756 -0.08144,-0.231353 -0.138407,-0.340896 -0.03739,-0.120836 -0.08078,-0.238774 -0.111926,-0.361523 -0.03862,-0.120225 -0.05144,-0.248332 -0.113317,-0.361335 -0.03217,-0.12141 -0.09252,-0.231937 -0.118456,-0.355316 -0.03309,-0.117747 -0.03493,-0.244594 -0.103248,-0.350942 -0.058,-0.10935 -0.103345,-0.225476 -0.143571,-0.34237 -0.04615,-0.126997 -0.07482,-0.261596 -0.114197,-0.390752 -0.03845,-0.125473 -0.105786,-0.234838 -0.166209,-0.350618 -0.04337,-0.118943 -0.09796,-0.232909 -0.128826,-0.356477 -0.02129,-0.120311 -0.06759,-0.227946 -0.113378,-0.340318 -0.05174,-0.116809 -0.122646,-0.225917 -0.139817,-0.355628 -0.04301,-0.138808 -0.119127,-0.262971 -0.180898,-0.393861 -0.06811,-0.12086 -0.120055,-0.249875 -0.182654,-0.373531 -0.05842,-0.104859 -0.125318,-0.204802 -0.180372,-0.311466 -0.06153,-0.102076 -0.09148,-0.216487 -0.151679,-0.318754 -0.06463,-0.10055 -0.126657,-0.203255 -0.179573,-0.310516 -0.03823,-0.105555 -0.08518,-0.210843 -0.145661,-0.305153 -0.06964,-0.100379 -0.114232,-0.213011 -0.176097,-0.317969 -0.0554,-0.121983 -0.130791,-0.234961 -0.205436,-0.345818 -0.07347,-0.122813 -0.1651,-0.234341 -0.227114,-0.363721 -0.06676,-0.100679 -0.150087,-0.189108 -0.210122,-0.294436 -0.04954,-0.101111 -0.09333,-0.20282 -0.181869,-0.276953 -0.0823,-0.0959 -0.165453,-0.190758 -0.23805,-0.294494 -0.06631,-0.09674 -0.148975,-0.179933 -0.221359,-0.272001 -0.06391,-0.08861 -0.135006,-0.167318 -0.218595,-0.237928 -0.07948,-0.081 -0.137529,-0.179603 -0.219767,-0.258749 -0.07549,-0.08546 -0.141579,-0.178576 -0.202483,-0.274909 -0.07377,-0.08808 -0.147742,-0.175565 -0.210255,-0.272296 -0.05939,-0.09241 -0.145205,-0.164204 -0.20635,-0.255736 -0.07138,-0.08778 -0.151985,-0.169103 -0.206872,-0.26856 -0.0726,-0.09221 -0.158631,-0.171379 -0.2283639,-0.265168 -0.0622,-0.111206 -0.125503,-0.218797 -0.220609,-0.305914 -0.06807,-0.100916 -0.11112,-0.21451 -0.163107,-0.324158 -0.06093,-0.102919 -0.149756,-0.190298 -0.180876,-0.309485 -0.04507,-0.134339 -0.07001,-0.281605 -0.07382,-0.422765 -4e-6,-0.157584 0,-0.315162 -5.8e-5,-0.472747 -6.9e-5,-0.157697 -1.53e-4,-0.315397 -4.38e-4,-0.473094 -1.59e-4,-0.157089 -8.66e-4,-0.314186 0.0017,-0.471259 0.0035,-0.148145 0.0077,-0.297044 0.03537,-0.443052 0.03112,-0.144839 0.06444,-0.285772 0.07013,-0.434928 0.02524,-0.138926 0.06827,-0.271982 0.115941,-0.40439 0.289206,-0.471439 0.8581089,-0.804948 1.3330909,-0.576257 0.131129,0.06358 0.239248,0.153543 0.342246,0.256082 0.103638,0.06932 0.215232,0.124655 0.27431,0.241875 0.07694,0.10575 0.157041,0.207871 0.238252,0.310604 0.06919,0.109167 0.152174,0.205145 0.235299,0.304043 0.0658,0.09369 0.149212,0.165564 0.232322,0.243896 0.06838,0.08666 0.142413,0.16456 0.230225,0.232659 0.08031,0.07702 0.144485,0.167195 0.233228,0.2347 0.09066,0.07427 0.18929,0.139736 0.265195,0.230385 0.1016,0.08929 0.218397,0.147034 0.337333,0.210557 0.109741,0.07047 0.22194,0.125295 0.353784,0.138836 0.121471,0.03462 0.228198,0.09497 0.341404,0.1494 0.117894,0.05448 0.242316,0.06564 0.370733,0.07647 0.135343,0.02193 0.268411,0.06066 0.40662,0.05879 0.14384,0.0092 0.286907,0.02528 0.42746,0.05843 0.146437,0.02406 0.295117,0.01209 0.442977,0.0135 0.145144,-0.0029 0.292648,-0.0042 0.433424,-0.04351 0.03792,-0.01414 0.145745,-0.06999 0.110828,-0.04958 -0.316645,0.185493 -0.633744,0.370224 -0.95121,0.554303 -0.0162,0.0094 0.03129,-0.0207 0.04741,-0.03024 0.348628,-0.206325 0.715776,-0.383896 1.046838,-0.61736 0.299687,-0.211338 -0.634897,0.367149 -0.952346,0.550726 3.515616,-2.017189 -0.645097,0.383188 0.154992,-0.08267 0.350562,-0.204122 0.702046,-0.406684 1.050914,-0.613677 0.2974,-0.176455 -1.3249,0.791995 -0.897652,0.520052 0.350017,-0.206729 0.716648,-0.387606 1.050054,-0.62018 0.298585,-0.208277 -1.264382,0.722263 -0.945254,0.547077 0.357406,-0.196199 0.702108,-0.415019 1.060111,-0.610128 0.318624,-0.173647 -0.628068,0.363622 -0.941936,0.545726 -0.01914,0.01111 0.03845,-0.02183 0.05769,-0.03271 0.352503,-0.204206 0.704996,-0.408409 1.057484,-0.61261 0.03683,-0.01456 0.141796,-0.07008 0.107655,-0.05007 -1.681173,0.985504 -1.143199,0.699318 -0.810328,0.456616 0.350317,-0.20427 0.699203,-0.411021 1.050954,-0.612803 0.317606,-0.182196 -0.631957,0.370012 -0.94851,0.554037 -0.138863,0.08073 0.342461,-0.221773 0.202092,-0.147066 0.350721,-0.209181 0.70008,-0.420655 1.052157,-0.627537 0.04341,-0.0255 0.09166,-0.04168 0.137287,-0.06295 0.02283,-0.01062 0.09023,-0.04472 0.0685,-0.03196 -0.850989,0.500392 -1.271315,0.713683 -0.882602,0.515221 0.355119,-0.256036 0.841322,-0.482743 1.147504,-0.681949 0.307595,-0.200128 -0.633449,0.370701 -0.951476,0.553796 -0.0165,0.0095 0.03111,-0.02193 0.04669,-0.0329 0.351983,-0.201418 0.703963,-0.402839 1.055947,-0.60426 0.04649,-0.01291 0.07484,-0.01895 0.119092,-0.03862 0.01808,-0.008 0.06968,-0.03765 0.05259,-0.02763 -0.316645,0.185366 -0.633804,0.369861 -0.951311,0.553747 -0.01628,0.0094 0.03174,-0.02025 0.04763,-0.03037 0.349667,-0.204742 0.699339,-0.409485 1.049009,-0.614228 0.105652,-0.05611 0.218021,-0.09954 0.329791,-0.14174 0.113318,-0.04482 0.230874,-0.07849 0.341363,-0.130855 0.10923,-0.05065 0.209721,-0.120824 0.331826,-0.139167 0.122168,-0.03438 0.243744,-0.07154 0.364226,-0.110621 0.110302,-0.05153 0.22325,-0.0988 0.341322,-0.129552 0.121056,-0.03752 0.239495,-0.0814 0.363239,-0.110206 0.128873,-0.03533 0.263377,-0.04843 0.394032,-0.07637 0.147497,-0.0079 0.295826,-0.0073 0.442114,-0.03048 0.13949,-0.02342 0.277238,-0.06131 0.420183,-0.05056 0.1574,-1.5e-4 0.31482,-6.59e-4 0.472203,0.0022 0.150133,0.0039 0.300832,0.0094 0.448876,0.03679 0.136809,0.02671 0.272016,0.05398 0.412435,0.05174 0.138499,0.01306 0.274677,0.03675 0.408422,0.07579 0.135164,0.02099 0.270637,0.03891 0.402253,0.07803 0.158877,0.02672 0.318995,0.04867 0.468395,0.11333 0.15396,0.05655 0.313358,0.07693 0.472975,0.112255 0.140676,0.03463 0.291585,0.04854 0.413372,0.133697 0.113227,0.107238 0.118589,0.199634 -0.0291,0.273119 -2.435824,1.426511 -0.42893,0.250738 -0.09802,0.05866 0.0161,-0.0094 -0.03226,0.01899 -0.04668,0.03077 -0.106771,0.08713 0.02563,4.84e-4 -0.09182,0.0686 -0.350589,0.203251 -0.700655,0.407403 -1.050981,0.611103 0.317172,-0.184333 0.634024,-0.369211 0.951508,-0.552999 0.01637,-0.0095 -0.03177,0.02048 -0.04809,0.03002 -0.349934,0.20442 -0.699887,0.408818 -1.050646,0.611822 -0.05219,0.03022 -0.109888,0.04518 -0.163277,0.07282 -1.022511,0.502923 3.070886,-1.743022 -0.306241,0.167032 -0.102442,0.05689 -0.211195,0.102088 -0.313406,0.159565 2.466058,-1.427768 -0.01488,0.0095 -0.101417,0.05554 -0.323847,0.172134 0.634446,-0.368115 0.951446,-0.552557 0.08891,-0.05174 -0.219723,0.149225 -0.144585,0.08785 -0.09166,0.06663 -0.166526,0.153407 -0.263919,0.21331 -0.106103,0.04681 -0.17033,0.142344 -0.270717,0.197996 -0.09568,0.08299 0.01135,-0.0029 -0.09362,0.06052 -0.06271,0.03779 -0.105908,0.107579 -0.156957,0.158092 -0.09252,0.07499 -0.165657,0.175339 -0.238223,0.268911 -0.117223,0.128084 0.02866,-0.03673 -0.0862,0.112439 -0.05709,0.07414 -0.142734,0.120763 -0.191805,0.202607 -0.06704,0.08762 -0.153333,0.15795 -0.215005,0.250526 -0.0088,0.01793 -0.01751,0.03591 -0.02629,0.05383 -0.0105,0.01527 -0.02296,0.02935 -0.03129,0.04586 -0.03708,0.07325 -0.05617,0.149679 -0.134778,0.193139 -0.07873,0.112426 -0.1275,0.245431 -0.211959,0.355394 -0.08812,0.09989 -0.141385,0.21596 -0.204195,0.332512 -0.04668,0.136401 -0.135075,0.241304 -0.210146,0.362532 -0.06631,0.140215 -0.09225,0.297705 -0.15532,0.439933 -0.06856,0.134656 -0.156708,0.258659 -0.197418,0.406157 -0.03239,0.136042 -0.04755,0.274955 -0.09193,0.407738 -0.05182,0.107312 -0.109436,0.212758 -0.143257,0.327383 -0.0449,0.120091 -0.121605,0.22389 -0.10359,0.360309 -1.54e-4,0.158745 -1.45e-4,0.317579 -0.0077,0.476184 -0.0095,0.159654 -0.0262,0.318717 -0.05966,0.475365 -0.0266,0.153044 -0.007,0.310085 -0.0105,0.464863 0.0039,0.155692 0.01013,0.311756 0.0366,0.46556 0.02787,0.157979 0.05545,0.314055 0.05841,0.475034 0.01861,0.151329 0.0572,0.298149 0.07906,0.448504 0.01926,0.126793 0.06224,0.244854 0.09375,0.368339 0.03274,0.112622 0.09343,0.212064 0.139411,0.319401 0.05289,0.104053 0.09047,0.215813 0.147781,0.317674 0.07365,0.10038 0.14284,0.203309 0.213596,0.305524 0.07186,0.08991 0.131432,0.187137 0.224107,0.258785 0.08367,0.08021 0.150195,0.170648 0.217014,0.263943 0.09799,0.08468 0.181229,0.17962 0.255769,0.285868 0.07942,0.08373 0.169795,0.157141 0.240648,0.24865 0.07126,0.08597 0.190054,0.101111 0.273157,0.174786 0.108069,0.06311 0.224225,0.08163 0.349008,0.07382 0.157569,0 0.315136,0 0.472699,-6e-6 0.157568,0 0.315132,0 0.4727,0 0.157567,0 0.315135,0 0.472702,3.4e-5 0.157577,4.7e-5 0.315154,1.37e-4 0.47273,3.23e-4 0.157472,1.53e-4 0.314947,6.14e-4 0.472409,-0.0012 0.156779,-0.0023 0.313882,-0.0058 0.469607,-0.02594 0.156535,-0.02187 0.31144,-0.05819 0.470218,-0.05931 0.134785,-0.01037 0.269645,-0.0266 0.393753,-0.08423 0.113639,-0.04592 0.232103,-0.08255 0.347443,-0.123408 0.123773,-0.03538 0.253629,-0.04929 0.370837,-0.104237 0.432946,-0.247481 -1.130072,0.645854 -0.901588,0.5226 0.368161,-0.1986 0.793084,-0.498987 1.211085,-0.684658 0.117313,-0.04245 0.239871,-0.07113 0.357146,-0.114123 0.03823,-0.01431 0.147038,-0.07061 0.111804,-0.05 -2.019785,1.182541 -0.398905,0.221096 0.204002,-0.123957 0.124696,-0.05376 0.244387,-0.118322 0.372901,-0.163467 0.368821,-0.201058 0.169418,-0.09302 -0.898969,0.526867 -0.01615,0.0094 0.03234,-0.01893 0.04686,-0.03066 0.109717,-0.0886 -0.02796,0.0012 0.09257,-0.06806 0.351242,-0.202252 0.701853,-0.405596 1.052775,-0.608392 -0.317304,0.183854 -0.634524,0.367855 -0.951915,0.551567 -0.01641,0.0095 0.03261,-0.01946 0.04906,-0.02901 0.350888,-0.202931 0.701379,-0.406547 1.052925,-0.608327 0.05186,-0.02977 0.110273,-0.04363 0.160078,-0.07726 -0.316772,0.18523 -0.633018,0.371364 -0.950319,0.555678 -0.01624,0.0094 0.03252,-0.01916 0.04714,-0.03101 0.0457,-0.0372 0.08959,-0.07707 0.140132,-0.10857 0.01712,-0.01062 0.03665,-0.01674 0.05496,-0.02505 0.103,-0.07342 0.192608,-0.164227 0.298124,-0.234659 0.04371,-0.03591 0.08157,-0.07735 0.121733,-0.116881 0.01457,-0.01432 0.02194,-0.03631 0.03941,-0.04686 0.03441,-0.02075 2.604763,-1.515944 0.107443,-0.05458 0.124142,-0.07535 0.182154,-0.213001 0.286081,-0.311308 0.04103,-0.03142 0.08497,-0.05934 0.123673,-0.09363 0.07219,-0.06393 0.107342,-0.161085 0.200381,-0.20184 0.05357,-0.0481 0.117142,-0.08075 0.166359,-0.133543 0.03283,-0.0352 0.05623,-0.07858 0.08958,-0.113293 0.01532,-0.01598 0.03375,-0.02866 0.05062,-0.04298 0.350751,-0.204871 0.69606,-0.419345 1.052249,-0.614606 0.320099,-0.175484 -0.628889,0.370849 -0.943946,0.555233 -0.01782,0.0105 0.03607,-0.02045 0.05219,-0.03337 0.05517,-0.0441 0.08093,-0.110535 0.140753,-0.149648 0.03731,-0.02152 0.07771,-0.0375 0.113935,-0.06074 0.08404,-0.05389 0.109127,-0.149456 0.172713,-0.221321 0.106359,-0.09811 0.235264,-0.164616 0.319854,-0.285755 0.102233,-0.07862 0.211423,-0.154514 0.273016,-0.271077 0.08523,-0.100453 0.198415,-0.171728 0.28042,-0.275091 0.07167,-0.09083 0.164103,-0.1642 0.244304,-0.247313 0.09726,-0.121617 0.21533,-0.226654 0.318344,-0.343695 0.131613,-0.133326 0.249782,-0.280191 0.385529,-0.41022 0.09745,-0.10376 0.207907,-0.19465 0.286428,-0.31297 0.09411,-0.103442 0.229149,-0.160796 0.292757,-0.289788 0.09885,-0.119994 0.209501,-0.230505 0.296211,-0.360752 0.108312,-0.122547 0.219424,-0.240703 0.324317,-0.365845 0.113925,-0.10387 0.22706,-0.207258 0.316562,-0.333667 0.114918,-0.122383 0.210107,-0.254823 0.304024,-0.393708 0.101179,-0.108324 0.210027,-0.208295 0.298717,-0.326641 0.08596,-0.159848 0.1877,-0.207118 0.281143,-0.348517 0.07497,-0.09151 0.159126,-0.17089 0.231274,-0.263797 0.0996,-0.09998 0.154509,-0.234879 0.262435,-0.328078 0.04323,-0.06037 0.07885,-0.127229 0.122747,-0.186696 0.05513,-0.07468 0.04407,-0.04281 0.110067,-0.109754 0.02097,-0.02128 0.0392,-0.04522 0.05877,-0.0678 0.146415,-0.142156 0.250791,-0.319885 0.39355,-0.465986 0.115984,-0.140109 0.228154,-0.282519 0.352161,-0.415619 0.07719,-0.134038 0.199296,-0.227646 0.295197,-0.347752 0.08731,-0.120714 0.189926,-0.232243 0.288965,-0.3428 0.06626,-0.101123 0.114276,-0.212938 0.195258,-0.302599 0.03914,-0.06404 0.08125,-0.09801 0.131916,-0.150996 0.05517,-0.0577 0.04363,-0.06515 0.08933,-0.133477 0.01615,-0.0241 0.03524,-0.04606 0.05283,-0.0691 0.123356,-0.128749 0.227086,-0.268686 0.331159,-0.413228 0.117396,-0.129435 0.207798,-0.275493 0.314955,-0.412831 0.08256,-0.132224 0.195839,-0.239059 0.275162,-0.373026 0.07322,-0.09913 0.164529,-0.183538 0.227035,-0.291603 0.06665,-0.129276 0.173895,-0.226234 0.24409,-0.353651 0.04135,-0.08079 0.08202,-0.10935 0.143619,-0.171983 0.05665,-0.05764 0.05105,-0.0701 0.09615,-0.138717 0.01562,-0.02379 0.03344,-0.04608 0.05012,-0.06913 0.07792,-0.11909 0.150216,-0.241714 0.258704,-0.336539 0.07027,-0.116906 0.146297,-0.230793 0.249926,-0.321325 0.08064,-0.121776 0.168281,-0.241036 0.264788,-0.350886 0.0273,-0.04245 0.05076,-0.08736 0.07955,-0.12882 0.054,-0.07784 0.136804,-0.131848 0.175807,-0.221337 0.0635,-0.113854 0.176488,-0.178799 0.247189,-0.287678 0.06764,-0.141238 0.171633,-0.250272 0.268599,-0.370586 0.07097,-0.118102 0.145881,-0.226168 0.246499,-0.321975 0.08727,-0.128124 0.188637,-0.244768 0.257085,-0.385769 0.08136,-0.10647 0.160386,-0.210574 0.224836,-0.327903 0.09726,-0.09696 0.159701,-0.220993 0.244971,-0.328302 0.09982,-0.105152 0.1615,-0.238352 0.263962,-0.340894 0.07031,-0.110779 0.147285,-0.218099 0.253301,-0.297783 0.04055,-0.06046 0.06317,-0.127988 0.106588,-0.18665 0.06548,-0.0885 0.02906,-0.02632 0.103124,-0.103725 0.0165,-0.01728 0.02984,-0.0374 0.0447,-0.0561 0.07692,-0.106774 0.145634,-0.220999 0.245424,-0.308146 0.100469,-0.137224 0.182896,-0.286682 0.306015,-0.407602 0.09879,-0.121752 0.22667,-0.21778 0.315988,-0.348394 0.108947,-0.112011 0.214108,-0.225087 0.303536,-0.352877 0.04757,-0.03982 0.107013,-0.0765 0.15044,-0.120629 0.04939,-0.05022 0.03011,-0.04987 0.0686,-0.11145 0.01211,-0.01941 0.02787,-0.03632 0.04187,-0.05449 0.09799,-0.08326 0.226981,-0.128271 0.274092,-0.25977 0.079,-0.10061 0.197304,-0.137213 0.281823,-0.230804 0.05659,-0.110998 0.156494,-0.177721 0.238978,-0.268178 0.118458,-0.08884 0.22329,-0.195989 0.338949,-0.288639 0.100525,-0.09526 0.180828,-0.212223 0.303294,-0.281333 0.06201,-0.05868 0.08964,-0.120995 0.140649,-0.186784 0.04007,-0.05174 0.07494,-0.06158 0.124871,-0.102039 0.02264,-0.01833 0.04292,-0.03935 0.06436,-0.05904 0.123919,-0.09069 0.198977,-0.23119 0.321319,-0.326623 0.08891,-0.118724 0.226153,-0.180423 0.311573,-0.303004 0.09605,-0.120348 0.246489,-0.17753 0.332652,-0.310315 0.10803,-0.0904 0.198445,-0.199523 0.308143,-0.286191 0.130862,-0.135993 -0.04787,0.04381 0.0942,-0.08002 0.0793,-0.06913 0.118838,-0.178027 0.22135,-0.223654 0.13673,-0.12256 0.290366,-0.226418 0.420886,-0.356096 0.120807,-0.09181 0.214859,-0.21861 0.351698,-0.287811 0.111762,-0.0857 0.198986,-0.200916 0.323725,-0.2708 0.03366,-0.03005 0.07055,-0.05671 0.101324,-0.0897 0.0013,-0.0015 0.0755,-0.09957 0.0791,-0.101758 0.03559,-0.02153 2.602208,-1.510713 0.109033,-0.0608 0.120238,-0.07378 0.227381,-0.162412 0.333384,-0.254687 0.05335,-0.03499 0.0942,-0.08473 0.147518,-0.118309 0.05206,-0.0328 0.110865,-0.04777 0.145778,-0.105139 0.07318,-0.04751 0.137429,-0.106691 0.212363,-0.15154 0.01777,-0.01062 0.03985,-0.01324 0.057,-0.02486 0.01585,-0.01074 0.02676,-0.02739 0.04015,-0.0411 0.04404,-0.02571 0.05416,-0.02663 0.08785,-0.06653 0.01351,-0.01599 0.01791,-0.04069 0.03586,-0.05153 0.341316,-0.206478 0.760308,-0.488907 1.169655,-0.659771 0.376404,-0.197347 0.137979,-0.07345 -0.883436,0.518489 -0.01966,0.01147 0.03933,-0.02319 0.05765,-0.03669 0.242668,-0.17878 -0.136669,0.08328 0.120493,-0.08302 0.02094,-0.01355 0.04007,-0.02971 0.06014,-0.04458 0.363817,-0.237825 0.76065,-0.42298 1.12136,-0.665487 0.296456,-0.199308 -1.240999,0.708148 -0.927743,0.536445 0.362128,-0.198488 0.715749,-0.412117 1.074395,-0.616829 0.02471,-0.01411 0.100099,-0.05395 0.07557,-0.03956 -0.31084,0.182349 -0.623075,0.362329 -0.934607,0.543493 0.371923,-0.232744 0.76396,-0.432459 1.13438,-0.667591 0.299104,-0.189856 -1.230382,0.702893 -0.919995,0.532107 0.363505,-0.200016 0.718562,-0.415041 1.079417,-0.619823 0.05064,-0.02874 0.107201,-0.04619 0.157177,-0.07638 0.05194,-0.0259 0.204536,-0.109436 0.154389,-0.08028 -0.306858,0.178434 -1.232764,0.704378 -0.921864,0.533079 0.418988,-0.230857 0.783375,-0.519633 1.226028,-0.677358 0.395219,-0.178976 0.0647,-0.03188 -0.875625,0.515787 -0.01983,0.01159 0.04126,-0.02052 0.0607,-0.03284 0.144542,-0.09179 -0.03278,0.0078 0.108521,-0.07331 0.353561,-0.20275 0.707708,-0.404477 1.061554,-0.606714 0.13874,-0.05505 0.286116,-0.07469 0.426901,-0.122741 0.12513,-0.05688 0.239433,-0.135239 0.375566,-0.166208 0.146407,-0.05831 0.296057,-0.100185 0.452111,-0.124892 0.17159,-0.04702 0.331391,-0.123418 0.501151,-0.175852 0.144925,-0.04715 0.293491,-0.07936 0.437756,-0.128668 0.145569,-0.03471 0.292213,-0.06248 0.438137,-0.09486 0.15425,-0.04989 0.304962,-0.110072 0.463505,-0.146565 0.170813,-0.04305 0.340863,-0.09108 0.516143,-0.112634 0.164112,-0.01253 0.329676,-0.01536 0.491035,-0.05164 0.154259,-0.03513 0.305089,-0.08609 0.462577,-0.105787 0.156046,-0.0056 0.312253,-0.0012 0.468378,-0.0026 0.167894,9.8e-5 0.335784,3.21e-4 0.503671,6.45e-4 0.18354,1.55e-4 0.367082,-3.24e-4 0.550626,-1.58e-4 0.173825,8e-6 0.347645,-9.8e-4 0.521464,-0.0011 0.156488,1.46e-4 0.313074,-1.52e-4 0.469416,0.0075 0.143423,0.0092 0.286438,0.02438 0.42541,0.06292 0.134688,0.02947 0.273753,0.02871 0.408275,0.06061 0.142685,0.0285 0.285169,0.03216 0.430584,0.03138 0.159837,0.0066 0.319591,0.01794 0.477171,0.04694 0.155137,0.02578 0.309619,0.03432 0.466994,0.02729 0.158016,-3.21e-4 0.316045,-7.66e-4 0.474055,6.47e-4 0.162194,0.0026 0.324813,0.0062 0.485695,0.02901 0.155842,0.02452 0.307627,0.06749 0.464185,0.08718 0.154259,0.02463 0.307495,0.05149 0.464541,0.0476 0.142798,0.0094 0.285602,0.02479 0.42181,0.07159 0.127048,0.03814 0.259893,0.05427 0.384171,0.102785 0.13799,0.03542 0.273816,0.07429 0.407267,0.124446 0.136058,0.03027 0.277479,0.03 0.41097,0.07366 0.140666,0.04385 0.283075,0.07801 0.425462,0.115783 0.148289,0.0372 0.291374,0.08488 0.431997,0.145183 0.171125,0.05128 0.345164,0.09169 0.515082,0.147229 0.141554,0.03931 0.286858,0.06744 0.417891,0.137353 0.147711,0.05996 0.297461,0.117186 0.451874,0.15747 0.137361,0.03424 0.278278,0.06058 0.409022,0.115868 0.111291,0.05173 0.225366,0.09658 0.332468,0.156991 0.141688,0.05127 0.289244,0.08217 0.435447,0.117808 0.130535,0.04239 0.2552,0.100832 0.369265,0.177708 0.106386,0.06102 0.222735,0.09984 0.334482,0.149678 0.122313,0.05249 0.228483,0.126448 0.324722,0.218592 0.09132,0.07028 0.189022,0.132397 0.275136,0.208927 0.08092,0.07637 0.168496,0.145656 0.262711,0.205006 0.109057,0.07327 0.212042,0.15426 0.300472,0.252207 0.08787,0.08566 0.19813,0.147165 0.272999,0.246863 0.09631,0.09304 0.204892,0.164739 0.307125,0.250187 0.08451,0.09737 0.171346,0.18711 0.282703,0.255085 0.119359,0.08556 0.230252,0.182017 0.35538,0.259726 0.118957,0.108216 0.23602,0.218415 0.360092,0.320908 0.105006,0.08485 0.201127,0.177633 0.291532,0.277733 0.09278,0.08949 0.207715,0.15497 0.293779,0.252951 0.09641,0.0957 0.205947,0.176875 0.298923,0.276058 0.09343,0.106677 0.197863,0.200832 0.289884,0.30879 0.0924,0.111194 0.219735,0.187147 0.300796,0.309128 0.0744,0.09954 0.181712,0.168816 0.246399,0.277136 0.0566,0.109022 0.110473,0.214383 0.193165,0.30751 0.07222,0.100002 0.140961,0.203484 0.206464,0.307826 0.0628,0.100271 0.134948,0.188449 0.202984,0.284481 0.04511,0.114037 0.07639,0.232374 0.133626,0.341454 0.0398,0.117529 0.11676,0.216675 0.147904,0.337942 0.02831,0.139113 0.07811,0.272488 0.09552,0.413895 0.03419,0.133146 0.07632,0.263829 0.111328,0.396715 0.03898,0.134352 0.04912,0.276495 0.08012,0.413058 0,0.157568 0,0.315133 0,0.472699 0,0.157566 0,0.315133 0,0.4727 0,0.157565 0,0.31513 0,0.472698 0,0.157565 0,0.315131 0,0.472697 0,0.157565 0,0.315132 -4e-6,0.472695 0,0.157569 -4e-6,0.315135 4e-6,0.472704 1.8e-5,0.157627 4.5e-5,0.315253 1.58e-4,0.47288 1.59e-4,0.157692 4.4e-4,0.315385 4.4e-4,0.473077 -4.4e-4,0.15447 -2.5e-4,0.309127 -0.01123,0.463296 -0.01246,0.138596 -0.03437,0.275355 -0.0793,0.407617 -0.01304,0.158577 -0.03572,0.315677 -0.07134,0.470885 -0.0078,0.163275 -0.02107,0.327023 -0.06661,0.484857 -0.04439,0.15072 -0.08893,0.303989 -0.09369,0.462097 -0.01025,0.155769 -0.02638,0.312088 -0.07808,0.460471 -0.02304,0.06329 -0.03336,0.127494 -0.05454,0.191251 -0.01238,0.03726 -0.03393,0.07111 -0.04545,0.108631 -0.0067,0.02181 -0.0085,0.04483 -0.01259,0.06725 -0.03257,0.128715 -0.07552,0.25202 -0.09055,0.385003 -0.03897,0.143121 -0.04775,0.2887 -0.08438,0.432633 -0.04222,0.123543 -0.116479,0.232704 -0.146549,0.359619 -0.038,0.119065 -0.09603,0.228782 -0.121703,0.35245 -0.01628,0.142956 -0.04051,0.286853 -0.134586,0.401587 -0.08813,0.09241 -0.121117,0.212696 -0.15221,0.333716 -0.01496,0.03642 -0.03603,0.07032 -0.04958,0.107324 -0.03055,0.08332 -0.04257,0.173851 -0.10005,0.246317 -0.0589,0.176674 -0.136756,0.346362 -0.194846,0.523635 -0.05883,0.182157 -0.134544,0.357321 -0.222322,0.526978 -0.04581,0.164188 -0.106494,0.323552 -0.157655,0.486018 -0.05076,0.136131 -0.120958,0.264308 -0.17708,0.398665 -0.07675,0.167217 -0.107971,0.354207 -0.18919,0.520552 -0.05364,0.107568 -0.121068,0.20947 -0.17277,0.317538 -0.0507,0.10597 -0.07354,0.224579 -0.136049,0.325438 -0.08325,0.216397 -0.202804,0.416287 -0.272222,0.638367 -0.106849,0.226389 -0.211832,0.454729 -0.291029,0.692267 0,0 -1.054446,0.505124 -1.054446,0.505124 z"
       id="path15"
       inkscape:connector-curvature="0" />
    <ellipse
       style="fill:#d7e3f4;stroke-width:0.15598252"
       cx="58.706566"
       cy="78.580627"
       rx="2.0483596"
       ry="1.9301853"
       id="ellipse17" />
    <ellipse
       style="fill:#6f8a91;stroke-width:0.09114563"
       cx="58.745956"
       cy="78.629852"
       rx="1.181746"
       ry="1.1423545"
       id="ellipse19" />
    <ellipse
       style="fill:#d5f6ff;stroke-width:0.0330116"
       cx="59.287598"
       cy="78.122696"
       rx="0.43330684"
       ry="0.40868708"
       id="ellipse21" />
    <path
       style="fill:#0044aa;stroke-width:0.15598252"
       d="M 2.0999999e-6,95.336278 C 0.1921413,95.183675 0.3970864,95.048275 0.6001622,94.910895 0.7382743,94.809918 0.8829949,94.718192 1.0219205,94.61847 c 0.4729437,-0.318716 0.9833781,-0.583437 1.4775073,-0.863975 -0.06183,0.04522 0.2585641,-0.14458 0.1942596,-0.107839 -2.0268069,1.158099 -0.1410183,0.09698 0.412997,-0.239554 0.1814513,-0.101758 0.378621,-0.169764 0.5587553,-0.273705 0.2292374,-0.113501 0.4625265,-0.217016 0.6933209,-0.327395 0.1732715,-0.05923 0.3422641,-0.128578 0.5130204,-0.194378 0.1364968,-0.04275 0.2625654,-0.11062 0.3905221,-0.172753 0.059674,-0.03243 0.130081,-0.02747 0.1931573,-0.04522 0.059848,-0.0168 0.1153437,-0.04527 0.176716,-0.06069 0.1428262,-0.02841 0.2890134,-0.03055 0.4340999,-0.03314 0.1519406,-0.01123 0.309087,0.01969 0.4577721,-0.01674 0.1350398,-0.03867 0.2750652,-0.04964 0.4146429,-0.05695 0.1550845,-0.0061 0.310327,-0.0058 0.4655027,-0.0058 0.157713,1.53e-4 0.3154291,4.83e-4 0.4731428,4.83e-4 0.1576154,1.11e-4 0.3152273,1.17e-4 0.4728443,1.23e-4 0.16476,-3.22e-4 0.329522,3.22e-4 0.494282,6.16e-4 0.174852,4.6e-5 0.349702,-3.23e-4 0.524553,-4.84e-4 0.159535,-1.42e-4 0.319064,-1.59e-4 0.478598,-1.59e-4 0.1603549,1.23e-4 0.3207149,-3.23e-4 0.4810689,4.83e-4 0.181934,-0.0062 0.359414,-0.0018 0.538475,0.0296 0.17751,0.01886 0.350434,0.06032 0.526427,0.08836 0.188679,0.02789 0.379383,0.03519 0.569806,0.03891 0.194193,-0.01208 0.383044,0.0184 0.574541,0.04385 0.189888,0.0094 0.374294,0.04728 0.561429,0.07694 0.194333,0.0148 0.384781,0.04816 0.576934,0.07926 0.180432,0.01135 0.354928,0.0447 0.531732,0.0798 0.169626,0.02683 0.341527,0.03189 0.512897,0.03514 0.156462,-0.01408 0.30354,0.01492 0.455333,0.04551 0.133416,0.0094 0.25493,0.06362 0.385502,0.08837 0.14229,0.03579 0.293287,0.0546 0.431931,0.103773 0.129128,0.05118 0.26663,0.06474 0.403926,0.07314 0.130907,0.03348 0.259486,0.06175 0.386134,0.108021 0.12293,0.02581 0.233468,0.08249 0.356589,0.108386 0.141008,0.03761 0.290864,0.05589 0.428704,0.104676 0.128974,0.03072 0.250007,0.0818 0.376812,0.119005 0.12069,0.03779 0.234851,0.08278 0.361619,0.100867 0.131427,0.02087 0.256864,0.06328 0.390214,0.07966 0.139281,-0.0012 0.269123,0.04781 0.405146,0.0705 0.151933,0.01062 0.299933,0.02581 0.449662,0.0527 0.167106,0.01147 0.32354,0.07041 0.487008,0.101357 0.147306,0.02329 0.296799,0.02488 0.445575,0.02665 0.156691,0.0012 0.31339,3.23e-4 0.47008,6e-6 0.15765,-3.23e-4 0.315301,-3.23e-4 0.472954,-4.84e-4 0.144563,0.01598 0.279068,-0.03431 0.41994,-0.05618 0.140763,0.0012 0.269681,-0.03879 0.405007,-0.06855 0.02568,-0.0029 0.05179,-0.0036 0.07697,-0.0093 0.04777,-0.01098 0.09214,-0.03408 0.139752,-0.04558 0.08544,-0.0207 0.170178,-0.02882 0.25505,-0.05301 0.174902,-0.04651 0.3515,-0.08828 0.523912,-0.143275 0.167885,-0.08455 0.346541,-0.134261 0.53182,-0.160195 0.0994,-0.01013 0.203164,-0.0086 0.296998,-0.04881 0.03647,-0.01562 0.06793,-0.04115 0.103247,-0.05925 0.131656,-0.04429 0.259959,-0.09196 0.39725,-0.117443 0.102519,-0.02523 0.210643,-0.0098 0.313846,-0.02464 0.0444,-0.0063 0.08661,-0.0234 0.130032,-0.03466 0.145889,-0.0023 0.250936,-0.09176 0.378761,-0.144992 0.135786,-0.02481 0.263479,-0.07168 0.397171,-0.104078 0.14391,-0.02812 0.291054,-0.03035 0.437155,-0.03296 0.176229,-0.02422 0.346124,-0.07229 0.519383,-0.110926 0.128246,-0.07968 0.285142,-0.07679 0.419708,-0.133247 0.129186,-0.05122 0.268417,-0.06003 0.405647,-0.06718 0.156957,0.01025 0.306209,-0.02229 0.45955,-0.04816 0.147223,-0.0062 0.281188,-0.06432 0.425076,-0.08974 0.131406,-0.01893 0.255245,-0.07523 0.380498,-0.118822 0.148878,-0.04558 0.304809,-0.05418 0.459335,-0.06025 0.158161,-0.0042 0.316405,-0.0029 0.4746,-0.0029 0.149493,0.01804 0.286959,-0.01533 0.431211,-0.04481 0.144335,-0.02553 0.291221,-0.02907 0.437391,-0.03214 0.156845,-0.0023 0.313709,-0.0018 0.470562,-0.0012 0.157713,3.22e-4 0.315421,3.22e-4 0.473129,4.81e-4 0.15759,4.8e-5 0.31518,4.8e-5 0.472765,4.8e-5 0.157564,0 0.315128,0 0.472695,0 0.1605,1.3e-4 0.321004,-3.23e-4 0.481503,4.82e-4 0.177823,4.84e-4 0.355641,1.2e-5 0.533458,-1.56e-4 0.160812,-1.55e-4 0.321619,-1.55e-4 0.482425,-3e-4 0.157454,-2.3e-5 0.314912,-1.7e-5 0.472366,-1.7e-5 0.135864,0.0336 0.272585,0.05748 0.412009,0.0691 0.150437,0.0224 0.309558,0.0405 0.45446,0.08941 0.138248,0.04103 0.269308,0.09781 0.410834,0.127876 0.155276,0.01863 0.308009,0.02882 0.461389,0.05985 0.174198,0.01291 0.334223,0.06255 0.498685,0.117162 0.143603,0.07998 0.294417,0.13099 0.456514,0.153971 0.161136,0.01904 0.322719,0.05364 0.47021,0.122484 0.154311,0.06441 0.305326,0.134403 0.468464,0.173518 0.147307,0.02901 0.290207,0.0779 0.431778,0.127842 0.136703,0.02841 0.260368,0.09113 0.398186,0.114844 0.157308,0.03502 0.299072,0.111169 0.454854,0.150874 0.150374,0.05317 0.293977,0.119849 0.449609,0.156937 0.148066,0.01815 0.277471,0.09599 0.417246,0.141968 0.148466,0.02711 0.277765,0.105407 0.417294,0.157336 0.136287,0.02917 0.26908,0.05064 0.396383,0.110291 0.126064,0.05187 0.257615,0.09671 0.375933,0.16497 0.116423,0.05866 0.246543,0.08045 0.371577,0.115185 0.159012,0.03349 0.307881,0.101209 0.453511,0.171638 0.1559,0.06107 0.316553,0.113892 0.479141,0.154861 0.158438,0.01922 0.290203,0.10442 0.426375,0.179415 0.143581,0.06153 0.288909,0.117894 0.442298,0.149619 0.150085,0.05005 0.303588,0.07872 0.453227,0.129299 0.133437,0.04215 0.273691,0.04846 0.412444,0.05359 0.154956,0.0036 0.309974,0.0029 0.464961,0.0023 0.157714,-4.83e-4 0.315426,-6.14e-4 0.473139,-6.14e-4 0.157616,-8.3e-5 0.315236,-8.3e-5 0.472848,-8.3e-5 0.157568,0 0.315131,0 0.472699,6e-6 0.149405,0.01768 0.286744,-0.01598 0.430843,-0.04562 0.157488,-0.02193 0.309745,-0.06274 0.467792,-0.08488 0.182523,-0.02371 0.36674,-0.02452 0.550443,-0.02653 0.164089,-0.04233 0.340731,-0.03318 0.501257,-0.08593 0.149594,-0.02429 0.283405,-0.09201 0.431392,-0.123251 0.142706,-0.0046 0.274692,-0.04433 0.412571,-0.07443 0.09234,-0.02623 0.19124,-0.0122 0.284476,-0.02783 0.04241,-0.007 0.08233,-0.02488 0.123725,-0.0365 0.129419,-0.01775 0.242844,-0.07678 0.371124,-0.101355 0.148036,-0.02329 0.291033,-0.07243 0.433941,-0.117175 0.10254,-0.03938 0.214772,-0.03301 0.32035,-0.05412 0.04491,-0.009 0.08736,-0.02777 0.131341,-0.04069 0.132745,-0.03396 0.272414,-0.05934 0.397114,-0.117992 0.159609,-0.05448 0.319976,-0.108289 0.487419,-0.134652 0.158745,-0.05146 0.320899,-0.08609 0.481078,-0.131863 0.160298,-0.05843 0.311339,-0.136523 0.477378,-0.179355 0.151405,-0.0296 0.311492,-0.04575 0.453523,-0.108459 0.136862,-0.04357 0.273171,-0.09057 0.413125,-0.12421 0.137279,-0.03672 0.267193,-0.08498 0.409909,-0.103773 0.02437,-0.0023 0.04912,-0.0012 0.07301,-0.0063 0.04175,-0.0086 0.08029,-0.02889 0.121471,-0.03981 0.0669,-0.01775 0.130624,-0.02559 0.196062,-0.04916 0.138885,-0.08411 0.29532,-0.119616 0.454226,-0.140883 0.146465,0.0012 0.28219,-0.05022 0.425461,-0.07249 0.131307,-0.01662 0.254993,-0.07293 0.379736,-0.116295 0.143181,-0.02264 0.277019,-0.07165 0.416934,-0.106373 0.147554,-0.01321 0.288742,-0.05054 0.433767,-0.07829 0.146275,-0.0083 0.279547,-0.06594 0.422885,-0.09102 0.148658,-0.02087 0.29909,-0.022 0.448911,-0.02352 0.1573,-6.13e-4 0.314601,-1.58e-4 0.4719,9e-5 0.157678,3.22e-4 0.31536,3.22e-4 0.473038,3.22e-4 0.135944,0.0336 0.272726,0.05748 0.412225,0.06911 0.149571,0.0036 0.293736,0.007 0.439357,0.04156 0.145284,0.01614 0.275623,0.07112 0.406428,0.132092 0.123716,0.03761 0.236576,0.09805 0.363346,0.126263 0.143489,0.02429 0.282043,0.06937 0.417676,0.121178 0.147663,0.07818 0.314224,0.111438 0.473911,0.157637 0.0262,0.01196 0.05359,0.02134 0.07845,0.03572 0.04398,0.02545 0.08108,0.06149 0.123756,0.08914 0.05742,0.0372 0.122665,0.05424 0.184125,0.08404 0.130051,0.04227 0.257428,0.0928 0.389013,0.130711 0.133026,0.04611 0.260008,0.107313 0.393498,0.15179 0.108851,0.07269 0.230367,0.09828 0.358055,0.111987 0.137546,-0.0042 0.248921,0.07423 0.371598,0.121313 0.115856,0.03566 0.224707,0.09091 0.333757,0.143641 0.120117,0.02931 0.235351,0.07192 0.355,0.103577 0.135172,0.05106 0.269908,0.09484 0.396882,0.165129 0.150612,0.06104 0.310834,0.08444 0.465847,0.131539 0.117797,0.04699 0.256839,0.08059 0.370901,0.133508 0.114819,0.03862 0.21625,0.100964 0.334683,0.129539 0.131433,0.0105 0.252832,0.06022 0.38226,0.08286 0.115624,0.06392 0.249977,0.06507 0.371013,0.109095 0.124538,0.03927 0.250563,0.05848 0.37466,0.09894 0.129793,0.04374 0.268769,0.02971 0.399456,0.06477 0.130659,0.03218 0.260063,0.05129 0.388152,0.09237 0.131099,0.03839 0.268149,0.04398 0.403738,0.04893 0.155118,0.0042 0.310303,0.0029 0.465457,0.0029 0.15777,-3.23e-4 0.315534,-4.83e-4 0.473296,-6.15e-4 0.157621,-8.2e-5 0.315233,-8.2e-5 0.472852,-8.2e-5 0.157563,0 0.315131,0 0.472699,0 0.157564,5e-6 0.315128,5e-6 0.472695,5e-6 0.149405,0.01768 0.28674,-0.01598 0.43084,-0.04564 0.144334,-0.02565 0.291232,-0.02918 0.437411,-0.03225 0.156844,-0.0023 0.313711,-0.0018 0.470571,-0.0012 0.132486,-0.03914 0.268171,-0.05859 0.405502,-0.06928 0.147518,0.0023 0.285239,-0.04522 0.430843,-0.0639 0.167724,-0.0023 0.32853,-0.03792 0.492686,-0.06703 0.154026,-0.0596 0.315697,-0.08791 0.479261,-0.10376 0.158633,-0.01209 0.317839,-0.0116 0.476811,-0.01185 0.138779,-0.0042 0.27255,-0.04775 0.411549,-0.06316 0.138938,0.0029 0.266288,-0.04947 0.401996,-0.07129 0.141587,-0.05748 0.292822,-0.07802 0.443898,-0.09123 0.159692,0.0018 0.312741,-0.04316 0.470062,-0.06492 0.15321,-0.02913 0.313793,-4.84e-4 0.464211,-0.03981 0.1349,-0.03991 0.275211,-0.05046 0.414933,-0.05759 0.144994,-0.05118 0.304244,-0.04127 0.448109,-0.09093 0.08497,-0.04039 0.181917,-0.03478 0.270628,-0.05689 0.04064,-0.01013 0.07814,-0.03013 0.117821,-0.04343 0.152424,-0.01279 0.294859,-0.05866 0.442658,-0.09296 0.139851,-0.04457 0.29424,-0.05859 0.429754,-0.115161 0.0612,-0.0339 0.134124,-0.03283 0.198732,-0.05382 0.05986,-0.01946 0.113793,-0.0497 0.175552,-0.06694 0.0903,-0.02966 0.188049,-0.0161 0.279846,-0.03207 0.04227,-0.0075 0.08199,-0.02519 0.123277,-0.03678 0.135529,-0.03135 0.279078,-0.0543 0.404703,-0.115783 0.13134,-0.07114 0.264191,-0.120787 0.4118,-0.146222 0.158037,-0.0092 0.309281,-0.05401 0.46573,-0.07625 0.12309,-0.06744 0.269477,-0.05879 0.395776,-0.110389 0.08045,-0.04145 0.173627,-0.03489 0.25845,-0.05618 0.04007,-0.01013 0.07711,-0.03008 0.116344,-0.04321 0.13666,-0.03833 0.279292,-0.04315 0.420252,-0.04775 0.156365,-0.0036 0.312779,-0.0029 0.469171,-0.0023 0.157774,3.22e-4 0.315548,4.82e-4 0.47333,6.13e-4 0.168141,-0.0082 0.323427,0.06222 0.482096,0.106494 0.152034,0.051 0.314632,0.07438 0.464887,0.129618 0.151942,0.06317 0.30925,0.117663 0.454525,0.195992 0.135646,0.07787 0.290426,0.09409 0.430984,0.159754 0.148763,0.06872 0.308881,0.111487 0.456628,0.181419 0.129908,0.05837 0.270697,0.08253 0.407498,0.119884 0.162012,0.06455 0.32828,0.119835 0.497618,0.161747 0.160715,0.07356 0.339946,0.08083 0.505765,0.133124 0.133517,0.04344 0.270633,0.08161 0.398563,0.140109 0.126004,0.05264 0.259099,0.07465 0.388206,0.117883 0.130765,0.03077 0.260688,0.04398 0.389832,0.08135 0.145312,0.03331 0.276485,0.106713 0.417706,0.153114 0.123039,0.07358 0.256564,0.1063 0.397305,0.122045 0.127154,0.03949 0.254095,0.06753 0.378833,0.113378 0.128207,0.03626 0.239099,0.112927 0.363137,0.160873 0.13643,0.05772 0.285612,0.07816 0.423355,0.129947 0.101765,0.07459 0.216606,0.123828 0.329307,0.178343 0.117162,0.0382 0.234568,0.07794 0.347425,0.128331 0.124873,0.05052 0.242372,0.117492 0.36158,0.180139 0.119687,0.03366 0.236259,0.07636 0.356717,0.108398 0.133133,0.0444 0.259689,0.105006 0.392743,0.149171 0.109019,0.07267 0.230665,0.09839 0.358495,0.112159 0.124824,0.02831 0.226842,0.103406 0.349763,0.136886 0.106686,0.07296 0.237285,0.07386 0.353928,0.117258 0.132141,0.03679 0.241002,0.122077 0.365292,0.176061 0.118781,0.04055 0.231582,0.09608 0.344695,0.150344 0.114833,0.03296 0.199567,0.120666 0.305888,0.17019 0.110394,0.05022 0.216519,0.09249 0.337761,0.110424 0.131277,0.05664 0.258035,0.123645 0.390355,0.179238 0.111909,0.09191 0.254515,0.10553 0.383073,0.157 0.05865,0.02518 0.120751,0.03792 0.183043,0.04994 0,0 -0.962915,0.666404 -0.962915,0.666404 v 0 c -0.06444,-0.01744 -0.128283,-0.03619 -0.190503,-0.06055 -0.135457,-0.04091 -0.264979,-0.08995 -0.386068,-0.16486 -0.124067,-0.05571 -0.245763,-0.122748 -0.377414,-0.157382 -0.125903,-0.03024 -0.241885,-0.0823 -0.358323,-0.138283 -0.09957,-0.05871 -0.193069,-0.127989 -0.303419,-0.166839 -0.111961,-0.05541 -0.228668,-0.100612 -0.34328,-0.150174 -0.116076,-0.06007 -0.227991,-0.129752 -0.356395,-0.161812 -0.12222,-0.02971 -0.241168,-0.0641 -0.355026,-0.118724 -0.112103,-0.04263 -0.215843,-0.107434 -0.337434,-0.121154 -0.131725,-0.02458 -0.253418,-0.06937 -0.372232,-0.131372 -0.128601,-0.05076 -0.25669,-0.102247 -0.389076,-0.14273 -0.124447,-0.03991 -0.253221,-0.06994 -0.370469,-0.128542 -0.114511,-0.06317 -0.232027,-0.122536 -0.35387,-0.170094 -0.118507,-0.04327 -0.237117,-0.0869 -0.353539,-0.135123 -0.106446,-0.05489 -0.214033,-0.107019 -0.318371,-0.165425 -0.144706,-0.04073 -0.289459,-0.08063 -0.428972,-0.137658 -0.118735,-0.05458 -0.233899,-0.118334 -0.360321,-0.154507 -0.118649,-0.0411 -0.242749,-0.06629 -0.364593,-0.09575 -0.143824,-0.02701 -0.277562,-0.07678 -0.408957,-0.14106 -0.136962,-0.05182 -0.270756,-0.113708 -0.414801,-0.144426 -0.130274,-0.0329 -0.266451,-0.03861 -0.393257,-0.08639 -0.130779,-0.04197 -0.267942,-0.0638 -0.392138,-0.125573 -0.12882,-0.0464 -0.257533,-0.09343 -0.389996,-0.128591 -0.169295,-0.03867 -0.338282,-0.07636 -0.502512,-0.134226 -0.168747,-0.04782 -0.334622,-0.104309 -0.500613,-0.160708 -0.141132,-0.03862 -0.286142,-0.06546 -0.41718,-0.134044 -0.151344,-0.06063 -0.304905,-0.115869 -0.454793,-0.180253 -0.146129,-0.05348 -0.301126,-0.08355 -0.435209,-0.167285 -0.144722,-0.06865 -0.29511,-0.126011 -0.445941,-0.179652 -0.153959,-0.04233 -0.308056,-0.08377 -0.461657,-0.127511 -0.151716,-0.04575 -0.302547,-0.09204 -0.463534,-0.07928 -0.157774,-1.55e-4 -0.315549,-4.83e-4 -0.473322,-6.15e-4 -0.155379,7.7e-5 -0.31087,-4.82e-4 -0.466082,0.0077 -0.137102,0.0096 -0.273876,0.02554 -0.404034,0.07254 -0.124187,0.03626 -0.254163,0.05118 -0.375874,0.09754 -0.136238,0.02605 -0.267341,0.06841 -0.402693,0.0973 -0.153986,0.02807 -0.307477,0.05759 -0.461942,0.08245 -0.1401,0.03981 -0.266718,0.108093 -0.402508,0.159566 -0.137314,0.0382 -0.274352,0.07606 -0.413938,0.105237 -0.132231,0.02824 -0.270438,0.0266 -0.398278,0.07563 -0.122949,0.04551 -0.249268,0.07796 -0.373589,0.119663 -0.145648,0.03356 -0.288581,0.07635 -0.434407,0.109009 -0.1457,0.0385 -0.295005,0.05624 -0.43946,0.09918 -0.128942,0.03708 -0.263636,0.05248 -0.39178,0.09393 -0.153478,0.02393 -0.305714,0.05524 -0.45966,0.07492 -0.13817,0.01304 -0.273543,0.03891 -0.409566,0.06574 -0.154619,0.0096 -0.310093,0.01184 -0.463154,0.03862 -0.157129,0.02665 -0.313406,0.0543 -0.473006,0.06153 -0.149721,0.02145 -0.293706,0.06225 -0.439994,0.09927 -0.134338,0.03008 -0.267389,0.05825 -0.405387,0.06612 -0.139288,0.02306 -0.276887,0.0602 -0.419521,0.04989 -0.156338,0.0012 -0.313168,0.0029 -0.468485,0.02287 -0.161354,0.02464 -0.316482,0.07112 -0.474968,0.108716 -0.164169,0.03049 -0.329263,0.04433 -0.494819,0.06472 -0.144779,0.02611 -0.287407,0.05789 -0.435451,0.06006 -0.137695,0.0178 -0.272686,0.05543 -0.411751,0.05883 -0.156211,1.4e-5 -0.312464,-3.21e-4 -0.468609,0.0046 -0.143299,0.0064 -0.286736,0.01668 -0.426981,0.04881 -0.146776,0.02918 -0.293814,0.02954 -0.443201,0.02577 -0.157563,0 -0.315131,0 -0.472695,-7e-6 -0.157563,0 -0.315127,-5e-6 -0.472695,0 -0.157593,1.2e-5 -0.315193,2.5e-5 -0.472787,1.54e-4 -0.157774,1.54e-4 -0.315547,4.83e-4 -0.473318,6.15e-4 -0.156536,-7.7e-5 -0.313183,4.82e-4 -0.469565,-0.0075 -0.14269,-0.0096 -0.28527,-0.02529 -0.421626,-0.07112 -0.12517,-0.03596 -0.255496,-0.04947 -0.381323,-0.08354 -0.136946,-0.01746 -0.275655,-0.02729 -0.406845,-0.07435 -0.123515,-0.03696 -0.252631,-0.05218 -0.37389,-0.09791 -0.123387,-0.02818 -0.244383,-0.0611 -0.364532,-0.100709 -0.129667,-0.03019 -0.257808,-0.06556 -0.388513,-0.09093 -0.116137,-0.04039 -0.224957,-0.09818 -0.341253,-0.138582 -0.121628,-0.0408 -0.239647,-0.09071 -0.363088,-0.125713 -0.160179,-0.04746 -0.328227,-0.07106 -0.478159,-0.149072 -0.124664,-0.05879 -0.25417,-0.103992 -0.385409,-0.145834 -0.12276,-0.03879 -0.249316,-0.06698 -0.36688,-0.119921 -0.106738,-0.05293 -0.218089,-0.0963 -0.329676,-0.137864 -0.114209,-0.05122 -0.226195,-0.0949 -0.353888,-0.09822 -0.131657,-0.02452 -0.253294,-0.06923 -0.37195,-0.131418 -0.129497,-0.05146 -0.258458,-0.103725 -0.390905,-0.147504 -0.132701,-0.04611 -0.267794,-0.0862 -0.396162,-0.1435 -0.131011,-0.05753 -0.24265,-0.14307 -0.374658,-0.196017 -0.162496,-0.04846 -0.328239,-0.08775 -0.481348,-0.162913 -0.133807,-0.04922 -0.273164,-0.07962 -0.411887,-0.111768 -0.127176,-0.04008 -0.249216,-0.0953 -0.373793,-0.142563 -0.125217,-0.05642 -0.256422,-0.08768 -0.391756,-0.110022 -0.142786,-0.02481 -0.288205,-0.01456 -0.431952,-0.03248 -0.135467,-0.01675 -0.268119,-0.05118 -0.404261,-0.05998 -0.157704,-7.7e-5 -0.315412,-1.54e-4 -0.47311,-4.84e-4 -0.156901,-1.58e-4 -0.313819,-0.0012 -0.470703,0.0018 -0.146305,0.0042 -0.293578,0.0093 -0.436842,0.04209 -0.139973,0.03478 -0.278682,0.07072 -0.422083,0.08954 -0.143208,0.0313 -0.288539,0.04893 -0.430438,0.08554 -0.136348,0.04133 -0.276861,0.0644 -0.411115,0.11267 -0.127101,0.04616 -0.25719,0.08431 -0.391575,0.101796 -0.140932,0.03 -0.281009,0.05702 -0.424705,0.07057 -0.155698,0.03378 -0.298949,0.09618 -0.447472,0.151878 -0.132612,0.02995 -0.262793,0.0701 -0.398299,0.08544 -0.136273,0.03059 -0.265815,0.08308 -0.402697,0.111645 -0.136967,0.04186 -0.27451,0.08167 -0.409368,0.130023 -0.151296,0.03668 -0.30409,0.06618 -0.454692,0.105017 -0.160425,0.05678 -0.314065,0.132036 -0.478616,0.177535 -0.160394,0.04527 -0.323593,0.08097 -0.484795,0.123125 -0.162799,0.03997 -0.322258,0.09284 -0.479238,0.151536 -0.134649,0.03785 -0.267443,0.08019 -0.404355,0.109533 -0.148308,0.03549 -0.30284,0.04358 -0.446947,0.09758 -0.144734,0.04539 -0.29234,0.08078 -0.440532,0.112768 -0.123178,0.03702 -0.243827,0.07969 -0.371271,0.101173 -0.13518,0.02783 -0.275108,0.02565 -0.408762,0.06335 -0.135829,0.03348 -0.274446,0.04298 -0.41032,0.07601 -0.143493,0.04351 -0.284146,0.0952 -0.432616,0.120946 -0.17058,0.02481 -0.341323,0.05329 -0.513397,0.06401 -0.180903,0.0036 -0.362272,0.01025 -0.54109,0.04027 -0.156505,0.02807 -0.310838,0.06613 -0.467954,0.09104 -0.146772,0.02913 -0.293815,0.02955 -0.443194,0.02577 -0.157563,-6e-6 -0.315131,-6e-6 -0.472699,0 -0.15759,7e-6 -0.315184,1.8e-5 -0.472782,1.53e-4 -0.157713,1.59e-4 -0.315425,4.83e-4 -0.473134,6.14e-4 -0.156405,3e-5 -0.312937,6.15e-4 -0.469183,-0.0075 -0.146333,-0.01037 -0.292336,-0.02783 -0.431049,-0.07858 -0.146741,-0.04769 -0.299073,-0.07564 -0.446265,-0.122264 -0.158403,-0.04328 -0.313411,-0.101518 -0.459984,-0.175707 -0.129607,-0.07226 -0.263055,-0.130216 -0.410352,-0.15661 -0.165618,-0.04899 -0.332125,-0.09887 -0.489367,-0.170961 -0.14446,-0.06282 -0.289563,-0.123414 -0.444708,-0.155197 -0.131894,-0.03696 -0.268238,-0.06201 -0.386959,-0.134556 -0.12133,-0.05624 -0.243813,-0.109479 -0.369083,-0.156353 -0.130226,-0.04492 -0.267017,-0.06055 -0.395803,-0.109849 -0.135575,-0.05866 -0.27029,-0.117258 -0.414156,-0.153763 -0.134979,-0.05177 -0.267508,-0.110545 -0.411216,-0.135081 -0.152912,-0.04633 -0.298401,-0.112684 -0.451695,-0.15811 -0.149935,-0.04887 -0.293371,-0.117396 -0.450022,-0.144484 -0.137396,-0.03572 -0.269426,-0.08929 -0.406577,-0.126392 -0.139542,-0.04857 -0.282636,-0.08708 -0.426155,-0.121946 -0.163128,-0.05035 -0.318414,-0.121145 -0.47621,-0.18584 -0.147517,-0.0527 -0.302711,-0.078 -0.457289,-0.101173 -0.162296,-0.03566 -0.311815,-0.100306 -0.462724,-0.16872 -0.16129,-0.05122 -0.325257,-0.07751 -0.4923,-0.103163 -0.154719,-0.02635 -0.312985,-0.0257 -0.465703,-0.06483 -0.139583,-0.03856 -0.273916,-0.09295 -0.413744,-0.13096 -0.145968,-0.03243 -0.293613,-0.06151 -0.442869,-0.07285 -0.135387,-0.01673 -0.267972,-0.05118 -0.404035,-0.05992 -0.157446,0 -0.314886,6e-6 -0.472331,-1.1e-5 -0.160583,-2.4e-5 -0.321161,-7.2e-5 -0.481744,-3.23e-4 -0.177643,-1.53e-4 -0.35529,-6.15e-4 -0.532931,-1.53e-4 -0.160913,6.15e-4 -0.321825,3.21e-4 -0.482737,4.83e-4 -0.157568,0 -0.315131,4e-6 -0.472699,0 -0.157595,-6e-6 -0.315193,-1.2e-5 -0.472792,-1.02e-4 -0.157708,-1.04e-4 -0.31542,-3.22e-4 -0.473133,-4.81e-4 -0.156204,1.2e-5 -0.312463,-3.24e-4 -0.4686,0.0046 -0.143313,0.0063 -0.286753,0.01668 -0.427047,0.04858 -0.146929,0.02894 -0.294065,0.02894 -0.443544,0.02494 -0.156887,6e-6 -0.313923,-6.15e-4 -0.47061,0.0086 -0.149843,0.01171 -0.299322,0.0313 -0.440028,0.08743 -0.12697,0.04652 -0.25679,0.08536 -0.390523,0.106653 -0.141202,0.03502 -0.281083,0.07087 -0.42652,0.08483 -0.154925,0.02629 -0.309723,0.03443 -0.46662,0.0405 -0.13393,0.01427 -0.26419,0.04133 -0.390637,0.08893 -0.144037,0.03161 -0.280705,0.08257 -0.421956,0.123708 -0.176079,0.04245 -0.353634,0.08356 -0.535073,0.09381 -0.141978,0.0062 -0.285045,0.01463 -0.421894,0.05625 -0.128583,0.03955 -0.262926,0.06054 -0.384886,0.119066 -0.125833,0.06437 -0.253824,0.104933 -0.394421,0.125048 -0.146474,0.02677 -0.297436,0.02058 -0.442179,0.05944 -0.131024,0.03637 -0.260271,0.08229 -0.384053,0.138525 -0.132617,0.05647 -0.275097,0.06013 -0.416106,0.08118 -0.180336,0.0382 -0.349166,0.106959 -0.522161,0.169123 -0.176001,0.04687 -0.35004,0.100636 -0.528003,0.14004 -0.159582,0.03324 -0.316215,0.07636 -0.475859,0.109045 -0.134882,0.03271 -0.271606,0.04169 -0.408472,0.06334 -0.142853,0.02813 -0.284103,0.05022 -0.430623,0.03885 -0.157622,9e-5 -0.315242,3.24e-4 -0.472858,6.15e-4 -0.157256,3.23e-4 -0.31453,0.0012 -0.471765,-0.0018 -0.153715,-0.0042 -0.30817,-0.01087 -0.458834,-0.0444 -0.159934,-0.03773 -0.317708,-0.08328 -0.482192,-0.09834 -0.150831,-0.02324 -0.303734,-0.02429 -0.453854,-0.05288 -0.133574,-0.02818 -0.265568,-0.05927 -0.40249,-0.0672 -0.131871,-0.02375 -0.259262,-0.06586 -0.392467,-0.08244 -0.126993,-0.02814 -0.245803,-0.07807 -0.370833,-0.113032 -0.123865,-0.04327 -0.24896,-0.08036 -0.374661,-0.118017 -0.141768,-0.03479 -0.28415,-0.06718 -0.426467,-0.09968 -0.12202,-0.03579 -0.240043,-0.08375 -0.362974,-0.116846 -0.118919,-0.04027 -0.243878,-0.06452 -0.367529,-0.08467 -0.143018,-0.0152 -0.283071,-0.04291 -0.418395,-0.09303 -0.1418,-0.03479 -0.284262,-0.0675 -0.427469,-0.0959 -0.127553,-0.0319 -0.252625,-0.07168 -0.383973,-0.08653 -0.146346,-0.02889 -0.292592,-0.03189 -0.441654,-0.03106 -0.175922,-0.0066 -0.352322,-0.01675 -0.525401,-0.05106 -0.174559,-0.03656 -0.350541,-0.05335 -0.527015,-0.07792 -0.191586,-0.03278 -0.384119,-0.05242 -0.576534,-0.07916 -0.185674,-0.0313 -0.371637,-0.05507 -0.558971,-0.07431 -0.189372,-0.02494 -0.378192,-0.03661 -0.569384,-0.03284 -0.193096,-0.0075 -0.386147,-0.021 -0.57689,-0.05342 -0.175694,-0.03077 -0.35126,-0.06074 -0.5279459,-0.08551 -0.17511,-0.02323 -0.351401,-0.01439 -0.527678,-0.01527 -0.160763,6.14e-4 -0.321526,3.22e-4 -0.482288,4.82e-4 -0.159372,-1.8e-5 -0.31874,-4e-5 -0.478111,-1.58e-4 -0.174448,-1.53e-4 -0.348899,-4.84e-4 -0.5233472,-4.84e-4 -0.1653262,3.23e-4 -0.330658,0.0012 -0.4959906,6.15e-4 -0.1576288,-2.5e-5 -0.3152575,-5.8e-5 -0.4728871,-1.59e-4 -0.1576476,-1.53e-4 -0.3152984,-4.83e-4 -0.4729453,-1.53e-4 -0.1538107,6.14e-4 -0.3078197,0.0012 -0.461274,0.01291 -0.1384109,0.01308 -0.2740832,0.03932 -0.4109184,0.06291 -0.1546226,0.0053 -0.3094293,4.83e-4 -0.4640701,0.0066 -0.1407767,0.0062 -0.2828995,0.01439 -0.4179967,0.05806 -0.1196157,0.03997 -0.2450588,0.06287 -0.3572902,0.1222 -0.1267018,0.06388 -0.2611704,0.112231 -0.3935691,0.162854 -0.1675252,0.06811 -0.3408677,0.121483 -0.5046054,0.198634 -0.2288346,0.111865 -0.4667521,0.204271 -0.6888316,0.329824 -0.1859508,0.09188 -0.3783441,0.171345 -0.557119,0.277268 -0.4048298,0.221696 -0.09601,0.0537 0.7808357,-0.457914 0.03564,-0.02081 -0.071901,0.04062 -0.1075564,0.0614 -0.4254362,0.248196 -0.8438099,0.516708 -1.2849967,0.739242 1.6977309,-0.987569 0.8961377,-0.535875 0.520168,-0.290106 -0.1463721,0.09246 -0.2876216,0.194377 -0.4275636,0.296845 -0.2053274,0.127829 -0.4017765,0.270103 -0.5989659,0.409979 0,0 -1.0848225,0.437868 -1.0848225,0.437868 z"
       id="path23"
       inkscape:connector-curvature="0" />
  </g>
</svg>

